<?xml version="1.0" encoding="utf-8"?>
<!-- Generator: Adobe Illustrator 22.0.1, SVG Export Plug-In . SVG Version: 6.00 Build 0)  -->
<svg version="1.1" xmlns="http://www.w3.org/2000/svg" xmlns:xlink="http://www.w3.org/1999/xlink" x="0px" y="0px"
	 viewBox="0 0 260 260" style="enable-background:new 0 0 260 260;" xml:space="preserve">
<style type="text/css">
	.st0{fill:#303640;}
	.st1{fill:#010101;}
	.st2{fill:#030303;}
	.st3{fill:#2E2E2E;}
	.st4{fill:#393939;}
	.st5{fill:#3A3A3A;}
	.st6{fill:#383838;}
	.st7{fill:#040404;}
	.st8{fill:#3B3B3B;}
	.st9{fill:#515151;}
	.st10{fill:#333333;}
	.st11{fill:#4D4D4D;}
	.st12{fill:#404040;}
	.st13{fill:#494949;}
	.st14{fill:#191919;}
	.st15{fill:#2F2F2F;}
	.st16{fill:#070707;}
	.st17{fill:#0B0B0B;}
	.st18{fill:#252525;}
	.st19{fill:#0E0E0E;}
	.st20{fill:#313131;}
	.st21{fill:#3F4754;}
	.st22{fill:#FFFFFF;}
	.st23{fill:#444444;}
	.st24{fill:#161616;}
	.st25{fill:#2D2D2D;}
	.st26{fill:#545454;}
	.st27{fill:#424242;}
	.st28{fill:#4F4F4F;}
	.st29{fill-rule:evenodd;clip-rule:evenodd;fill:url(#SVGID_1_);}
	.st30{fill-rule:evenodd;clip-rule:evenodd;}
	.st31{fill-rule:evenodd;clip-rule:evenodd;fill:url(#SVGID_2_);}
	.st32{fill-rule:evenodd;clip-rule:evenodd;fill:url(#SVGID_3_);}
	.st33{fill-rule:evenodd;clip-rule:evenodd;fill:url(#SVGID_4_);}
	.st34{fill-rule:evenodd;clip-rule:evenodd;fill:url(#SVGID_5_);}
	.st35{fill-rule:evenodd;clip-rule:evenodd;fill:url(#SVGID_6_);}
	.st36{fill-rule:evenodd;clip-rule:evenodd;fill:#FFFFFF;}
	.st37{fill-rule:evenodd;clip-rule:evenodd;fill:url(#SVGID_7_);}
	.st38{fill-rule:evenodd;clip-rule:evenodd;fill:url(#SVGID_8_);}
	.st39{fill-rule:evenodd;clip-rule:evenodd;fill:url(#SVGID_9_);}
	.st40{fill-rule:evenodd;clip-rule:evenodd;fill:url(#SVGID_10_);}
	.st41{fill-rule:evenodd;clip-rule:evenodd;fill:url(#SVGID_11_);}
	.st42{fill-rule:evenodd;clip-rule:evenodd;fill:url(#SVGID_12_);}
	.st43{fill-rule:evenodd;clip-rule:evenodd;fill:url(#SVGID_13_);}
	.st44{fill:#282828;}
</style>
<g id="Layer_1">
</g>
<g id="MlSdev_x5F_Video">
</g>
<g id="MlSdev_x5F_Home_x5F_page_x5F_v6">
	<path id="alpine" class="st0" d="M115.7,120.1c4.5-4.7,5.1-5.2,12-5.2v22.7h-5.5l0-16.5l-15.8,16.5H99
		C99,137.5,112.8,123.1,115.7,120.1L115.7,120.1z M129.3,114.8h5.5v17.8l12.3,0l0,4.9h-17.8L129.3,114.8L129.3,114.8z M164.3,114.8
		l-16.1,0v22.7h5.5l0-7.4h10.6c3.2,0,5.7-2.6,5.7-5.8v-3.6C170,117.4,167.5,114.9,164.3,114.8L164.3,114.8L164.3,114.8z
		 M164.8,123.4c0,0.9-0.7,1.6-1.6,1.6c0,0,0,0,0,0h-9.5v-5.2h9.5c0.9,0,1.6,0.7,1.6,1.6c0,0,0,0,0,0V123.4L164.8,123.4L164.8,123.4z
		 M171.1,114.8h5.5v22.7l-5.5,0V114.8L171.1,114.8z M178,114.8c6,0,6.8,0.9,9.4,4c0.2,0.3,8.2,10.6,8.2,10.6v-14.5h5.4v22.7h-6
		l-11.6-15.1v15.1H178C178,137.5,178,114.8,178,114.8L178,114.8L178,114.8z M202.2,120.9c0-4.3,1.8-6.1,6-6.1H223l0,4.8h-15.3v4.1
		h13.4v4.5l-13.4,0v4.3h15.4l0,4.9h-20.9V120.9L202.2,120.9z M62.8,114.8h6L47,137.5h-6.1L62.8,114.8L62.8,114.8z M74.4,114.8h6
		l-21.8,22.7h-6.1L74.4,114.8L74.4,114.8z M85.9,114.8h6l-21.8,22.7H64L85.9,114.8L85.9,114.8z M97.4,114.8h6l-21.8,22.7h-6.1
		L97.4,114.8L97.4,114.8z M108.9,114.8h6l-21.8,22.7h-6.1L108.9,114.8L108.9,114.8z"/>
</g>
<g id="MlSdev_x5F_Careers_x5F_v2">
</g>
<g id="MlSdev_x5F_technology">
</g>
<g id="Layer_2">
</g>
</svg>
