<?xml version="1.0" encoding="utf-8"?>
<!-- Generator: Adobe Illustrator 22.0.1, SVG Export Plug-In . SVG Version: 6.00 Build 0)  -->
<svg version="1.1" xmlns="http://www.w3.org/2000/svg" xmlns:xlink="http://www.w3.org/1999/xlink" x="0px" y="0px"
	 viewBox="0 0 260 260" style="enable-background:new 0 0 260 260;" xml:space="preserve">
<style type="text/css">
	.st0{fill:#303640;}
	.st1{fill:#010101;}
	.st2{fill:#030303;}
	.st3{fill:#2E2E2E;}
	.st4{fill:#393939;}
	.st5{fill:#3A3A3A;}
	.st6{fill:#383838;}
	.st7{fill:#040404;}
	.st8{fill:#3B3B3B;}
	.st9{fill:#515151;}
	.st10{fill:#333333;}
	.st11{fill:#4D4D4D;}
	.st12{fill:#404040;}
	.st13{fill:#494949;}
	.st14{fill:#191919;}
	.st15{fill:#2F2F2F;}
	.st16{fill:#070707;}
	.st17{fill:#0B0B0B;}
	.st18{fill:#252525;}
	.st19{fill:#0E0E0E;}
	.st20{fill:#313131;}
	.st21{fill:#3F4754;}
	.st22{fill:#FFFFFF;}
	.st23{fill:#444444;}
	.st24{fill:#161616;}
	.st25{fill:#2D2D2D;}
	.st26{fill:#545454;}
	.st27{fill:#424242;}
	.st28{fill:#4F4F4F;}
	.st29{fill-rule:evenodd;clip-rule:evenodd;fill:url(#SVGID_1_);}
	.st30{fill-rule:evenodd;clip-rule:evenodd;}
	.st31{fill-rule:evenodd;clip-rule:evenodd;fill:url(#SVGID_2_);}
	.st32{fill-rule:evenodd;clip-rule:evenodd;fill:url(#SVGID_3_);}
	.st33{fill-rule:evenodd;clip-rule:evenodd;fill:url(#SVGID_4_);}
	.st34{fill-rule:evenodd;clip-rule:evenodd;fill:url(#SVGID_5_);}
	.st35{fill-rule:evenodd;clip-rule:evenodd;fill:url(#SVGID_6_);}
	.st36{fill-rule:evenodd;clip-rule:evenodd;fill:#FFFFFF;}
	.st37{fill-rule:evenodd;clip-rule:evenodd;fill:url(#SVGID_7_);}
	.st38{fill-rule:evenodd;clip-rule:evenodd;fill:url(#SVGID_8_);}
	.st39{fill-rule:evenodd;clip-rule:evenodd;fill:url(#SVGID_9_);}
	.st40{fill-rule:evenodd;clip-rule:evenodd;fill:url(#SVGID_10_);}
	.st41{fill-rule:evenodd;clip-rule:evenodd;fill:url(#SVGID_11_);}
	.st42{fill-rule:evenodd;clip-rule:evenodd;fill:url(#SVGID_12_);}
	.st43{fill-rule:evenodd;clip-rule:evenodd;fill:url(#SVGID_13_);}
	.st44{fill:#282828;}
</style>
<g id="Layer_1">
</g>
<g id="MlSdev_x5F_Video">
	<g id="clutch_1_">
		<path class="st0" d="M59.9,129.1c0.1-1.1,0.2-2.2,0.5-3.3c1.7-6.8,5.6-11.8,12.4-13.8c7-2.1,13.4-0.5,18.8,4.6
			c0.3,0.3,0.6,0.7,1,1c0.2,0.1,0.2,0.2,0,0.4c-1.3,1.3-2.6,2.6-3.9,3.9c-0.1,0.1-0.3,0.1-0.4,0c-0.7-0.6-1.3-1.3-2-1.9
			c-4.1-3-8.5-3.7-13.2-1.6c-3.2,1.4-5.2,4-6.2,7.3c-1.4,4.7-1.1,9.2,1.8,13.2c2.6,3.6,6.3,5.1,10.7,4.9c3.4-0.2,6.3-1.7,8.7-4.2
			c0.6-0.6,0.6-0.6,1.2,0c1.2,1.2,2.3,2.4,3.5,3.5c0.2,0.2,0.2,0.2,0,0.4c-2.9,3.2-6.5,5.4-10.8,6.1c-7.9,1.4-15.7-2-19.6-9.4
			c-1.3-2.5-2-5.1-2.2-7.9c0-0.1,0-0.3-0.1-0.4C59.9,130.9,59.9,130,59.9,129.1z"/>
		<path class="st0" d="M200.9,149.3c-2,0-3.9,0-5.9,0c-0.4,0-0.3-0.2-0.3-0.4c0-5,0-10,0-15c0-0.2,0-0.5,0-0.7
			c-0.1-1-0.3-1.9-0.7-2.8c-0.6-1.1-1.5-1.8-2.7-2c-1.8-0.3-3.5,0.1-5,1.1c-1.6,1.1-2.2,2.7-2.4,4.5c0,0.5,0,1,0,1.5
			c0,4.4,0,8.9,0,13.3c0,0.4-0.1,0.5-0.4,0.5c-1.8,0-3.6,0-5.3,0c-0.3,0-0.4,0-0.4-0.4c0-12.9,0-25.9,0-38.8c0-0.1,0-0.2,0-0.3
			c2.1,0,4.1,0,6.2,0c0.2,0.2,0.1,0.4,0.1,0.6c0,4.3,0,8.6,0,13c0,0.2-0.1,0.4,0.1,0.5c0.2,0.1,0.3-0.1,0.4-0.2
			c1.5-0.8,3-1.4,4.8-1.6c1.9-0.2,3.8,0,5.6,0.8c2.7,1.1,4.4,3.1,5.4,5.8c0.4,1.1,0.7,2.2,0.6,3.3c0,0,0,0.1,0,0.1
			C200.9,137.9,200.9,143.6,200.9,149.3z"/>
		<path class="st0" d="M102.7,109.9c0,0.2,0,0.3,0,0.5c0,12.8,0,25.7,0,38.5c0,0.5-0.1,0.5-0.5,0.5c-1.8,0-3.5,0-5.3,0
			c-0.2,0-0.3,0-0.3-0.3c0-13,0-26.1,0-39.1c0,0,0-0.1,0-0.1C98.7,109.9,100.7,109.9,102.7,109.9z"/>
		<path class="st0" d="M125,147.8c-1.1,0.7-2.1,1.3-3.3,1.6c-3,0.8-5.9,0.7-8.6-0.8c-2.7-1.5-4.1-3.9-4.8-6.8
			c-0.3-1.2-0.4-2.4-0.4-3.7c0-4.9,0-9.9,0-14.8c0-0.4,0.1-0.5,0.4-0.5c1.8,0,3.6,0,5.3,0c0.4,0,0.4,0.1,0.4,0.4c0,5,0,10.1,0,15.1
			c0,1,0.1,1.9,0.5,2.9c0.7,1.7,2,2.6,3.8,2.6c1.6,0,3.1-0.3,4.4-1.3c1.5-1.2,2.2-2.9,2.2-4.7c0-4.8,0-9.6,0-14.3
			c0-0.6-0.1-0.5,0.5-0.5c1.8,0,3.5,0,5.3,0c0.3,0,0.4,0.1,0.4,0.4c0,8.6,0,17.2,0,25.8c0,0.3-0.1,0.4-0.4,0.4c-1.8,0-3.6,0-5.4,0
			c-0.3,0-0.4-0.1-0.4-0.4C125.1,148.6,125,148.2,125,147.8z"/>
		<path class="st0" d="M164.2,122.3c3.8,0,7.2,1.3,9.9,4c0.6,0.6,0.6,0.6,0,1.2c-1.2,1.2-2.3,2.3-3.5,3.5c-0.2,0.2-0.3,0.2-0.5,0
			c-1.1-1.1-2.4-2-4-2.3c-3.1-0.6-5.9,0-8,2.5c-3.2,3.9-1.9,11.4,4.8,12.5c2.5,0.4,4.8-0.2,6.8-2c0.2-0.2,0.5-0.6,0.7-0.6
			c0.3,0,0.5,0.4,0.7,0.6c1.2,1.1,2.3,2.3,3.5,3.4c0.1,0.1,0.3,0.2,0.1,0.4c-2.1,2.1-4.4,3.6-7.3,4.1c-4.8,0.9-9.1,0-12.8-3.4
			c-2.2-2-3.5-4.6-3.9-7.5c-0.5-3-0.2-5.9,1.1-8.7c1.9-4,5.1-6.4,9.4-7.3C162.1,122.3,163.1,122.3,164.2,122.3z"/>
		<path class="st0" d="M144.5,139c0,3.3,0,6.6,0,10c0,0.3-0.1,0.4-0.4,0.4c-1.8,0-3.6,0-5.3,0c-0.4,0-0.4-0.1-0.4-0.4
			c0-6.6,0-13.2,0-19.8c0-0.4-0.1-0.5-0.5-0.5c-1.2,0-2.3,0-3.5,0c-0.2,0-0.4,0-0.4-0.3c0-1.7,0-3.4,0-5.2c0-0.3,0.1-0.3,0.3-0.3
			c1.2,0,2.3,0,3.5,0c0.4,0,0.5-0.1,0.5-0.5c0-2.6,0-5.3,0-7.9c0-0.4,0.1-0.5,0.5-0.5c1.7,0,3.5,0,5.2,0c0.4,0,0.5,0.1,0.5,0.5
			c0,2.7,0,5.3,0,8c0,0.4,0.1,0.5,0.5,0.5c1.4,0,2.8,0,4.2,0c0.3,0,0.4,0.1,0.4,0.4c0,1.7,0,3.4,0,5.1c0,0.3-0.1,0.4-0.4,0.4
			c-1.4,0-2.9,0-4.3,0c-0.3,0-0.4,0.1-0.4,0.4C144.5,132.3,144.5,135.6,144.5,139z"/>
		<path class="st0" d="M163.9,140.7c-2.6,0-4.6-2-4.6-4.6c0-2.5,2.1-4.6,4.5-4.6c2.7,0,4.7,2,4.7,4.7
			C168.5,138.6,166.5,140.7,163.9,140.7z"/>
	</g>
</g>
<g id="MlSdev_x5F_Home_x5F_page_x5F_v6">
</g>
<g id="MlSdev_x5F_Careers_x5F_v2">
</g>
<g id="MlSdev_x5F_technology">
</g>
<g id="Layer_2">
</g>
</svg>
