<?xml version="1.0" encoding="utf-8"?>
<!-- Generator: Adobe Illustrator 22.0.1, SVG Export Plug-In . SVG Version: 6.00 Build 0)  -->
<svg version="1.1" id="Layer_1" xmlns="http://www.w3.org/2000/svg" xmlns:xlink="http://www.w3.org/1999/xlink" x="0px" y="0px"
	 viewBox="0 0 260 260" style="enable-background:new 0 0 260 260;" xml:space="preserve">
<g id="Layer_1_1_">
</g>
<g id="MlSdev_x5F_Home_x5F_page_x5F_v6">
</g>
<g id="MlSdev_x5F_Careers_x5F_v2">
</g>
<g id="MlSdev_x5F_technology">
</g>
<g id="Layer_2_1_">
</g>
<path id="logo_itfirms_big" fill="#303640" d="M220.3,157.6c2.4,0,4.8,0.1,7.1,0.4c4.5,0.6,7.2,3.8,7.2,8.2c0,2.8,0.2,5.6-0.3,8.3
	c-0.7,4.2-3.6,6.7-8.2,6.7c-5.8,0-11.7-0.5-17.5-1c-1.1-0.1-2.1-0.7-3.2-1.1v-7.3h17.7v-4.2c-1.2-0.1-2.2-0.2-3.2-0.2
	c-3.1-0.2-6.2,0-9.2-0.5c-4.1-0.7-6.7-3.7-6.8-7.9c-0.2-2.8,0-5.7,0.4-8.5c0.6-3.8,3.3-6.2,7-6.2c6.2-0.1,12.4,0.4,18.7,0.8
	c0.9,0.1,1.8,0.6,2.8,1v7.3h-17.4v4.3C217.1,157.6,218.7,157.5,220.3,157.6z M202.3,180.6h-10.7c-0.1-0.9-0.2-1.8-0.2-2.7
	c0-6.8,0-13.6,0-20.3c0-4.6-1.3-5.7-5.8-4.5c-1.5,0.5-2.9,1-4.2,1.7v25.9h-11.1c0-1-0.1-1.9-0.1-2.8c0-6.9,0-13.9,0-20.8
	c0-3.9-1.6-5.1-5.5-4c-3.8,1-4.4,1.8-4.4,5.8c0,6.6,0,13.2,0,19.9c0,0.6-0.1,1.2-0.1,2h-10.9v-36h9c0.7,1,1.3,2,2.1,3.3
	c3-2.4,6.1-4,9.9-4c3.8,0,7.2,0.7,9.6,4.2c0.7-0.4,1.4-0.8,2-1.2c3.6-2.3,7.9-3.3,12.1-2.9c5.1,0.5,8.3,3.6,8.5,9.5
	c0.3,8.8,0.1,17.7,0,26.6C202.6,180.2,202.5,180.4,202.3,180.6L202.3,180.6z M174.7,106.5c-1.6-5.4,1.6-11.3,6.6-12.4
	C183.2,98.8,179.6,105.4,174.7,106.5L174.7,106.5z M173.3,89.4c-0.7-1.3-1.3-2.4-1.9-3.6c0.2-0.2,0.4-0.3,0.7-0.5
	c0.5,0.6,1,1.1,1.6,1.8c1-1.3,2.1-2.7,3.1-4c3.7,3.2,2.7,10.8-1.9,14.2C173.2,94.9,172.9,92.3,173.3,89.4L173.3,89.4z M158.2,114.6
	c-2.6,3-5.1,5.8-7.5,8.6l-0.6-0.2v-8.8c-3-3.1-5.8-5.9-8.8-9h11.5c1.3-3.4,2.5-6.6,4-10.5c1.8,3.8,3.3,7.1,5,10.6h8.5
	c-1.5,3.4-2.8,6.3-4,9.3H158.2z M163.7,97.8c-1.9-4-4.2-7.9-6.4-11.8c-0.4-0.7-0.8-1.3-1.4-2.3c-2.1,5.9-4.1,11.3-6.2,16.8h-18
	c4.5,5.2,8.7,10.2,13,15.2v7.1c-8.9-0.5-19.5-9.7-18.5-22.8c1.1-14.1,13.3-21.9,24.1-20.4c12.3,1.6,21.8,13,19.5,22.7
	C167.4,101.4,165,100.6,163.7,97.8L163.7,97.8z M166.5,80.4l0.8-0.8l2.5,2.4c-0.3,0.3-0.5,0.5-0.8,0.8
	C168.1,82,167.3,81.2,166.5,80.4L166.5,80.4z M160.6,76.6c0.2-0.3,0.3-0.6,0.5-0.9c1,0.5,2,1,3,1.5c-0.2,0.3-0.3,0.6-0.5,1
	L160.6,76.6z M153.8,74.1c0.1-0.3,0.2-0.6,0.3-0.8l3.2,0.9c-0.1,0.3-0.3,0.6-0.4,0.9C155.8,74.8,154.8,74.4,153.8,74.1L153.8,74.1z
	 M150.2,74.5c-0.8-0.2-1.5-0.4-2.1-0.5c-0.6,0.2-1.3,0.4-2.1,0.7v-2.4c-0.4-0.5-0.9-1.1-1.4-1.8c0.8-0.3,1.4-0.5,2.2-0.8
	c0.4-0.6,0.8-1.2,1.4-2.1c0.5,0.8,0.9,1.4,1.3,2c0.7,0.2,1.4,0.5,2.3,0.8c-0.4,0.6-0.9,1.2-1.3,1.8
	C150.4,72.9,150.3,73.7,150.2,74.5L150.2,74.5z M139.3,74c1.1-0.3,2.1-0.6,3.2-1c0.1,0.4,0.2,0.7,0.3,1.1l-3.2,0.8
	C139.5,74.6,139.4,74.3,139.3,74L139.3,74z M132.5,77.1c1-0.6,2-1.1,3-1.7c0.2,0.3,0.3,0.6,0.5,0.9c-1,0.6-2,1.1-3,1.7
	C132.8,77.7,132.7,77.4,132.5,77.1L132.5,77.1z M126.9,81.9c0.8-0.8,1.5-1.6,2.3-2.4c0.3,0.3,0.5,0.5,0.8,0.8
	c-0.8,0.8-1.6,1.5-2.4,2.3C127.3,82.3,127.1,82.1,126.9,81.9L126.9,81.9z M114.9,105.6c4.9-0.7,9.9,4,10.2,9.4
	C120.5,115.9,114.5,110.5,114.9,105.6L114.9,105.6z M121.5,97.1c-4.2-2.3-5.4-9.6-2-14.1c1.1,1.2,2.1,2.4,3.2,3.6
	c0.6-0.5,1.2-0.9,1.8-1.4c0.2,0.1,0.3,0.2,0.5,0.3c-0.5,1.1-1,2.2-1.6,3.5C123.7,93.1,123.2,95.3,121.5,97.1L121.5,97.1z
	 M121.9,106.3c-4.7-0.4-8.5-7.4-6.6-12.4C120.5,95.8,123.4,101.3,121.9,106.3L121.9,106.3z M121.5,140.7h-10.6
	c-0.1-1.8-0.3-8,0.1-9.8h10.5V140.7L121.5,140.7z M121.4,180.6h-10.9v-35.9h10.9V180.6L121.4,180.6z M90.7,141.4
	c-3.2,0-3.7,0.5-3.8,3.8c0,1.3,0,2.6,0,4.3h19v11.9h-19v19.2H75.7v-39.5H61.8v39.4H50.9V141H38.1v-10.4c23.7,0.4,47.2-0.8,70.9,1
	v9.5c-1,0.1-1.9,0.2-2.8,0.2C101,141.4,95.9,141.4,90.7,141.4L90.7,141.4z M25.2,130.9h10.6v49.7H25.2V130.9z M130.9,122
	c-4,2.4-10.9-0.6-12.9-5.6C123,114.4,129.4,117.2,130.9,122L130.9,122z M134.9,148.2c2-1.2,3.8-2.7,5.9-3.4c2.1-0.7,4.4-0.5,6.9-0.8
	v11.4c-2.1,0-4.1,0-6,0c-4.8,0-6.6,1.8-6.6,6.5c0,5.4,0,10.8,0,16.2c0,0.8-0.1,1.7-0.1,2.6h-11v-36h9.6
	C134,145.7,134.5,147,134.9,148.2L134.9,148.2z M124.9,125.8c3.4-3.7,10.3-3.2,14.1,1.1C135,130.3,128,129.7,124.9,125.8
	L124.9,125.8z M147.8,128.9c-1.7,4.3-9.3,6.2-13.4,3.5C136.1,127.8,143.7,125.8,147.8,128.9L147.8,128.9z M148.3,134.7
	c-0.9,0.9-1.9,1.8-3.1,3c-0.9-3.4,0-5.1,3.1-6.4c3,1.3,4,3.1,3.4,6.5C150.4,136.6,149.3,135.6,148.3,134.7L148.3,134.7z
	 M148.6,128.8c3.5-2.7,11.5-1.4,13.7,3.4C158.1,135.1,151.1,133.3,148.6,128.8L148.6,128.8z M157.7,127c2.7-4.2,9.9-5,14.1-1.3
	C168.5,129.7,161.3,130.3,157.7,127L157.7,127z M181.6,105.6c0.7,4.5-4.9,9.8-10,9.5C170.9,110.3,176.8,104.7,181.6,105.6
	L181.6,105.6z M165.6,122.1c1.6-4.9,7.8-7.7,12.7-5.7C177.4,121,169.7,124.5,165.6,122.1L165.6,122.1z"/>
</svg>
