<?xml version="1.0" encoding="utf-8"?>
<!-- Generator: Adobe Illustrator 22.0.1, SVG Export Plug-In . SVG Version: 6.00 Build 0)  -->
<svg version="1.1" xmlns="http://www.w3.org/2000/svg" xmlns:xlink="http://www.w3.org/1999/xlink" x="0px" y="0px"
	 viewBox="0 0 260 260" style="enable-background:new 0 0 260 260;" xml:space="preserve">
<style type="text/css">
	.st0{fill:#303640;}
	.st1{fill:#010101;}
	.st2{fill:#030303;}
	.st3{fill:#2E2E2E;}
	.st4{fill:#393939;}
	.st5{fill:#3A3A3A;}
	.st6{fill:#383838;}
	.st7{fill:#040404;}
	.st8{fill:#3B3B3B;}
	.st9{fill:#515151;}
	.st10{fill:#333333;}
	.st11{fill:#4D4D4D;}
	.st12{fill:#404040;}
	.st13{fill:#494949;}
	.st14{fill:#191919;}
	.st15{fill:#2F2F2F;}
	.st16{fill:#070707;}
	.st17{fill:#0B0B0B;}
	.st18{fill:#252525;}
	.st19{fill:#0E0E0E;}
	.st20{fill:#313131;}
	.st21{fill:#3F4754;}
	.st22{fill:#FFFFFF;}
	.st23{fill:#444444;}
	.st24{fill:#161616;}
	.st25{fill:#2D2D2D;}
	.st26{fill:#545454;}
	.st27{fill:#424242;}
	.st28{fill:#4F4F4F;}
	.st29{fill-rule:evenodd;clip-rule:evenodd;fill:url(#SVGID_1_);}
	.st30{fill-rule:evenodd;clip-rule:evenodd;}
	.st31{fill-rule:evenodd;clip-rule:evenodd;fill:url(#SVGID_2_);}
	.st32{fill-rule:evenodd;clip-rule:evenodd;fill:url(#SVGID_3_);}
	.st33{fill-rule:evenodd;clip-rule:evenodd;fill:url(#SVGID_4_);}
	.st34{fill-rule:evenodd;clip-rule:evenodd;fill:url(#SVGID_5_);}
	.st35{fill-rule:evenodd;clip-rule:evenodd;fill:url(#SVGID_6_);}
	.st36{fill-rule:evenodd;clip-rule:evenodd;fill:#FFFFFF;}
	.st37{fill-rule:evenodd;clip-rule:evenodd;fill:url(#SVGID_7_);}
	.st38{fill-rule:evenodd;clip-rule:evenodd;fill:url(#SVGID_8_);}
	.st39{fill-rule:evenodd;clip-rule:evenodd;fill:url(#SVGID_9_);}
	.st40{fill-rule:evenodd;clip-rule:evenodd;fill:url(#SVGID_10_);}
	.st41{fill-rule:evenodd;clip-rule:evenodd;fill:url(#SVGID_11_);}
	.st42{fill-rule:evenodd;clip-rule:evenodd;fill:url(#SVGID_12_);}
	.st43{fill-rule:evenodd;clip-rule:evenodd;fill:url(#SVGID_13_);}
	.st44{fill:#282828;}
</style>
<g id="Layer_1">
</g>
<g id="MlSdev_x5F_Video">
	<g id="goodfirms">
		<path class="st0" d="M84.6,119.5c-0.7,0.8-1.3,1.6-2.1,2.4c-2.8-2.1-5.9-3.3-9.4-2.3c-2.4,0.6-4.3,2-5.7,4.1
			c-2.9,4.4-2.2,10,1.8,13.4c3.3,2.9,8.8,2.8,12-0.1c0-1.9,0-3.9,0-5.9c-2.5,0-4.9,0-7.5,0c0.2-1.3,0.8-2.2,1.1-3.3
			c3.3,0,6.6,0,10,0c0,3.7,0,7.3,0,11.1c-3.9,4.8-13.4,5-18.5,0.3c-5.7-5.2-5.9-13.9-0.3-19.4C71.1,114.8,80.3,114.7,84.6,119.5z"/>
		<path class="st0" d="M208.4,125.4c2-2.2,4.3-2.9,7.1-2.4c2.8,0.5,4.5,2.1,4.6,4.9c0.2,4.7,0.1,9.5,0.1,14.3
			c-1.1,0.2-2.3,0.3-3.4,0.5c-0.3-0.6-0.1-1.3-0.1-1.8c0-3.8,0-7.6,0-11.4c0-2.4-1-3.4-3-3.5c-2.4,0-4.1,1.5-4.1,3.6
			c0,3.7,0,7.4,0,11.1c0,0.5,0,0.9,0,1.5c-1.2,0.2-2.3,0.3-3.4,0.5c-0.3-0.7-0.1-1.4-0.1-2.1c0-3.7,0-7.4,0-11.1c0-2.4-1-3.4-3-3.5
			c-2.4,0-4.1,1.5-4.1,3.6c0,2.1,0,4.2,0,6.3c0,2,0,4.1,0,6.2c-1.1,0.4-2.3,0.4-3.5,0.7c0-6.4,0-12.8,0-19.2c1-0.4,2.1-0.4,3.1-0.6
			c0.4,0.7,0,1.4,0.3,2.2c1.4-1.5,3-2.4,5-2.3C205.7,122.8,207.4,123.4,208.4,125.4z"/>
		<path class="st0" d="M158.9,142.6c0-0.3-0.1-0.4-0.1-0.6c0-8.4,0-16.9,0-25.4c4.4,0,8.7,0,13.1,0c0.3,1,0.5,2,0.6,3.2
			c-3.3,0-6.6,0-10,0c0,2.5,0,4.9,0,7.3c2.5,0,5,0,7.6,0c0.3,1.1,0.1,2.2,0.1,3.4c-2.6,0-5.1,0-7.8,0c0,3.9,0,7.6,0,11.4
			C161.3,142.4,160.2,142.3,158.9,142.6z"/>
		<path class="st0" d="M223,139.4c0.8-0.7,1.6-1.3,2.4-2c1.2,1.3,2.5,2.2,4.4,2c1.5-0.1,2.7-0.9,2.8-2.1c0.2-1.3-0.5-2.4-2-2.9
			c-1.1-0.4-2.2-0.7-3.4-1c-2.8-0.9-3.9-2.3-3.9-4.8c0-2.7,1.7-5,4.3-5.6c3-0.7,5.7,0,7.9,2.4c-0.7,0.7-1.3,1.5-2,2.2
			c-1.2-1.1-2.5-1.9-4.1-1.7c-1.1,0.1-2.2,0.5-2.4,1.8c-0.3,1.3,0.3,2.2,1.7,2.7c1.3,0.5,2.6,0.8,3.9,1.2c2.2,0.7,3.5,2.1,3.7,4.5
			c0.2,2.3-0.7,4.2-2.7,5.4C230.2,143.6,225.5,142.7,223,139.4z"/>
		<path class="st0" d="M186.8,142.1c-1.3,0.2-2.3,0.4-3.5,0.5c0-6.4,0-12.8,0-19.3c1-0.2,2-0.3,3.2-0.5c0,1.2,0,2.4,0,3.6
			c1.7-2.9,4.2-4.1,7.6-3.6c-0.3,1.2-0.9,2.2-1.3,3.3c-4.1,0.6-5.8,2.6-6,6.6C186.7,135.8,186.8,138.9,186.8,142.1z"/>
		<path class="st0" d="M175.1,123.3c1.2-0.2,2.3-0.3,3.5-0.5c0,6.5,0,12.8,0,19.3c-1.2,0.2-2.3,0.4-3.5,0.5
			C175.1,136.2,175.1,129.8,175.1,123.3z"/>
		<path class="st0" d="M179.2,118.3c-0.8,0.9-1.5,1.8-2.2,2.7c-1-0.7-1.6-1.8-2.5-2.6c0.8-0.9,1.5-1.8,2.3-2.8
			C177.6,116.5,178.3,117.3,179.2,118.3z"/>
		<path class="st0" d="M150.8,116.3c0,3,0,5.9,0,9c-5.7-3.4-10.3-3.1-13.7,0.6c-3.1,3.4-3.3,8.9-0.5,12.8c1.7,2.3,4,3.7,6.9,3.9
			c2.9,0.2,5.3-0.9,7.5-3.1c0,1.3,0,2.2,0,3.1c1.2-0.2,2.2-0.4,3.2-0.5c0-8.9,0-17.6,0-26.4C153.1,115.8,152,116,150.8,116.3z
			 M144.6,139.3c-3.5,0-6.4-3-6.4-6.7c0-3.6,2.8-6.5,6.3-6.5c4,0,6.8,2.8,6.8,6.7C151.2,136.6,148.5,139.3,144.6,139.3z"/>
		<path class="st0" d="M99.4,122.8c-5.7,0-10.3,4.4-10.3,9.9c0,5.5,4.5,9.9,10.2,9.9c5.7,0,10.3-4.4,10.3-9.9
			C109.6,127.3,105,122.8,99.4,122.8z M99.4,139.3c-3.7,0-6.7-2.9-6.7-6.5c0-3.7,2.9-6.6,6.6-6.6c3.7,0,6.7,2.9,6.7,6.5
			C106,136.3,103.1,139.2,99.4,139.3z"/>
		<path class="st0" d="M122.1,122.8c-5.6,0-10.2,4.4-10.3,9.8c-0.1,5.5,4.6,10,10.2,10c5.7,0,10.3-4.5,10.3-10
			C132.3,127.2,127.7,122.8,122.1,122.8z M121.9,139.3c-3.7-0.1-6.6-3-6.5-6.7c0-3.6,3.1-6.5,6.8-6.4c3.7,0.1,6.6,3,6.5,6.7
			C128.7,136.5,125.7,139.3,121.9,139.3z"/>
		<g>
			<path class="st0" d="M35.5,122.3c5.7,0,11.5,0,17.2,0c0.5,0,1,0.1,1.4-0.2c0-2.7,0-5.4,0-8.3c-0.5,0-0.9,0-1.3,0
				c-6.5,0-13,0-19.5,0c-4.7,0-8.9,3.9-9.2,8.6c0,7.4,0,14.8,0,22.2c2.9,0,5.6,0,8.4,0c0-0.5,0-1,0-1.5c0-6,0-12,0-18
				c0-1,0.1-1.9,1-2.6c0,0,0,0,0,0c0,0,0,0,0,0C34.2,122.3,34.8,122.3,35.5,122.3z"/>
			<path class="st0" d="M54.6,124.9C54.6,124.9,54.5,124.9,54.6,124.9c-1.8-0.4-3.5-0.2-5.1-0.2c-4.1,0-8.3,0-12.4,0
				c-0.8,0-1.9,0-1.9,1.1c-0.1,2.3,0,4.7,0,7.1c3.8,0,7.4,0,11.1,0c0,0.7,0,1.3,0,1.8c0,0.3-0.1,0.5-0.1,0.8c0,0,0,0,0,0
				c0,0,0,0,0,0c-0.5,0.4-1.1,0.3-1.6,0.3c-3.1,0-6.2,0-9.3,0c0,3,0,5.9,0,8.7c0.2,0.1,0.2,0.1,0.3,0.1c3.6,0,7.1,0,10.7,0
				c3.9,0,7.6-2.8,8.2-6.7C55,133.7,54.7,129.3,54.6,124.9z"/>
		</g>
	</g>
</g>
<g id="MlSdev_x5F_Home_x5F_page_x5F_v6">
</g>
<g id="MlSdev_x5F_Careers_x5F_v2">
</g>
<g id="MlSdev_x5F_technology">
</g>
<g id="Layer_2">
</g>
</svg>
