<?xml version="1.0" encoding="utf-8"?>
<!-- Generator: Adobe Illustrator 22.0.1, SVG Export Plug-In . SVG Version: 6.00 Build 0)  -->
<svg version="1.1" xmlns="http://www.w3.org/2000/svg" xmlns:xlink="http://www.w3.org/1999/xlink" x="0px" y="0px"
	 viewBox="0 0 260 260" style="enable-background:new 0 0 260 260;" xml:space="preserve">
<style type="text/css">
	.st0{fill:#303640;}
	.st1{fill:#010101;}
	.st2{fill:#030303;}
	.st3{fill:#2E2E2E;}
	.st4{fill:#393939;}
	.st5{fill:#3A3A3A;}
	.st6{fill:#383838;}
	.st7{fill:#040404;}
	.st8{fill:#3B3B3B;}
	.st9{fill:#515151;}
	.st10{fill:#333333;}
	.st11{fill:#4D4D4D;}
	.st12{fill:#404040;}
	.st13{fill:#494949;}
	.st14{fill:#191919;}
	.st15{fill:#2F2F2F;}
	.st16{fill:#070707;}
	.st17{fill:#0B0B0B;}
	.st18{fill:#252525;}
	.st19{fill:#0E0E0E;}
	.st20{fill:#313131;}
	.st21{fill:#3F4754;}
	.st22{fill:#FFFFFF;}
	.st23{fill:#444444;}
	.st24{fill:#161616;}
	.st25{fill:#2D2D2D;}
	.st26{fill:#545454;}
	.st27{fill:#424242;}
	.st28{fill:#4F4F4F;}
	.st29{fill-rule:evenodd;clip-rule:evenodd;fill:url(#SVGID_1_);}
	.st30{fill-rule:evenodd;clip-rule:evenodd;}
	.st31{fill-rule:evenodd;clip-rule:evenodd;fill:url(#SVGID_2_);}
	.st32{fill-rule:evenodd;clip-rule:evenodd;fill:url(#SVGID_3_);}
	.st33{fill-rule:evenodd;clip-rule:evenodd;fill:url(#SVGID_4_);}
	.st34{fill-rule:evenodd;clip-rule:evenodd;fill:url(#SVGID_5_);}
	.st35{fill-rule:evenodd;clip-rule:evenodd;fill:url(#SVGID_6_);}
	.st36{fill-rule:evenodd;clip-rule:evenodd;fill:#FFFFFF;}
	.st37{fill-rule:evenodd;clip-rule:evenodd;fill:url(#SVGID_7_);}
	.st38{fill-rule:evenodd;clip-rule:evenodd;fill:url(#SVGID_8_);}
	.st39{fill-rule:evenodd;clip-rule:evenodd;fill:url(#SVGID_9_);}
	.st40{fill-rule:evenodd;clip-rule:evenodd;fill:url(#SVGID_10_);}
	.st41{fill-rule:evenodd;clip-rule:evenodd;fill:url(#SVGID_11_);}
	.st42{fill-rule:evenodd;clip-rule:evenodd;fill:url(#SVGID_12_);}
	.st43{fill-rule:evenodd;clip-rule:evenodd;fill:url(#SVGID_13_);}
	.st44{fill:#282828;}
</style>
<g id="Layer_1">
</g>
<g id="MlSdev_x5F_Video">
</g>
<g id="MlSdev_x5F_Home_x5F_page_x5F_v6">
	<path id="espn_1_" class="st0" d="M162.9,121.5l-2.3,21.7h11.4l2.4-21.7H162.9z M185.2,121.4l-2.5,21.8h11.2l2.6-21.8H185.2z
		 M64.5,109l-1.1,9.5h29.8l1.1-9.5H64.5z M63.1,121.4l-2.4,22h29.8l0.9-9.5H73.5l0.6-4h17.8l0.9-8.5H63.1z M163.3,118.5h33.6
		c0.2-1.8,0.4-3.7,0.4-4.8c0-0.6,0-1.3,0-1.9c-0.1-0.3-0.1-0.6-0.2-0.8c-0.1-0.2-0.1-0.4-0.2-0.6c-0.1-0.1-0.1-0.3-0.3-0.4
		c-0.1-0.1-0.2-0.3-0.3-0.3c-0.1-0.1-0.3-0.2-0.4-0.3c-0.2-0.1-0.3-0.1-0.6-0.2c-0.3-0.1-0.6-0.2-0.9-0.2c-0.4,0-0.8-0.1-1.2-0.1
		h-28.8L163.3,118.5L163.3,118.5L163.3,118.5z M129.5,121.5l-2.5,21.7h11.3l1.5-13.3h16.9c0.4,0,0.8,0,1.2-0.1
		c0.3,0,0.6-0.1,0.9-0.2c0.2,0,0.4-0.1,0.6-0.2c0.2-0.1,0.3-0.2,0.5-0.3l0.3-0.3c0.1-0.1,0.3-0.3,0.3-0.4c0.1-0.2,0.2-0.4,0.3-0.7
		c0.2-0.6,0.3-1.1,0.3-1.7c0.2-1.1,0.3-2.8,0.4-4.5L129.5,121.5L129.5,121.5z M94.7,121.4c-0.1,1.1-0.2,2.1-0.2,2.9
		c0,0.6,0,1.3,0.1,1.9c0.1,0.4,0.2,0.8,0.3,1.2c0.1,0.3,0.2,0.6,0.3,0.8c0.1,0.2,0.2,0.4,0.4,0.6c0.1,0.2,0.3,0.3,0.4,0.4
		c0.2,0.1,0.3,0.2,0.5,0.3c0.2,0.1,0.4,0.2,0.7,0.3c0.6,0.2,1.1,0.3,1.7,0.3h16.4v3.7h-22l-1.1,9.6h27c0.4,0,0.8,0,1.2-0.1
		c0.3-0.1,0.7-0.2,1.1-0.2c0.3-0.1,0.7-0.2,1-0.4c0.6-0.3,1.2-0.7,1.7-1.2c0.3-0.3,0.5-0.6,0.7-0.9c0.3-0.4,0.5-0.8,0.7-1.3
		c0.3-0.8,0.5-1.6,0.7-2.4c0.3-1.6,0.5-3.3,0.6-5c0.3-1.6,0.4-3.3,0.6-4.4c0-0.7,0-1.4-0.1-2.1c-0.1-0.4-0.2-0.8-0.2-1.1
		c-0.1-0.3-0.2-0.6-0.3-0.8c-0.1-0.2-0.3-0.4-0.4-0.6c-0.1-0.2-0.3-0.3-0.4-0.5c-0.2-0.1-0.4-0.3-0.6-0.4c-0.2-0.1-0.4-0.2-0.6-0.3
		c-0.2-0.1-0.4-0.2-0.7-0.3c-0.6-0.1-1.3-0.2-1.9-0.2L94.7,121.4L94.7,121.4z M157.6,109H101c-0.5,0-0.9,0-1.4,0.1
		c-0.4,0.1-0.7,0.1-0.9,0.2c-0.3,0.1-0.4,0.2-0.7,0.3c-0.4,0.2-0.7,0.4-0.9,0.7c-0.1,0.2-0.3,0.4-0.4,0.6c-0.1,0.2-0.2,0.5-0.4,0.9
		c-0.2,0.6-0.4,1.3-0.4,1.9c-0.2,1.2-0.4,3-0.7,4.8h66.8c0.3-1.7,0.6-3.4,0.7-4.4c0.1-0.6,0.1-1.3,0.1-1.9c-0.1-0.3-0.1-0.6-0.1-0.8
		c-0.1-0.2-0.2-0.4-0.2-0.6c-0.2-0.3-0.4-0.6-0.7-0.8c-0.1-0.1-0.3-0.2-0.4-0.3c-0.2-0.1-0.4-0.2-0.6-0.3c-0.2-0.1-0.4-0.2-0.7-0.2
		c-0.3-0.1-0.6-0.1-1-0.2C158.5,109,158.1,109,157.6,109L157.6,109L157.6,109z"/>
</g>
<g id="MlSdev_x5F_Careers_x5F_v2">
</g>
<g id="MlSdev_x5F_technology">
</g>
<g id="Layer_2">
</g>
</svg>
