<?xml version="1.0" encoding="utf-8"?>
<!-- Generator: Adobe Illustrator 22.0.1, SVG Export Plug-In . SVG Version: 6.00 Build 0)  -->
<svg version="1.1" xmlns="http://www.w3.org/2000/svg" xmlns:xlink="http://www.w3.org/1999/xlink" x="0px" y="0px"
	 viewBox="0 0 260 260" style="enable-background:new 0 0 260 260;" xml:space="preserve">
<style type="text/css">
	.st0{fill:#303640;}
	.st1{fill:#010101;}
	.st2{fill:#030303;}
	.st3{fill:#2E2E2E;}
	.st4{fill:#393939;}
	.st5{fill:#3A3A3A;}
	.st6{fill:#383838;}
	.st7{fill:#040404;}
	.st8{fill:#3B3B3B;}
	.st9{fill:#515151;}
	.st10{fill:#333333;}
	.st11{fill:#4D4D4D;}
	.st12{fill:#404040;}
	.st13{fill:#494949;}
	.st14{fill:#191919;}
	.st15{fill:#2F2F2F;}
	.st16{fill:#070707;}
	.st17{fill:#0B0B0B;}
	.st18{fill:#252525;}
	.st19{fill:#0E0E0E;}
	.st20{fill:#313131;}
	.st21{fill:#3F4754;}
	.st22{fill:#FFFFFF;}
	.st23{fill:#444444;}
	.st24{fill:#161616;}
	.st25{fill:#2D2D2D;}
	.st26{fill:#545454;}
	.st27{fill:#424242;}
	.st28{fill:#4F4F4F;}
	.st29{fill-rule:evenodd;clip-rule:evenodd;fill:url(#SVGID_1_);}
	.st30{fill-rule:evenodd;clip-rule:evenodd;}
	.st31{fill-rule:evenodd;clip-rule:evenodd;fill:url(#SVGID_2_);}
	.st32{fill-rule:evenodd;clip-rule:evenodd;fill:url(#SVGID_3_);}
	.st33{fill-rule:evenodd;clip-rule:evenodd;fill:url(#SVGID_4_);}
	.st34{fill-rule:evenodd;clip-rule:evenodd;fill:url(#SVGID_5_);}
	.st35{fill-rule:evenodd;clip-rule:evenodd;fill:url(#SVGID_6_);}
	.st36{fill-rule:evenodd;clip-rule:evenodd;fill:#FFFFFF;}
	.st37{fill-rule:evenodd;clip-rule:evenodd;fill:url(#SVGID_7_);}
	.st38{fill-rule:evenodd;clip-rule:evenodd;fill:url(#SVGID_8_);}
	.st39{fill-rule:evenodd;clip-rule:evenodd;fill:url(#SVGID_9_);}
	.st40{fill-rule:evenodd;clip-rule:evenodd;fill:url(#SVGID_10_);}
	.st41{fill-rule:evenodd;clip-rule:evenodd;fill:url(#SVGID_11_);}
	.st42{fill-rule:evenodd;clip-rule:evenodd;fill:url(#SVGID_12_);}
	.st43{fill-rule:evenodd;clip-rule:evenodd;fill:url(#SVGID_13_);}
	.st44{fill:#282828;}
</style>
<g id="Layer_1">
</g>
<g id="MlSdev_x5F_Video">
</g>
<g id="MlSdev_x5F_Home_x5F_page_x5F_v6">
	<path id="levelup_1_" class="st0" d="M40.3,140.7h13.6v-13.6H40.3V140.7z M55.9,140.7h13.6v-13.6H55.9V140.7z M55.9,125h13.6v-13.6
		H55.9V125z M82.3,140.9v-29.2h3.4v26.1h15.1v3.1L82.3,140.9L82.3,140.9z M112,118.7c1.3,0,2.7,0.2,3.9,0.8c1.1,0.5,2.1,1.3,2.8,2.2
		c0.8,1,1.4,2.2,1.8,3.5c0.4,1.5,0.6,3,0.6,4.6v1.5h-15.2c0,2,0.7,4,2,5.5c1.1,1.2,2.7,1.9,4.4,1.9c1,0,1.9-0.2,2.8-0.6
		c0.9-0.4,1.7-0.9,2.4-1.5l1.9,2c-2,1.9-4.6,2.9-7.4,2.9c-1.2,0-2.4-0.2-3.5-0.7c-1.1-0.5-2.1-1.2-3-2.1c-0.9-1-1.6-2.3-2-3.6
		c-0.5-1.6-0.8-3.2-0.7-4.9c0-1.6,0.2-3.2,0.7-4.8c0.4-1.3,1.1-2.5,2-3.6c0.8-1,1.8-1.7,2.9-2.3C109.5,118.9,110.7,118.7,112,118.7
		L112,118.7z M117.9,128.7c0-0.9-0.1-1.9-0.4-2.8c-0.2-0.8-0.6-1.6-1.1-2.3c-0.5-0.6-1.1-1.2-1.9-1.6c-0.8-0.4-1.8-0.6-2.7-0.6
		c-0.8,0-1.5,0.2-2.2,0.5c-0.7,0.4-1.3,0.9-1.8,1.5c-0.6,0.7-1,1.5-1.3,2.3c-0.4,0.9-0.6,1.9-0.6,2.9H117.9L117.9,128.7z
		 M129.7,140.9l-7.9-21.8h3.3c0.7,2.1,1.4,4.2,2.1,6.3c0.7,2.1,1.4,4.1,2.1,6.2c0.1,0.3,0.2,0.7,0.4,1.2c0.2,0.5,0.4,1.1,0.6,1.6
		s0.4,1.1,0.5,1.6s0.3,0.9,0.4,1.2h0.1c0.3-0.9,0.6-1.9,0.9-2.8s0.6-1.9,0.9-2.8c0.7-2.1,1.4-4.2,2.1-6.2c0.7-2.1,1.4-4.2,2.1-6.3
		h3.3l-7.8,21.8H129.7L129.7,140.9z M150.6,118.7c1.3,0,2.7,0.2,3.9,0.8c1.1,0.5,2.1,1.3,2.8,2.2c0.8,1,1.4,2.2,1.8,3.5
		c0.4,1.5,0.6,3,0.6,4.6v1.5h-15.2c0,2,0.7,4,2,5.5c1.1,1.2,2.7,1.9,4.4,1.9c1,0,1.9-0.2,2.8-0.6c0.9-0.4,1.7-0.9,2.4-1.5l1.9,2
		c-2,1.9-4.6,2.9-7.4,2.9c-1.2,0-2.4-0.2-3.5-0.7c-1.1-0.5-2.2-1.2-3-2.1c-0.9-1-1.6-2.3-2-3.6c-0.5-1.6-0.8-3.2-0.8-4.9
		c0-1.6,0.2-3.2,0.7-4.8c0.4-1.3,1.1-2.5,2-3.6c0.8-1,1.8-1.7,2.9-2.3C148,118.9,149.3,118.7,150.6,118.7L150.6,118.7z M156.5,128.7
		c0-0.9-0.1-1.9-0.4-2.8c-0.2-0.8-0.6-1.6-1.1-2.3c-0.5-0.6-1.1-1.2-1.9-1.6c-0.8-0.4-1.8-0.6-2.7-0.6c-0.8,0-1.5,0.2-2.2,0.5
		c-0.7,0.4-1.3,0.9-1.8,1.5c-0.6,0.7-1,1.5-1.3,2.3c-0.4,0.9-0.6,1.9-0.6,2.9H156.5L156.5,128.7z M163.8,140.9v-29.6l3.2-1.5v31
		H163.8z M184.3,141.4c-1.7,0-3.5-0.2-5.1-0.8c-1.5-0.5-2.8-1.3-3.9-2.4c-1.1-1.1-2-2.5-2.5-4c-0.6-1.8-0.9-3.7-0.9-5.6v-16.8h7.4
		v16.4c-0.1,1.8,0.3,3.5,1.3,5c1.9,2.1,5.1,2.3,7.3,0.5c0.1-0.1,0.3-0.3,0.4-0.4c0.9-1.4,1.4-3.2,1.3-4.9v-16.6h7.5v16.8
		c0,1.9-0.3,3.8-0.9,5.6c-0.5,1.5-1.4,2.9-2.6,4c-1.1,1.1-2.5,1.9-4,2.4C187.7,141.1,186,141.4,184.3,141.4L184.3,141.4z
		 M222.4,130.2c0,1.7-0.2,3.4-0.8,5.1c-0.4,1.3-1.1,2.5-2,3.5c-0.8,0.9-1.8,1.6-2.9,2c-1,0.4-2.2,0.6-3.3,0.6
		c-1.9,0-3.8-0.6-5.3-1.9h-0.1v8.4c-1.2,0.4-2.4,0.8-3.6,1.3s-2.4,0.9-3.5,1.3v-31.4h7.1v1.9h0.1c0.8-0.7,1.7-1.3,2.7-1.7
		c1-0.4,2-0.6,3-0.6c1.1,0,2.3,0.2,3.4,0.7c1,0.4,2,1.1,2.7,2c0.8,1.1,1.4,2.3,1.8,3.6C222.2,126.6,222.4,128.4,222.4,130.2
		L222.4,130.2z M215.1,130c0.1-1.5-0.2-2.9-0.9-4.2c-0.5-0.8-1.4-1.3-2.4-1.3c-0.7,0-1.3,0.2-1.9,0.5c-0.7,0.3-1.2,0.8-1.7,1.3v7.6
		c0.4,0.5,1,0.9,1.6,1.3c0.6,0.3,1.2,0.5,1.8,0.5c1,0,2-0.4,2.6-1.3C214.9,133,215.2,131.5,215.1,130L215.1,130z"/>
</g>
<g id="MlSdev_x5F_Careers_x5F_v2">
</g>
<g id="MlSdev_x5F_technology">
</g>
<g id="Layer_2">
</g>
</svg>
