<?xml version="1.0" encoding="utf-8"?>
<!-- Generator: Adobe Illustrator 22.0.1, SVG Export Plug-In . SVG Version: 6.00 Build 0)  -->
<svg version="1.1" xmlns="http://www.w3.org/2000/svg" xmlns:xlink="http://www.w3.org/1999/xlink" x="0px" y="0px"
	 viewBox="0 0 260 260" style="enable-background:new 0 0 260 260;" xml:space="preserve">
<style type="text/css">
	.st0{fill:#303640;}
	.st1{fill:#010101;}
	.st2{fill:#030303;}
	.st3{fill:#2E2E2E;}
	.st4{fill:#393939;}
	.st5{fill:#3A3A3A;}
	.st6{fill:#383838;}
	.st7{fill:#040404;}
	.st8{fill:#3B3B3B;}
	.st9{fill:#515151;}
	.st10{fill:#333333;}
	.st11{fill:#4D4D4D;}
	.st12{fill:#404040;}
	.st13{fill:#494949;}
	.st14{fill:#191919;}
	.st15{fill:#2F2F2F;}
	.st16{fill:#070707;}
	.st17{fill:#0B0B0B;}
	.st18{fill:#252525;}
	.st19{fill:#0E0E0E;}
	.st20{fill:#313131;}
	.st21{fill:#3F4754;}
	.st22{fill:#FFFFFF;}
	.st23{fill:#444444;}
	.st24{fill:#161616;}
	.st25{fill:#2D2D2D;}
	.st26{fill:#545454;}
	.st27{fill:#424242;}
	.st28{fill:#4F4F4F;}
	.st29{fill-rule:evenodd;clip-rule:evenodd;fill:url(#SVGID_1_);}
	.st30{fill-rule:evenodd;clip-rule:evenodd;}
	.st31{fill-rule:evenodd;clip-rule:evenodd;fill:url(#SVGID_2_);}
	.st32{fill-rule:evenodd;clip-rule:evenodd;fill:url(#SVGID_3_);}
	.st33{fill-rule:evenodd;clip-rule:evenodd;fill:url(#SVGID_4_);}
	.st34{fill-rule:evenodd;clip-rule:evenodd;fill:url(#SVGID_5_);}
	.st35{fill-rule:evenodd;clip-rule:evenodd;fill:url(#SVGID_6_);}
	.st36{fill-rule:evenodd;clip-rule:evenodd;fill:#FFFFFF;}
	.st37{fill-rule:evenodd;clip-rule:evenodd;fill:url(#SVGID_7_);}
	.st38{fill-rule:evenodd;clip-rule:evenodd;fill:url(#SVGID_8_);}
	.st39{fill-rule:evenodd;clip-rule:evenodd;fill:url(#SVGID_9_);}
	.st40{fill-rule:evenodd;clip-rule:evenodd;fill:url(#SVGID_10_);}
	.st41{fill-rule:evenodd;clip-rule:evenodd;fill:url(#SVGID_11_);}
	.st42{fill-rule:evenodd;clip-rule:evenodd;fill:url(#SVGID_12_);}
	.st43{fill-rule:evenodd;clip-rule:evenodd;fill:url(#SVGID_13_);}
	.st44{fill:#282828;}
</style>
<g id="Layer_1">
</g>
<g id="MlSdev_x5F_Video">
</g>
<g id="MlSdev_x5F_Home_x5F_page_x5F_v6">
	<path id="panasonic" class="st0" d="M81.3,123.7H88l0.3,2.2c0.5-1.8,3.9-3,6-3c4.8,0,6.7,3,6.7,8.2v11.2h-7.5v-10
		c0-2-0.4-3.5-2.4-3.5c-1.9,0-2.8,2-2.8,3.4v10.1h-7.1L81.3,123.7L81.3,123.7L81.3,123.7z M37.7,142.3V116h12.5
		c7.5,0,10.9,3.6,10.9,8.9c0,5.6-3.1,9.5-10.9,9.5h-4.2v7.9L37.7,142.3L37.7,142.3z M49.3,128.1c2,0,4.1-0.4,4.1-2.7
		c0-2.4-2.3-2.9-4.1-2.9h-3.3v5.6H49.3z M163.6,123.7h6.8l0.2,2.2c0.6-1.8,4-3,6.1-3c4.7,0,6.7,3,6.7,8.2v11.3H176v-10.1
		c0-2-0.4-3.5-2.4-3.5c-1.8,0-2.7,2-2.7,3.4v10.2h-7.2L163.6,123.7L163.6,123.7L163.6,123.7z M129.2,135.6c0,0.8,0.3,1.6,0.8,2.2
		c0.6,0.5,1.3,0.7,2,0.7c1.3,0,2.4-0.4,2.4-1.6c0.1-3.1-11.3-0.4-11.3-7.8c0-5.2,4-6.4,8.1-6.4s9.9,0.8,9.6,6.5h-6.3
		c0-0.5-0.2-1-0.5-1.3c-0.5-0.5-1.2-0.8-1.9-0.8c-1.3-0.1-2.4,0.1-2.4,1.1c0.1,2.9,11.7,1,11.7,7.8c0,4.7-3.3,6.9-9.8,6.9
		c-4.1-0.1-9.2-2.2-9.2-7.3L129.2,135.6L129.2,135.6z M205.9,130.9c0-0.6-0.2-1.3-0.6-1.8c-0.5-0.7-1.2-1.1-2-1.2
		c-2.8,0-3.6,2.7-3.6,5c0,2.6,1.2,4.7,3.4,4.7c1.7-0.1,3-1.5,2.9-3.2c0,0,0,0,0,0h6.5c0.1,3.9-2.5,8.5-9.7,8.5
		c-5.3,0.2-9.8-3.8-10-9.1c0-0.3,0-0.6,0-0.9c0-7.2,5.3-9.9,9.9-9.9c6.2,0,9.8,3.8,9.7,8H205.9L205.9,130.9z M73.3,142.3l-0.7-1.6
		c-1.4,1.3-3.3,1.9-5.3,1.9c-2.3-0.1-6.8-0.4-6.8-5.3c0-8.2,12.1-4.5,12.1-8.5c0-1.3-1.5-1.3-2.3-1.3c-1.5,0-2.4,0.3-2.7,2.5h-6.2
		c0-3.9,1.2-7.1,9.3-7.1c7.9,0,8.7,4.2,8.7,8.2v8.5c-0.1,0.9,0.2,1.8,0.8,2.4v0.1L73.3,142.3L73.3,142.3L73.3,142.3z M72.7,133.8
		c-2.5,1.2-5.7,1.1-5.8,3c0,1.2,0.7,1.8,2.1,1.8C71.6,138.5,72.9,136,72.7,133.8L72.7,133.8L72.7,133.8z M115.1,142.3l-0.7-1.6
		c-1.5,1.3-3.3,1.9-5.3,1.9c-2.4-0.1-6.9-0.4-6.9-5.3c0-8.2,12.1-4.5,12.2-8.5c0-1.3-1.6-1.3-2.3-1.3c-1.6,0-2.4,0.3-2.7,2.5h-6.2
		c0-3.9,1.1-7.1,9.3-7.1c7.9,0,8.7,4.2,8.7,8.2v8.5c-0.1,0.9,0.2,1.8,0.8,2.4v0.1L115.1,142.3L115.1,142.3L115.1,142.3z
		 M114.5,133.8c-2.5,1.2-5.8,1.1-5.8,3c0,1.2,0.6,1.8,2.1,1.8C113.2,138.5,114.6,136,114.5,133.8L114.5,133.8L114.5,133.8z
		 M191.7,142.3v-18.6h-6.9v18.6H191.7z M184.8,121.3h6.9V116h-6.9V121.3L184.8,121.3z M152.5,123c6.1,0,9.9,4.3,9.9,9.9
		c0,5.7-3.8,9.9-9.9,9.9s-10-4.2-10-9.9C142.5,127.3,146.3,123,152.5,123L152.5,123z M149.2,133c0,2.3,0.7,5.1,3.3,5.2
		c2.5,0,3.2-2.9,3.2-5.2c0-2.2-0.7-5.1-3.2-5.1S149.3,130.7,149.2,133L149.2,133z M216.9,138.7c0.4,0,1.1,0.1,1.1-0.5
		c0-0.4-0.3-0.6-0.7-0.6c0,0-0.1,0-0.1,0h-0.9v1.1H216.9L216.9,138.7z M218.4,140.4h-0.4L217,139h-0.7v1.5h-0.4v-3.2h1.3
		c0.5-0.1,1,0.2,1.1,0.7c0,0.1,0,0.1,0,0.2c0,0.4-0.3,0.8-0.8,0.8c-0.1,0-0.1,0-0.2,0L218.4,140.4L218.4,140.4z M219.4,138.9
		c0-1.4-1.1-2.5-2.4-2.5c0,0,0,0,0,0c-1.4,0-2.5,1.1-2.5,2.4s1.1,2.5,2.4,2.5c0,0,0.1,0,0.1,0C218.4,141.4,219.4,140.3,219.4,138.9
		L219.4,138.9L219.4,138.9z M214.2,138.9c0-1.6,1.3-2.8,2.8-2.8c1.6,0,2.8,1.3,2.8,2.8c0,1.6-1.3,2.8-2.8,2.8
		C215.4,141.7,214.2,140.5,214.2,138.9C214.2,138.9,214.2,138.9,214.2,138.9L214.2,138.9z"/>
</g>
<g id="MlSdev_x5F_Careers_x5F_v2">
</g>
<g id="MlSdev_x5F_technology">
</g>
<g id="Layer_2">
</g>
</svg>
