<svg width="170" height="49" viewBox="0 0 170 49" fill="none" xmlns="http://www.w3.org/2000/svg">
<path d="M26.88 16C25.02 16 24 17 24 18.88V23.6C24 23.98 24.18 24.22 24.54 24.34L29.28 25.9V28.56C29.28 29.1 29 29.36 28.48 29.36H27.52C27.02 29.36 26.72 29.1 26.72 28.56V27.02C26.72 26.8 26.62 26.7 26.4 26.7H24.32C24.12 26.7 24 26.8 24 27.02V29.12C24 31 25.02 32 26.88 32H29.12C31 32 32 31 32 29.12V24.5C32 24.12 31.82 23.9 31.48 23.76L26.72 22.2V19.44C26.72 18.92 27.02 18.64 27.52 18.64H28.48C29.02 18.64 29.28 18.92 29.28 19.44V21C29.28 21.2 29.4 21.32 29.6 21.32H31.68C31.9 21.32 32 21.2 32 21V18.88C32 17 31 16 29.12 16H26.88Z" fill="#303640"/>
<path d="M34.2 29.12C34.2 31 35.2 32 37.08 32H39.32C41.2 32 42.2 31 42.2 29.12V18.88C42.2 17 41.2 16 39.32 16H37.08C35.2 16 34.2 17 34.2 18.88V29.12ZM37.66 29.42C37.14 29.42 36.86 29.16 36.86 28.62V19.38C36.86 18.86 37.14 18.58 37.66 18.58H38.82C39.34 18.58 39.62 18.86 39.62 19.38V28.62C39.62 29.16 39.34 29.42 38.82 29.42H37.66Z" fill="#303640"/>
<path d="M52.4 16.32C52.4 16.12 52.28 16 52.08 16H44.72C44.5 16 44.4 16.12 44.4 16.32V31.68C44.4 31.88 44.5 32 44.72 32H46.8C47 32 47.12 31.88 47.12 31.68V25.3H50.88C51.08 25.3 51.2 25.2 51.2 24.98V22.98C51.2 22.78 51.08 22.66 50.88 22.66H47.12V18.64H52.08C52.28 18.64 52.4 18.52 52.4 18.32V16.32Z" fill="#303640"/>
<path d="M54.52 16C54.32 16 54.2 16.12 54.2 16.32V18.32C54.2 18.52 54.32 18.64 54.52 18.64H56.84V31.68C56.84 31.9 56.96 32 57.16 32H59.24C59.46 32 59.56 31.9 59.56 31.68V18.64H61.88C62.1 18.64 62.2 18.52 62.2 18.32V16.32C62.2 16.12 62.1 16 61.88 16H54.52Z" fill="#303640"/>
<path d="M74.9392 16C74.6992 16 74.5392 16.14 74.5192 16.38L73.6992 25.74H73.5992L71.6392 16.36C71.5792 16.12 71.4392 16 71.1992 16H69.9992C69.7592 16 69.6192 16.12 69.5592 16.36L67.5792 25.74H67.4792L66.6992 16.38C66.6792 16.14 66.5192 16 66.2792 16H64.3792C64.1192 16 63.9792 16.16 63.9992 16.42L65.6392 31.62C65.6592 31.88 65.7992 32 66.0592 32H68.0592C68.2992 32 68.4392 31.88 68.4992 31.66L70.5992 22.6L72.6792 31.64C72.7392 31.88 72.8792 32 73.1192 32H75.0792C75.3392 32 75.4792 31.88 75.4992 31.62L77.2192 16.42C77.2392 16.16 77.0992 16 76.8392 16H74.9392Z" fill="#303640"/>
<path d="M87.4525 32C87.6925 32 87.7725 31.88 87.7325 31.66L84.4125 16.28C84.3725 16.08 84.2525 16 84.0725 16H81.2925C81.1125 16 80.9925 16.08 80.9525 16.28L77.6325 31.66C77.5725 31.88 77.6725 32 77.8925 32H80.0325C80.2125 32 80.3125 31.9 80.3525 31.72L80.8925 28.8H84.4525L85.0125 31.72C85.0525 31.9 85.1525 32 85.3325 32H87.4525ZM83.9525 26.48H81.3925L82.6725 19.5L83.9525 26.48Z" fill="#303640"/>
<path d="M97.9512 18.88C97.9512 17 96.9512 16 95.0712 16H90.0512C89.8512 16 89.7312 16.12 89.7312 16.32V31.68C89.7312 31.88 89.8512 32 90.0512 32H92.1312C92.3312 32 92.4512 31.88 92.4512 31.68V26.64H93.8312L95.1712 31.72C95.2112 31.9 95.3112 32 95.5112 32H97.5912C97.8112 32 97.9312 31.88 97.8712 31.64L96.4912 26.4C97.4512 25.98 97.9512 25.1 97.9512 23.76V18.88ZM92.4512 24V18.64H94.4312C94.9512 18.64 95.2312 18.92 95.2312 19.44V23.2C95.2312 23.72 94.9512 24 94.4312 24H92.4512Z" fill="#303640"/>
<path d="M108.126 16.32C108.126 16.12 108.046 16 107.806 16H100.446C100.266 16 100.146 16.12 100.146 16.32V31.68C100.146 31.88 100.266 32 100.446 32H107.806C108.046 32 108.126 31.88 108.126 31.68V29.68C108.126 29.46 108.046 29.36 107.806 29.36H102.806V25.32H106.626C106.826 25.32 106.946 25.2 106.946 24.98V23C106.946 22.78 106.826 22.66 106.626 22.66H102.806V18.66H107.806C108.046 18.66 108.126 18.52 108.126 18.32V16.32Z" fill="#303640"/>
<path d="M121.94 16C121.7 16 121.54 16.14 121.52 16.38L120.7 25.74H120.6L118.64 16.36C118.58 16.12 118.44 16 118.2 16H117C116.76 16 116.62 16.12 116.56 16.36L114.58 25.74H114.48L113.7 16.38C113.68 16.14 113.52 16 113.28 16H111.38C111.12 16 110.98 16.16 111 16.42L112.64 31.62C112.66 31.88 112.8 32 113.06 32H115.06C115.3 32 115.44 31.88 115.5 31.66L117.6 22.6L119.68 31.64C119.74 31.88 119.88 32 120.12 32H122.08C122.34 32 122.48 31.88 122.5 31.62L124.22 16.42C124.24 16.16 124.1 16 123.84 16H121.94Z" fill="#303640" fill-opacity="0.5"/>
<path d="M125.809 29.12C125.809 31 126.809 32 128.689 32H130.929C132.809 32 133.809 31 133.809 29.12V18.88C133.809 17 132.809 16 130.929 16H128.689C126.809 16 125.809 17 125.809 18.88V29.12ZM129.269 29.42C128.749 29.42 128.469 29.16 128.469 28.62V19.38C128.469 18.86 128.749 18.58 129.269 18.58H130.429C130.949 18.58 131.229 18.86 131.229 19.38V28.62C131.229 29.16 130.949 29.42 130.429 29.42H129.269Z" fill="#303640" fill-opacity="0.5"/>
<path d="M144.229 18.88C144.229 17 143.229 16 141.349 16H136.329C136.129 16 136.009 16.12 136.009 16.32V31.68C136.009 31.88 136.129 32 136.329 32H138.409C138.609 32 138.729 31.88 138.729 31.68V26.64H140.109L141.449 31.72C141.489 31.9 141.589 32 141.789 32H143.869C144.089 32 144.209 31.88 144.149 31.64L142.769 26.4C143.729 25.98 144.229 25.1 144.229 23.76V18.88ZM138.729 24V18.64H140.709C141.229 18.64 141.509 18.92 141.509 19.44V23.2C141.509 23.72 141.229 24 140.709 24H138.729Z" fill="#303640" fill-opacity="0.5"/>
<path d="M149.144 29.36H153.904C154.124 29.36 154.224 29.48 154.224 29.68V31.68C154.224 31.9 154.124 32 153.904 32H146.744C146.544 32 146.424 31.9 146.424 31.68V16.32C146.424 16.12 146.544 16 146.744 16H148.824C149.044 16 149.144 16.12 149.144 16.32V29.36Z" fill="#303640" fill-opacity="0.5"/>
<path d="M156.429 31.68C156.429 31.9 156.529 32 156.749 32H161.549C163.429 32 164.429 31 164.429 29.12V18.9C164.429 17.02 163.429 16 161.549 16H156.749C156.529 16 156.429 16.12 156.429 16.32V31.68ZM159.149 29.36V18.64H160.989C161.509 18.64 161.789 18.92 161.789 19.46V28.56C161.789 29.1 161.509 29.36 160.989 29.36H159.149Z" fill="#303640" fill-opacity="0.5"/>
<path fill-rule="evenodd" clip-rule="evenodd" d="M3 34L7.2 28H11L14 24H21L15 34H3Z" fill="#303640"/>
<path fill-rule="evenodd" clip-rule="evenodd" d="M10 24L7 28L4 24L6.92683 19.6098L3 14H15L21 24H10Z" fill="#303640" fill-opacity="0.5"/>
</svg>
