<?xml version="1.0" encoding="utf-8"?>
<!-- Generator: Adobe Illustrator 23.0.2, SVG Export Plug-In . SVG Version: 6.00 Build 0)  -->
<svg version="1.1" id="Layer_1" xmlns="http://www.w3.org/2000/svg" xmlns:xlink="http://www.w3.org/1999/xlink" x="0px" y="0px"
	 viewBox="0 0 2000 2000" style="enable-background:new 0 0 2000 2000;" xml:space="preserve">
<style type="text/css">
	.st0{fill:none;stroke:#138F7A;stroke-width:0.5;stroke-linecap:round;stroke-linejoin:round;stroke-miterlimit:10;}
</style>
<g id="_x31_">
	<line class="st0" x1="1122.9" y1="1757.1" x2="1121.24" y2="1247.08"/>
	<polyline class="st0" points="1136.64,1787.07 1082.77,1636.35 1106.93,1782.84 	"/>
	<polygon class="st0" points="479.53,1016.57 525.78,1038.68 525.58,1020.55 	"/>
	<polyline class="st0" points="466.49,883.72 502.65,897.05 502.65,853.3 466.49,883.72 	"/>
	<polygon class="st0" points="725.93,998.12 648.15,945.54 675.18,939.39 	"/>
	<polyline class="st0" points="691.15,651.06 671.31,605.94 647.1,636.35 691.15,651.06 	"/>
	<polyline class="st0" points="771.13,459.87 743.96,387.96 741.19,407.28 771.13,459.87 	"/>
	<polygon class="st0" points="629.73,434.65 558.68,423.31 562.62,449.84 	"/>
	<polygon class="st0" points="677.28,354.7 676.05,321.05 686.47,320.02 	"/>
	<polyline class="st0" points="980.47,297.23 937.72,301.68 941.07,274.45 980.47,297.23 	"/>
	<path class="st0" d="M924.2,1296.85c-23.56-14.59-47.12-29.19-70.68-43.78c19.76-12.69,39.51-25.38,59.27-38.06
		C916.6,1242.29,920.4,1269.57,924.2,1296.85z"/>
	<path class="st0" d="M410.22,316.96c-2.25,29.12-4.5,58.24-6.75,87.36c-18.43-10.21-36.85-20.43-55.28-30.64
		C368.87,354.77,389.54,335.87,410.22,316.96z"/>
	<path class="st0" d="M713.3,560.73c-18.33-2.11-36.66-4.23-54.99-6.34c10.21-24.18,20.43-48.35,30.64-72.53
		C697.07,508.15,705.18,534.44,713.3,560.73z"/>
	<path class="st0" d="M950.21,1398.07c-0.26,0.26-0.53,0.53-0.79,0.79c-21.88-4.08-44.55-7.37-67.21-10.66
		c22.4,3.55,44.81,7.11,67.21,10.66L950.21,1398.07z"/>
	<path class="st0" d="M763.91,580.53c-8.12,25.22-16.23,50.43-24.35,75.65c-10.21-27.33-20.42-54.66-30.63-81.99
		C727.25,576.3,745.58,578.42,763.91,580.53z"/>
	<path class="st0" d="M739.56,656.18c-0.56,0.56-1.11,1.11-1.67,1.67c-15.73-2.36-31.46-4.72-47.19-7.08
		C706.99,652.58,723.27,654.38,739.56,656.18z"/>
	<path class="st0" d="M638.48,887.27c-16.73-0.06-33.45-0.13-50.18-0.19c-6.26-16.74-12.52-33.48-18.79-50.22
		C592.5,853.66,615.49,870.47,638.48,887.27z"/>
	<path class="st0" d="M706.4,859.96c22.99,16.8,45.98,33.61,68.97,50.41c-3.05-38.94-6.11-77.88-9.16-116.82
		C746.27,815.69,726.33,837.83,706.4,859.96z"/>
	<path class="st0" d="M619.5,314.54c-2.78,24.42-5.55,48.84-8.33,73.26c-11.2-6.36-22.39-12.72-33.59-19.08
		C591.55,350.65,605.52,332.59,619.5,314.54z"/>
	<path class="st0" d="M598.54,601.73c-10.21-27.33-20.42-54.66-30.63-81.99c-6.07,25.53-12.15,51.05-18.22,76.58
		C565.97,598.12,582.25,599.92,598.54,601.73z"/>
	<path class="st0" d="M796.5,481.13c-10.86,33.13-21.73,66.27-32.59,99.4c-8.11-26.29-16.23-52.58-24.34-78.87
		C758.54,494.82,777.52,487.97,796.5,481.13z"/>
	<path class="st0" d="M737.89,657.85c-17.36,14.64-34.72,29.28-52.09,43.92c1.63-17,3.27-34,4.9-51
		C706.43,653.13,722.16,655.49,737.89,657.85z"/>
	<path class="st0" d="M903.63,763.78c-8.59,28.11-17.18,56.23-25.78,84.34c-37.22-18.19-74.44-36.37-111.66-54.56
		C812.01,783.63,857.82,773.7,903.63,763.78z"/>
	<path class="st0" d="M775.36,910.37c-7.74,20.75-15.47,41.5-23.21,62.25c-8.99-20.81-17.98-41.63-26.97-62.44
		C741.91,910.25,758.64,910.31,775.36,910.37z"/>
	<path class="st0" d="M612.15,1052.5c30.77,19.25,61.54,38.5,92.31,57.76c-19.76,12.69-39.51,25.38-59.27,38.06
		C634.18,1116.38,623.17,1084.44,612.15,1052.5z"/>
	<path class="st0" d="M796.5,481.13c-11.2-6.36-22.39-12.72-33.59-19.08c-7.78,13.2-15.57,26.4-23.35,39.61
		C758.54,494.82,777.52,487.97,796.5,481.13z"/>
	<path class="st0" d="M408.61,801.11c-10.61,9.82-21.22,19.64-31.83,29.46c-8.99-23.15-17.99-46.31-26.98-69.46
		C369.4,774.44,389.01,787.78,408.61,801.11z"/>
	<path class="st0" d="M688.03,770.79c26.06,7.59,52.12,15.18,78.18,22.77c-19.94,22.14-39.87,44.27-59.81,66.41
		C700.27,830.24,694.15,800.51,688.03,770.79z"/>
	<path class="st0" d="M794.43,712.06c-18.85-18.07-37.7-36.14-56.54-54.21c0.56-0.56,1.11-1.11,1.67-1.67
		C757.85,674.81,776.14,693.44,794.43,712.06z"/>
	<path class="st0" d="M794.43,712.06c-9.41,27.16-18.82,54.33-28.23,81.49c-26.06-7.59-52.12-15.18-78.18-22.77
		C723.5,751.21,758.96,731.64,794.43,712.06z"/>
	<path class="st0" d="M549.68,677.55c36.21,3.43,72.42,6.86,108.63,10.29c-35.47,19.57-70.94,39.15-106.41,58.73
		C551.16,723.56,550.42,700.56,549.68,677.55z"/>
	<path class="st0" d="M794.43,712.06c-18.85-18.07-37.7-36.14-56.54-54.21c-17.36,14.64-34.72,29.28-52.09,43.92
		C722.01,705.2,758.22,708.63,794.43,712.06z"/>
	<path class="st0" d="M811.07,1271.37c-14,30.45-27.99,60.9-41.99,91.34c-5.68-31.28-11.36-62.55-17.04-93.83
		C771.72,1269.71,791.4,1270.54,811.07,1271.37z"/>
	<path class="st0" d="M882.89,667.85c-29.48,14.74-58.97,29.47-88.46,44.21c-18.29-18.63-36.58-37.25-54.87-55.88
		C787.34,660.07,835.11,663.96,882.89,667.85z"/>
	<path class="st0" d="M775.36,910.37c11.87,34.08,23.73,68.17,35.6,102.25c-19.6-13.33-39.21-26.67-58.81-40
		C759.89,951.87,767.63,931.12,775.36,910.37z"/>
	<path class="st0" d="M540.16,1306.79c-6.62,7.76-13.23,15.5-19.83,23.25c-2.04-14.74-4.09-29.46-6.13-44.18
		C522.86,1292.83,531.51,1299.81,540.16,1306.79z"/>
	<path class="st0" d="M1009,1455.52c-1.19,18.99-2.37,37.97-3.56,56.96c-0.79,0.53-1.58,1.05-2.37,1.58
		C1005.05,1494.54,1007.03,1475.03,1009,1455.52z"/>
	<path class="st0" d="M877.86,848.12c-34.16,20.75-68.33,41.51-102.49,62.26c-3.05-38.94-6.11-77.88-9.16-116.82
		C803.42,811.74,840.64,829.93,877.86,848.12z"/>
	<path class="st0" d="M860.11,438.52c-21.2,14.21-42.41,28.41-63.61,42.61c2.78-24.42,5.55-48.84,8.33-73.25
		C823.26,418.09,841.69,428.31,860.11,438.52z"/>
	<path class="st0" d="M903.63,763.78c-36.4-17.24-72.8-34.48-109.2-51.71c29.49-14.74,58.97-29.47,88.46-44.21
		C889.81,699.83,896.72,731.8,903.63,763.78z"/>
	<path class="st0" d="M892.18,575.95c-42.76,1.53-85.51,3.05-128.27,4.58c10.86-33.13,21.73-66.27,32.59-99.4
		C828.39,512.74,860.29,544.35,892.18,575.95z"/>
	<path class="st0" d="M864.69,1098.2c-14.74,19.69-29.48,39.37-44.21,59.06c-4.81-13.37-9.62-26.73-14.43-40.1
		C825.6,1110.84,845.15,1104.52,864.69,1098.2z"/>
	<path class="st0" d="M400.93,515.51c28.52,18.7,57.04,37.41,85.56,56.11c-19.55,6.32-39.1,12.64-58.65,18.96
		C418.87,565.56,409.9,540.53,400.93,515.51z"/>
	<path class="st0" d="M810.97,1012.63c17.91,28.52,35.82,57.05,53.73,85.57c-28.52-18.7-57.04-37.41-85.56-56.11
		C789.74,1032.26,800.36,1022.44,810.97,1012.63z"/>
	<path class="st0" d="M967.77,653.83c-21.38,36.65-42.76,73.3-64.14,109.94c-6.91-31.97-13.83-63.95-20.74-95.93
		C911.18,663.18,939.48,658.51,967.77,653.83z"/>
	<path class="st0" d="M986.09,1166.91c-24.43,16.03-48.86,32.07-73.3,48.1c-16.03-38.94-32.07-77.88-48.1-116.82
		C905.16,1121.1,945.63,1144.01,986.09,1166.91z"/>
	<path class="st0" d="M763.45,1425.35c-7.6,20.1-15.19,40.22-22.8,60.34v-55.75C748.25,1428.4,755.84,1426.88,763.45,1425.35z"/>
	<path class="st0" d="M868.94,1428.05c-7.6,1.54-15.19,3.06-22.8,4.59c0.59-6.62,1.2-13.25,1.79-19.86
		c5.23-6.48,10.45-12.96,15.68-19.44C865.4,1404.92,867.16,1416.48,868.94,1428.05z"/>
	<path class="st0" d="M897.35,1511.7c-4.97,12.23-9.95,24.45-14.92,36.68c-3.45-13.02-6.89-26.04-10.33-39.05
		C880.52,1510.11,888.93,1510.9,897.35,1511.7z"/>
	<path class="st0" d="M860.11,438.52c10.69,45.81,21.38,91.62,32.07,137.43c-31.89-31.61-63.79-63.21-95.68-94.82
		C817.71,466.93,838.91,452.72,860.11,438.52z"/>
	<path class="st0" d="M864.69,1098.2c40.46,22.91,80.93,45.81,121.4,68.72c-8.37-44.82-16.73-89.65-25.1-134.47
		C928.89,1054.36,896.79,1076.28,864.69,1098.2z"/>
	<path class="st0" d="M882.43,1548.38c-6.3-1.73-12.59-3.45-18.87-5.19c-3.77-3.54-7.53-7.09-11.28-10.61
		c6.6-7.76,13.22-15.5,19.83-23.25C875.54,1522.34,878.98,1535.36,882.43,1548.38z"/>
	<path class="st0" d="M894.47,958.47c-9.93,46.58-19.85,93.15-29.78,139.72c-17.91-28.52-35.82-57.05-53.73-85.57
		C838.8,994.57,866.64,976.52,894.47,958.47z"/>
	<path class="st0" d="M945.49,1469.07c-16.05,14.21-32.09,28.42-48.14,42.62c5.26-21.83,10.52-43.66,15.78-65.49
		C923.92,1453.82,934.7,1461.44,945.49,1469.07z"/>
	<path class="st0" d="M817.47,229.01c-12.68,25.19-25.35,50.38-38.03,75.57c-11.26-14.31-22.53-28.63-33.79-42.94
		C769.59,250.76,793.53,239.88,817.47,229.01z"/>
	<path class="st0" d="M775.36,910.37c39.7,16.03,79.41,32.07,119.11,48.1c-27.83,18.05-55.67,36.1-83.5,54.15
		C799.1,978.54,787.23,944.46,775.36,910.37z"/>
	<path class="st0" d="M877.86,848.12c5.54,36.79,11.08,73.57,16.61,110.36c-39.7-16.03-79.41-32.07-119.11-48.1
		C809.53,889.62,843.69,868.87,877.86,848.12z"/>
	<path class="st0" d="M992.96,498.07c-33.6,25.96-67.19,51.92-100.78,77.88c-10.69-45.81-21.38-91.62-32.07-137.43
		C904.4,458.37,948.68,478.22,992.96,498.07z"/>
	<path class="st0" d="M860.11,438.52c44.28,19.85,88.57,39.7,132.85,59.55c-5.23-24.93-10.45-49.86-15.68-74.79
		C938.23,428.36,899.17,433.44,860.11,438.52z"/>
	<path class="st0" d="M860.11,438.52c39.06-5.08,78.12-10.16,117.17-15.24c-11.46-19.03-22.93-38.06-34.39-57.1
		C915.3,390.3,887.71,414.41,860.11,438.52z"/>
	<path class="st0" d="M866.86,351.16c25.34,5.01,50.69,10.02,76.03,15.02c-27.59,24.11-55.19,48.22-82.78,72.33
		C862.36,409.4,864.61,380.28,866.86,351.16z"/>
	<path class="st0" d="M942.89,366.19c-11.26-14.31-22.53-28.63-33.79-42.94c-14.08,9.31-28.16,18.61-42.24,27.92
		C892.2,356.17,917.55,361.18,942.89,366.19z"/>
	<path class="st0" d="M1082.77,1640.3c-13.94,13.68-27.88,27.35-41.82,41.03c-16.04-6.84-32.09-13.68-48.13-20.51
		C1022.8,1653.98,1052.78,1647.14,1082.77,1640.3z"/>
	<path class="st0" d="M1008.6,1352.31c-20.48-3.77-40.97-7.54-61.45-11.31c20.48,3.24,40.96,6.49,61.45,9.74
		C1008.6,1351.26,1008.6,1351.78,1008.6,1352.31z"/>
	<path class="st0" d="M1015.87,333.16c-24.33,11.01-48.65,22.02-72.98,33.03c12.68-25.19,25.36-50.38,38.03-75.56
		C992.57,304.8,1004.22,318.98,1015.87,333.16z"/>
	<path class="st0" d="M1008.6,1352.31c-19.46,15.26-38.93,30.51-58.39,45.76c-1.02-19.03-2.04-38.05-3.06-57.08
		C967.64,1344.77,988.12,1348.54,1008.6,1352.31z"/>
	<path class="st0" d="M1117.89,461.18c-2.88,27.14-5.76,54.28-8.64,81.41c-38.76-14.84-77.53-29.68-116.29-44.52
		C1034.61,485.78,1076.25,473.48,1117.89,461.18z"/>
	<path class="st0" d="M892.18,575.95c25.2,25.96,50.39,51.92,75.59,77.88c-28.29,4.67-56.59,9.34-84.88,14.02
		C885.99,637.22,889.08,606.59,892.18,575.95z"/>
	<path class="st0" d="M992.81,1660.81c-4.67,15.18-9.34,30.35-14.02,45.52c-4.97-2.69-9.95-5.4-14.92-8.09
		c-5.64-9.69-11.27-19.36-16.91-29.03C962.24,1666.4,977.53,1663.6,992.81,1660.81z"/>
	<path class="st0" d="M947.84,1532.21c-0.49,5.38-0.97,10.78-1.46,16.17h-45.12C916.79,1542.99,932.31,1537.59,947.84,1532.21z"/>
	<path class="st0" d="M1076.45,1705.79c-10.06,0.92-20.12,1.85-30.18,2.77c-1.78-9.08-3.55-18.15-5.33-27.23
		C1052.78,1689.48,1064.62,1697.63,1076.45,1705.79z"/>
	<path class="st0" d="M1062.25,1467.51c-18.94,14.99-37.87,29.98-56.81,44.97c1.18-18.99,2.37-37.97,3.56-56.96
		C1026.75,1459.52,1044.5,1463.51,1062.25,1467.51z"/>
	<path class="st0" d="M998.44,1237.97c-24.75,19.63-49.49,39.25-74.24,58.88c-3.8-27.28-7.6-54.56-11.4-81.84
		C941.34,1222.67,969.89,1230.32,998.44,1237.97z"/>
	<path class="st0" d="M1004.42,788.97c-2.73,39.62-5.46,79.25-8.19,118.88c-39.46-19.91-78.91-39.82-118.37-59.73
		C920.04,828.4,962.23,808.69,1004.42,788.97z"/>
	<path class="st0" d="M877.37,1583.13c-9.16,7.9-18.33,15.8-27.5,23.7c0-8.72,0-17.45,0-26.17
		C859.04,1581.48,868.21,1582.3,877.37,1583.13z"/>
	<path class="st0" d="M945.81,1644.75c-15.28,2.8-30.57,5.6-45.85,8.39c-0.2-6.31-0.38-12.61-0.58-18.92v-32.83
		C914.86,1615.84,930.34,1630.31,945.81,1644.75z"/>
	<path class="st0" d="M1062.25,1467.51c-6.3,36.47-12.6,72.94-18.9,109.41c-12.64-21.48-25.27-42.96-37.91-64.44
		C1024.38,1497.49,1043.32,1482.5,1062.25,1467.51z"/>
	<path class="st0" d="M992.81,1660.81c-15.47-14.45-30.95-28.91-46.43-43.36c9.17-7.91,18.34-15.8,27.5-23.71
		C980.19,1616.1,986.5,1638.45,992.81,1660.81z"/>
	<path class="st0" d="M1226.22,1708.56h-19.02c2.97-27.48,5.95-54.98,8.91-82.46C1219.48,1653.58,1222.84,1681.08,1226.22,1708.56z"
		/>
	<path class="st0" d="M1003.08,1514.05c-18.42,6.05-36.82,12.11-55.23,18.16c-0.78-21.05-1.57-42.09-2.36-63.14
		C964.68,1484.06,983.88,1499.06,1003.08,1514.05z"/>
	<path class="st0" d="M1015.87,333.16c-12.86,30.04-25.72,60.08-38.58,90.13c-11.46-19.03-22.93-38.06-34.39-57.1
		C967.22,355.18,991.54,344.16,1015.87,333.16z"/>
	<path class="st0" d="M1043.36,1576.92c-13.43-20.95-26.85-41.91-40.28-62.86c0.79-0.53,1.58-1.05,2.37-1.58
		C1018.08,1533.96,1030.72,1555.44,1043.36,1576.92z"/>
	<path class="st0" d="M1082.3,635.51c-38.18,6.11-76.35,12.21-114.53,18.33c8.4-51.92,16.8-103.84,25.19-155.76
		C1022.74,543.89,1052.52,589.7,1082.3,635.51z"/>
	<path class="st0" d="M1082.3,635.51c-25.96,51.16-51.92,102.31-77.88,153.47c-12.22-45.05-24.43-90.1-36.65-135.14
		C1005.94,647.72,1044.12,641.61,1082.3,635.51z"/>
	<path class="st0" d="M1008.6,1352.31c17.88,38.4,35.77,76.8,53.65,115.2c-17.75-3.99-35.5-7.99-53.25-11.99
		C1008.87,1421.12,1008.73,1386.71,1008.6,1352.31z"/>
	<path class="st0" d="M1100.11,1089.52c-38,25.8-76.01,51.59-114.02,77.39c-8.37-44.82-16.73-89.65-25.1-134.47
		C1007.36,1051.47,1053.74,1070.49,1100.11,1089.52z"/>
	<path class="st0" d="M1054.97,272.34c-13.03,20.27-26.07,40.54-39.1,60.82c-11.65-14.18-23.3-28.36-34.94-42.53
		C1005.6,284.53,1030.29,278.43,1054.97,272.34z"/>
	<path class="st0" d="M1172.72,1738.93c-0.95,12.84-1.9,25.67-2.85,38.51c-16.41-8.1-32.82-16.21-49.22-24.31
		C1138,1748.39,1155.36,1743.66,1172.72,1738.93z"/>
	<path class="st0" d="M1121.24,1247.08c-40.93-3.04-81.86-6.07-122.8-9.11c-4.12-23.69-8.23-47.37-12.35-71.06
		C1031.14,1193.64,1076.19,1220.36,1121.24,1247.08z"/>
	<path class="st0" d="M996.22,907.85c25.64,21.46,51.27,42.91,76.91,64.37c-37.38,20.08-74.76,40.15-112.14,60.23
		C972.73,990.91,984.48,949.38,996.22,907.85z"/>
	<path class="st0" d="M1117.89,461.18c-46.87-12.63-93.74-25.27-140.61-37.9c12.86-30.04,25.73-60.08,38.58-90.13
		C1049.88,375.83,1083.88,418.51,1117.89,461.18z"/>
	<path class="st0" d="M1076.45,1705.79c-7.46,12.21-14.92,24.43-22.38,36.65c-2.34-8.41-4.69-16.82-7.03-25.23
		C1056.84,1713.4,1066.65,1709.59,1076.45,1705.79z"/>
	<path class="st0" d="M1132.69,321.7c-4.93,46.49-9.87,92.99-14.8,139.48c-34.01-42.68-68.01-85.35-102.02-128.03
		C1054.81,329.34,1093.75,325.52,1132.69,321.7z"/>
	<path class="st0" d="M1132.69,823.33c-45.49,28.17-90.98,56.35-136.46,84.52c44.72-28.94,89.45-57.87,134.17-86.81
		C1131.16,821.8,1131.92,822.57,1132.69,823.33z"/>
	<path class="st0" d="M1109.25,542.6c-8.99,30.97-17.97,61.94-26.96,92.91c-29.78-45.81-59.55-91.62-89.33-137.43
		C1031.73,512.91,1070.49,527.75,1109.25,542.6z"/>
	<path class="st0" d="M1062.25,1467.51c22.36,40.77,44.71,81.53,67.07,122.3c-28.65-4.29-57.31-8.59-85.96-12.88
		C1049.66,1540.45,1055.96,1503.98,1062.25,1467.51z"/>
	<path class="st0" d="M1132.69,823.33c-19.85,49.63-39.7,99.26-59.55,148.88c-25.64-21.46-51.27-42.91-76.91-64.37
		C1041.71,879.68,1087.2,851.51,1132.69,823.33z"/>
	<path class="st0" d="M1054.97,272.34c25.91,16.45,51.81,32.91,77.72,49.36c-38.94,3.82-77.88,7.63-116.82,11.45
		C1028.9,312.88,1041.93,292.61,1054.97,272.34z"/>
	<path class="st0" d="M1276.87,1549.56c-0.53,0-1.05,0-1.58,0c0.26-24.2-1.05-48.39-2.37-72.59c0.79,24.2,1.58,48.4,2.37,72.59
		H1276.87z"/>
	<path class="st0" d="M1121.24,1247.08c-37.54,34.55-75.09,69.1-112.63,103.65c-3.39-37.59-6.78-75.17-10.16-112.76
		C1039.37,1241.01,1080.3,1244.04,1121.24,1247.08z"/>
	<path class="st0" d="M1126.71,266.79c1.99,18.3,3.98,36.61,5.98,54.91c-25.91-16.45-51.81-32.91-77.72-49.36
		C1078.88,270.49,1102.8,268.64,1126.71,266.79z"/>
	<path class="st0" d="M1160.18,1494.46c-32.64-8.98-65.28-17.97-97.92-26.96c23.48-27.66,46.95-55.33,70.43-82.99
		C1141.85,1421.16,1151.01,1457.81,1160.18,1494.46z"/>
	<path class="st0" d="M1201.01,272.73c-22.78,16.32-45.55,32.65-68.32,48.97c-1.99-18.3-3.98-36.61-5.98-54.91
		C1151.48,268.77,1176.24,270.75,1201.01,272.73z"/>
	<path class="st0" d="M1132.69,1384.51c-41.36-10.73-82.72-21.47-124.09-32.21C1049.96,1361.99,1091.32,1373.25,1132.69,1384.51
		 M1008.6,1350.73c0,0.53,0,1.05,0,1.58V1350.73z"/>
	<path class="st0" d="M1210.57,715.68c-26.72,35.12-53.45,70.24-80.17,105.36c-16.03-61.84-32.07-123.69-48.1-185.53
		C1125.05,662.23,1167.81,688.95,1210.57,715.68z"/>
	<path class="st0" d="M1210.57,715.68c-25.96,35.88-51.92,71.77-77.88,107.65c-0.76-0.76-1.53-1.53-2.29-2.29
		C1157.12,785.92,1183.84,750.8,1210.57,715.68z"/>
	<path class="st0" d="M1121.24,1247.08c3.82,45.81,7.63,91.62,11.45,137.43c-41.36-11.26-82.72-22.52-124.09-33.78
		C1046.15,1316.18,1083.69,1281.63,1121.24,1247.08z"/>
	<path class="st0" d="M1190.07,1342.84c-19.13,13.89-38.26,27.78-57.38,41.68c-3.82-45.81-7.64-91.62-11.45-137.43
		C1144.18,1279,1167.13,1310.92,1190.07,1342.84z"/>
	<path class="st0" d="M1192.72,1753.79c-7.62,7.89-15.24,15.77-22.86,23.65c0.96-12.84,1.9-25.67,2.86-38.51
		C1179.38,1743.89,1186.04,1748.83,1192.72,1753.79z"/>
	<path class="st0" d="M1160.18,1494.46c-10.29,31.78-20.57,63.56-30.86,95.34c-22.35-40.77-44.71-81.53-67.07-122.3
		C1094.9,1476.49,1127.54,1485.48,1160.18,1494.46z"/>
	<path class="st0" d="M1201.45,1441.08c-13.76,17.79-27.52,35.59-41.28,53.38c-9.16-36.65-18.32-73.3-27.49-109.95
		C1155.61,1403.37,1178.53,1422.22,1201.45,1441.08z"/>
	<path class="st0" d="M1185.37,1166.91c-21.38,26.72-42.76,53.45-64.14,80.17c-7.04-52.52-14.08-105.04-21.12-157.56
		C1128.53,1115.32,1156.95,1141.11,1185.37,1166.91z"/>
	<path class="st0" d="M1227.89,1222.85c-35.55,8.08-71.1,16.16-106.65,24.23c21.38-26.72,42.76-53.44,64.14-80.17
		C1199.54,1185.56,1213.72,1204.2,1227.89,1222.85z"/>
	<path class="st0" d="M1227.89,1222.85c-12.6,40-25.21,79.99-37.82,119.99c-22.94-31.92-45.89-63.84-68.84-95.76
		C1156.79,1239,1192.34,1230.93,1227.89,1222.85z"/>
	<path class="st0" d="M1279.28,617.18c-22.91,32.83-45.81,65.66-68.72,98.5c-42.76-26.72-85.52-53.45-128.27-80.17
		C1147.96,629.4,1213.62,623.29,1279.28,617.18z"/>
	<path class="st0" d="M1207.19,1708.56c-11.5,10.13-22.98,20.24-34.48,30.37c-4.21-18.68-8.43-37.35-12.62-56.03
		C1175.79,1691.45,1191.48,1700.01,1207.19,1708.56z"/>
	<path class="st0" d="M1275.29,1549.56c-14.7,6.83-29.4,13.66-44.11,20.49c13.91-31.03,27.83-62.05,41.74-93.08
		C1273.71,1501.17,1274.5,1525.37,1275.29,1549.56z"/>
	<path class="st0" d="M1190.07,1342.84c3.79,32.75,7.59,65.49,11.38,98.24c-22.92-18.85-45.84-37.71-68.76-56.56
		C1151.82,1370.62,1170.94,1356.73,1190.07,1342.84z"/>
	<path class="st0" d="M1216.11,1626.1c-2.97,27.48-5.95,54.98-8.91,82.46c-15.71-8.55-31.4-17.11-47.1-25.66
		C1178.77,1663.97,1197.43,1645.04,1216.11,1626.1z"/>
	<path class="st0" d="M1231.18,1013.45c-15.27,51.16-30.54,102.31-45.81,153.47c-28.42-25.8-56.84-51.59-85.26-77.39
		C1143.8,1064.16,1187.49,1038.8,1231.18,1013.45z"/>
	<path class="st0" d="M1307.08,1580.09c-10.07-10.17-20.15-20.35-30.22-30.52c10.07-0.39,20.15-0.79,30.22-1.18
		C1307.08,1558.95,1307.08,1569.52,1307.08,1580.09z"/>
	<path class="st0" d="M1212.86,484.33c-34.54,19.42-69.07,38.84-103.6,58.26c2.88-27.14,5.76-54.27,8.64-81.41
		C1149.55,468.9,1181.2,476.62,1212.86,484.33z"/>
	<path class="st0" d="M1283.86,1111.25c-32.83,18.55-65.66,37.11-98.49,55.66c15.27-51.16,30.54-102.31,45.81-153.47
		C1248.74,1046.05,1266.3,1078.65,1283.86,1111.25z"/>
	<path class="st0" d="M1333.42,1368.77c-29.06,8.03-58.13,16.06-87.2,24.08c11.78-22.63,23.57-45.26,35.35-67.89
		C1298.86,1339.56,1316.14,1354.16,1333.42,1368.77z"/>
	<path class="st0" d="M1231.18,1570.05c-33.95,6.58-67.91,13.17-101.86,19.75c10.29-31.78,20.57-63.56,30.86-95.34
		C1183.84,1519.66,1207.51,1544.85,1231.18,1570.05z"/>
	<path class="st0" d="M1260.96,360.64c-16.03,41.23-32.07,82.46-48.1,123.69c-31.66-7.72-63.31-15.43-94.97-23.15
		C1165.58,427.67,1213.27,394.16,1260.96,360.64z"/>
	<path class="st0" d="M1073.13,972.21c52.68,13.74,105.36,27.49,158.05,41.23c-43.69,25.36-87.38,50.72-131.07,76.07
		C1091.12,1050.42,1082.13,1011.32,1073.13,972.21z"/>
	<path class="st0" d="M1246.22,1392.85c11.78-22.63,23.57-45.26,35.35-67.89c-30.5,5.96-61,11.92-91.5,17.88
		C1208.79,1359.51,1227.51,1376.18,1246.22,1392.85z"/>
	<path class="st0" d="M1279.28,617.18c-56.68-24.86-113.35-49.72-170.03-74.59c34.53-19.42,69.07-38.84,103.6-58.26
		C1235,528.62,1257.14,572.9,1279.28,617.18z"/>
	<path class="st0" d="M1210.57,715.68c8.37,61.59,16.73,123.19,25.1,184.78c-34.33-25.71-68.65-51.42-102.98-77.12
		C1158.65,787.45,1184.61,751.56,1210.57,715.68z"/>
	<path class="st0" d="M1246.22,1392.85c-14.92,16.08-29.85,32.15-44.77,48.23c-3.79-32.74-7.59-65.49-11.38-98.24
		C1208.79,1359.51,1227.51,1376.18,1246.22,1392.85z"/>
	<path class="st0" d="M1352.58,459.13c-46.58,8.4-93.15,16.8-139.72,25.2c16.03-41.23,32.07-82.46,48.1-123.69
		C1291.5,393.47,1322.04,426.3,1352.58,459.13z"/>
	<path class="st0" d="M1201.01,272.73c19.98,29.3,39.96,58.61,59.95,87.91c-42.76-12.98-85.51-25.96-128.27-38.94
		C1155.46,305.38,1178.24,289.06,1201.01,272.73z"/>
	<path class="st0" d="M1276.67,292.1c-5.24,22.85-10.48,45.7-15.72,68.55c-19.98-29.3-39.96-58.61-59.95-87.91
		C1226.23,279.19,1251.45,285.64,1276.67,292.1z"/>
	<path class="st0" d="M1364.56,377.85c-34.53-5.74-69.06-11.48-103.6-17.21c28.11-12.28,56.23-24.56,84.34-36.85
		C1351.72,341.81,1358.14,359.83,1364.56,377.85z"/>
	<path class="st0" d="M1276.67,292.1c22.87,10.57,45.75,21.13,68.63,31.7c-28.11,12.28-56.23,24.56-84.34,36.85
		C1266.2,337.79,1271.43,314.94,1276.67,292.1z"/>
	<path class="st0" d="M1286.11,1587.54c-3.61-12.66-7.21-25.32-10.82-37.98C1279.95,1562.22,1283.03,1574.88,1286.11,1587.54
		 M1276.87,1549.56c-0.53,0-1.05,0-1.58,0H1276.87z"/>
	<path class="st0" d="M1286.11,1587.54c-18.31-5.83-36.62-11.66-54.93-17.49c14.7-6.83,29.4-13.66,44.11-20.49
		C1278.89,1562.22,1282.5,1574.88,1286.11,1587.54z"/>
	<path class="st0" d="M1352.58,459.13c-6.39,30.23-12.77,60.46-19.16,90.69c-40.19-21.83-80.37-43.66-120.56-65.5
		C1259.43,475.93,1306.01,467.53,1352.58,459.13z"/>
	<path class="st0" d="M1283.86,1111.25c-18.66,37.2-37.32,74.4-55.97,111.6c-14.17-18.65-28.34-37.29-42.52-55.94
		C1218.2,1148.36,1251.03,1129.81,1283.86,1111.25z"/>
	<path class="st0" d="M1568.02,717.13c-16.15-15.32-32.31-30.63-48.47-45.94c14.42-6.62,28.84-13.24,43.26-19.86
		C1564.55,673.26,1566.29,695.19,1568.02,717.13z"/>
	<path class="st0" d="M1286.11,1587.54c-18.31-5.83-36.62-11.66-54.93-17.49c-5.02,18.68-10.05,37.36-15.07,56.05
		C1239.44,1613.24,1262.78,1600.39,1286.11,1587.54z"/>
	<path class="st0" d="M1294.24,1693.46c-11.9,5.03-23.79,10.07-35.69,15.1c7.16-18.28,14.32-36.56,21.47-54.85
		C1284.76,1666.96,1289.5,1680.21,1294.24,1693.46z"/>
	<path class="st0" d="M1307.08,1659.63c-9.02-2.24-18.04-4.47-27.06-6.71c9.02-10.93,18.04-21.85,27.06-32.78
		C1307.08,1633.31,1307.08,1646.47,1307.08,1659.63z"/>
	<path class="st0" d="M1302.19,1432.62c-9.76,14.78-19.51,29.57-29.27,44.35c-8.9-28.04-17.8-56.08-26.7-84.12
		C1264.88,1406.1,1283.53,1419.36,1302.19,1432.62z"/>
	<path class="st0" d="M1307.08,1659.63c-9.02-1.97-18.04-3.95-27.06-5.92C1289.04,1655.16,1298.06,1657.4,1307.08,1659.63
		 M1280.02,1652.92c0,0.26,0,0.52,0,0.79V1652.92z"/>
	<path class="st0" d="M1341.13,1194.4c-19.85,43.52-39.7,87.04-59.55,130.56c-17.9-34.04-35.79-68.08-53.69-102.11
		C1265.64,1213.37,1303.38,1203.88,1341.13,1194.4z"/>
	<path class="st0" d="M1307.08,1580.09c-6.99,2.49-13.98,4.97-20.98,7.46c-3.08-12.66-6.16-25.32-9.24-37.98
		C1286.94,1559.74,1297.01,1569.91,1307.08,1580.09z"/>
	<path class="st0" d="M1286.11,1587.54c6.99,10.87,13.98,21.73,20.98,32.6c-9.02,10.93-18.04,21.85-27.06,32.78
		C1282.05,1631.13,1284.08,1609.34,1286.11,1587.54z"/>
	<path class="st0" d="M1359.45,887.47c-42.76,41.99-85.52,83.99-128.27,125.98c1.49-37.66,2.99-75.33,4.49-112.99
		C1276.93,896.12,1318.19,891.8,1359.45,887.47z"/>
	<path class="st0" d="M1283.86,1111.25c19.09,27.72,38.18,55.43,57.27,83.15c-37.75,9.48-75.49,18.97-113.24,28.45
		C1246.55,1185.65,1265.21,1148.45,1283.86,1111.25z"/>
	<path class="st0" d="M1333.42,549.83c-18.04,22.45-36.09,44.9-54.14,67.35c-22.14-44.28-44.29-88.57-66.43-132.85
		C1253.05,506.16,1293.23,528,1333.42,549.83z"/>
	<path class="st0" d="M1364.56,377.85c-3.99,27.09-7.98,54.19-11.98,81.28c-30.54-32.83-61.08-65.66-91.62-98.49
		C1295.49,366.38,1330.02,372.12,1364.56,377.85z"/>
	<path class="st0" d="M1210.57,715.68c45.05,19.85,90.09,39.7,135.14,59.55c-36.68,41.74-73.36,83.48-110.04,125.22
		C1227.3,838.86,1218.93,777.27,1210.57,715.68z"/>
	<path class="st0" d="M1343.93,1509.32c-12.27,13.02-24.56,26.04-36.85,39.05c-11.39-23.8-22.77-47.6-34.16-71.4
		C1296.58,1487.76,1320.26,1498.54,1343.93,1509.32z"/>
	<path class="st0" d="M1382.36,1052.39c-50.39-12.98-100.78-25.96-151.18-38.94c42.76-41.99,85.51-83.99,128.27-125.98
		C1367.09,942.44,1374.72,997.41,1382.36,1052.39z"/>
	<path class="st0" d="M1358.74,1548.38h-51.66c12.29-13.02,24.58-26.04,36.85-39.05
		C1348.87,1522.34,1353.81,1535.36,1358.74,1548.38z"/>
	<path class="st0" d="M1371.21,1388.2c2.76-18.37,5.52-36.73,8.28-55.1c-15.36,11.89-30.71,23.78-46.07,35.67
		C1346.02,1375.24,1358.61,1381.72,1371.21,1388.2z"/>
	<path class="st0" d="M1403.48,1407.95c-6.43,12.49-12.87,24.97-19.31,37.47c-4.32-19.09-8.64-38.16-12.96-57.23
		c7.09,2.3,14.17,4.59,21.26,6.89C1396.13,1399.37,1399.81,1403.66,1403.48,1407.95z"/>
	<path class="st0" d="M1281.58,1324.96c32.64,2.71,65.28,5.43,97.91,8.14c-15.36,11.89-30.71,23.78-46.07,35.67
		C1316.14,1354.16,1298.86,1339.56,1281.58,1324.96z"/>
	<path class="st0" d="M1383.38,1518.8c-8.21,9.85-16.42,19.72-24.64,29.58c-4.93-13.02-9.87-26.04-14.81-39.05
		C1357.08,1512.49,1370.24,1515.63,1383.38,1518.8z"/>
	<path class="st0" d="M1568.02,717.13c-1.97,26.24-3.94,52.47-5.92,78.71c-25.56,6.11-51.11,12.22-76.67,18.33
		C1512.96,781.82,1540.49,749.47,1568.02,717.13z"/>
	<path class="st0" d="M1407.28,1481.37v24.61c-0.61,5.93-1.2,11.85-1.79,17.78c-7.1-1.4-14.22-2.78-21.32-4.18l-0.79-0.78
		C1391.34,1506.31,1399.31,1493.84,1407.28,1481.37z"/>
	<path class="st0" d="M1407.28,1481.37c-7.97,12.47-15.94,24.94-23.91,37.43c-13.14-3.16-26.29-6.31-39.45-9.47
		C1365.05,1500,1386.16,1490.69,1407.28,1481.37z"/>
	<path class="st0" d="M1441.81,400.54c-25.75-7.56-51.51-15.12-77.26-22.69c13.32-4.16,26.63-8.32,39.95-12.48
		C1416.94,377.09,1429.38,388.82,1441.81,400.54z"/>
	<path class="st0" d="M1436.2,1148.43c-10.4,29.54-20.8,59.07-31.2,88.61c-21.29-14.21-42.58-28.43-63.87-42.64
		C1372.82,1179.08,1404.51,1163.75,1436.2,1148.43z"/>
	<path class="st0" d="M1405.49,1523.75c-5.16,6.45-10.3,12.9-15.44,19.34c-1.96-7.83-3.92-15.68-5.89-23.53
		C1391.27,1520.97,1398.39,1522.36,1405.49,1523.75z"/>
	<path class="st0" d="M1485.43,814.17c27.53-32.35,55.06-64.7,82.59-97.04c-16.15-15.32-32.31-30.63-48.47-45.94
		C1508.18,718.85,1496.81,766.51,1485.43,814.17z"/>
	<path class="st0" d="M1412.13,665.28c-44.28-16.03-88.57-32.07-132.85-48.1c18.05-22.45,36.09-44.9,54.14-67.35
		C1359.66,588.31,1385.9,626.8,1412.13,665.28z"/>
	<path class="st0" d="M1412.13,665.28c-22.14,36.65-44.28,73.3-66.43,109.94c-22.14-52.68-44.28-105.37-66.42-158.05
		C1323.57,633.22,1367.85,649.25,1412.13,665.28z"/>
	<path class="st0" d="M1460.23,553.05c-42.27-1.07-84.54-2.14-126.81-3.22c6.39-30.23,12.77-60.46,19.16-90.69
		C1388.46,490.44,1424.35,521.74,1460.23,553.05z"/>
	<path class="st0" d="M1519.55,671.18c14.42-6.62,28.84-13.24,43.26-19.86c-5.39-23.5-10.79-47-16.18-70.5
		C1537.61,610.94,1528.58,641.07,1519.55,671.18z"/>
	<path class="st0" d="M1488.13,1005.21c-11.09,30.16-22.17,60.32-33.26,90.49c-24.17-14.44-48.34-28.87-72.51-43.31
		C1417.61,1036.66,1452.87,1020.93,1488.13,1005.21z"/>
	<path class="st0" d="M1428.3,953.96c19.94,17.08,39.88,34.16,59.83,51.25c-35.26,15.73-70.51,31.45-105.77,47.18
		C1397.67,1019.58,1412.98,986.77,1428.3,953.96z"/>
	<path class="st0" d="M1485.43,814.17c-41.99,24.43-83.99,48.86-125.98,73.3c-4.58-37.41-9.16-74.82-13.74-112.24
		C1392.28,788.21,1438.86,801.19,1485.43,814.17z"/>
	<path class="st0" d="M1485.43,814.17c-19.04,46.6-38.09,93.2-57.13,139.79c-22.95-22.17-45.9-44.33-68.85-66.5
		C1401.45,863.03,1443.44,838.6,1485.43,814.17z"/>
	<path class="st0" d="M1454.86,1095.69c-6.22,17.58-12.44,35.16-18.66,52.73c-17.95-32.01-35.9-64.03-53.85-96.04
		C1406.53,1066.82,1430.7,1081.26,1454.86,1095.69z"/>
	<path class="st0" d="M1460.23,553.05c-16.03,37.41-32.07,74.83-48.1,112.24c-26.24-38.49-52.48-76.97-78.71-115.46
		C1375.69,550.9,1417.96,551.97,1460.23,553.05z"/>
	<path class="st0" d="M1562.1,795.84c-5.01,21.38-10.02,42.75-15.04,64.12c-20.55-15.26-41.09-30.53-61.63-45.79
		C1510.99,808.06,1536.55,801.95,1562.1,795.84z"/>
	<path class="st0" d="M1547.07,859.96c-6.25,16.67-12.5,33.33-18.75,50c-14.3-31.93-28.59-63.86-42.89-95.79
		C1505.98,829.43,1526.52,844.7,1547.07,859.96z"/>
	<path class="st0" d="M1546.64,580.82c-28.8-9.26-57.6-18.52-86.4-27.78c19.33-14.3,38.66-28.59,57.99-42.89
		C1527.69,533.71,1537.16,557.27,1546.64,580.82z"/>
	<path class="st0" d="M1518.22,510.16c-20.02-12.69-40.04-25.38-60.06-38.07c10.79-3.35,21.57-6.69,32.36-10.04
		C1499.75,478.09,1508.99,494.13,1518.22,510.16z"/>
	<path class="st0" d="M1441.81,400.54c16.23,20.5,32.47,41.01,48.7,61.52c-10.79,3.34-21.57,6.69-32.36,10.04
		C1452.71,448.24,1447.26,424.39,1441.81,400.54z"/>
	<path class="st0" d="M1546.64,580.82c-28.8-9.26-57.6-18.52-86.4-27.78c19.77,39.38,39.55,78.76,59.32,118.14
		C1528.58,641.07,1537.61,610.94,1546.64,580.82z"/>
	<path class="st0" d="M1528.32,909.96c-33.34,14.67-66.68,29.33-100.02,44c30.67-8.64,61.34-17.28,92-25.92
		C1522.98,922.02,1525.65,915.99,1528.32,909.96z"/>
</g>
</svg>
