<?xml version="1.0" encoding="utf-8"?>
<!-- Generator: Adobe Illustrator 23.0.2, SVG Export Plug-In . SVG Version: 6.00 Build 0)  -->
<svg version="1.1" id="Layer_1" xmlns="http://www.w3.org/2000/svg" xmlns:xlink="http://www.w3.org/1999/xlink" x="0px" y="0px"
	 viewBox="0 0 2000 2000" style="enable-background:new 0 0 2000 2000;" xml:space="preserve">
<style type="text/css">
	.st0{fill:none;stroke:#138F7A;stroke-width:0.5;stroke-linecap:round;stroke-linejoin:round;stroke-miterlimit:10;}
	.st1{fill:url(#SVGID_1_);stroke:url(#SVGID_2_);stroke-width:0.5;stroke-miterlimit:10;}
	.st2{fill:url(#SVGID_3_);stroke:url(#SVGID_4_);stroke-width:0.5;stroke-miterlimit:10;}
	.st3{fill:url(#SVGID_5_);stroke:url(#SVGID_6_);stroke-width:0.5;stroke-miterlimit:10;}
	.st4{fill:url(#SVGID_7_);stroke:url(#SVGID_8_);stroke-width:0.5;stroke-miterlimit:10;}
	.st5{fill:url(#SVGID_9_);stroke:url(#SVGID_10_);stroke-width:0.5;stroke-miterlimit:10;}
	.st6{fill:url(#SVGID_11_);stroke:url(#SVGID_12_);stroke-width:0.5;stroke-miterlimit:10;}
	.st7{fill:url(#SVGID_13_);stroke:url(#SVGID_14_);stroke-width:0.5;stroke-miterlimit:10;}
	.st8{fill:url(#SVGID_15_);stroke:url(#SVGID_16_);stroke-width:0.5;stroke-miterlimit:10;}
	.st9{fill:url(#SVGID_17_);stroke:url(#SVGID_18_);stroke-width:0.5;stroke-miterlimit:10;}
	.st10{fill:url(#SVGID_19_);stroke:url(#SVGID_20_);stroke-width:0.5;stroke-miterlimit:10;}
	.st11{fill:url(#SVGID_21_);stroke:url(#SVGID_22_);stroke-width:0.5;stroke-miterlimit:10;}
	.st12{fill:url(#SVGID_23_);stroke:url(#SVGID_24_);stroke-width:0.5;stroke-miterlimit:10;}
	.st13{fill:url(#SVGID_25_);stroke:url(#SVGID_26_);stroke-width:0.5;stroke-miterlimit:10;}
	.st14{fill:url(#SVGID_27_);stroke:url(#SVGID_28_);stroke-width:0.5;stroke-miterlimit:10;}
	.st15{fill:url(#SVGID_29_);stroke:url(#SVGID_30_);stroke-width:0.5;stroke-miterlimit:10;}
	.st16{fill:url(#SVGID_31_);stroke:url(#SVGID_32_);stroke-width:0.5;stroke-miterlimit:10;}
	.st17{fill:url(#SVGID_33_);stroke:url(#SVGID_34_);stroke-width:0.5;stroke-miterlimit:10;}
	.st18{fill:url(#SVGID_35_);stroke:url(#SVGID_36_);stroke-width:0.5;stroke-miterlimit:10;}
	.st19{fill:url(#SVGID_37_);stroke:url(#SVGID_38_);stroke-width:0.5;stroke-miterlimit:10;}
	.st20{fill:url(#SVGID_39_);stroke:url(#SVGID_40_);stroke-width:0.5;stroke-miterlimit:10;}
	.st21{fill:url(#SVGID_41_);stroke:url(#SVGID_42_);stroke-width:0.5;stroke-miterlimit:10;}
	.st22{fill:url(#SVGID_43_);stroke:url(#SVGID_44_);stroke-width:0.5;stroke-miterlimit:10;}
	.st23{fill:url(#SVGID_45_);stroke:url(#SVGID_46_);stroke-width:0.5;stroke-miterlimit:10;}
	.st24{fill:url(#SVGID_47_);stroke:url(#SVGID_48_);stroke-width:0.5;stroke-miterlimit:10;}
	.st25{fill:url(#SVGID_49_);stroke:url(#SVGID_50_);stroke-width:0.5;stroke-miterlimit:10;}
	.st26{fill:url(#SVGID_51_);stroke:url(#SVGID_52_);stroke-width:0.5;stroke-miterlimit:10;}
	.st27{fill:url(#SVGID_53_);stroke:url(#SVGID_54_);stroke-width:0.5;stroke-miterlimit:10;}
</style>
<g>
	<g>
		<line class="st0" x1="1168.18" y1="1763.13" x2="1166.49" y2="1243.12"/>
		<polyline class="st0" points="1182.19,1793.68 1127.26,1640.02 1151.9,1789.37 		"/>
		<polyline class="st0" points="1006.04,1703.11 1346.26,1432.25 1505.47,1091.54 		"/>
		<polyline class="st0" points="1117.44,962.88 965.59,1293.87 1537.81,801.74 861.42,1158.05 1433.76,1331.75 1035.55,1664.96 		
			"/>
		<polygon class="st0" points="512.22,1008.1 559.37,1030.64 559.17,1012.16 		"/>
		<polyline class="st0" points="498.93,872.65 535.8,886.24 535.8,841.64 498.93,872.65 		"/>
		<polygon class="st0" points="763.45,989.29 684.14,935.68 711.7,929.41 		"/>
		<polyline class="st0" points="727.98,635.44 707.75,589.43 683.06,620.44 727.98,635.44 		"/>
		<polyline class="st0" points="809.53,440.5 781.83,367.19 779.01,386.88 809.53,440.5 		"/>
		<polygon class="st0" points="665.36,414.79 592.91,403.23 596.94,430.28 		"/>
		<polygon class="st0" points="713.84,333.28 712.58,298.97 723.21,297.91 		"/>
		<polyline class="st0" points="1022.96,274.68 979.38,279.22 982.8,251.46 1022.96,274.68 		"/>
		<path class="st0" d="M1039.03,897.25c-11.98,42.34-23.95,84.69-35.93,127.03c-22.61-25.14-45.21-50.28-67.82-75.42
			C969.86,931.66,1004.45,914.46,1039.03,897.25z"/>
		<path class="st0" d="M965.59,1293.87c-24.02-14.88-48.04-29.76-72.06-44.64c20.14-12.94,40.29-25.87,60.43-38.81
			C957.84,1238.24,961.72,1266.06,965.59,1293.87z"/>
		<path class="st0" d="M441.55,294.8c-2.29,29.69-4.59,59.38-6.88,89.07c-18.79-10.41-37.57-20.83-56.36-31.24
			C399.39,333.35,420.47,314.08,441.55,294.8z"/>
		<path class="st0" d="M750.56,543.34c-18.69-2.15-37.37-4.31-56.06-6.47c10.41-24.65,20.83-49.3,31.24-73.95
			C734.01,489.73,742.29,516.53,750.56,543.34z"/>
		<path class="st0" d="M992.11,1397.07c-0.27,0.27-0.54,0.54-0.8,0.8c-22.31-4.16-45.42-7.51-68.53-10.87
			c22.84,3.62,45.69,7.25,68.53,10.87L992.11,1397.07z"/>
		<path class="st0" d="M802.17,563.53c-8.28,25.71-16.55,51.42-24.83,77.13c-10.41-27.87-20.82-55.73-31.23-83.6
			C764.79,559.22,783.48,561.37,802.17,563.53z"/>
		<path class="st0" d="M777.34,640.66c-0.57,0.57-1.13,1.13-1.7,1.7c-16.04-2.41-32.08-4.81-48.11-7.22
			C744.13,636.98,760.73,638.82,777.34,640.66z"/>
		<path class="st0" d="M674.28,876.27c-17.05-0.06-34.11-0.13-51.16-0.19c-6.39-17.07-12.77-34.13-19.15-51.2
			C627.4,842.01,650.84,859.14,674.28,876.27z"/>
		<path class="st0" d="M743.53,848.43c23.44,17.13,46.88,34.26,70.32,51.4c-3.11-39.7-6.23-79.4-9.34-119.1
			C784.18,803.29,763.85,825.86,743.53,848.43z"/>
		<path class="st0" d="M654.92,292.33c-2.83,24.9-5.66,49.79-8.49,74.69c-11.42-6.48-22.83-12.97-34.24-19.45
			C626.43,329.15,640.68,310.74,654.92,292.33z"/>
		<path class="st0" d="M633.56,585.14c-10.41-27.87-20.82-55.73-31.23-83.6c-6.19,26.02-12.39,52.05-18.58,78.08
			C600.35,581.46,616.95,583.3,633.56,585.14z"/>
		<path class="st0" d="M835.4,462.18c-11.08,33.78-22.15,67.57-33.23,101.35c-8.27-26.8-16.55-53.61-24.82-80.41
			C796.69,476.14,816.05,469.16,835.4,462.18z"/>
		<path class="st0" d="M775.64,642.36c-17.7,14.93-35.4,29.85-53.11,44.78c1.67-17.33,3.33-34.67,4.99-52
			C743.56,637.55,759.6,639.96,775.64,642.36z"/>
		<path class="st0" d="M944.62,750.36c-8.76,28.67-17.52,57.33-26.28,85.99c-37.95-18.54-75.89-37.09-113.84-55.63
			C851.21,770.6,897.92,760.48,944.62,750.36z"/>
		<path class="st0" d="M813.84,899.83c-7.89,21.16-15.78,42.31-23.66,63.47c-9.17-21.22-18.33-42.44-27.5-63.66
			C779.73,899.7,796.79,899.76,813.84,899.83z"/>
		<path class="st0" d="M647.44,1044.73c31.37,19.63,62.75,39.26,94.12,58.89c-20.14,12.94-40.29,25.87-60.43,38.81
			C669.9,1109.86,658.67,1077.3,647.44,1044.73z"/>
		<path class="st0" d="M835.4,462.18c-11.42-6.48-22.83-12.97-34.24-19.45c-7.94,13.46-15.87,26.92-23.81,40.38
			C796.69,476.14,816.05,469.16,835.4,462.18z"/>
		<path class="st0" d="M439.91,788.43c-10.82,10.01-21.64,20.02-32.46,30.03c-9.17-23.61-18.34-47.21-27.51-70.82
			C399.94,761.23,419.92,774.83,439.91,788.43z"/>
		<path class="st0" d="M724.8,757.51c26.57,7.74,53.14,15.47,79.71,23.21c-20.33,22.57-40.65,45.14-60.98,67.71
			C737.28,818.12,731.04,787.81,724.8,757.51z"/>
		<path class="st0" d="M833.29,697.63c-19.22-18.42-38.43-36.85-57.65-55.27c0.57-0.57,1.13-1.13,1.7-1.7
			C795.99,659.65,814.64,678.64,833.29,697.63z"/>
		<path class="st0" d="M833.29,697.63c-9.6,27.7-19.19,55.39-28.79,83.09c-26.57-7.74-53.14-15.47-79.71-23.21
			C760.96,737.55,797.12,717.59,833.29,697.63z"/>
		<path class="st0" d="M583.74,662.45c36.92,3.5,73.84,6.99,110.76,10.49c-36.16,19.96-72.33,39.92-108.49,59.88
			C585.25,709.36,584.5,685.91,583.74,662.45z"/>
		<path class="st0" d="M833.29,697.63c-19.22-18.42-38.43-36.85-57.65-55.27c-17.7,14.93-35.4,29.85-53.11,44.78
			C759.45,690.64,796.37,694.14,833.29,697.63z"/>
		<path class="st0" d="M850.25,1267.89c-14.27,31.04-28.54,62.09-42.81,93.13c-5.79-31.89-11.58-63.78-17.37-95.67
			C810.13,1266.2,830.19,1267.04,850.25,1267.89z"/>
		<path class="st0" d="M923.48,652.56c-30.06,15.03-60.12,30.05-90.19,45.08c-18.65-18.99-37.3-37.98-55.95-56.97
			C826.05,644.63,874.76,648.59,923.48,652.56z"/>
		<path class="st0" d="M813.84,899.83c12.1,34.75,24.2,69.5,36.3,104.26c-19.99-13.6-39.98-27.19-59.96-40.79
			C798.07,942.14,805.95,920.98,813.84,899.83z"/>
		<path class="st0" d="M574.04,1304c-6.74,7.91-13.49,15.8-20.22,23.71c-2.08-15.02-4.17-30.03-6.25-45.04
			C556.4,1289.77,565.22,1296.89,574.04,1304z"/>
		<path class="st0" d="M1052.05,1455.64c-1.21,19.36-2.42,38.72-3.63,58.07c-0.81,0.54-1.61,1.07-2.41,1.61
			C1048.03,1495.43,1050.04,1475.54,1052.05,1455.64z"/>
		<path class="st0" d="M918.34,836.35c-34.83,21.16-69.67,42.32-104.5,63.48c-3.11-39.7-6.23-79.4-9.34-119.1
			C842.45,799.26,880.39,817.81,918.34,836.35z"/>
		<path class="st0" d="M900.25,418.74c-21.62,14.48-43.24,28.96-64.85,43.45c2.83-24.9,5.66-49.79,8.49-74.69
			C862.68,397.91,881.46,408.32,900.25,418.74z"/>
		<path class="st0" d="M944.62,750.36c-37.11-17.58-74.22-35.15-111.34-52.73c30.06-15.03,60.13-30.05,90.19-45.08
			C930.53,685.16,937.58,717.76,944.62,750.36z"/>
		<path class="st0" d="M932.95,558.86c-43.59,1.56-87.19,3.11-130.78,4.67c11.08-33.78,22.15-67.56,33.23-101.35
			C867.91,494.41,900.43,526.64,932.95,558.86z"/>
		<path class="st0" d="M904.92,1091.33c-15.03,20.07-30.05,40.15-45.08,60.22c-4.91-13.63-9.81-27.25-14.72-40.89
			C865.06,1104.21,884.99,1097.77,904.92,1091.33z"/>
		<path class="st0" d="M432.08,497.23c29.08,19.07,58.16,38.14,87.24,57.21c-19.93,6.44-39.86,12.89-59.79,19.33
			C450.37,548.26,441.23,522.75,432.08,497.23z"/>
		<path class="st0" d="M850.14,1004.08c18.26,29.08,36.52,58.16,54.78,87.24c-29.08-19.07-58.16-38.14-87.24-57.21
			C828.5,1024.1,839.32,1014.09,850.14,1004.08z"/>
		<path class="st0" d="M1010.01,638.26c-21.8,37.36-43.59,74.73-65.39,112.1c-7.05-32.6-14.1-65.2-21.15-97.8
			C952.32,647.79,981.17,643.03,1010.01,638.26z"/>
		<path class="st0" d="M1028.7,1161.39c-24.91,16.35-49.82,32.69-74.73,49.04c-16.35-39.7-32.7-79.4-49.04-119.1
			C946.18,1114.68,987.44,1138.03,1028.7,1161.39z"/>
		<path class="st0" d="M801.69,1424.88c-7.75,20.5-15.49,41.01-23.24,61.53v-56.84C786.2,1428,793.94,1426.45,801.69,1424.88z"/>
		<path class="st0" d="M909.26,1427.64c-7.75,1.57-15.49,3.12-23.24,4.68c0.6-6.74,1.22-13.51,1.83-20.25
			c5.33-6.61,10.65-13.21,15.99-19.82C905.64,1404.06,907.44,1415.84,909.26,1427.64z"/>
		<path class="st0" d="M938.22,1512.92c-5.07,12.47-10.14,24.93-15.21,37.4c-3.52-13.27-7.02-26.55-10.53-39.82
			C921.05,1511.31,929.63,1512.11,938.22,1512.92z"/>
		<path class="st0" d="M932.95,558.86c-3.16,31.23-6.31,62.47-9.47,93.7c-40.44-29.68-80.87-59.35-121.31-89.03
			C845.76,561.97,889.35,560.42,932.95,558.86z"/>
		<path class="st0" d="M938.21,1512.91c1.33,12.47,2.66,24.94,3.99,37.41c-6.4,0-12.8,0-19.2,0
			C928.07,1537.85,933.15,1525.38,938.21,1512.91z"/>
		<path class="st0" d="M900.25,418.74c10.9,46.71,21.8,93.42,32.7,140.12c-32.52-32.22-65.03-64.45-97.55-96.68
			C857.01,447.7,878.63,433.22,900.25,418.74z"/>
		<path class="st0" d="M904.92,1091.33c41.26,23.35,82.52,46.71,123.77,70.06c-8.53-45.7-17.06-91.4-25.59-137.1
			C970.38,1046.63,937.65,1068.98,904.92,1091.33z"/>
		<path class="st0" d="M923.01,1550.32c-6.42-1.77-12.84-3.52-19.24-5.29c-3.85-3.61-7.68-7.23-11.51-10.82
			c6.73-7.91,13.47-15.8,20.22-23.71C915.98,1523.77,919.49,1537.05,923.01,1550.32z"/>
		<path class="st0" d="M922.78,1387c-4.5,13.55-9.01,27.09-13.52,40.64c-1.81-11.8-3.61-23.58-5.43-35.38
			C910.15,1390.5,916.47,1388.75,922.78,1387z"/>
		<path class="st0" d="M923.48,652.56c-40.44-29.68-80.87-59.35-121.31-89.03c-8.28,25.71-16.55,51.42-24.83,77.13
			C826.05,644.63,874.76,648.59,923.48,652.56z"/>
		<path class="st0" d="M944.62,750.36c-37.11-17.58-74.22-35.15-111.34-52.73c-9.6,27.7-19.19,55.39-28.79,83.09
			C851.21,770.6,897.92,760.48,944.62,750.36z"/>
		<path class="st0" d="M935.28,948.87c-10.12,47.49-20.24,94.97-30.36,142.46c-18.26-29.08-36.52-58.16-54.78-87.24
			C878.52,985.68,906.9,967.27,935.28,948.87z"/>
		<path class="st0" d="M987.3,1469.46c-16.36,14.49-32.72,28.97-49.08,43.46c5.36-22.26,10.73-44.51,16.09-66.77
			C965.3,1453.91,976.3,1461.68,987.3,1469.46z"/>
		<path class="st0" d="M856.77,205.13c-12.92,25.68-25.85,51.36-38.78,77.04c-11.49-14.59-22.97-29.19-34.45-43.79
			C807.96,227.3,832.36,216.21,856.77,205.13z"/>
		<path class="st0" d="M813.84,899.83c40.48,16.35,80.96,32.7,121.44,49.04c-28.38,18.4-56.76,36.81-85.14,55.21
			C838.04,969.33,825.94,934.58,813.84,899.83z"/>
		<path class="st0" d="M918.34,836.35c5.65,37.51,11.29,75.01,16.94,112.52c-40.48-16.35-80.96-32.69-121.44-49.04
			C848.67,878.67,883.51,857.51,918.34,836.35z"/>
		<path class="st0" d="M1035.7,479.46c-34.25,26.47-68.5,52.94-102.76,79.4c-10.9-46.71-21.8-93.41-32.7-140.12
			C945.4,438.98,990.55,459.22,1035.7,479.46z"/>
		<path class="st0" d="M954.31,1446.14c-13.94,21.45-27.89,42.91-41.83,64.36c-8.82-7.11-17.64-14.23-26.46-21.34
			C908.78,1474.82,931.54,1460.48,954.31,1446.14z"/>
		<path class="st0" d="M954.31,1446.14c-15.02-6.17-30.03-12.34-45.05-18.5c4.51-13.55,9.02-27.09,13.53-40.64
			C933.29,1406.71,943.8,1426.43,954.31,1446.14z"/>
		<path class="st0" d="M954.31,1446.14c-13.94,21.45-27.89,42.91-41.83,64.36c8.58,0.8,17.16,1.61,25.74,2.41
			C943.58,1490.66,948.94,1468.4,954.31,1446.14z"/>
		<path class="st0" d="M900.25,418.74c45.15,20.24,90.3,40.48,135.45,60.72c-5.33-25.42-10.66-50.84-15.99-76.25
			C979.89,408.38,940.07,413.56,900.25,418.74z"/>
		<path class="st0" d="M900.25,418.74c39.82-5.18,79.64-10.36,119.47-15.53c-11.69-19.41-23.38-38.81-35.06-58.21
			C956.52,369.57,928.39,394.15,900.25,418.74z"/>
		<path class="st0" d="M907.13,329.67c25.84,5.11,51.68,10.21,77.52,15.32c-28.13,24.58-56.27,49.17-84.4,73.75
			C902.54,389.05,904.84,359.36,907.13,329.67z"/>
		<path class="st0" d="M965.59,1293.87c-24.02-14.88-48.04-29.76-72.06-44.64c3.96,14.03,7.92,28.07,11.88,42.1
			C925.47,1292.18,945.53,1293.03,965.59,1293.87z"/>
		<path class="st0" d="M984.65,344.99c-11.49-14.59-22.97-29.19-34.45-43.78c-14.36,9.49-28.72,18.98-43.07,28.47
			C932.97,334.78,958.81,339.88,984.65,344.99z"/>
		<path class="st0" d="M1127.26,1644.04c-14.21,13.94-28.42,27.89-42.64,41.83c-16.36-6.97-32.71-13.94-49.07-20.92
			C1066.12,1657.99,1096.69,1651.01,1127.26,1644.04z"/>
		<path class="st0" d="M1051.65,1350.41c-20.88-3.85-41.77-7.69-62.65-11.53c20.88,3.31,41.77,6.62,62.65,9.93
			C1051.65,1349.34,1051.65,1349.88,1051.65,1350.41z"/>
		<path class="st0" d="M1059.06,311.31c-24.8,11.22-49.6,22.45-74.4,33.68c12.92-25.68,25.85-51.36,38.78-77.04
			C1035.3,282.4,1047.18,296.86,1059.06,311.31z"/>
		<path class="st0" d="M1051.65,1350.41c-19.84,15.55-39.69,31.11-59.53,46.66c-1.04-19.4-2.08-38.8-3.12-58.19
			C1009.88,1342.72,1030.76,1346.57,1051.65,1350.41z"/>
		<path class="st0" d="M1163.07,441.85c-2.94,27.67-5.87,55.34-8.81,83c-39.52-15.13-79.04-30.26-118.57-45.39
			C1078.16,466.92,1120.62,454.38,1163.07,441.85z"/>
		<path class="st0" d="M989.7,1533.83c-17.16-6.97-34.32-13.94-51.49-20.92c16.36-14.49,32.72-28.97,49.08-43.46
			C988.1,1490.91,988.9,1512.37,989.7,1533.83z"/>
		<path class="st0" d="M932.95,558.86c25.69,26.47,51.38,52.94,77.07,79.4c-28.85,4.76-57.69,9.53-86.54,14.29
			C926.63,621.32,929.79,590.09,932.95,558.86z"/>
		<path class="st0" d="M989.7,1533.83c-15.83,5.5-31.66,10.99-47.49,16.49c-1.33-12.47-2.66-24.94-3.99-37.41
			C955.38,1519.89,972.54,1526.86,989.7,1533.83z"/>
		<path class="st0" d="M1035.55,1664.95c-4.76,15.47-9.52,30.95-14.3,46.41c-5.07-2.74-10.14-5.5-15.21-8.25
			c-5.75-9.88-11.49-19.74-17.24-29.6C1004.38,1670.65,1019.96,1667.8,1035.55,1664.95z"/>
		<path class="st0" d="M989.7,1533.84c-0.5,5.49-0.99,10.99-1.49,16.48h-46C958.04,1544.83,973.87,1539.32,989.7,1533.84z"/>
		<path class="st0" d="M1120.83,1710.81c-10.26,0.94-20.51,1.88-30.77,2.83c-1.81-9.25-3.62-18.51-5.43-27.76
			C1096.69,1694.18,1108.76,1702.5,1120.83,1710.81z"/>
		<path class="st0" d="M1106.35,1467.86c-19.31,15.28-38.62,30.57-57.92,45.85c1.21-19.36,2.42-38.72,3.63-58.07
			C1070.15,1459.72,1088.25,1463.79,1106.35,1467.86z"/>
		<path class="st0" d="M1041.28,1233.84c-25.23,20.01-50.46,40.02-75.69,60.03c-3.88-27.81-7.75-55.63-11.63-83.44
			C983.07,1218.23,1012.18,1226.04,1041.28,1233.84z"/>
		<path class="st0" d="M1047.38,776.05c-2.78,40.4-5.57,80.8-8.35,121.2c-40.23-20.3-80.46-40.6-120.69-60.9
			C961.36,816.25,1004.37,796.15,1047.38,776.05z"/>
		<path class="st0" d="M1028.7,1161.39c4.2,24.15,8.39,48.3,12.59,72.45c-29.11-7.8-58.21-15.61-87.32-23.41
			C978.88,1194.08,1003.79,1177.74,1028.7,1161.39z"/>
		<path class="st0" d="M917.85,1585.75c-9.34,8.05-18.69,16.11-28.04,24.16c0-8.9,0-17.79,0-26.69
			C899.16,1584.07,908.5,1584.91,917.85,1585.75z"/>
		<path class="st0" d="M1051.35,1713.64c-10.03-0.76-20.06-1.52-30.1-2.28c4.78-15.46,9.54-30.93,14.3-46.41
			C1040.82,1681.18,1046.07,1697.42,1051.35,1713.64z"/>
		<path class="st0" d="M1047.38,776.05c-34.25-8.56-68.51-17.13-102.76-25.69c21.8-37.36,43.59-74.73,65.39-112.1
			C1022.47,684.19,1034.93,730.12,1047.38,776.05z"/>
		<path class="st0" d="M987.63,1648.58c-15.58,2.85-31.17,5.71-46.75,8.56c-0.2-6.43-0.39-12.85-0.59-19.29v-33.48
			C956.07,1619.11,971.86,1633.85,987.63,1648.58z"/>
		<path class="st0" d="M1106.35,1467.86c-6.42,37.19-12.84,74.37-19.27,111.56c-12.89-21.9-25.77-43.8-38.65-65.7
			C1067.73,1498.43,1087.04,1483.15,1106.35,1467.86z"/>
		<path class="st0" d="M1035.55,1664.95c-15.77-14.73-31.55-29.48-47.34-44.21c9.35-8.06,18.7-16.11,28.03-24.17
			C1022.68,1619.36,1029.11,1642.16,1035.55,1664.95z"/>
		<path class="st0" d="M1035.55,1664.96c30.57-6.97,61.14-13.94,91.71-20.92c-13.4-21.54-26.79-43.08-40.18-64.62
			C1069.91,1607.93,1052.73,1636.45,1035.55,1664.96z"/>
		<path class="st0" d="M1273.52,1713.64h-19.4c3.02-28.02,6.06-56.05,9.09-84.07C1266.65,1657.58,1270.08,1685.62,1273.52,1713.64z"
			/>
		<path class="st0" d="M1035.7,479.46c-8.56,52.94-17.13,105.87-25.69,158.81c-25.69-26.47-51.38-52.94-77.07-79.4
			C967.2,532.39,1001.45,505.93,1035.7,479.46z"/>
		<path class="st0" d="M1039.03,897.25c-40.23-20.3-80.46-40.6-120.69-60.9c5.65,37.51,11.29,75.01,16.94,112.52
			C969.86,931.66,1004.45,914.46,1039.03,897.25z"/>
		<path class="st0" d="M1041.28,1233.84c-17.43,35.01-34.86,70.02-52.29,105.04c-7.8-15-15.6-30-23.4-45
			C990.82,1273.86,1016.05,1253.85,1041.28,1233.84z"/>
		<path class="st0" d="M1046.01,1515.32c-18.78,6.17-37.54,12.34-56.32,18.51c-0.79-21.46-1.6-42.92-2.4-64.38
			C1006.86,1484.75,1026.44,1500.03,1046.01,1515.32z"/>
		<path class="st0" d="M1165.88,1759.08c-17.08,4.19-34.15,8.37-51.23,12.56c2.06-20.27,4.12-40.55,6.17-60.82
			C1135.85,1726.9,1150.86,1742.99,1165.88,1759.08z"/>
		<path class="st0" d="M1047.38,776.05c-34.25-8.56-68.51-17.13-102.76-25.69c-8.76,28.67-17.52,57.33-26.28,85.99
			C961.36,816.25,1004.37,796.15,1047.38,776.05z"/>
		<path class="st0" d="M1052.05,1455.64c-19.98-19.52-39.96-39.05-59.94-58.57c19.84-15.55,39.69-31.11,59.53-46.66
			C1051.78,1385.49,1051.92,1420.57,1052.05,1455.64z"/>
		<path class="st0" d="M1059.06,311.31c-13.11,30.63-26.22,61.26-39.34,91.89c-11.69-19.41-23.38-38.81-35.06-58.21
			C1009.45,333.76,1034.25,322.53,1059.06,311.31z"/>
		<path class="st0" d="M1051.34,1713.64c11.69,0,23.38,0,35.07,0c-0.6-9.25-1.19-18.51-1.79-27.76
			C1073.53,1695.13,1062.44,1704.38,1051.34,1713.64z"/>
		<path class="st0" d="M1090.06,1713.64c-1.81-9.25-3.62-18.51-5.43-27.76c0.6,9.25,1.19,18.51,1.79,27.76
			C1087.63,1713.64,1088.84,1713.64,1090.06,1713.64z"/>
		<path class="st0" d="M1087.08,1579.42c-13.69-21.36-27.38-42.73-41.07-64.09c0.81-0.54,1.61-1.07,2.41-1.61
			C1061.31,1535.62,1074.2,1557.52,1087.08,1579.42z"/>
		<path class="st0" d="M1041.28,1233.84c3.45,38.32,6.91,76.64,10.36,114.96c-20.88-3.31-41.77-6.62-62.65-9.93
			C1006.43,1303.86,1023.85,1268.85,1041.28,1233.84z"/>
		<path class="st0" d="M1126.78,619.58c-38.92,6.23-77.85,12.45-116.77,18.68c8.56-52.94,17.13-105.87,25.69-158.81
			C1066.06,526.17,1096.43,572.87,1126.78,619.58z"/>
		<path class="st0" d="M987.3,1469.46c21.59-4.6,43.17-9.21,64.76-13.81c-2.01,19.89-4.03,39.79-6.04,59.68
			C1026.44,1500.04,1006.87,1484.75,987.3,1469.46z"/>
		<path class="st0" d="M1084.63,1685.87c-16.36-6.97-32.71-13.94-49.07-20.92c5.26,16.23,10.53,32.45,15.79,48.68
			C1062.44,1704.38,1073.53,1695.13,1084.63,1685.87z"/>
		<path class="st0" d="M1126.78,619.58c-26.47,52.16-52.93,104.31-79.4,156.47c-12.46-45.93-24.91-91.86-37.37-137.79
			C1048.94,632.03,1087.86,625.81,1126.78,619.58z"/>
		<path class="st0" d="M1051.65,1350.41c18.23,39.15,36.47,78.3,54.7,117.45c-18.1-4.07-36.2-8.15-54.3-12.22
			C1051.92,1420.57,1051.78,1385.49,1051.65,1350.41z"/>
		<path class="st0" d="M1144.95,1082.48c-38.75,26.3-77.5,52.6-116.25,78.91c-8.53-45.7-17.06-91.4-25.59-137.1
			C1050.38,1043.68,1097.67,1063.08,1144.95,1082.48z"/>
		<path class="st0" d="M1098.92,249.3c-13.29,20.67-26.58,41.34-39.86,62.01c-11.87-14.45-23.75-28.91-35.63-43.37
			C1048.59,261.73,1073.76,255.52,1098.92,249.3z"/>
		<path class="st0" d="M1218.97,1744.6c-0.97,13.09-1.94,26.18-2.91,39.27c-16.73-8.26-33.46-16.52-50.19-24.78
			C1183.58,1754.25,1201.27,1749.42,1218.97,1744.6z"/>
		<path class="st0" d="M1166.49,1243.12c-41.73-3.09-83.47-6.19-125.2-9.28c-4.2-24.15-8.39-48.3-12.59-72.45
			C1074.63,1188.63,1120.56,1215.88,1166.49,1243.12z"/>
		<path class="st0" d="M1144.95,1082.48c7.18,53.55,14.36,107.1,21.54,160.64c-45.93-27.24-91.86-54.49-137.79-81.74
			C1067.45,1135.08,1106.2,1108.78,1144.95,1082.48z"/>
		<path class="st0" d="M1003.1,1024.28c47.28,19.4,94.56,38.8,141.84,58.2c-9.17-39.87-18.34-79.73-27.5-119.6
			C1079.33,983.35,1041.22,1003.82,1003.1,1024.28z"/>
		<path class="st0" d="M1039.03,897.25c26.14,21.88,52.28,43.75,78.41,65.63c-38.11,20.47-76.23,40.94-114.34,61.41
			C1015.08,981.94,1027.05,939.6,1039.03,897.25z"/>
		<path class="st0" d="M1120.83,1710.81c-10,3.88-20,7.76-29.99,11.64c-0.26-2.94-0.52-5.88-0.78-8.82
			C1100.32,1712.69,1110.57,1711.75,1120.83,1710.81z"/>
		<path class="st0" d="M1163.07,441.85c-47.79-12.88-95.57-25.76-143.36-38.64c13.12-30.63,26.23-61.26,39.34-91.89
			C1093.73,354.82,1128.4,398.33,1163.07,441.85z"/>
		<path class="st0" d="M1120.83,1710.81c-7.61,12.45-15.21,24.91-22.82,37.36c-2.39-8.57-4.78-17.15-7.17-25.72
			C1100.83,1718.57,1110.83,1714.69,1120.83,1710.81z"/>
		<path class="st0" d="M1165.88,1759.08c-5.11,11.08-10.22,22.15-15.33,33.22c-11.97-6.89-23.93-13.78-35.9-20.67
			C1131.73,1767.45,1148.8,1763.26,1165.88,1759.08z"/>
		<path class="st0" d="M1178.16,299.63c-5.03,47.4-10.06,94.81-15.09,142.21c-34.67-43.51-69.34-87.02-104.02-130.53
			C1098.76,307.42,1138.46,303.53,1178.16,299.63z"/>
		<path class="st0" d="M1120.83,1710.81c-7.61,12.45-15.21,24.91-22.82,37.36c5.55,7.82,11.1,15.64,16.65,23.46
			C1116.71,1751.36,1118.77,1731.08,1120.83,1710.81z"/>
		<path class="st0" d="M1165.88,1759.08c6.64,11.7,13.29,23.41,19.93,35.11c-11.75-0.63-23.5-1.26-35.26-1.88
			C1155.66,1781.23,1160.77,1770.15,1165.88,1759.08z"/>
		<path class="st0" d="M1127.26,1644.04c-2.15,22.26-4.29,44.51-6.44,66.77c-12.07-8.31-24.13-16.63-36.2-24.94
			C1098.84,1671.93,1113.05,1657.99,1127.26,1644.04z"/>
		<path class="st0" d="M1206.1,1687.48c-13.41,23.87-26.82,47.73-40.22,71.6c-15.02-16.09-30.03-32.18-45.05-48.27
			C1149.25,1703.03,1177.68,1695.26,1206.1,1687.48z"/>
		<path class="st0" d="M1178.16,811.08c-46.38,28.73-92.76,57.45-139.13,86.17c45.6-29.5,91.2-59.01,136.8-88.51
			C1176.6,809.52,1177.38,810.3,1178.16,811.08z"/>
		<path class="st0" d="M1154.27,524.85c-9.16,31.58-18.32,63.15-27.48,94.73c-30.36-46.71-60.72-93.41-91.08-140.12
			C1075.22,494.59,1114.75,509.72,1154.27,524.85z"/>
		<path class="st0" d="M1106.35,1467.86c22.79,41.56,45.59,83.13,68.38,124.69c-29.21-4.38-58.43-8.76-87.65-13.14
			C1093.51,1542.23,1099.93,1505.05,1106.35,1467.86z"/>
		<path class="st0" d="M1163.07,441.85c-47.79-12.88-95.57-25.76-143.36-38.64c5.33,25.42,10.66,50.84,15.99,76.25
			C1078.16,466.92,1120.62,454.38,1163.07,441.85z"/>
		<path class="st0" d="M1178.16,811.08c-20.24,50.6-40.48,101.2-60.72,151.8c-26.14-21.88-52.28-43.75-78.41-65.63
			C1085.4,868.53,1131.78,839.81,1178.16,811.08z"/>
		<path class="st0" d="M1098.92,249.3c26.41,16.78,52.83,33.55,79.24,50.33c-39.7,3.89-79.4,7.78-119.11,11.68
			C1072.34,290.64,1085.63,269.97,1098.92,249.3z"/>
		<path class="st0" d="M1325.16,1551.53c-0.54,0-1.07,0-1.61,0c0.27-24.67-1.07-49.34-2.41-74.01c0.81,24.67,1.61,49.34,2.41,74.01
			H1325.16z"/>
		<path class="st0" d="M1166.49,1243.12c-38.28,35.23-76.56,70.45-114.84,105.68c-3.45-38.32-6.91-76.64-10.36-114.96
			C1083.02,1236.93,1124.75,1240.03,1166.49,1243.12z"/>
		<path class="st0" d="M1172.07,243.65c2.03,18.66,4.06,37.32,6.09,55.99c-26.42-16.78-52.83-33.55-79.24-50.33
			C1123.3,247.42,1147.69,245.53,1172.07,243.65z"/>
		<path class="st0" d="M1206.19,1495.35c-33.28-9.16-66.56-18.32-99.84-27.48c23.94-28.2,47.87-56.41,71.81-84.61
			C1187.5,1420.62,1196.85,1457.98,1206.19,1495.35z"/>
		<path class="st0" d="M1126.78,619.58c16.35,63.06,32.69,126.11,49.04,189.16c-42.81-10.9-85.63-21.8-128.44-32.69
			C1073.85,723.89,1100.32,671.74,1126.78,619.58z"/>
		<path class="st0" d="M1247.82,249.7c-23.22,16.64-46.44,33.29-69.66,49.93c-2.03-18.66-4.06-37.32-6.09-55.99
			C1197.32,245.67,1222.57,247.69,1247.82,249.7z"/>
		<path class="st0" d="M1178.16,1383.25c-42.17-10.94-84.34-21.89-126.52-32.84C1093.82,1360.28,1135.99,1371.77,1178.16,1383.25
			 M1051.65,1348.8c0,0.54,0,1.07,0,1.61V1348.8z"/>
		<path class="st0" d="M1257.57,701.32c-27.25,35.81-54.49,71.62-81.74,107.43c-16.35-63.05-32.69-126.11-49.04-189.16
			C1170.38,646.83,1213.97,674.07,1257.57,701.32z"/>
		<path class="st0" d="M1257.57,701.32c-26.47,36.59-52.94,73.17-79.4,109.76c-0.78-0.78-1.56-1.56-2.34-2.34
			C1203.07,772.94,1230.32,737.13,1257.57,701.32z"/>
		<path class="st0" d="M1166.49,1243.12c3.89,46.71,7.78,93.42,11.68,140.12c-42.17-11.48-84.34-22.97-126.52-34.45
			C1089.93,1313.58,1128.21,1278.35,1166.49,1243.12z"/>
		<path class="st0" d="M1236.67,1340.76c-19.5,14.16-39,28.33-58.51,42.49c-3.89-46.71-7.79-93.41-11.68-140.12
			C1189.88,1275.67,1213.28,1308.21,1236.67,1340.76z"/>
		<path class="st0" d="M1178.16,1383.25c-42.17-10.94-84.34-21.89-126.52-32.84c18.23,39.15,36.47,78.3,54.7,117.45
			C1130.29,1439.66,1154.22,1411.45,1178.16,1383.25z"/>
		<path class="st0" d="M1239.36,1759.75c-7.77,8.05-15.54,16.08-23.3,24.11c0.98-13.09,1.94-26.17,2.92-39.26
			C1225.77,1749.65,1232.56,1754.69,1239.36,1759.75z"/>
		<path class="st0" d="M1328.38,1656.91c0,0.27,0,0.53,0,0.8c-21.72-9.92-43.44-19.04-65.16-28.16
			c21.72,9.39,43.44,18.77,65.16,28.16V1656.91z"/>
		<path class="st0" d="M1206.19,1495.35c-10.49,32.4-20.97,64.8-31.46,97.21c-22.79-41.56-45.58-83.13-68.38-124.69
			C1139.63,1477.02,1172.91,1486.19,1206.19,1495.35z"/>
		<path class="st0" d="M1248.27,1440.92c-14.03,18.14-28.06,36.29-42.08,54.43c-9.34-37.37-18.68-74.73-28.03-112.1
			C1201.53,1402.47,1224.9,1421.69,1248.27,1440.92z"/>
		<path class="st0" d="M1216.07,1783.86c-10.09,3.44-20.17,6.88-30.26,10.32c-6.64-11.7-13.29-23.41-19.93-35.11
			C1182.61,1767.34,1199.34,1775.6,1216.07,1783.86z"/>
		<path class="st0" d="M1231.88,1161.39c-21.8,27.25-43.59,54.49-65.39,81.74c-7.18-53.55-14.36-107.1-21.54-160.64
			C1173.92,1108.78,1202.9,1135.08,1231.88,1161.39z"/>
		<path class="st0" d="M1275.23,1218.42c-36.25,8.24-72.49,16.47-108.74,24.71c21.8-27.24,43.59-54.49,65.39-81.74
			C1246.33,1180.4,1260.78,1199.41,1275.23,1218.42z"/>
		<path class="st0" d="M1275.23,1218.42c-12.85,40.78-25.7,81.56-38.56,122.34c-23.39-32.54-46.79-65.09-70.18-97.63
			C1202.73,1234.89,1238.98,1226.65,1275.23,1218.42z"/>
		<path class="st0" d="M1327.63,600.9c-23.35,33.47-46.71,66.95-70.06,100.42c-43.6-27.25-87.19-54.49-130.78-81.74
			C1193.73,613.35,1260.68,607.12,1327.63,600.9z"/>
		<path class="st0" d="M1308.94,339.33c-48.62,34.17-97.24,68.34-145.87,102.51c5.03-47.4,10.06-94.81,15.09-142.21
			C1221.76,312.87,1265.35,326.1,1308.94,339.33z"/>
		<path class="st0" d="M1254.13,1713.64c-11.72,10.33-23.43,20.64-35.15,30.96c-4.3-19.04-8.59-38.08-12.87-57.12
			C1222.11,1696.19,1238.11,1704.92,1254.13,1713.64z"/>
		<path class="st0" d="M1323.55,1551.53c-14.99,6.96-29.98,13.93-44.97,20.89c14.19-31.63,28.37-63.27,42.56-94.9
			C1321.94,1502.19,1322.75,1526.86,1323.55,1551.53z"/>
		<path class="st0" d="M1236.67,1340.76c3.87,33.39,7.74,66.77,11.6,100.16c-23.37-19.22-46.74-38.44-70.11-57.67
			C1197.66,1369.08,1217.17,1354.92,1236.67,1340.76z"/>
		<path class="st0" d="M1263.21,1629.57c-3.02,28.02-6.06,56.05-9.09,84.07c-16.02-8.71-32.02-17.44-48.02-26.16
			C1225.15,1668.17,1244.17,1648.87,1263.21,1629.57z"/>
		<path class="st0" d="M1254.13,1713.64c-0.26,2.95-0.53,5.88-0.78,8.82c-4.67,12.44-9.33,24.86-13.99,37.29
			c-6.81-5.05-13.6-10.09-20.39-15.15C1230.7,1734.27,1242.4,1723.96,1254.13,1713.64z"/>
		<path class="st0" d="M1278.58,1004.92c-15.57,52.16-31.14,104.31-46.71,156.47c-28.98-26.3-57.95-52.6-86.93-78.91
			C1189.49,1056.63,1234.04,1030.77,1278.58,1004.92z"/>
		<path class="st0" d="M1355.97,1582.65c-10.27-10.37-20.54-20.75-30.81-31.12c10.27-0.4,20.54-0.8,30.81-1.21
			C1355.97,1561.1,1355.97,1571.87,1355.97,1582.65z"/>
		<path class="st0" d="M1259.9,465.45c-35.21,19.8-70.42,39.6-105.63,59.4c2.94-27.67,5.87-55.33,8.81-83
			C1195.35,449.71,1227.62,457.58,1259.9,465.45z"/>
		<path class="st0" d="M1332.29,1104.64c-33.47,18.92-66.94,37.83-100.42,56.75c15.57-52.16,31.14-104.31,46.71-156.47
			C1296.49,1038.16,1314.39,1071.4,1332.29,1104.64z"/>
		<path class="st0" d="M1382.82,1367.19c-29.63,8.18-59.27,16.37-88.9,24.55c12.01-23.07,24.03-46.14,36.04-69.21
			C1347.58,1337.42,1365.2,1352.3,1382.82,1367.19z"/>
		<path class="st0" d="M1278.58,1572.42c-34.62,6.71-69.24,13.43-103.86,20.14c10.49-32.4,20.97-64.8,31.46-97.21
			C1230.32,1521.04,1254.45,1546.73,1278.58,1572.42z"/>
		<path class="st0" d="M1308.94,339.33c-16.35,42.04-32.69,84.07-49.04,126.11c-32.28-7.87-64.55-15.73-96.83-23.6
			C1211.7,407.68,1260.32,373.51,1308.94,339.33z"/>
		<path class="st0" d="M1117.44,962.88c53.71,14.01,107.43,28.03,161.14,42.04c-44.54,25.85-89.09,51.71-133.64,77.56
			C1135.78,1042.61,1126.61,1002.75,1117.44,962.88z"/>
		<path class="st0" d="M1293.92,1391.75c12.01-23.07,24.03-46.14,36.04-69.21c-31.1,6.07-62.2,12.15-93.29,18.23
			C1255.75,1357.75,1274.84,1374.75,1293.92,1391.75z"/>
		<path class="st0" d="M1327.63,600.9c-57.79-25.35-115.57-50.7-173.36-76.05c35.21-19.8,70.42-39.6,105.63-59.4
			C1282.47,510.6,1305.05,555.75,1327.63,600.9z"/>
		<path class="st0" d="M1283.16,889.71c-55.24,24.39-110.48,48.78-165.72,73.17c20.24-50.6,40.48-101.2,60.72-151.8
			C1213.16,837.29,1248.16,863.5,1283.16,889.71z"/>
		<path class="st0" d="M1283.16,889.71c-1.53,38.4-3.05,76.8-4.57,115.2c-53.71-14.01-107.43-28.03-161.14-42.04
			C1172.68,938.49,1227.92,914.1,1283.16,889.71z"/>
		<path class="st0" d="M1334.58,1590.25c-2.07,22.22-4.14,44.44-6.21,66.66c-21.72-9.12-43.44-18.23-65.16-27.35
			C1287.01,1616.46,1310.8,1603.35,1334.58,1590.25z"/>
		<path class="st0" d="M1257.57,701.32c8.53,62.8,17.06,125.6,25.59,188.39c-35-26.21-70-52.42-105-78.63
			C1204.63,774.49,1231.1,737.91,1257.57,701.32z"/>
		<path class="st0" d="M1293.92,1391.75c-15.22,16.39-30.43,32.78-45.65,49.17c-3.87-33.39-7.74-66.77-11.6-100.16
			C1255.75,1357.75,1274.84,1374.75,1293.92,1391.75z"/>
		<path class="st0" d="M1402.36,439.76c-47.49,8.56-94.97,17.13-142.46,25.69c16.35-42.04,32.69-84.07,49.04-126.11
			C1340.08,372.81,1371.22,406.28,1402.36,439.76z"/>
		<path class="st0" d="M1247.82,249.7c20.37,29.88,40.75,59.75,61.12,89.63c-43.59-13.23-87.19-26.47-130.78-39.7
			C1201.38,282.99,1224.6,266.35,1247.82,249.7z"/>
		<path class="st0" d="M1321.14,1477.51c-24.29-12.2-48.58-24.4-72.87-36.6c15.22-16.39,30.43-32.78,45.65-49.17
			C1302.99,1420.34,1312.07,1448.93,1321.14,1477.51z"/>
		<path class="st0" d="M1324.97,269.45c-5.34,23.3-10.68,46.59-16.02,69.89c-20.37-29.88-40.74-59.75-61.12-89.63
			C1273.54,256.29,1299.25,262.87,1324.97,269.45z"/>
		<path class="st0" d="M1382.82,1367.19c-10.61,21.7-21.23,43.4-31.84,65.1c-19.02-13.52-38.04-27.03-57.06-40.55
			C1323.55,1383.56,1353.19,1375.38,1382.82,1367.19z"/>
		<path class="st0" d="M1414.57,356.88c-35.21-5.85-70.42-11.7-105.63-17.55c28.67-12.52,57.33-25.04,85.99-37.57
			C1401.48,320.14,1408.02,338.51,1414.57,356.88z"/>
		<path class="st0" d="M1328.38,1657.71c-18.28,18.65-36.58,37.29-54.86,55.93c-3.44-28.02-6.87-56.05-10.31-84.07
			C1284.94,1638.95,1306.66,1648.33,1328.38,1657.71z"/>
		<path class="st0" d="M1328.38,1657.72c-7.3,18.64-14.6,37.28-21.89,55.92c-10.99,0-21.98,0-32.97,0
			C1291.81,1695,1310.09,1676.36,1328.38,1657.72z"/>
		<path class="st0" d="M1324.97,269.45c23.32,10.77,46.65,21.55,69.97,32.32c-28.66,12.52-57.33,25.04-85.99,37.57
			C1314.28,316.04,1319.62,292.74,1324.97,269.45z"/>
		<path class="st0" d="M1334.58,1590.25c-3.68-12.91-7.35-25.82-11.03-38.73C1328.3,1564.43,1331.44,1577.34,1334.58,1590.25
			 M1325.16,1551.53c-0.54,0-1.07,0-1.61,0H1325.16z"/>
		<path class="st0" d="M1334.58,1590.25c-18.67-5.94-37.33-11.89-56-17.84c14.99-6.96,29.98-13.93,44.97-20.89
			C1327.23,1564.43,1330.91,1577.34,1334.58,1590.25z"/>
		<path class="st0" d="M1402.36,439.76c-6.51,30.82-13.02,61.65-19.54,92.47c-40.97-22.26-81.95-44.52-122.92-66.78
			C1307.39,456.88,1354.87,448.32,1402.36,439.76z"/>
		<path class="st0" d="M1332.29,1104.64c-19.02,37.93-38.05,75.85-57.07,113.78c-14.45-19.01-28.9-38.02-43.35-57.03
			C1265.35,1142.47,1298.82,1123.55,1332.29,1104.64z"/>
		<path class="st0" d="M1622.02,702.8c-16.47-15.62-32.94-31.23-49.41-46.84c14.7-6.75,29.41-13.5,44.11-20.25
			C1618.48,658.07,1620.25,680.43,1622.02,702.8z"/>
		<path class="st0" d="M1334.58,1590.25c-18.67-5.94-37.33-11.89-56-17.84c-5.12,19.05-10.24,38.1-15.37,57.14
			C1287.01,1616.46,1310.8,1603.35,1334.58,1590.25z"/>
		<path class="st0" d="M1342.87,1698.24c-12.13,5.13-24.26,10.26-36.39,15.39c7.3-18.64,14.6-37.28,21.89-55.92
			C1333.21,1671.22,1338.04,1684.73,1342.87,1698.24z"/>
		<path class="st0" d="M1355.97,1663.75c-9.2-2.28-18.39-4.56-27.59-6.84c9.2-11.14,18.39-22.28,27.59-33.42
			C1355.97,1636.91,1355.97,1650.33,1355.97,1663.75z"/>
		<path class="st0" d="M1350.98,1432.29c-9.95,15.07-19.89,30.15-29.84,45.22c-9.07-28.59-18.15-57.18-27.22-85.77
			C1312.94,1405.26,1331.96,1418.78,1350.98,1432.29z"/>
		<path class="st0" d="M1355.97,1663.75c-9.2-2.01-18.39-4.03-27.59-6.04C1337.58,1659.19,1346.77,1661.47,1355.97,1663.75
			 M1328.38,1656.91c0,0.27,0,0.53,0,0.8V1656.91z"/>
		<path class="st0" d="M1390.68,1189.41c-20.24,44.37-40.48,88.74-60.72,133.12c-18.25-34.71-36.49-69.41-54.74-104.11
			C1313.71,1208.75,1352.2,1199.08,1390.68,1189.41z"/>
		<path class="st0" d="M1355.97,1582.65c-7.13,2.53-14.26,5.07-21.39,7.6c-3.14-12.91-6.28-25.82-9.42-38.73
			C1335.43,1561.9,1345.7,1572.28,1355.97,1582.65z"/>
		<path class="st0" d="M1334.58,1590.25c7.13,11.08,14.26,22.16,21.39,33.24c-9.2,11.14-18.39,22.28-27.59,33.42
			C1330.45,1634.69,1332.52,1612.47,1334.58,1590.25z"/>
		<path class="st0" d="M1409.36,876.47c-43.59,42.82-87.19,85.63-130.78,128.45c1.52-38.4,3.05-76.8,4.57-115.2
			C1325.23,885.3,1367.3,880.89,1409.36,876.47z"/>
		<path class="st0" d="M1355.97,1663.75c-4.37,11.5-8.73,22.99-13.1,34.49c-4.83-13.51-9.66-27.02-14.49-40.53
			C1337.58,1659.73,1346.77,1661.74,1355.97,1663.75z"/>
		<path class="st0" d="M1332.29,1104.64c19.46,28.26,38.92,56.52,58.39,84.78c-38.49,9.67-76.97,19.34-115.46,29
			C1294.25,1180.49,1313.27,1142.56,1332.29,1104.64z"/>
		<path class="st0" d="M1283.16,889.71c42.07-4.41,84.14-8.83,126.21-13.24c-4.67-38.14-9.34-76.29-14.01-114.43
			C1357.95,804.6,1320.56,847.15,1283.16,889.71z"/>
		<path class="st0" d="M1382.82,532.22c-18.4,22.89-36.8,45.78-55.2,68.67c-22.58-45.15-45.15-90.3-67.73-135.45
			C1300.88,487.71,1341.85,509.96,1382.82,532.22z"/>
		<path class="st0" d="M1414.57,356.88c-4.07,27.63-8.14,55.25-12.21,82.87c-31.14-33.47-62.28-66.95-93.42-100.42
			C1344.15,345.18,1379.36,351.03,1414.57,356.88z"/>
		<path class="st0" d="M1257.57,701.32c45.93,20.24,91.86,40.48,137.79,60.72c-37.4,42.56-74.8,85.12-112.19,127.68
			C1274.63,826.92,1266.1,764.12,1257.57,701.32z"/>
		<path class="st0" d="M1393.54,1510.5c-12.51,13.27-25.04,26.55-37.57,39.82c-11.61-24.27-23.21-48.53-34.83-72.8
			C1345.27,1488.51,1369.41,1499.51,1393.54,1510.5z"/>
		<path class="st0" d="M1432.72,1044.62c-51.38-13.24-102.76-26.47-154.13-39.7c43.59-42.82,87.19-85.63,130.78-128.45
			C1417.15,932.52,1424.93,988.57,1432.72,1044.62z"/>
		<path class="st0" d="M1350.98,1432.29c14.19,26.07,28.37,52.14,42.56,78.21c-24.13-10.99-48.27-21.99-72.4-32.99
			C1331.09,1462.44,1341.03,1447.37,1350.98,1432.29z"/>
		<path class="st0" d="M1408.64,1550.32h-52.67c12.53-13.27,25.06-26.55,37.57-39.82
			C1398.57,1523.77,1403.61,1537.05,1408.64,1550.32z"/>
		<path class="st0" d="M1432.72,1044.62c-14.01,48.26-28.03,96.53-42.04,144.79c-19.46-28.26-38.92-56.52-58.39-84.78
			C1365.77,1084.63,1399.24,1064.62,1432.72,1044.62z"/>
		<path class="st0" d="M1421.35,1387c2.81-18.73,5.63-37.45,8.44-56.18c-15.66,12.12-31.31,24.24-46.97,36.37
			C1395.67,1373.8,1408.51,1380.4,1421.35,1387z"/>
		<path class="st0" d="M1454.25,1407.14c-6.56,12.73-13.12,25.46-19.69,38.21c-4.4-19.46-8.81-38.9-13.21-58.35
			c7.23,2.34,14.45,4.68,21.68,7.02C1446.77,1398.4,1450.52,1402.77,1454.25,1407.14z"/>
		<path class="st0" d="M1329.96,1322.53c33.28,2.76,66.55,5.53,99.83,8.3c-15.66,12.12-31.31,24.24-46.97,36.37
			C1365.2,1352.3,1347.58,1337.42,1329.96,1322.53z"/>
		<path class="st0" d="M1432.72,1044.62c-51.38-13.24-102.76-26.47-154.13-39.7c17.91,33.24,35.81,66.48,53.71,99.72
			C1365.77,1084.63,1399.24,1064.62,1432.72,1044.62z"/>
		<path class="st0" d="M1433.76,1520.16c-8.37,10.05-16.75,20.11-25.12,30.16c-5.02-13.27-10.06-26.55-15.1-39.82
			C1406.95,1513.72,1420.36,1516.93,1433.76,1520.16z"/>
		<path class="st0" d="M1434.57,1445.34c-13.68,21.72-27.35,43.44-41.03,65.16c-14.19-26.07-28.37-52.14-42.56-78.21
			C1378.84,1436.64,1406.71,1440.99,1434.57,1445.34z"/>
		<path class="st0" d="M1622.02,702.8c-2.01,26.75-4.02,53.5-6.03,80.25c-26.06,6.23-52.11,12.46-78.17,18.69
			C1565.88,768.76,1593.95,735.78,1622.02,702.8z"/>
		<path class="st0" d="M1458.13,1482v25.09c-0.62,6.05-1.22,12.08-1.83,18.13c-7.24-1.43-14.5-2.84-21.74-4.26l-0.81-0.79
			C1441.88,1507.43,1450.01,1494.72,1458.13,1482z"/>
		<path class="st0" d="M1458.13,1482c-8.12,12.71-16.25,25.43-24.37,38.16c-13.4-3.23-26.81-6.43-40.22-9.66
			C1415.07,1500.99,1436.59,1491.51,1458.13,1482z"/>
		<path class="st0" d="M1493.34,380.01c-26.26-7.71-52.51-15.42-78.77-23.13c13.58-4.24,27.15-8.48,40.73-12.73
			C1467.98,356.11,1480.66,368.06,1493.34,380.01z"/>
		<path class="st0" d="M1493.34,380.01c-30.33,19.91-60.65,39.83-90.98,59.74c4.07-27.63,8.14-55.25,12.21-82.87
			C1440.83,364.59,1467.08,372.3,1493.34,380.01z"/>
		<path class="st0" d="M1487.62,1142.54c-10.6,30.12-21.21,60.23-31.81,90.35c-21.71-14.49-43.42-28.98-65.12-43.47
			C1422.99,1173.79,1455.3,1158.17,1487.62,1142.54z"/>
		<path class="st0" d="M1456.3,1525.21c-5.26,6.57-10.5,13.15-15.74,19.72c-2-7.99-4-15.99-6-23.99
			C1441.8,1522.38,1449.06,1523.79,1456.3,1525.21z"/>
		<path class="st0" d="M1537.81,801.74c28.07-32.98,56.14-65.96,84.2-98.94c-16.47-15.62-32.94-31.23-49.41-46.84
			C1561,704.55,1549.41,753.15,1537.81,801.74z"/>
		<path class="st0" d="M1463.08,649.94c-45.15-16.35-90.3-32.7-135.45-49.04c18.4-22.89,36.8-45.78,55.2-68.67
			C1409.58,571.46,1436.33,610.7,1463.08,649.94z"/>
		<path class="st0" d="M1463.08,649.94c-22.58,37.37-45.15,74.73-67.73,112.1c-22.58-53.71-45.15-107.43-67.72-161.14
			C1372.78,617.24,1417.93,633.59,1463.08,649.94z"/>
		<path class="st0" d="M1479.56,944.27c-15.62,33.45-31.23,66.9-46.84,100.35c-7.78-56.05-15.57-112.1-23.35-168.15
			C1432.76,899.07,1456.16,921.67,1479.56,944.27z"/>
		<path class="st0" d="M1512.12,535.5c-43.1-1.09-86.2-2.19-129.3-3.28c6.51-30.82,13.02-61.65,19.54-92.47
			C1438.95,471.67,1475.53,503.59,1512.12,535.5z"/>
		<path class="st0" d="M1572.6,655.96c14.7-6.75,29.41-13.5,44.11-20.25c-5.5-23.96-11-47.92-16.5-71.88
			C1591.01,594.54,1581.8,625.25,1572.6,655.96z"/>
		<path class="st0" d="M1540.56,996.52c-11.3,30.75-22.61,61.5-33.91,92.26c-24.64-14.72-49.29-29.44-73.93-44.16
			C1468.66,1028.58,1504.61,1012.55,1540.56,996.52z"/>
		<path class="st0" d="M1479.56,944.27c20.33,17.42,40.66,34.83,61,52.25c-35.95,16.03-71.89,32.07-107.84,48.1
			C1448.33,1011.17,1463.95,977.72,1479.56,944.27z"/>
		<path class="st0" d="M1537.81,801.74c-42.82,24.91-85.63,49.82-128.45,74.73c-4.67-38.14-9.34-76.29-14.01-114.43
			C1442.84,775.27,1490.33,788.51,1537.81,801.74z"/>
		<path class="st0" d="M1537.81,801.74c-19.42,47.51-38.83,95.02-58.25,142.53c-23.4-22.6-46.8-45.2-70.2-67.8
			C1452.18,851.56,1495,826.65,1537.81,801.74z"/>
		<path class="st0" d="M1506.64,1088.78c-6.34,17.92-12.68,35.84-19.03,53.77c-18.3-32.64-36.6-65.28-54.9-97.92
			C1457.36,1059.34,1482,1074.06,1506.64,1088.78z"/>
		<path class="st0" d="M1512.12,535.5c-16.35,38.15-32.69,76.29-49.04,114.44c-26.75-39.24-53.5-78.48-80.26-117.72
			C1425.92,533.32,1469.02,534.41,1512.12,535.5z"/>
		<path class="st0" d="M1615.98,783.05c-5.11,21.79-10.22,43.59-15.33,65.38c-20.95-15.56-41.89-31.13-62.84-46.69
			C1563.87,795.51,1589.93,789.28,1615.98,783.05z"/>
		<path class="st0" d="M1600.65,848.43c-6.37,16.99-12.74,33.99-19.11,50.98c-14.58-32.55-29.15-65.11-43.73-97.67
			C1558.76,817.3,1579.71,832.87,1600.65,848.43z"/>
		<path class="st0" d="M1600.21,563.83c-29.37-9.44-58.73-18.88-88.09-28.32c19.71-14.58,39.42-29.15,59.12-43.73
			C1580.9,515.8,1590.56,539.81,1600.21,563.83z"/>
		<path class="st0" d="M1571.24,491.78c-20.41-12.94-40.82-25.87-61.24-38.81c11-3.41,21.99-6.82,32.99-10.23
			C1552.41,459.08,1561.83,475.43,1571.24,491.78z"/>
		<path class="st0" d="M1493.34,380.01c16.55,20.91,33.11,41.81,49.66,62.72c-11,3.41-21.99,6.82-32.99,10.23
			C1504.45,428.65,1498.89,404.33,1493.34,380.01z"/>
		<path class="st0" d="M1600.21,563.83c-29.37-9.44-58.73-18.88-88.09-28.32c20.16,40.15,40.32,80.3,60.48,120.45
			C1581.8,625.25,1591.01,594.54,1600.21,563.83z"/>
		<path class="st0" d="M1571.24,491.78c-20.41-12.94-40.82-25.87-61.24-38.81c0.7,27.51,1.41,55.02,2.11,82.54
			C1531.83,520.93,1551.54,506.35,1571.24,491.78z"/>
		<path class="st0" d="M1581.54,899.41c-33.99,14.95-67.99,29.91-101.98,44.86c31.27-8.81,62.54-17.62,93.8-26.43
			C1576.09,911.7,1578.82,905.55,1581.54,899.41z"/>
	</g>
	<g>
		
			<radialGradient id="SVGID_1_" cx="631.4603" cy="798.8856" r="6.9204" gradientTransform="matrix(-2.2409 0 0 2.2409 2541.8293 -1170.6428)" gradientUnits="userSpaceOnUse">
			<stop  offset="0" style="stop-color:#FFFFFF"/>
			<stop  offset="0.121" style="stop-color:#FFFFFF"/>
			<stop  offset="0.1339" style="stop-color:#F2F9F8"/>
			<stop  offset="0.2159" style="stop-color:#A6D6CD"/>
			<stop  offset="0.2744" style="stop-color:#76C0B1"/>
			<stop  offset="0.3034" style="stop-color:#63B7A7"/>
			<stop  offset="0.3679" style="stop-color:#37A18E"/>
			<stop  offset="0.4257" style="stop-color:#138F7A"/>
			<stop  offset="0.4679" style="stop-color:#11816E"/>
			<stop  offset="0.6478" style="stop-color:#0A4A3F"/>
			<stop  offset="0.8028" style="stop-color:#04221D"/>
			<stop  offset="0.9253" style="stop-color:#010908"/>
			<stop  offset="1" style="stop-color:#000000"/>
		</radialGradient>
		<radialGradient id="SVGID_2_" cx="1126.79" cy="619.58" r="15.7578" gradientUnits="userSpaceOnUse">
			<stop  offset="0" style="stop-color:#FFFFFF"/>
			<stop  offset="0.121" style="stop-color:#FFFFFF"/>
			<stop  offset="0.1617" style="stop-color:#CEE7FB"/>
			<stop  offset="0.2302" style="stop-color:#82C1F5"/>
			<stop  offset="0.2792" style="stop-color:#52A9F1"/>
			<stop  offset="0.3034" style="stop-color:#3FA0F0"/>
			<stop  offset="0.3231" style="stop-color:#379ED6"/>
			<stop  offset="0.3938" style="stop-color:#1D987C"/>
			<stop  offset="0.4257" style="stop-color:#139558"/>
			<stop  offset="0.431" style="stop-color:#139558"/>
			<stop  offset="0.7841" style="stop-color:#139171"/>
			<stop  offset="1" style="stop-color:#138F7A"/>
		</radialGradient>
		<path class="st1" d="M1126.38,635.08c-4.14-0.11-7.99-1.82-10.84-4.83c-2.85-3-4.36-6.94-4.25-11.08
			c0.22-8.47,7.03-15.1,15.49-15.1l0.42,0.01c8.55,0.23,15.32,7.36,15.09,15.91c-0.22,8.47-7.03,15.1-15.49,15.1L1126.38,635.08z"/>
		
			<radialGradient id="SVGID_3_" cx="615.2658" cy="719.3417" r="6.9204" gradientTransform="matrix(-2.2409 0 0 2.2409 2541.8293 -1170.6428)" gradientUnits="userSpaceOnUse">
			<stop  offset="0" style="stop-color:#FFFFFF"/>
			<stop  offset="0.121" style="stop-color:#FFFFFF"/>
			<stop  offset="0.1339" style="stop-color:#F2F9F8"/>
			<stop  offset="0.2159" style="stop-color:#A6D6CD"/>
			<stop  offset="0.2744" style="stop-color:#76C0B1"/>
			<stop  offset="0.3034" style="stop-color:#63B7A7"/>
			<stop  offset="0.3679" style="stop-color:#37A18E"/>
			<stop  offset="0.4257" style="stop-color:#138F7A"/>
			<stop  offset="0.4679" style="stop-color:#11816E"/>
			<stop  offset="0.6478" style="stop-color:#0A4A3F"/>
			<stop  offset="0.8028" style="stop-color:#04221D"/>
			<stop  offset="0.9253" style="stop-color:#010908"/>
			<stop  offset="1" style="stop-color:#000000"/>
		</radialGradient>
		<radialGradient id="SVGID_4_" cx="1163.0801" cy="441.33" r="15.7578" gradientUnits="userSpaceOnUse">
			<stop  offset="0" style="stop-color:#FFFFFF"/>
			<stop  offset="0.121" style="stop-color:#FFFFFF"/>
			<stop  offset="0.1617" style="stop-color:#CEE7FB"/>
			<stop  offset="0.2302" style="stop-color:#82C1F5"/>
			<stop  offset="0.2792" style="stop-color:#52A9F1"/>
			<stop  offset="0.3034" style="stop-color:#3FA0F0"/>
			<stop  offset="0.3231" style="stop-color:#379ED6"/>
			<stop  offset="0.3938" style="stop-color:#1D987C"/>
			<stop  offset="0.4257" style="stop-color:#139558"/>
			<stop  offset="0.431" style="stop-color:#139558"/>
			<stop  offset="0.7841" style="stop-color:#139171"/>
			<stop  offset="1" style="stop-color:#138F7A"/>
		</radialGradient>
		<path class="st2" d="M1162.67,456.83c-4.14-0.11-7.99-1.82-10.84-4.83c-2.85-3-4.36-6.94-4.25-11.08
			c0.22-8.47,7.03-15.1,15.49-15.1l0.42,0.01c8.55,0.23,15.32,7.36,15.09,15.91c-0.22,8.47-7.03,15.1-15.49,15.1L1162.67,456.83z"/>
		
			<radialGradient id="SVGID_5_" cx="842.0275" cy="652.8506" r="6.9204" gradientTransform="matrix(-2.2409 0 0 2.2409 2541.8293 -1170.6428)" gradientUnits="userSpaceOnUse">
			<stop  offset="0" style="stop-color:#FFFFFF"/>
			<stop  offset="0.121" style="stop-color:#FFFFFF"/>
			<stop  offset="0.1339" style="stop-color:#F2F9F8"/>
			<stop  offset="0.2159" style="stop-color:#A6D6CD"/>
			<stop  offset="0.2744" style="stop-color:#76C0B1"/>
			<stop  offset="0.3034" style="stop-color:#63B7A7"/>
			<stop  offset="0.3679" style="stop-color:#37A18E"/>
			<stop  offset="0.4257" style="stop-color:#138F7A"/>
			<stop  offset="0.4679" style="stop-color:#11816E"/>
			<stop  offset="0.6478" style="stop-color:#0A4A3F"/>
			<stop  offset="0.8028" style="stop-color:#04221D"/>
			<stop  offset="0.9253" style="stop-color:#010908"/>
			<stop  offset="1" style="stop-color:#000000"/>
		</radialGradient>
		<radialGradient id="SVGID_6_" cx="654.9301" cy="292.33" r="15.7578" gradientUnits="userSpaceOnUse">
			<stop  offset="0" style="stop-color:#FFFFFF"/>
			<stop  offset="0.121" style="stop-color:#FFFFFF"/>
			<stop  offset="0.1617" style="stop-color:#CEE7FB"/>
			<stop  offset="0.2302" style="stop-color:#82C1F5"/>
			<stop  offset="0.2792" style="stop-color:#52A9F1"/>
			<stop  offset="0.3034" style="stop-color:#3FA0F0"/>
			<stop  offset="0.3231" style="stop-color:#379ED6"/>
			<stop  offset="0.3938" style="stop-color:#1D987C"/>
			<stop  offset="0.4257" style="stop-color:#139558"/>
			<stop  offset="0.431" style="stop-color:#139558"/>
			<stop  offset="0.7841" style="stop-color:#139171"/>
			<stop  offset="1" style="stop-color:#138F7A"/>
		</radialGradient>
		<path class="st3" d="M654.52,307.83c-4.14-0.11-7.99-1.82-10.84-4.83c-2.85-3-4.36-6.94-4.25-11.08
			c0.22-8.47,7.03-15.1,15.49-15.1l0.42,0.01c8.55,0.23,15.32,7.36,15.09,15.91c-0.22,8.47-7.03,15.1-15.49,15.1L654.52,307.83z"/>
		
			<radialGradient id="SVGID_7_" cx="810.848" cy="729.4359" r="6.9204" gradientTransform="matrix(-2.2409 0 0 2.2409 2541.8293 -1170.6428)" gradientUnits="userSpaceOnUse">
			<stop  offset="0" style="stop-color:#FFFFFF"/>
			<stop  offset="0.121" style="stop-color:#FFFFFF"/>
			<stop  offset="0.1339" style="stop-color:#F2F9F8"/>
			<stop  offset="0.2159" style="stop-color:#A6D6CD"/>
			<stop  offset="0.2744" style="stop-color:#76C0B1"/>
			<stop  offset="0.3034" style="stop-color:#63B7A7"/>
			<stop  offset="0.3679" style="stop-color:#37A18E"/>
			<stop  offset="0.4257" style="stop-color:#138F7A"/>
			<stop  offset="0.4679" style="stop-color:#11816E"/>
			<stop  offset="0.6478" style="stop-color:#0A4A3F"/>
			<stop  offset="0.8028" style="stop-color:#04221D"/>
			<stop  offset="0.9253" style="stop-color:#010908"/>
			<stop  offset="1" style="stop-color:#000000"/>
		</radialGradient>
		<radialGradient id="SVGID_8_" cx="724.8" cy="463.95" r="15.7578" gradientUnits="userSpaceOnUse">
			<stop  offset="0" style="stop-color:#FFFFFF"/>
			<stop  offset="0.121" style="stop-color:#FFFFFF"/>
			<stop  offset="0.1617" style="stop-color:#CEE7FB"/>
			<stop  offset="0.2302" style="stop-color:#82C1F5"/>
			<stop  offset="0.2792" style="stop-color:#52A9F1"/>
			<stop  offset="0.3034" style="stop-color:#3FA0F0"/>
			<stop  offset="0.3231" style="stop-color:#379ED6"/>
			<stop  offset="0.3938" style="stop-color:#1D987C"/>
			<stop  offset="0.4257" style="stop-color:#139558"/>
			<stop  offset="0.431" style="stop-color:#139558"/>
			<stop  offset="0.7841" style="stop-color:#139171"/>
			<stop  offset="1" style="stop-color:#138F7A"/>
		</radialGradient>
		<path class="st4" d="M724.39,479.45c-4.14-0.11-7.99-1.82-10.84-4.83c-2.85-3-4.36-6.94-4.25-11.08
			c0.22-8.47,7.03-15.1,15.49-15.1l0.42,0.01c8.55,0.23,15.32,7.36,15.09,15.91c-0.22,8.47-7.03,15.1-15.49,15.1L724.39,479.45z"/>
		
			<radialGradient id="SVGID_9_" cx="729.4834" cy="669.9464" r="6.9204" gradientTransform="matrix(-2.2409 0 0 2.2409 2541.8293 -1170.6428)" gradientUnits="userSpaceOnUse">
			<stop  offset="0" style="stop-color:#FFFFFF"/>
			<stop  offset="0.121" style="stop-color:#FFFFFF"/>
			<stop  offset="0.1339" style="stop-color:#F2F9F8"/>
			<stop  offset="0.2159" style="stop-color:#A6D6CD"/>
			<stop  offset="0.2744" style="stop-color:#76C0B1"/>
			<stop  offset="0.3034" style="stop-color:#63B7A7"/>
			<stop  offset="0.3679" style="stop-color:#37A18E"/>
			<stop  offset="0.4257" style="stop-color:#138F7A"/>
			<stop  offset="0.4679" style="stop-color:#11816E"/>
			<stop  offset="0.6478" style="stop-color:#0A4A3F"/>
			<stop  offset="0.8028" style="stop-color:#04221D"/>
			<stop  offset="0.9253" style="stop-color:#010908"/>
			<stop  offset="1" style="stop-color:#000000"/>
		</radialGradient>
		<radialGradient id="SVGID_10_" cx="907.13" cy="330.64" r="15.7578" gradientUnits="userSpaceOnUse">
			<stop  offset="0" style="stop-color:#FFFFFF"/>
			<stop  offset="0.121" style="stop-color:#FFFFFF"/>
			<stop  offset="0.1617" style="stop-color:#CEE7FB"/>
			<stop  offset="0.2302" style="stop-color:#82C1F5"/>
			<stop  offset="0.2792" style="stop-color:#52A9F1"/>
			<stop  offset="0.3034" style="stop-color:#3FA0F0"/>
			<stop  offset="0.3231" style="stop-color:#379ED6"/>
			<stop  offset="0.3938" style="stop-color:#1D987C"/>
			<stop  offset="0.4257" style="stop-color:#139558"/>
			<stop  offset="0.431" style="stop-color:#139558"/>
			<stop  offset="0.7841" style="stop-color:#139171"/>
			<stop  offset="1" style="stop-color:#138F7A"/>
		</radialGradient>
		<path class="st5" d="M906.72,346.14c-4.14-0.11-7.99-1.82-10.84-4.83c-2.85-3-4.36-6.94-4.25-11.08
			c0.22-8.47,7.03-15.1,15.49-15.1l0.42,0.01c8.55,0.23,15.32,7.36,15.09,15.91c-0.22,8.47-7.03,15.1-15.49,15.1L906.72,346.14z"/>
		
			<radialGradient id="SVGID_11_" cx="580.7083" cy="1307.3867" r="6.9204" gradientTransform="matrix(-2.2409 0 0 2.2409 2541.8293 -1170.6428)" gradientUnits="userSpaceOnUse">
			<stop  offset="0" style="stop-color:#FFFFFF"/>
			<stop  offset="0.121" style="stop-color:#FFFFFF"/>
			<stop  offset="0.1339" style="stop-color:#F2F9F8"/>
			<stop  offset="0.2159" style="stop-color:#A6D6CD"/>
			<stop  offset="0.2744" style="stop-color:#76C0B1"/>
			<stop  offset="0.3034" style="stop-color:#63B7A7"/>
			<stop  offset="0.3679" style="stop-color:#37A18E"/>
			<stop  offset="0.4257" style="stop-color:#138F7A"/>
			<stop  offset="0.4679" style="stop-color:#11816E"/>
			<stop  offset="0.6478" style="stop-color:#0A4A3F"/>
			<stop  offset="0.8028" style="stop-color:#04221D"/>
			<stop  offset="0.9253" style="stop-color:#010908"/>
			<stop  offset="1" style="stop-color:#000000"/>
		</radialGradient>
		<radialGradient id="SVGID_12_" cx="1240.52" cy="1759.0801" r="15.7578" gradientUnits="userSpaceOnUse">
			<stop  offset="0" style="stop-color:#FFFFFF"/>
			<stop  offset="0.121" style="stop-color:#FFFFFF"/>
			<stop  offset="0.1617" style="stop-color:#CEE7FB"/>
			<stop  offset="0.2302" style="stop-color:#82C1F5"/>
			<stop  offset="0.2792" style="stop-color:#52A9F1"/>
			<stop  offset="0.3034" style="stop-color:#3FA0F0"/>
			<stop  offset="0.3231" style="stop-color:#379ED6"/>
			<stop  offset="0.3938" style="stop-color:#1D987C"/>
			<stop  offset="0.4257" style="stop-color:#139558"/>
			<stop  offset="0.431" style="stop-color:#139558"/>
			<stop  offset="0.7841" style="stop-color:#139171"/>
			<stop  offset="1" style="stop-color:#138F7A"/>
		</radialGradient>
		<path class="st6" d="M1240.11,1774.58c-4.14-0.11-7.99-1.82-10.84-4.83c-2.85-3-4.36-6.94-4.25-11.08
			c0.22-8.47,7.03-15.1,15.49-15.1l0.42,0.01c8.55,0.23,15.32,7.36,15.09,15.91c-0.22,8.47-7.03,15.1-15.49,15.1L1240.11,1774.58z"
			/>
		
			<radialGradient id="SVGID_13_" cx="636.4359" cy="1312.9872" r="6.9204" gradientTransform="matrix(-2.2409 0 0 2.2409 2541.8293 -1170.6428)" gradientUnits="userSpaceOnUse">
			<stop  offset="0" style="stop-color:#FFFFFF"/>
			<stop  offset="0.121" style="stop-color:#FFFFFF"/>
			<stop  offset="0.1339" style="stop-color:#F2F9F8"/>
			<stop  offset="0.2159" style="stop-color:#A6D6CD"/>
			<stop  offset="0.2744" style="stop-color:#76C0B1"/>
			<stop  offset="0.3034" style="stop-color:#63B7A7"/>
			<stop  offset="0.3679" style="stop-color:#37A18E"/>
			<stop  offset="0.4257" style="stop-color:#138F7A"/>
			<stop  offset="0.4679" style="stop-color:#11816E"/>
			<stop  offset="0.6478" style="stop-color:#0A4A3F"/>
			<stop  offset="0.8028" style="stop-color:#04221D"/>
			<stop  offset="0.9253" style="stop-color:#010908"/>
			<stop  offset="1" style="stop-color:#000000"/>
		</radialGradient>
		<radialGradient id="SVGID_14_" cx="1115.64" cy="1771.6301" r="15.7578" gradientUnits="userSpaceOnUse">
			<stop  offset="0" style="stop-color:#FFFFFF"/>
			<stop  offset="0.121" style="stop-color:#FFFFFF"/>
			<stop  offset="0.1617" style="stop-color:#CEE7FB"/>
			<stop  offset="0.2302" style="stop-color:#82C1F5"/>
			<stop  offset="0.2792" style="stop-color:#52A9F1"/>
			<stop  offset="0.3034" style="stop-color:#3FA0F0"/>
			<stop  offset="0.3231" style="stop-color:#379ED6"/>
			<stop  offset="0.3938" style="stop-color:#1D987C"/>
			<stop  offset="0.4257" style="stop-color:#139558"/>
			<stop  offset="0.431" style="stop-color:#139558"/>
			<stop  offset="0.7841" style="stop-color:#139171"/>
			<stop  offset="1" style="stop-color:#138F7A"/>
		</radialGradient>
		<path class="st7" d="M1115.23,1787.13c-4.14-0.11-7.99-1.82-10.84-4.83c-2.85-3-4.36-6.94-4.25-11.08
			c0.22-8.47,7.03-15.1,15.49-15.1l0.42,0.01c8.55,0.23,15.32,7.36,15.09,15.91c-0.22,8.47-7.03,15.1-15.49,15.1L1115.23,1787.13z"
			/>
		
			<radialGradient id="SVGID_15_" cx="855.9995" cy="913.4333" r="6.9204" gradientTransform="matrix(-2.2409 0 0 2.2409 2541.8293 -1170.6428)" gradientUnits="userSpaceOnUse">
			<stop  offset="0" style="stop-color:#FFFFFF"/>
			<stop  offset="0.121" style="stop-color:#FFFFFF"/>
			<stop  offset="0.1339" style="stop-color:#F2F9F8"/>
			<stop  offset="0.2159" style="stop-color:#A6D6CD"/>
			<stop  offset="0.2744" style="stop-color:#76C0B1"/>
			<stop  offset="0.3034" style="stop-color:#63B7A7"/>
			<stop  offset="0.3679" style="stop-color:#37A18E"/>
			<stop  offset="0.4257" style="stop-color:#138F7A"/>
			<stop  offset="0.4679" style="stop-color:#11816E"/>
			<stop  offset="0.6478" style="stop-color:#0A4A3F"/>
			<stop  offset="0.8028" style="stop-color:#04221D"/>
			<stop  offset="0.9253" style="stop-color:#010908"/>
			<stop  offset="1" style="stop-color:#000000"/>
		</radialGradient>
		<radialGradient id="SVGID_16_" cx="623.6201" cy="876.27" r="15.7578" gradientUnits="userSpaceOnUse">
			<stop  offset="0" style="stop-color:#FFFFFF"/>
			<stop  offset="0.121" style="stop-color:#FFFFFF"/>
			<stop  offset="0.1617" style="stop-color:#CEE7FB"/>
			<stop  offset="0.2302" style="stop-color:#82C1F5"/>
			<stop  offset="0.2792" style="stop-color:#52A9F1"/>
			<stop  offset="0.3034" style="stop-color:#3FA0F0"/>
			<stop  offset="0.3231" style="stop-color:#379ED6"/>
			<stop  offset="0.3938" style="stop-color:#1D987C"/>
			<stop  offset="0.4257" style="stop-color:#139558"/>
			<stop  offset="0.431" style="stop-color:#139558"/>
			<stop  offset="0.7841" style="stop-color:#139171"/>
			<stop  offset="1" style="stop-color:#138F7A"/>
		</radialGradient>
		<path class="st8" d="M623.21,891.77c-4.14-0.11-7.99-1.82-10.84-4.83c-2.85-3-4.36-6.94-4.25-11.08
			c0.22-8.47,7.03-15.1,15.49-15.1l0.42,0.01c8.55,0.23,15.32,7.36,15.09,15.91c-0.22,8.47-7.03,15.1-15.49,15.1L623.21,891.77z"/>
		
			<radialGradient id="SVGID_17_" cx="803.3688" cy="1014.5401" r="6.9204" gradientTransform="matrix(-2.2409 0 0 2.2409 2541.8293 -1170.6428)" gradientUnits="userSpaceOnUse">
			<stop  offset="0" style="stop-color:#FFFFFF"/>
			<stop  offset="0.121" style="stop-color:#FFFFFF"/>
			<stop  offset="0.1339" style="stop-color:#F2F9F8"/>
			<stop  offset="0.2159" style="stop-color:#A6D6CD"/>
			<stop  offset="0.2744" style="stop-color:#76C0B1"/>
			<stop  offset="0.3034" style="stop-color:#63B7A7"/>
			<stop  offset="0.3679" style="stop-color:#37A18E"/>
			<stop  offset="0.4257" style="stop-color:#138F7A"/>
			<stop  offset="0.4679" style="stop-color:#11816E"/>
			<stop  offset="0.6478" style="stop-color:#0A4A3F"/>
			<stop  offset="0.8028" style="stop-color:#04221D"/>
			<stop  offset="0.9253" style="stop-color:#010908"/>
			<stop  offset="1" style="stop-color:#000000"/>
		</radialGradient>
		<radialGradient id="SVGID_18_" cx="741.5601" cy="1102.8401" r="15.7578" gradientUnits="userSpaceOnUse">
			<stop  offset="0" style="stop-color:#FFFFFF"/>
			<stop  offset="0.121" style="stop-color:#FFFFFF"/>
			<stop  offset="0.1617" style="stop-color:#CEE7FB"/>
			<stop  offset="0.2302" style="stop-color:#82C1F5"/>
			<stop  offset="0.2792" style="stop-color:#52A9F1"/>
			<stop  offset="0.3034" style="stop-color:#3FA0F0"/>
			<stop  offset="0.3231" style="stop-color:#379ED6"/>
			<stop  offset="0.3938" style="stop-color:#1D987C"/>
			<stop  offset="0.4257" style="stop-color:#139558"/>
			<stop  offset="0.431" style="stop-color:#139558"/>
			<stop  offset="0.7841" style="stop-color:#139171"/>
			<stop  offset="1" style="stop-color:#138F7A"/>
		</radialGradient>
		<path class="st9" d="M741.15,1118.34c-4.14-0.11-7.99-1.82-10.84-4.83c-2.85-3-4.36-6.94-4.25-11.08
			c0.22-8.47,7.03-15.1,15.49-15.1l0.42,0.01c8.55,0.23,15.32,7.36,15.09,15.91c-0.22,8.47-7.03,15.1-15.49,15.1L741.15,1118.34z"/>
		
			<radialGradient id="SVGID_19_" cx="754.866" cy="1088.0909" r="6.9204" gradientTransform="matrix(-2.2409 0 0 2.2409 2541.8293 -1170.6428)" gradientUnits="userSpaceOnUse">
			<stop  offset="0" style="stop-color:#FFFFFF"/>
			<stop  offset="0.121" style="stop-color:#FFFFFF"/>
			<stop  offset="0.1339" style="stop-color:#F2F9F8"/>
			<stop  offset="0.2159" style="stop-color:#A6D6CD"/>
			<stop  offset="0.2744" style="stop-color:#76C0B1"/>
			<stop  offset="0.3034" style="stop-color:#63B7A7"/>
			<stop  offset="0.3679" style="stop-color:#37A18E"/>
			<stop  offset="0.4257" style="stop-color:#138F7A"/>
			<stop  offset="0.4679" style="stop-color:#11816E"/>
			<stop  offset="0.6478" style="stop-color:#0A4A3F"/>
			<stop  offset="0.8028" style="stop-color:#04221D"/>
			<stop  offset="0.9253" style="stop-color:#010908"/>
			<stop  offset="1" style="stop-color:#000000"/>
		</radialGradient>
		<radialGradient id="SVGID_20_" cx="850.2501" cy="1267.6602" r="15.7578" gradientUnits="userSpaceOnUse">
			<stop  offset="0" style="stop-color:#FFFFFF"/>
			<stop  offset="0.121" style="stop-color:#FFFFFF"/>
			<stop  offset="0.1617" style="stop-color:#CEE7FB"/>
			<stop  offset="0.2302" style="stop-color:#82C1F5"/>
			<stop  offset="0.2792" style="stop-color:#52A9F1"/>
			<stop  offset="0.3034" style="stop-color:#3FA0F0"/>
			<stop  offset="0.3231" style="stop-color:#379ED6"/>
			<stop  offset="0.3938" style="stop-color:#1D987C"/>
			<stop  offset="0.4257" style="stop-color:#139558"/>
			<stop  offset="0.431" style="stop-color:#139558"/>
			<stop  offset="0.7841" style="stop-color:#139171"/>
			<stop  offset="1" style="stop-color:#138F7A"/>
		</radialGradient>
		<path class="st10" d="M849.84,1283.16c-4.14-0.11-7.99-1.82-10.84-4.83c-2.85-3-4.36-6.94-4.25-11.08
			c0.22-8.47,7.03-15.1,15.49-15.1l0.42,0.01c8.55,0.23,15.32,7.36,15.09,15.91c-0.22,8.47-7.03,15.1-15.49,15.1L849.84,1283.16z"/>
		
			<radialGradient id="SVGID_21_" cx="786.9067" cy="1184.3513" r="6.9204" gradientTransform="matrix(-2.2409 0 0 2.2409 2541.8293 -1170.6428)" gradientUnits="userSpaceOnUse">
			<stop  offset="0" style="stop-color:#FFFFFF"/>
			<stop  offset="0.121" style="stop-color:#FFFFFF"/>
			<stop  offset="0.1339" style="stop-color:#F2F9F8"/>
			<stop  offset="0.2159" style="stop-color:#A6D6CD"/>
			<stop  offset="0.2744" style="stop-color:#76C0B1"/>
			<stop  offset="0.3034" style="stop-color:#63B7A7"/>
			<stop  offset="0.3679" style="stop-color:#37A18E"/>
			<stop  offset="0.4257" style="stop-color:#138F7A"/>
			<stop  offset="0.4679" style="stop-color:#11816E"/>
			<stop  offset="0.6478" style="stop-color:#0A4A3F"/>
			<stop  offset="0.8028" style="stop-color:#04221D"/>
			<stop  offset="0.9253" style="stop-color:#010908"/>
			<stop  offset="1" style="stop-color:#000000"/>
		</radialGradient>
		<radialGradient id="SVGID_22_" cx="778.45" cy="1483.3701" r="15.7578" gradientUnits="userSpaceOnUse">
			<stop  offset="0" style="stop-color:#FFFFFF"/>
			<stop  offset="0.121" style="stop-color:#FFFFFF"/>
			<stop  offset="0.1617" style="stop-color:#CEE7FB"/>
			<stop  offset="0.2302" style="stop-color:#82C1F5"/>
			<stop  offset="0.2792" style="stop-color:#52A9F1"/>
			<stop  offset="0.3034" style="stop-color:#3FA0F0"/>
			<stop  offset="0.3231" style="stop-color:#379ED6"/>
			<stop  offset="0.3938" style="stop-color:#1D987C"/>
			<stop  offset="0.4257" style="stop-color:#139558"/>
			<stop  offset="0.431" style="stop-color:#139558"/>
			<stop  offset="0.7841" style="stop-color:#139171"/>
			<stop  offset="1" style="stop-color:#138F7A"/>
		</radialGradient>
		<path class="st11" d="M778.04,1498.87c-4.14-0.11-7.99-1.82-10.84-4.83c-2.85-3-4.36-6.94-4.25-11.08
			c0.22-8.47,7.03-15.1,15.49-15.1l0.42,0.01c8.55,0.23,15.32,7.36,15.09,15.91c-0.22,8.47-7.03,15.1-15.49,15.1L778.04,1498.87z"/>
		
			<radialGradient id="SVGID_23_" cx="713.829" cy="1261.8961" r="6.9204" gradientTransform="matrix(-2.2409 0 0 2.2409 2541.8293 -1170.6428)" gradientUnits="userSpaceOnUse">
			<stop  offset="0" style="stop-color:#FFFFFF"/>
			<stop  offset="0.121" style="stop-color:#FFFFFF"/>
			<stop  offset="0.1339" style="stop-color:#F2F9F8"/>
			<stop  offset="0.2159" style="stop-color:#A6D6CD"/>
			<stop  offset="0.2744" style="stop-color:#76C0B1"/>
			<stop  offset="0.3034" style="stop-color:#63B7A7"/>
			<stop  offset="0.3679" style="stop-color:#37A18E"/>
			<stop  offset="0.4257" style="stop-color:#138F7A"/>
			<stop  offset="0.4679" style="stop-color:#11816E"/>
			<stop  offset="0.6478" style="stop-color:#0A4A3F"/>
			<stop  offset="0.8028" style="stop-color:#04221D"/>
			<stop  offset="0.9253" style="stop-color:#010908"/>
			<stop  offset="1" style="stop-color:#000000"/>
		</radialGradient>
		<radialGradient id="SVGID_24_" cx="942.21" cy="1657.1401" r="15.7578" gradientUnits="userSpaceOnUse">
			<stop  offset="0" style="stop-color:#FFFFFF"/>
			<stop  offset="0.121" style="stop-color:#FFFFFF"/>
			<stop  offset="0.1617" style="stop-color:#CEE7FB"/>
			<stop  offset="0.2302" style="stop-color:#82C1F5"/>
			<stop  offset="0.2792" style="stop-color:#52A9F1"/>
			<stop  offset="0.3034" style="stop-color:#3FA0F0"/>
			<stop  offset="0.3231" style="stop-color:#379ED6"/>
			<stop  offset="0.3938" style="stop-color:#1D987C"/>
			<stop  offset="0.4257" style="stop-color:#139558"/>
			<stop  offset="0.431" style="stop-color:#139558"/>
			<stop  offset="0.7841" style="stop-color:#139171"/>
			<stop  offset="1" style="stop-color:#138F7A"/>
		</radialGradient>
		<path class="st12" d="M941.8,1672.64c-4.14-0.11-7.99-1.82-10.84-4.83c-2.85-3-4.36-6.94-4.25-11.08
			c0.22-8.47,7.03-15.1,15.49-15.1l0.42,0.01c8.55,0.23,15.32,7.36,15.09,15.91c-0.22,8.47-7.03,15.1-15.49,15.1L941.8,1672.64z"/>
		
			<radialGradient id="SVGID_25_" cx="608.349" cy="656.1082" r="6.9204" gradientTransform="matrix(-2.2409 0 0 2.2409 2541.8293 -1170.6428)" gradientUnits="userSpaceOnUse">
			<stop  offset="0" style="stop-color:#FFFFFF"/>
			<stop  offset="0.121" style="stop-color:#FFFFFF"/>
			<stop  offset="0.1339" style="stop-color:#F2F9F8"/>
			<stop  offset="0.2159" style="stop-color:#A6D6CD"/>
			<stop  offset="0.2744" style="stop-color:#76C0B1"/>
			<stop  offset="0.3034" style="stop-color:#63B7A7"/>
			<stop  offset="0.3679" style="stop-color:#37A18E"/>
			<stop  offset="0.4257" style="stop-color:#138F7A"/>
			<stop  offset="0.4679" style="stop-color:#11816E"/>
			<stop  offset="0.6478" style="stop-color:#0A4A3F"/>
			<stop  offset="0.8028" style="stop-color:#04221D"/>
			<stop  offset="0.9253" style="stop-color:#010908"/>
			<stop  offset="1" style="stop-color:#000000"/>
		</radialGradient>
		<radialGradient id="SVGID_26_" cx="1178.5801" cy="299.63" r="15.7578" gradientUnits="userSpaceOnUse">
			<stop  offset="0" style="stop-color:#FFFFFF"/>
			<stop  offset="0.121" style="stop-color:#FFFFFF"/>
			<stop  offset="0.1617" style="stop-color:#CEE7FB"/>
			<stop  offset="0.2302" style="stop-color:#82C1F5"/>
			<stop  offset="0.2792" style="stop-color:#52A9F1"/>
			<stop  offset="0.3034" style="stop-color:#3FA0F0"/>
			<stop  offset="0.3231" style="stop-color:#379ED6"/>
			<stop  offset="0.3938" style="stop-color:#1D987C"/>
			<stop  offset="0.4257" style="stop-color:#139558"/>
			<stop  offset="0.431" style="stop-color:#139558"/>
			<stop  offset="0.7841" style="stop-color:#139171"/>
			<stop  offset="1" style="stop-color:#138F7A"/>
		</radialGradient>
		<path class="st13" d="M1178.17,315.13c-4.14-0.11-7.99-1.82-10.84-4.83c-2.85-3-4.36-6.94-4.25-11.08
			c0.22-8.47,7.03-15.1,15.49-15.1l0.42,0.01c8.55,0.23,15.32,7.36,15.09,15.91c-0.22,8.47-7.03,15.1-15.49,15.1L1178.17,315.13z"/>
		
			<radialGradient id="SVGID_27_" cx="619.1973" cy="756.6124" r="6.9204" gradientTransform="matrix(-2.2409 0 0 2.2409 2541.8293 -1170.6428)" gradientUnits="userSpaceOnUse">
			<stop  offset="0" style="stop-color:#FFFFFF"/>
			<stop  offset="0.121" style="stop-color:#FFFFFF"/>
			<stop  offset="0.1339" style="stop-color:#F2F9F8"/>
			<stop  offset="0.2159" style="stop-color:#A6D6CD"/>
			<stop  offset="0.2744" style="stop-color:#76C0B1"/>
			<stop  offset="0.3034" style="stop-color:#63B7A7"/>
			<stop  offset="0.3679" style="stop-color:#37A18E"/>
			<stop  offset="0.4257" style="stop-color:#138F7A"/>
			<stop  offset="0.4679" style="stop-color:#11816E"/>
			<stop  offset="0.6478" style="stop-color:#0A4A3F"/>
			<stop  offset="0.8028" style="stop-color:#04221D"/>
			<stop  offset="0.9253" style="stop-color:#010908"/>
			<stop  offset="1" style="stop-color:#000000"/>
		</radialGradient>
		<radialGradient id="SVGID_28_" cx="1154.27" cy="524.8499" r="15.7578" gradientUnits="userSpaceOnUse">
			<stop  offset="0" style="stop-color:#FFFFFF"/>
			<stop  offset="0.121" style="stop-color:#FFFFFF"/>
			<stop  offset="0.1617" style="stop-color:#CEE7FB"/>
			<stop  offset="0.2302" style="stop-color:#82C1F5"/>
			<stop  offset="0.2792" style="stop-color:#52A9F1"/>
			<stop  offset="0.3034" style="stop-color:#3FA0F0"/>
			<stop  offset="0.3231" style="stop-color:#379ED6"/>
			<stop  offset="0.3938" style="stop-color:#1D987C"/>
			<stop  offset="0.4257" style="stop-color:#139558"/>
			<stop  offset="0.431" style="stop-color:#139558"/>
			<stop  offset="0.7841" style="stop-color:#139171"/>
			<stop  offset="1" style="stop-color:#138F7A"/>
		</radialGradient>
		<path class="st14" d="M1153.86,540.35c-4.14-0.11-7.99-1.82-10.84-4.83c-2.85-3-4.36-6.94-4.25-11.08
			c0.22-8.47,7.03-15.1,15.49-15.1l0.42,0.01c8.55,0.23,15.32,7.36,15.09,15.91c-0.22,8.47-7.03,15.1-15.49,15.1L1153.86,540.35z"/>
		
			<radialGradient id="SVGID_29_" cx="787.1477" cy="808.2925" r="6.9204" gradientTransform="matrix(-2.2409 0 0 2.2409 2541.8293 -1170.6428)" gradientUnits="userSpaceOnUse">
			<stop  offset="0" style="stop-color:#FFFFFF"/>
			<stop  offset="0.121" style="stop-color:#FFFFFF"/>
			<stop  offset="0.1339" style="stop-color:#F2F9F8"/>
			<stop  offset="0.2159" style="stop-color:#A6D6CD"/>
			<stop  offset="0.2744" style="stop-color:#76C0B1"/>
			<stop  offset="0.3034" style="stop-color:#63B7A7"/>
			<stop  offset="0.3679" style="stop-color:#37A18E"/>
			<stop  offset="0.4257" style="stop-color:#138F7A"/>
			<stop  offset="0.4679" style="stop-color:#11816E"/>
			<stop  offset="0.6478" style="stop-color:#0A4A3F"/>
			<stop  offset="0.8028" style="stop-color:#04221D"/>
			<stop  offset="0.9253" style="stop-color:#010908"/>
			<stop  offset="1" style="stop-color:#000000"/>
		</radialGradient>
		<radialGradient id="SVGID_30_" cx="777.91" cy="640.6599" r="15.7578" gradientUnits="userSpaceOnUse">
			<stop  offset="0" style="stop-color:#FFFFFF"/>
			<stop  offset="0.121" style="stop-color:#FFFFFF"/>
			<stop  offset="0.1617" style="stop-color:#CEE7FB"/>
			<stop  offset="0.2302" style="stop-color:#82C1F5"/>
			<stop  offset="0.2792" style="stop-color:#52A9F1"/>
			<stop  offset="0.3034" style="stop-color:#3FA0F0"/>
			<stop  offset="0.3231" style="stop-color:#379ED6"/>
			<stop  offset="0.3938" style="stop-color:#1D987C"/>
			<stop  offset="0.4257" style="stop-color:#139558"/>
			<stop  offset="0.431" style="stop-color:#139558"/>
			<stop  offset="0.7841" style="stop-color:#139171"/>
			<stop  offset="1" style="stop-color:#138F7A"/>
		</radialGradient>
		<path class="st15" d="M777.5,656.16c-4.14-0.11-7.99-1.82-10.84-4.83c-2.85-3-4.36-6.94-4.25-11.08
			c0.22-8.47,7.03-15.1,15.49-15.1l0.42,0.01c8.55,0.23,15.32,7.36,15.09,15.91c-0.22,8.47-7.03,15.1-15.49,15.1L777.5,656.16z"/>
		
			<radialGradient id="SVGID_31_" cx="730.4651" cy="1008.8906" r="6.9204" gradientTransform="matrix(-2.2409 0 0 2.2409 2541.8293 -1170.6428)" gradientUnits="userSpaceOnUse">
			<stop  offset="0" style="stop-color:#FFFFFF"/>
			<stop  offset="0.121" style="stop-color:#FFFFFF"/>
			<stop  offset="0.1339" style="stop-color:#F2F9F8"/>
			<stop  offset="0.2159" style="stop-color:#A6D6CD"/>
			<stop  offset="0.2744" style="stop-color:#76C0B1"/>
			<stop  offset="0.3034" style="stop-color:#63B7A7"/>
			<stop  offset="0.3679" style="stop-color:#37A18E"/>
			<stop  offset="0.4257" style="stop-color:#138F7A"/>
			<stop  offset="0.4679" style="stop-color:#11816E"/>
			<stop  offset="0.6478" style="stop-color:#0A4A3F"/>
			<stop  offset="0.8028" style="stop-color:#04221D"/>
			<stop  offset="0.9253" style="stop-color:#010908"/>
			<stop  offset="1" style="stop-color:#000000"/>
		</radialGradient>
		<radialGradient id="SVGID_32_" cx="904.9301" cy="1090.1802" r="15.7578" gradientUnits="userSpaceOnUse">
			<stop  offset="0" style="stop-color:#FFFFFF"/>
			<stop  offset="0.121" style="stop-color:#FFFFFF"/>
			<stop  offset="0.1617" style="stop-color:#CEE7FB"/>
			<stop  offset="0.2302" style="stop-color:#82C1F5"/>
			<stop  offset="0.2792" style="stop-color:#52A9F1"/>
			<stop  offset="0.3034" style="stop-color:#3FA0F0"/>
			<stop  offset="0.3231" style="stop-color:#379ED6"/>
			<stop  offset="0.3938" style="stop-color:#1D987C"/>
			<stop  offset="0.4257" style="stop-color:#139558"/>
			<stop  offset="0.431" style="stop-color:#139558"/>
			<stop  offset="0.7841" style="stop-color:#139171"/>
			<stop  offset="1" style="stop-color:#138F7A"/>
		</radialGradient>
		<path class="st16" d="M904.52,1105.68c-4.14-0.11-7.99-1.82-10.84-4.83c-2.85-3-4.36-6.94-4.25-11.08
			c0.22-8.47,7.03-15.1,15.49-15.1l0.42,0.01c8.55,0.23,15.32,7.36,15.09,15.91c-0.22,8.47-7.03,15.1-15.49,15.1L904.52,1105.68z"/>
		
			<radialGradient id="SVGID_33_" cx="649.0604" cy="1227.2136" r="6.9204" gradientTransform="matrix(-2.2409 0 0 2.2409 2541.8293 -1170.6428)" gradientUnits="userSpaceOnUse">
			<stop  offset="0" style="stop-color:#FFFFFF"/>
			<stop  offset="0.121" style="stop-color:#FFFFFF"/>
			<stop  offset="0.1339" style="stop-color:#F2F9F8"/>
			<stop  offset="0.2159" style="stop-color:#A6D6CD"/>
			<stop  offset="0.2744" style="stop-color:#76C0B1"/>
			<stop  offset="0.3034" style="stop-color:#63B7A7"/>
			<stop  offset="0.3679" style="stop-color:#37A18E"/>
			<stop  offset="0.4257" style="stop-color:#138F7A"/>
			<stop  offset="0.4679" style="stop-color:#11816E"/>
			<stop  offset="0.6478" style="stop-color:#0A4A3F"/>
			<stop  offset="0.8028" style="stop-color:#04221D"/>
			<stop  offset="0.9253" style="stop-color:#010908"/>
			<stop  offset="1" style="stop-color:#000000"/>
		</radialGradient>
		<radialGradient id="SVGID_34_" cx="1087.35" cy="1579.4202" r="15.7578" gradientUnits="userSpaceOnUse">
			<stop  offset="0" style="stop-color:#FFFFFF"/>
			<stop  offset="0.121" style="stop-color:#FFFFFF"/>
			<stop  offset="0.1617" style="stop-color:#CEE7FB"/>
			<stop  offset="0.2302" style="stop-color:#82C1F5"/>
			<stop  offset="0.2792" style="stop-color:#52A9F1"/>
			<stop  offset="0.3034" style="stop-color:#3FA0F0"/>
			<stop  offset="0.3231" style="stop-color:#379ED6"/>
			<stop  offset="0.3938" style="stop-color:#1D987C"/>
			<stop  offset="0.4257" style="stop-color:#139558"/>
			<stop  offset="0.431" style="stop-color:#139558"/>
			<stop  offset="0.7841" style="stop-color:#139171"/>
			<stop  offset="1" style="stop-color:#138F7A"/>
		</radialGradient>
		<path class="st17" d="M1086.94,1594.92c-4.14-0.11-7.99-1.82-10.84-4.83c-2.85-3-4.36-6.94-4.25-11.08
			c0.22-8.47,7.03-15.1,15.49-15.1l0.42,0.01c8.55,0.23,15.32,7.36,15.09,15.91c-0.22,8.47-7.03,15.1-15.49,15.1L1086.94,1594.92z"
			/>
		
			<radialGradient id="SVGID_35_" cx="517.2026" cy="1132.8541" r="6.9204" gradientTransform="matrix(-2.2409 0 0 2.2409 2541.8293 -1170.6428)" gradientUnits="userSpaceOnUse">
			<stop  offset="0" style="stop-color:#FFFFFF"/>
			<stop  offset="0.121" style="stop-color:#FFFFFF"/>
			<stop  offset="0.1339" style="stop-color:#F2F9F8"/>
			<stop  offset="0.2159" style="stop-color:#A6D6CD"/>
			<stop  offset="0.2744" style="stop-color:#76C0B1"/>
			<stop  offset="0.3034" style="stop-color:#63B7A7"/>
			<stop  offset="0.3679" style="stop-color:#37A18E"/>
			<stop  offset="0.4257" style="stop-color:#138F7A"/>
			<stop  offset="0.4679" style="stop-color:#11816E"/>
			<stop  offset="0.6478" style="stop-color:#0A4A3F"/>
			<stop  offset="0.8028" style="stop-color:#04221D"/>
			<stop  offset="0.9253" style="stop-color:#010908"/>
			<stop  offset="1" style="stop-color:#000000"/>
		</radialGradient>
		<radialGradient id="SVGID_36_" cx="1382.8301" cy="1367.9701" r="15.7578" gradientUnits="userSpaceOnUse">
			<stop  offset="0" style="stop-color:#FFFFFF"/>
			<stop  offset="0.121" style="stop-color:#FFFFFF"/>
			<stop  offset="0.1617" style="stop-color:#CEE7FB"/>
			<stop  offset="0.2302" style="stop-color:#82C1F5"/>
			<stop  offset="0.2792" style="stop-color:#52A9F1"/>
			<stop  offset="0.3034" style="stop-color:#3FA0F0"/>
			<stop  offset="0.3231" style="stop-color:#379ED6"/>
			<stop  offset="0.3938" style="stop-color:#1D987C"/>
			<stop  offset="0.4257" style="stop-color:#139558"/>
			<stop  offset="0.431" style="stop-color:#139558"/>
			<stop  offset="0.7841" style="stop-color:#139171"/>
			<stop  offset="1" style="stop-color:#138F7A"/>
		</radialGradient>
		<path class="st18" d="M1382.42,1383.47c-4.14-0.11-7.99-1.82-10.84-4.83c-2.85-3-4.36-6.94-4.25-11.08
			c0.22-8.47,7.03-15.1,15.49-15.1l0.42,0.01c8.55,0.23,15.32,7.36,15.09,15.91c-0.22,8.47-7.03,15.1-15.49,15.1L1382.42,1383.47z"
			/>
		
			<radialGradient id="SVGID_37_" cx="494.4751" cy="1167.3849" r="6.9204" gradientTransform="matrix(-2.2409 0 0 2.2409 2541.8293 -1170.6428)" gradientUnits="userSpaceOnUse">
			<stop  offset="0" style="stop-color:#FFFFFF"/>
			<stop  offset="0.121" style="stop-color:#FFFFFF"/>
			<stop  offset="0.1339" style="stop-color:#F2F9F8"/>
			<stop  offset="0.2159" style="stop-color:#A6D6CD"/>
			<stop  offset="0.2744" style="stop-color:#76C0B1"/>
			<stop  offset="0.3034" style="stop-color:#63B7A7"/>
			<stop  offset="0.3679" style="stop-color:#37A18E"/>
			<stop  offset="0.4257" style="stop-color:#138F7A"/>
			<stop  offset="0.4679" style="stop-color:#11816E"/>
			<stop  offset="0.6478" style="stop-color:#0A4A3F"/>
			<stop  offset="0.8028" style="stop-color:#04221D"/>
			<stop  offset="0.9253" style="stop-color:#010908"/>
			<stop  offset="1" style="stop-color:#000000"/>
		</radialGradient>
		<radialGradient id="SVGID_38_" cx="1433.76" cy="1445.3501" r="15.7578" gradientUnits="userSpaceOnUse">
			<stop  offset="0" style="stop-color:#FFFFFF"/>
			<stop  offset="0.121" style="stop-color:#FFFFFF"/>
			<stop  offset="0.1617" style="stop-color:#CEE7FB"/>
			<stop  offset="0.2302" style="stop-color:#82C1F5"/>
			<stop  offset="0.2792" style="stop-color:#52A9F1"/>
			<stop  offset="0.3034" style="stop-color:#3FA0F0"/>
			<stop  offset="0.3231" style="stop-color:#379ED6"/>
			<stop  offset="0.3938" style="stop-color:#1D987C"/>
			<stop  offset="0.4257" style="stop-color:#139558"/>
			<stop  offset="0.431" style="stop-color:#139558"/>
			<stop  offset="0.7841" style="stop-color:#139171"/>
			<stop  offset="1" style="stop-color:#138F7A"/>
		</radialGradient>
		<path class="st19" d="M1433.35,1460.85c-4.14-0.11-7.99-1.82-10.84-4.83c-2.85-3-4.36-6.94-4.25-11.08
			c0.22-8.47,7.03-15.1,15.49-15.1l0.42,0.01c8.55,0.23,15.32,7.36,15.09,15.91c-0.22,8.47-7.03,15.1-15.49,15.1L1433.35,1460.85z"
			/>
		
			<radialGradient id="SVGID_39_" cx="561.6802" cy="919.431" r="6.9204" gradientTransform="matrix(-2.2409 0 0 2.2409 2541.8293 -1170.6428)" gradientUnits="userSpaceOnUse">
			<stop  offset="0" style="stop-color:#FFFFFF"/>
			<stop  offset="0.121" style="stop-color:#FFFFFF"/>
			<stop  offset="0.1339" style="stop-color:#F2F9F8"/>
			<stop  offset="0.2159" style="stop-color:#A6D6CD"/>
			<stop  offset="0.2744" style="stop-color:#76C0B1"/>
			<stop  offset="0.3034" style="stop-color:#63B7A7"/>
			<stop  offset="0.3679" style="stop-color:#37A18E"/>
			<stop  offset="0.4257" style="stop-color:#138F7A"/>
			<stop  offset="0.4679" style="stop-color:#11816E"/>
			<stop  offset="0.6478" style="stop-color:#0A4A3F"/>
			<stop  offset="0.8028" style="stop-color:#04221D"/>
			<stop  offset="0.9253" style="stop-color:#010908"/>
			<stop  offset="1" style="stop-color:#000000"/>
		</radialGradient>
		<radialGradient id="SVGID_40_" cx="1283.16" cy="889.71" r="15.7578" gradientUnits="userSpaceOnUse">
			<stop  offset="0" style="stop-color:#FFFFFF"/>
			<stop  offset="0.121" style="stop-color:#FFFFFF"/>
			<stop  offset="0.1617" style="stop-color:#CEE7FB"/>
			<stop  offset="0.2302" style="stop-color:#82C1F5"/>
			<stop  offset="0.2792" style="stop-color:#52A9F1"/>
			<stop  offset="0.3034" style="stop-color:#3FA0F0"/>
			<stop  offset="0.3231" style="stop-color:#379ED6"/>
			<stop  offset="0.3938" style="stop-color:#1D987C"/>
			<stop  offset="0.4257" style="stop-color:#139558"/>
			<stop  offset="0.431" style="stop-color:#139558"/>
			<stop  offset="0.7841" style="stop-color:#139171"/>
			<stop  offset="1" style="stop-color:#138F7A"/>
		</radialGradient>
		<path class="st20" d="M1282.75,905.21c-4.14-0.11-7.99-1.82-10.84-4.83c-2.85-3-4.36-6.94-4.25-11.08
			c0.22-8.47,7.03-15.1,15.49-15.1l0.42,0.01c8.55,0.23,15.32,7.36,15.09,15.91c-0.22,8.47-7.03,15.1-15.49,15.1L1282.75,905.21z"/>
		
			<radialGradient id="SVGID_41_" cx="505.3591" cy="913.5226" r="6.9204" gradientTransform="matrix(-2.2409 0 0 2.2409 2541.8293 -1170.6428)" gradientUnits="userSpaceOnUse">
			<stop  offset="0" style="stop-color:#FFFFFF"/>
			<stop  offset="0.121" style="stop-color:#FFFFFF"/>
			<stop  offset="0.1339" style="stop-color:#F2F9F8"/>
			<stop  offset="0.2159" style="stop-color:#A6D6CD"/>
			<stop  offset="0.2744" style="stop-color:#76C0B1"/>
			<stop  offset="0.3034" style="stop-color:#63B7A7"/>
			<stop  offset="0.3679" style="stop-color:#37A18E"/>
			<stop  offset="0.4257" style="stop-color:#138F7A"/>
			<stop  offset="0.4679" style="stop-color:#11816E"/>
			<stop  offset="0.6478" style="stop-color:#0A4A3F"/>
			<stop  offset="0.8028" style="stop-color:#04221D"/>
			<stop  offset="0.9253" style="stop-color:#010908"/>
			<stop  offset="1" style="stop-color:#000000"/>
		</radialGradient>
		<radialGradient id="SVGID_42_" cx="1409.37" cy="876.47" r="15.7578" gradientUnits="userSpaceOnUse">
			<stop  offset="0" style="stop-color:#FFFFFF"/>
			<stop  offset="0.121" style="stop-color:#FFFFFF"/>
			<stop  offset="0.1617" style="stop-color:#CEE7FB"/>
			<stop  offset="0.2302" style="stop-color:#82C1F5"/>
			<stop  offset="0.2792" style="stop-color:#52A9F1"/>
			<stop  offset="0.3034" style="stop-color:#3FA0F0"/>
			<stop  offset="0.3231" style="stop-color:#379ED6"/>
			<stop  offset="0.3938" style="stop-color:#1D987C"/>
			<stop  offset="0.4257" style="stop-color:#139558"/>
			<stop  offset="0.431" style="stop-color:#139558"/>
			<stop  offset="0.7841" style="stop-color:#139171"/>
			<stop  offset="1" style="stop-color:#138F7A"/>
		</radialGradient>
		<path class="st21" d="M1408.96,891.97c-4.14-0.11-7.99-1.82-10.84-4.83c-2.85-3-4.36-6.94-4.25-11.08
			c0.22-8.47,7.03-15.1,15.49-15.1l0.42,0.01c8.55,0.23,15.32,7.36,15.09,15.91c-0.22,8.47-7.03,15.1-15.49,15.1L1408.96,891.97z"/>
		
			<radialGradient id="SVGID_43_" cx="473.3586" cy="943.3053" r="6.9204" gradientTransform="matrix(-2.2409 0 0 2.2409 2541.8293 -1170.6428)" gradientUnits="userSpaceOnUse">
			<stop  offset="0" style="stop-color:#FFFFFF"/>
			<stop  offset="0.121" style="stop-color:#FFFFFF"/>
			<stop  offset="0.1339" style="stop-color:#F2F9F8"/>
			<stop  offset="0.2159" style="stop-color:#A6D6CD"/>
			<stop  offset="0.2744" style="stop-color:#76C0B1"/>
			<stop  offset="0.3034" style="stop-color:#63B7A7"/>
			<stop  offset="0.3679" style="stop-color:#37A18E"/>
			<stop  offset="0.4257" style="stop-color:#138F7A"/>
			<stop  offset="0.4679" style="stop-color:#11816E"/>
			<stop  offset="0.6478" style="stop-color:#0A4A3F"/>
			<stop  offset="0.8028" style="stop-color:#04221D"/>
			<stop  offset="0.9253" style="stop-color:#010908"/>
			<stop  offset="1" style="stop-color:#000000"/>
		</radialGradient>
		<radialGradient id="SVGID_44_" cx="1481.0801" cy="943.21" r="15.7578" gradientUnits="userSpaceOnUse">
			<stop  offset="0" style="stop-color:#FFFFFF"/>
			<stop  offset="0.121" style="stop-color:#FFFFFF"/>
			<stop  offset="0.1617" style="stop-color:#CEE7FB"/>
			<stop  offset="0.2302" style="stop-color:#82C1F5"/>
			<stop  offset="0.2792" style="stop-color:#52A9F1"/>
			<stop  offset="0.3034" style="stop-color:#3FA0F0"/>
			<stop  offset="0.3231" style="stop-color:#379ED6"/>
			<stop  offset="0.3938" style="stop-color:#1D987C"/>
			<stop  offset="0.4257" style="stop-color:#139558"/>
			<stop  offset="0.431" style="stop-color:#139558"/>
			<stop  offset="0.7841" style="stop-color:#139171"/>
			<stop  offset="1" style="stop-color:#138F7A"/>
		</radialGradient>
		<path class="st22" d="M1480.67,958.71c-4.14-0.11-7.99-1.82-10.84-4.83c-2.85-3-4.36-6.94-4.25-11.08
			c0.22-8.47,7.03-15.1,15.49-15.1l0.42,0.01c8.55,0.23,15.32,7.36,15.09,15.91c-0.22,8.47-7.03,15.1-15.49,15.1L1480.67,958.71z"/>
		
			<radialGradient id="SVGID_45_" cx="432.5179" cy="815.1202" r="6.9204" gradientTransform="matrix(-2.2409 0 0 2.2409 2541.8293 -1170.6428)" gradientUnits="userSpaceOnUse">
			<stop  offset="0" style="stop-color:#FFFFFF"/>
			<stop  offset="0.121" style="stop-color:#FFFFFF"/>
			<stop  offset="0.1339" style="stop-color:#F2F9F8"/>
			<stop  offset="0.2159" style="stop-color:#A6D6CD"/>
			<stop  offset="0.2744" style="stop-color:#76C0B1"/>
			<stop  offset="0.3034" style="stop-color:#63B7A7"/>
			<stop  offset="0.3679" style="stop-color:#37A18E"/>
			<stop  offset="0.4257" style="stop-color:#138F7A"/>
			<stop  offset="0.4679" style="stop-color:#11816E"/>
			<stop  offset="0.6478" style="stop-color:#0A4A3F"/>
			<stop  offset="0.8028" style="stop-color:#04221D"/>
			<stop  offset="0.9253" style="stop-color:#010908"/>
			<stop  offset="1" style="stop-color:#000000"/>
		</radialGradient>
		<radialGradient id="SVGID_46_" cx="1572.6" cy="655.96" r="15.7578" gradientUnits="userSpaceOnUse">
			<stop  offset="0" style="stop-color:#FFFFFF"/>
			<stop  offset="0.121" style="stop-color:#FFFFFF"/>
			<stop  offset="0.1617" style="stop-color:#CEE7FB"/>
			<stop  offset="0.2302" style="stop-color:#82C1F5"/>
			<stop  offset="0.2792" style="stop-color:#52A9F1"/>
			<stop  offset="0.3034" style="stop-color:#3FA0F0"/>
			<stop  offset="0.3231" style="stop-color:#379ED6"/>
			<stop  offset="0.3938" style="stop-color:#1D987C"/>
			<stop  offset="0.4257" style="stop-color:#139558"/>
			<stop  offset="0.431" style="stop-color:#139558"/>
			<stop  offset="0.7841" style="stop-color:#139171"/>
			<stop  offset="1" style="stop-color:#138F7A"/>
		</radialGradient>
		<path class="st23" d="M1572.19,671.46c-4.14-0.11-7.99-1.82-10.84-4.83c-2.85-3-4.36-6.94-4.25-11.08
			c0.22-8.47,7.03-15.1,15.49-15.1l0.42,0.01c8.55,0.23,15.32,7.36,15.09,15.91c-0.22,8.47-7.03,15.1-15.49,15.1L1572.19,671.46z"/>
		
			<radialGradient id="SVGID_47_" cx="459.507" cy="761.3694" r="6.9204" gradientTransform="matrix(-2.2409 0 0 2.2409 2541.8293 -1170.6428)" gradientUnits="userSpaceOnUse">
			<stop  offset="0" style="stop-color:#FFFFFF"/>
			<stop  offset="0.121" style="stop-color:#FFFFFF"/>
			<stop  offset="0.1339" style="stop-color:#F2F9F8"/>
			<stop  offset="0.2159" style="stop-color:#A6D6CD"/>
			<stop  offset="0.2744" style="stop-color:#76C0B1"/>
			<stop  offset="0.3034" style="stop-color:#63B7A7"/>
			<stop  offset="0.3679" style="stop-color:#37A18E"/>
			<stop  offset="0.4257" style="stop-color:#138F7A"/>
			<stop  offset="0.4679" style="stop-color:#11816E"/>
			<stop  offset="0.6478" style="stop-color:#0A4A3F"/>
			<stop  offset="0.8028" style="stop-color:#04221D"/>
			<stop  offset="0.9253" style="stop-color:#010908"/>
			<stop  offset="1" style="stop-color:#000000"/>
		</radialGradient>
		<radialGradient id="SVGID_48_" cx="1512.12" cy="535.51" r="15.7578" gradientUnits="userSpaceOnUse">
			<stop  offset="0" style="stop-color:#FFFFFF"/>
			<stop  offset="0.121" style="stop-color:#FFFFFF"/>
			<stop  offset="0.1617" style="stop-color:#CEE7FB"/>
			<stop  offset="0.2302" style="stop-color:#82C1F5"/>
			<stop  offset="0.2792" style="stop-color:#52A9F1"/>
			<stop  offset="0.3034" style="stop-color:#3FA0F0"/>
			<stop  offset="0.3231" style="stop-color:#379ED6"/>
			<stop  offset="0.3938" style="stop-color:#1D987C"/>
			<stop  offset="0.4257" style="stop-color:#139558"/>
			<stop  offset="0.431" style="stop-color:#139558"/>
			<stop  offset="0.7841" style="stop-color:#139171"/>
			<stop  offset="1" style="stop-color:#138F7A"/>
		</radialGradient>
		<path class="st24" d="M1511.71,551.01c-4.14-0.11-7.99-1.82-10.84-4.83c-2.85-3-4.36-6.94-4.25-11.08
			c0.22-8.47,7.03-15.1,15.49-15.1l0.42,0.01c8.55,0.23,15.32,7.36,15.09,15.91c-0.22,8.47-7.03,15.1-15.49,15.1L1511.71,551.01z"/>
		
			<radialGradient id="SVGID_49_" cx="460.4486" cy="724.5361" r="6.9204" gradientTransform="matrix(-2.2409 0 0 2.2409 2541.8293 -1170.6428)" gradientUnits="userSpaceOnUse">
			<stop  offset="0" style="stop-color:#FFFFFF"/>
			<stop  offset="0.121" style="stop-color:#FFFFFF"/>
			<stop  offset="0.1339" style="stop-color:#F2F9F8"/>
			<stop  offset="0.2159" style="stop-color:#A6D6CD"/>
			<stop  offset="0.2744" style="stop-color:#76C0B1"/>
			<stop  offset="0.3034" style="stop-color:#63B7A7"/>
			<stop  offset="0.3679" style="stop-color:#37A18E"/>
			<stop  offset="0.4257" style="stop-color:#138F7A"/>
			<stop  offset="0.4679" style="stop-color:#11816E"/>
			<stop  offset="0.6478" style="stop-color:#0A4A3F"/>
			<stop  offset="0.8028" style="stop-color:#04221D"/>
			<stop  offset="0.9253" style="stop-color:#010908"/>
			<stop  offset="1" style="stop-color:#000000"/>
		</radialGradient>
		<radialGradient id="SVGID_50_" cx="1510.01" cy="452.97" r="15.7578" gradientUnits="userSpaceOnUse">
			<stop  offset="0" style="stop-color:#FFFFFF"/>
			<stop  offset="0.121" style="stop-color:#FFFFFF"/>
			<stop  offset="0.1617" style="stop-color:#CEE7FB"/>
			<stop  offset="0.2302" style="stop-color:#82C1F5"/>
			<stop  offset="0.2792" style="stop-color:#52A9F1"/>
			<stop  offset="0.3034" style="stop-color:#3FA0F0"/>
			<stop  offset="0.3231" style="stop-color:#379ED6"/>
			<stop  offset="0.3938" style="stop-color:#1D987C"/>
			<stop  offset="0.4257" style="stop-color:#139558"/>
			<stop  offset="0.431" style="stop-color:#139558"/>
			<stop  offset="0.7841" style="stop-color:#139171"/>
			<stop  offset="1" style="stop-color:#138F7A"/>
		</radialGradient>
		<path class="st25" d="M1509.6,468.47c-4.14-0.11-7.99-1.82-10.84-4.83c-2.85-3-4.36-6.94-4.25-11.08
			c0.22-8.47,7.03-15.1,15.49-15.1l0.42,0.01c8.55,0.23,15.32,7.36,15.09,15.91c-0.22,8.47-7.03,15.1-15.49,15.1L1509.6,468.47z"/>
		
			<radialGradient id="SVGID_51_" cx="503.0386" cy="681.8256" r="6.9204" gradientTransform="matrix(-2.2409 0 0 2.2409 2541.8293 -1170.6428)" gradientUnits="userSpaceOnUse">
			<stop  offset="0" style="stop-color:#FFFFFF"/>
			<stop  offset="0.121" style="stop-color:#FFFFFF"/>
			<stop  offset="0.1339" style="stop-color:#F2F9F8"/>
			<stop  offset="0.2159" style="stop-color:#A6D6CD"/>
			<stop  offset="0.2744" style="stop-color:#76C0B1"/>
			<stop  offset="0.3034" style="stop-color:#63B7A7"/>
			<stop  offset="0.3679" style="stop-color:#37A18E"/>
			<stop  offset="0.4257" style="stop-color:#138F7A"/>
			<stop  offset="0.4679" style="stop-color:#11816E"/>
			<stop  offset="0.6478" style="stop-color:#0A4A3F"/>
			<stop  offset="0.8028" style="stop-color:#04221D"/>
			<stop  offset="0.9253" style="stop-color:#010908"/>
			<stop  offset="1" style="stop-color:#000000"/>
		</radialGradient>
		<radialGradient id="SVGID_52_" cx="1414.5701" cy="357.26" r="15.7578" gradientUnits="userSpaceOnUse">
			<stop  offset="0" style="stop-color:#FFFFFF"/>
			<stop  offset="0.121" style="stop-color:#FFFFFF"/>
			<stop  offset="0.1617" style="stop-color:#CEE7FB"/>
			<stop  offset="0.2302" style="stop-color:#82C1F5"/>
			<stop  offset="0.2792" style="stop-color:#52A9F1"/>
			<stop  offset="0.3034" style="stop-color:#3FA0F0"/>
			<stop  offset="0.3231" style="stop-color:#379ED6"/>
			<stop  offset="0.3938" style="stop-color:#1D987C"/>
			<stop  offset="0.4257" style="stop-color:#139558"/>
			<stop  offset="0.431" style="stop-color:#139558"/>
			<stop  offset="0.7841" style="stop-color:#139171"/>
			<stop  offset="1" style="stop-color:#138F7A"/>
		</radialGradient>
		<path class="st26" d="M1414.16,372.76c-4.14-0.11-7.99-1.82-10.84-4.83c-2.85-3-4.36-6.94-4.25-11.08
			c0.22-8.47,7.03-15.1,15.49-15.1l0.42,0.01c8.55,0.23,15.32,7.36,15.09,15.91c-0.22,8.47-7.03,15.1-15.49,15.1L1414.16,372.76z"/>
		
			<radialGradient id="SVGID_53_" cx="514.0476" cy="1053.1719" r="6.9204" gradientTransform="matrix(-2.2409 0 0 2.2409 2541.8293 -1170.6428)" gradientUnits="userSpaceOnUse">
			<stop  offset="0" style="stop-color:#FFFFFF"/>
			<stop  offset="0.121" style="stop-color:#FFFFFF"/>
			<stop  offset="0.1339" style="stop-color:#F2F9F8"/>
			<stop  offset="0.2159" style="stop-color:#A6D6CD"/>
			<stop  offset="0.2744" style="stop-color:#76C0B1"/>
			<stop  offset="0.3034" style="stop-color:#63B7A7"/>
			<stop  offset="0.3679" style="stop-color:#37A18E"/>
			<stop  offset="0.4257" style="stop-color:#138F7A"/>
			<stop  offset="0.4679" style="stop-color:#11816E"/>
			<stop  offset="0.6478" style="stop-color:#0A4A3F"/>
			<stop  offset="0.8028" style="stop-color:#04221D"/>
			<stop  offset="0.9253" style="stop-color:#010908"/>
			<stop  offset="1" style="stop-color:#000000"/>
		</radialGradient>
		<radialGradient id="SVGID_54_" cx="1389.9" cy="1189.4102" r="15.7578" gradientUnits="userSpaceOnUse">
			<stop  offset="0" style="stop-color:#FFFFFF"/>
			<stop  offset="0.121" style="stop-color:#FFFFFF"/>
			<stop  offset="0.1617" style="stop-color:#CEE7FB"/>
			<stop  offset="0.2302" style="stop-color:#82C1F5"/>
			<stop  offset="0.2792" style="stop-color:#52A9F1"/>
			<stop  offset="0.3034" style="stop-color:#3FA0F0"/>
			<stop  offset="0.3231" style="stop-color:#379ED6"/>
			<stop  offset="0.3938" style="stop-color:#1D987C"/>
			<stop  offset="0.4257" style="stop-color:#139558"/>
			<stop  offset="0.431" style="stop-color:#139558"/>
			<stop  offset="0.7841" style="stop-color:#139171"/>
			<stop  offset="1" style="stop-color:#138F7A"/>
		</radialGradient>
		<path class="st27" d="M1389.49,1204.91c-4.14-0.11-7.99-1.82-10.84-4.83c-2.85-3-4.36-6.94-4.25-11.08
			c0.22-8.47,7.03-15.1,15.49-15.1l0.42,0.01c8.55,0.23,15.32,7.36,15.09,15.91c-0.22,8.47-7.03,15.1-15.49,15.1L1389.49,1204.91z"
			/>
	</g>
</g>
</svg>
