<svg width="86" height="66" viewBox="0 0 176 66" fill="none" xmlns="http://www.w3.org/2000/svg">
<path d="M175 57.0001V52.6001L173.4 57.0001H172.8L171.2 52.5001V57.0001H170.6V51.7001H171.6L172.9 55.5001L173.2 56.3001C173.3 56.1001 173.4 55.8001 173.5 55.5001L174.8 51.7001H175.8V57.0001H175ZM168.1 57.0001H167.4V52.3001H165.6V51.6001H169.9V52.3001H168.1V57.0001ZM164.2 45.1001H160.6C160.3 45.1001 160 44.8001 160 44.5001V34.2001C160 32.1001 160.2 29.1001 157.7 29.1001C156.8 29.1001 156 29.7001 155.6 30.6001C155.1 31.7001 154.9 33.0001 155 34.2001V44.4001C155 44.8001 154.7 45.1001 154.3 45.1001H150.7C150.3 45.1001 150.1 44.8001 150.1 44.4001V25.4001C150.1 25.0001 150.4 24.8001 150.8 24.8001H154.1C154.4 24.8001 154.7 25.0001 154.8 25.3001V28.2001H154.9C155.9 25.6001 157.3 24.4001 159.8 24.4001C161.5 24.3001 163.1 25.2001 164 26.7001C164.9 28.2001 164.9 30.8001 164.9 32.6001V44.5001C164.8 44.9001 164.5 45.1001 164.2 45.1001ZM152.6 52.6001C153.6 54.2001 154.1 56.1001 154 58.0001V58.7001H146C146 60.0001 146.3 61.2001 147 62.3001C147.5 63.0001 148.3 63.5001 149.2 63.5001C150.6 63.5001 151.5 62.6001 152.1 60.6001L154 60.9001C153.8 62.2001 153.2 63.4001 152.3 64.3001C151.5 65.1001 150.4 65.5001 149.3 65.4001C147.8 65.4001 146.5 64.8001 145.6 63.6001C144.6 62.0001 144.1 60.1001 144.2 58.2001C144.1 56.3001 144.6 54.3001 145.6 52.7001C146.4 51.5001 147.8 50.8001 149.2 50.8001C150.6 50.7001 151.9 51.5001 152.6 52.6001ZM149.1 52.7001C148.3 52.7001 147.5 53.1001 147 53.8001C146.4 54.6001 146 55.7001 146 56.7001H152C152 55.7001 151.7 54.8001 151.2 54.0001C150.9 53.2001 150.1 52.7001 149.1 52.7001ZM139.2 45.5001C134 45.5001 131.1 40.8001 131.1 34.9001C131.1 29.0001 134 24.4001 139.2 24.4001C144.5 24.4001 147.4 29.1001 147.4 35.1001C147.4 40.9001 144.2 45.5001 139.2 45.5001ZM141.6 30.2001C141.4 29.1001 140.4 28.3001 139.2 28.4001C136.5 28.4001 136.4 32.1001 136.4 34.4001C136.4 36.7001 136.4 41.7001 139.2 41.7001C142 41.7001 142.1 37.7001 142.1 35.2001C142.1 33.5001 142 31.8001 141.6 30.2001ZM131.5 48.5001H129.7V45.8001H131.5V48.5001ZM128.5 44.5001C124.6 42.4001 119.9 42.5001 116 44.5001C115.7 44.6001 115.3 44.5001 115.2 44.1001C115.2 44.0001 115.2 43.9001 115.2 43.9001V41.1001C115.2 40.4001 115.3 39.8001 115.7 39.2001L122.8 28.8001H116.6C116.2 28.8001 115.9 28.5001 115.9 28.1001V25.4001C115.9 25.0001 116.2 24.7001 116.5 24.7001H128.4C128.8 24.7001 129.1 25.0001 129.1 25.4001V27.7001C129 28.3001 128.6 28.9001 128.2 29.4001L122.1 38.4001C124.4 38.3001 126.8 38.8001 128.8 39.9001C129.2 40.1001 129.4 40.5001 129.5 40.9001V43.8001C129.5 44.2001 129.2 44.5001 128.9 44.5001C128.6 44.6001 128.5 44.6001 128.5 44.5001ZM116.4 50.7001C117.1 50.7001 117.8 51.0001 118.3 51.5001L117.7 53.7001C117.3 53.4001 116.9 53.2001 116.4 53.2001C116 53.2001 115.6 53.3001 115.3 53.6001C115 53.9001 114.7 54.4001 114.6 54.8001C114.4 55.7001 114.3 56.7001 114.3 57.7001V65.0001H112.5V51.0001H114.1V53.2001C114.4 52.5001 114.8 51.8001 115.3 51.2001C115.5 50.9001 115.9 50.7001 116.4 50.7001ZM110 45.1001C109.8 45.3001 109.4 45.3001 109.2 45.1001C108.4 44.4001 107.7 43.6001 107.1 42.7001C105.1 44.8001 103.7 45.4001 101.2 45.4001C98.2 45.4001 95.8 43.5001 95.8 39.6001C95.7 37.0001 97.2 34.6001 99.6 33.6001C101.5 32.7001 104.2 32.6001 106.3 32.3001V31.8001C106.4 30.9001 106.3 30.0001 105.9 29.1001C105.4 28.5001 104.7 28.1001 103.9 28.2001C102.5 28.1001 101.3 29.0001 101 30.4001C101 30.7001 100.7 31.0001 100.4 31.1001L96.8999 30.7001C96.5999 30.7001 96.2999 30.4001 96.3999 30.0001C96.3999 30.0001 96.3999 30.0001 96.3999 29.9001C97.1999 25.6001 101 24.2001 104.5 24.2001C106.5 24.1001 108.4 24.8001 109.9 26.0001C111.7 27.7001 111.5 29.9001 111.5 32.4001V38.2001C111.5 39.5001 112 40.7001 112.9 41.6001C113.2 41.9001 113.2 42.3001 112.9 42.6001C112 43.2001 110.7 44.4001 110 45.1001ZM106.4 35.3001C103.8 35.3001 101.1 35.9001 101.1 39.0001C101.1 40.6001 101.9 41.7001 103.3 41.7001C104.4 41.6001 105.3 41.0001 105.8 40.0001C106.4 38.8001 106.6 37.4001 106.4 36.1001V35.3001ZM97.6 52.4001C98 53.1001 98.2 53.9001 98.3 54.7001L96.5 55.0001C96.3 53.5001 95.6 52.7001 94.2 52.7001C93.6 52.7001 92.8999 52.8001 92.3999 53.2001C91.9999 53.5001 91.8 54.0001 91.8 54.5001C91.8 55.0001 91.9999 55.4001 92.3999 55.7001C92.9999 56.1001 93.6999 56.3001 94.3999 56.5001C95.3999 56.8001 96.4 57.2001 97.3 57.7001C97.8 58.0001 98.1 58.4001 98.3 58.9001C98.6 59.5001 98.7 60.1001 98.7 60.8001C98.7 62.0001 98.3 63.2001 97.5 64.1001C96.6 64.9001 95.5 65.4001 94.3 65.3001C91.7 65.3001 90.2 63.8001 89.8 60.8001L91.6 60.4001C91.6 61.2001 91.8999 62.0001 92.3999 62.6001C92.8999 63.1001 93.6 63.3001 94.3 63.3001C95 63.3001 95.6 63.1001 96.1 62.7001C96.5 62.3001 96.8 61.7001 96.8 61.1001C96.8 60.6001 96.6 60.1001 96.2 59.8001C95.6 59.4001 94.9999 59.2001 94.3999 59.0001C93.3999 58.7001 92.4 58.3001 91.5 57.8001C91 57.5001 90.5999 57.0001 90.3999 56.5001C90.0999 55.9001 90 55.3001 90 54.7001C89.9 52.6001 91.5 50.8001 93.6 50.7001C93.8 50.7001 93.9 50.7001 94.1 50.7001C94.8 50.7001 95.6 50.8001 96.2 51.1001C96.8 51.5001 97.3 51.9001 97.6 52.4001ZM92.6 44.4001C92.6 44.8001 92.2999 45.1001 91.8999 45.1001H88.3C87.9 45.1001 87.7 44.8001 87.6 44.4001V34.3001C87.7 33.1001 87.6 31.9001 87.5 30.7001C87.4 29.7001 86.3999 28.9001 85.3999 29.1001C84.3999 29.2001 83.6 29.8001 83.3 30.7001C83 31.9001 82.9 33.1001 83 34.3001V44.4001C83 44.8001 82.7 45.1001 82.3 45.1001H78.7C78.3 45.1001 78 44.8001 78 44.4001V34.3001C78 32.2001 78.4 29.1001 75.8 29.1001C73.2 29.1001 73.3 32.1001 73.3 34.3001V44.4001C73.3 44.8001 72.9999 45.1001 72.5999 45.1001H69C68.7 45.1001 68.3999 44.8001 68.3999 44.4001V25.4001C68.3999 25.0001 68.6999 24.7001 69.0999 24.7001H72.5C72.9 24.7001 73.1 25.0001 73.2 25.4001V27.9001C73.8 25.8001 75.6999 24.3001 77.8999 24.4001C80.1999 24.4001 81.5999 25.5001 82.5999 27.9001C83.5999 25.2001 86.6 23.7001 89.3 24.7001C90.3 25.0001 91.1 25.7001 91.7 26.5001C92.8 28.1001 92.6 30.4001 92.6 32.4001V44.4001ZM67.5999 7.4001L76.8 3.9001V16.9001L67.5999 20.6001V7.4001ZM59.4 3.1001L66.3999 0.100098L73.3999 3.1001L65.8999 5.9001L59.4 3.1001ZM65.8 21.9001L55.5999 17.4001L55.8 3.9001L65.8 7.9001V21.9001ZM45.9 8.4001L54.0999 4.9001V17.9001L45.9 21.7001V8.4001ZM37.4 3.1001L44.4 0.100098L51.4 3.1001L43.9 5.9001L37.4 3.1001ZM43.4 20.1001L34.6999 17.6001V4.1001L43.6999 7.8001L43.4 20.1001ZM40.9 21.6001L33.4 24.4001L26.9 21.6001L33.9 18.6001L40.9 21.6001ZM33.4 40.3001L23.1999 35.8001L23.4 22.3001L33.4 26.3001V40.3001ZM22.4 44.1001L15.9 41.3001L22.9 38.3001L29.9 41.3001L22.4 44.1001ZM12.7 26.4001L21.9 22.9001V35.9001L12.7 39.7001V26.4001ZM4.49995 22.1001L11.5 19.1001L18.5 22.1001L11 24.9001L4.49995 22.1001ZM10.9 40.8001L0.699951 36.3001L0.899952 22.8001L10.9 26.8001V40.8001V40.8001ZM22.4 46.1001V60.1001L12.2 55.6001L12.4 42.1001L22.4 46.1001ZM33.4 55.1001L24.1999 58.9001V45.7001L33.4 42.2001V55.1001ZM44.4 35.3001L35.1999 39.0001V25.8001L44.4 22.3001V35.3001ZM59.1999 32.3001V31.8001C59.2999 30.9001 59.0999 30.0001 58.6999 29.1001C58.1999 28.5001 57.4999 28.1001 56.6999 28.2001C55.2999 28.1001 54.1 29.0001 53.8 30.4001C53.8 30.7001 53.4999 31.0001 53.1999 31.1001L49.6999 30.7001C49.3999 30.7001 49.0999 30.3001 49.1999 30.0001C49.1999 30.0001 49.1999 30.0001 49.1999 29.9001C49.9999 25.6001 53.8 24.2001 57.3 24.2001C59.3 24.1001 61.1999 24.8001 62.6999 26.0001C64.4999 27.7001 64.1999 29.9001 64.1999 32.4001V38.2001C64.1999 39.5001 64.6999 40.7001 65.5999 41.6001C65.8999 41.9001 65.8999 42.3001 65.5999 42.6001C64.8999 43.2001 63.6 44.4001 62.8 45.1001V45.0001C62.6 45.2001 62.2 45.2001 62 45.1001C61.2 44.4001 60.5 43.6001 59.9 42.7001C57.9 44.8001 56.5 45.4001 54 45.4001C51 45.4001 48.5999 43.5001 48.5999 39.6001C48.4999 37.0001 50 34.6001 52.4 33.6001C54.4 32.7001 57.0999 32.5001 59.1999 32.3001ZM56 41.7001C57.1 41.6001 58 41.0001 58.5 40.0001C59.1 38.8001 59.2999 37.4001 59.1999 36.1001V35.3001C56.5999 35.3001 53.9 35.9001 53.9 39.0001C53.8 40.5001 54.7 41.7001 56 41.7001ZM52.6999 59.6001L53.4 62.6001L54 59.7001L55.6999 51.5001H57.5999L59.1999 59.6001L59.8 62.3001L60.4 59.6001L62.1999 51.5001H63.9L60.5999 65.5001H58.6999L57 57.1001L56.5999 54.7001L54.5 65.5001H52.5999L49.3 51.5001H51L52.6999 59.6001ZM69.7 51.2001C71.1 51.2001 72.4 51.9001 73.2 53.1001C74.2 54.7001 74.6999 56.6001 74.5999 58.5001V59.2001H66.5999C66.5999 60.5001 66.8999 61.7001 67.5999 62.8001C68.0999 63.5001 68.9 64.0001 69.8 64.0001C71.2 64.0001 72.1 63.1001 72.7 61.1001L74.5 61.4001C74.3 62.7001 73.7 63.9001 72.8 64.8001C72 65.6001 70.9 66.0001 69.8 66.0001C68.3 66.0001 66.9999 65.3001 66.0999 64.1001C65.0999 62.5001 64.5999 60.7001 64.6999 58.8001C64.5999 56.8001 65.0999 54.9001 66.0999 53.3001C66.8999 51.9001 68.3 51.2001 69.7 51.2001ZM72.7 57.2001C72.7 56.2001 72.3999 55.3001 71.8999 54.5001C71.4999 53.7001 70.6 53.2001 69.7 53.2001C68.9 53.2001 68.0999 53.6001 67.5999 54.3001C66.9999 55.2001 66.7 56.2001 66.7 57.2001H72.7ZM78.5999 53.1001C78.8999 52.5001 79.2999 52.0001 79.8999 51.7001C80.3999 51.4001 81 51.2001 81.5 51.2001C82.3 51.2001 83.1 51.5001 83.8 52.0001C84.6 52.6001 85.0999 53.5001 85.3999 54.4001C85.7999 55.7001 86 57.0001 86 58.3001C86.1 60.2001 85.5999 62.2001 84.5999 63.8001C83.8999 64.9001 82.6999 65.7001 81.3999 65.7001C80.7999 65.7001 80.2 65.5001 79.7 65.2001C79.2 64.8001 78.6999 64.3001 78.3999 63.6001V65.3001H76.7V46.0001H78.5L78.5999 53.1001ZM78.8 61.7001C79 62.3001 79.3 62.9001 79.8 63.3001C80.2 63.7001 80.7 63.9001 81.3 63.9001C82.2 63.8001 82.9 63.3001 83.3 62.5001C83.9 61.3001 84.1999 59.9001 84.0999 58.5001C84.1999 57.1001 83.9 55.7001 83.3 54.5001C82.8 53.4001 81.4999 52.9001 80.3999 53.4001C79.8999 53.6001 79.5 54.0001 79.3 54.6001C78.6 55.8001 78.2999 57.1001 78.3999 58.5001C78.3999 59.5001 78.5 60.6001 78.8 61.7001ZM105.3 50.7001C106.7 50.7001 108 51.4001 108.8 52.6001C109.8 54.2001 110.3 56.1001 110.2 58.0001V58.7001H102.1C102.1 60.0001 102.4 61.2001 103.1 62.3001C103.6 63.0001 104.4 63.5001 105.3 63.5001C106.7 63.5001 107.7 62.6001 108.2 60.6001L110.1 60.9001C109.9 62.2001 109.3 63.4001 108.4 64.3001C107.6 65.1001 106.5 65.5001 105.4 65.4001C103.9 65.4001 102.6 64.8001 101.7 63.6001C100.7 62.0001 100.2 60.1001 100.3 58.2001C100.2 56.3001 100.7 54.3001 101.7 52.7001C102.5 51.4001 103.8 50.7001 105.3 50.7001ZM108.2 56.7001C108.2 55.7001 107.9 54.8001 107.4 54.0001C106.9 53.2001 106.1 52.7001 105.1 52.7001C104.3 52.7001 103.5 53.1001 103 53.8001C102.4 54.6001 102 55.7001 102 56.7001H108.2ZM120.2 51.0001L122.5 59.4001C122.8 60.3001 123 61.3001 123.2 62.3001C123.4 61.6001 123.6 60.7001 123.9 59.6001L126.3 51.0001H128.2L124.1 65.0001H122.4L118.3 51.0001H120.2V51.0001ZM131.5 65.0001H129.7V51.0001H131.5V65.0001ZM138.7 50.7001C139.7 50.7001 140.8 51.1001 141.5 51.8001C142.3 52.7001 142.8 53.9001 142.9 55.1001L141.1 55.5001C141 54.7001 140.7 54.0001 140.2 53.3001C139.8 52.9001 139.3 52.6001 138.7 52.6001C137.8 52.6001 136.9 53.1001 136.4 53.9001C135.7 55.1001 135.4 56.5001 135.5 57.9001C135.4 59.3001 135.7 60.8001 136.3 62.0001C136.8 62.8001 137.6 63.3001 138.5 63.3001C139.2 63.3001 139.8 63.0001 140.3 62.5001C140.9 61.7001 141.2 60.8001 141.2 59.9001L143 60.2001C142.9 61.6001 142.4 63.0001 141.4 64.0001C140.6 64.8001 139.5 65.3001 138.4 65.3001C137 65.3001 135.7 64.6001 134.9 63.5001C133 60.1001 133 56.0001 134.9 52.6001C136 51.4001 137.3 50.7001 138.7 50.7001ZM158.3 62.7001C158.8 63.2001 159.5 63.4001 160.2 63.4001C160.9 63.4001 161.5 63.2001 162 62.8001C162.4 62.4001 162.7 61.8001 162.7 61.2001C162.7 60.7001 162.5 60.2001 162.1 59.9001C161.5 59.5001 160.9 59.3001 160.2 59.1001C159.2 58.8001 158.2 58.4001 157.3 57.9001C156.8 57.6001 156.4 57.1001 156.2 56.6001C155.9 56.0001 155.8 55.4001 155.8 54.8001C155.8 53.7001 156.1 52.7001 156.9 51.9001C157.7 51.1001 158.8 50.7001 159.9 50.8001C160.6 50.8001 161.3 50.9001 162 51.2001C162.6 51.5001 163.1 51.9001 163.4 52.5001C163.8 53.2001 164 54.0001 164 54.8001L162.2 55.1001C162 53.6001 161.3 52.8001 159.9 52.8001C159.3 52.8001 158.6 52.9001 158.1 53.3001C157.7 53.6001 157.5 54.1001 157.5 54.6001C157.5 55.1001 157.7 55.5001 158.1 55.8001C158.7 56.1001 159.4 56.4001 160.1 56.6001C161.1 56.9001 162.1 57.3001 163 57.8001C163.5 58.1001 163.8 58.5001 164.1 59.0001C164.4 59.6001 164.5 60.2001 164.5 60.9001C164.5 62.1001 164.1 63.3001 163.3 64.2001C162.4 65.0001 161.2 65.5001 160 65.4001C157.4 65.4001 155.9 63.9001 155.5 60.9001L157.3 60.5001C157.5 61.3001 157.8 62.1001 158.3 62.7001Z" fill="black"></path>
</svg>