<svg width="80" height="74" viewBox="0 0 104 94" fill="none" xmlns="http://www.w3.org/2000/svg">
<path d="M88.7001 8.6002L70.7001 0.700195H33.4001L15.5001 8.8002L0.600098 25.3002L52.1001 93.7002L103.6 25.3002L88.7001 8.6002ZM99.3001 25.7002L83.0001 37.9002L71.4001 20.6002L87.8001 12.9002L99.3001 25.7002ZM77.0001 39.7002H26.2001L36.3001 21.7002L66.6001 21.8002L77.0001 39.7002ZM36.7001 3.3002H67.7001L83.0001 10.0002L67.7001 16.7002H36.7001L21.5001 10.0002L36.7001 3.3002ZM16.3001 12.8002L31.7001 20.5002L20.7001 37.5002L4.9001 25.7002L16.3001 12.8002ZM10.8001 34.6002L20.8001 43.0002L44.6001 82.2002L10.8001 34.6002ZM27.6001 45.3002H75.9001L52.1001 89.0002L27.6001 45.3002ZM59.6001 82.2002L83.4001 43.0002L93.4001 34.6002L59.6001 82.2002Z" fill="black"></path>
</svg>