<svg width="62" height="69" viewBox="0 0 109 109" fill="none" xmlns="http://www.w3.org/2000/svg">
<path d="M108.5 60.4C89.7 60.4 70.6 60.5 51.7 60.5V50H97.4C97.2 48.9 97.1 47.9 96.9 46.9C96.1 42.9 94.8 39 92.9 35.3C91.5 32.4 89.8 29.8 87.7 27.4C85.8 25.3 83.9 23.3 81.8 21.4C79.9 19.8 77.9 18.4 75.8 17.2C72.5 15.2 68.8 13.6 65 12.7C61.3 11.9 57.5 11.5 53.6 11.4C49.8 11.5 46 12.1 42.3 13.1C34.2 15.5 27 20.3 21.5 26.7C19.2 29.4 17.3 32.4 15.7 35.6C14 39.1 12.7 42.8 12.1 46.7C11.7 49.5 11.4 52.2 11.4 55C11.4 59 12 63 13.2 66.9C14.3 70.5 15.8 73.9 17.8 77C19.2 79.1 20.7 81.1 22.3 83C24.7 85.8 27.5 88.3 30.7 90.3C33.7 92.3 36.9 94 40.3 95.1C42.6 95.9 44.9 96.5 47.3 97C48.5 97.2 49.8 97.4 51.1 97.4C57.2 97.5 63.3 97.5 69.4 97.6C69.5 97.6 69.7 97.6 69.9 97.6V108.3H68.9C63 108.3 57.1 108.4 51.3 108.3C49.3 108.3 47.3 108 45.4 107.6C42.2 106.9 39.1 106.1 36 105.1C32.8 104.1 29.8 102.6 27 100.8C24.4 99.1 21.8 97.3 19.4 95.4C16.9 93.3 14.7 91 12.7 88.4C9.8 84.9 7.4 81 5.5 76.9C3.8 73.2 2.6 69.4 1.8 65.5C1.3 62.9 0.899998 60.2 0.699998 57.5C0.499998 54.7 0.600002 52 0.900002 49.2C1.3 44.9 2.2 40.8 3.7 36.7C5.5 31.5 8.1 26.6 11.4 22.2C13.2 19.7 15.2 17.5 17.4 15.4C19.5 13.5 21.8 11.7 24.2 10C28 7.2 32.2 5.1 36.6 3.7C39.9 2.7 43.2 1.8 46.5 1.2C48.7 0.9 50.9 0.7 53.1 0.7C54.6 0.6 56.1 0.6 57.6 0.7C60.1 1 62.7 1.2 65.2 1.7C68.6 2.3 72 3.4 75.2 4.7C78.6 6.2 81.9 8 84.9 10.1C87.9 12.2 90.7 14.6 93.3 17.3C96.4 20.6 99.1 24.2 101.4 28.2C103.2 31.2 104.6 34.4 105.7 37.7C106.7 40.8 107.3 44 108 47.1C108.8 51.4 108.4 56 108.5 60.4ZM75.9 79.1C76.7 76.2 78.4 73.5 80.6 71.5C82.6 69.6 85 68.1 87.6 67C90.5 65.9 93.5 65.1 96.6 64.7C100.5 64.1 104.5 63.8 108.4 64V74.2C106.4 74.3 104 74.5 102.1 74.6C98.2 74.9 94.3 75.3 90.7 77.2C88 78.5 86.1 81.2 85.8 84.2C85.6 86.1 85.5 88 85.5 90C85.5 95.8 85.5 102.6 85.5 108.4C82.3 108.4 78.1 108.4 74.8 108.4C74.8 108.1 74.8 107.8 74.8 107.5C74.8 100.1 74.7 92.6 74.8 85.2C74.9 83 75.3 81 75.9 79.1Z" fill="#303640"></path>
</svg>