<svg version="1.1" xmlns="http://www.w3.org/2000/svg" xmlns:xlink="http://www.w3.org/1999/xlink" x="0px" y="0px" viewBox="0 0 260 260" style="enable-background:new 0 0 260 260;" xml:space="preserve">
<style type="text/css">
	.st0{fill:#303640;}
	.st1{fill:#010101;}
	.st2{fill:#030303;}
	.st3{fill:#2E2E2E;}
	.st4{fill:#393939;}
	.st5{fill:#3A3A3A;}
	.st6{fill:#383838;}
	.st7{fill:#040404;}
	.st8{fill:#3B3B3B;}
	.st9{fill:#515151;}
	.st10{fill:#333333;}
	.st11{fill:#4D4D4D;}
	.st12{fill:#404040;}
	.st13{fill:#494949;}
	.st14{fill:#191919;}
	.st15{fill:#2F2F2F;}
	.st16{fill:#070707;}
	.st17{fill:#0B0B0B;}
	.st18{fill:#252525;}
	.st19{fill:#0E0E0E;}
	.st20{fill:#313131;}
	.st21{fill:#3F4754;}
	.st22{fill:#FFFFFF;}
	.st23{fill:#444444;}
	.st24{fill:#161616;}
	.st25{fill:#2D2D2D;}
	.st26{fill:#545454;}
	.st27{fill:#424242;}
	.st28{fill:#4F4F4F;}
	.st29{fill-rule:evenodd;clip-rule:evenodd;fill:url(#SVGID_1_);}
	.st30{fill-rule:evenodd;clip-rule:evenodd;}
	.st31{fill-rule:evenodd;clip-rule:evenodd;fill:url(#SVGID_2_);}
	.st32{fill-rule:evenodd;clip-rule:evenodd;fill:url(#SVGID_3_);}
	.st33{fill-rule:evenodd;clip-rule:evenodd;fill:url(#SVGID_4_);}
	.st34{fill-rule:evenodd;clip-rule:evenodd;fill:url(#SVGID_5_);}
	.st35{fill-rule:evenodd;clip-rule:evenodd;fill:url(#SVGID_6_);}
	.st36{fill-rule:evenodd;clip-rule:evenodd;fill:#FFFFFF;}
	.st37{fill-rule:evenodd;clip-rule:evenodd;fill:url(#SVGID_7_);}
	.st38{fill-rule:evenodd;clip-rule:evenodd;fill:url(#SVGID_8_);}
	.st39{fill-rule:evenodd;clip-rule:evenodd;fill:url(#SVGID_9_);}
	.st40{fill-rule:evenodd;clip-rule:evenodd;fill:url(#SVGID_10_);}
	.st41{fill-rule:evenodd;clip-rule:evenodd;fill:url(#SVGID_11_);}
	.st42{fill-rule:evenodd;clip-rule:evenodd;fill:url(#SVGID_12_);}
	.st43{fill-rule:evenodd;clip-rule:evenodd;fill:url(#SVGID_13_);}
	.st44{fill:#282828;}
</style>
<g id="Layer_1">
</g>
<g id="MlSdev_x5F_Video">
</g>
<g id="MlSdev_x5F_Home_x5F_page_x5F_v6">
</g>
<g id="MlSdev_x5F_Careers_x5F_v2">
</g>
<g id="MlSdev_x5F_technology">
	<path d="M87.1,142.4c-0.8,0-1.5-0.3-2.1-0.9l-17.6-17.8v15.7c0,1.6-1.3,3-3,3c-1.6,0-3-1.3-3-3c0,0,0,0,0,0v-22.9
		c0-1.2,0.7-2.3,1.8-2.8c1.1-0.5,2.4-0.2,3.2,0.6l17.6,17.8v-15.6c0-1.6,1.3-3,3-3s3,1.3,3,3c0,0,0,0,0,0v22.9
		C90.1,141.1,88.8,142.4,87.1,142.4 M100.9,113.6l-0.8,1.5l-6.3,11.6l-0.8,1.5l0.8,1.5l6.3,11.2l0.9,1.5h16.6l0.8-1.7l4.7-9.6
		l2.1-4.4h-4.8l-12.1,0c-1.7,0-3,1.3-3,3c0,1.7,1.3,3,3,3l7.3,0l-1.8,3.6h-9.4l-4.6-8.3l4.7-8.6h10l2.3,4.8h6l-3.8-9.1l-0.8-1.7
		H100.9 M131.1,113.5c-1.6,0.1-2.9,1.4-2.9,3v7.8h6v-7.8C134.1,114.9,132.7,113.6,131.1,113.5 M140.6,142.5c-1.7,0-3-1.4-3-3v-22.9
		c0-1.6,1.3-3,3-3s3,1.3,3,3c0,0,0,0,0,0v15.6l17.6-17.8c0.8-0.9,2.1-1.1,3.3-0.7c1.1,0.5,1.8,1.6,1.8,2.8v22.9c0,1.6-1.3,3-3,3
		s-3-1.3-3-3c0,0,0,0,0,0v-15.6l-17.6,17.8C142.2,142.2,141.4,142.5,140.6,142.5 M188.3,128l9.3-9.3c1.2-1.2,1.2-3.1,0-4.3
		c-1.1-1.2-3-1.2-4.2,0c0,0,0,0,0,0l-9.3,9.3l-9.3-9.3c-1.2-1.2-3-1.2-4.2,0c0,0,0,0,0,0c-1.2,1.2-1.2,3.1,0,4.3l9.3,9.3l-9.2,9.3
		c-1.2,1.2-1.2,3.1,0,4.3c0.6,0.6,1.3,0.9,2.1,0.9c0.8,0,1.5-0.3,2.1-0.9l9.2-9.3l9.3,9.3c1.2,1.2,3,1.2,4.2,0c0,0,0,0,0,0
		c1.2-1.2,1.2-3.1,0-4.3L188.3,128 M131.1,142.4c-1.6-0.1-2.9-1.4-2.9-3v-12.6h6v12.6C134.1,141,132.7,142.4,131.1,142.4"></path>
</g>
<g id="Layer_2">
</g>
</svg>