<svg width="72" height="81" viewBox="0 0 102 104" fill="none" xmlns="http://www.w3.org/2000/svg">
<path d="M101.1 28.9001C100.9 33.2001 97.5001 50.8001 92.3001 63.0001C90.9001 66.8001 88.8001 70.3001 86.2001 73.4001C83.1001 76.9001 79.5001 78.4001 75.4001 76.9001C74.2001 76.5001 73.1001 75.9001 72.2001 75.1001C72.0001 75.3001 71.8001 75.5001 71.6001 75.7001C70.2001 76.9001 68.6001 77.7001 66.8001 78.1001C64.1001 78.8001 61.2001 79.0001 58.4001 78.5001C57.0001 78.3001 55.7001 77.9001 54.5001 77.3001C54.6001 77.9001 54.6001 78.5001 54.6001 79.1001C54.6001 80.0001 54.5001 80.9001 54.5001 81.5001C54.4001 83.7001 54.3001 85.9001 54.1001 88.0001C53.9001 90.0001 53.5001 91.9001 52.9001 93.8001C52.8001 94.0001 52.8001 94.2001 52.7001 94.5001C51.4001 98.6001 49.0001 105.9 37.7001 103.5C33.3001 102.6 29.4001 101.4 26.3001 96.9001C23.6001 93.0001 21.8001 86.8001 21.5001 75.9001C21.5001 75.7001 21.4001 75.5001 21.4001 75.1001C21.4001 74.9001 21.3001 74.8001 21.3001 74.6001L20.6001 74.7001H20.4001C18.4001 74.8001 16.3001 74.6001 14.3001 74.3001C12.4001 74.0001 10.5001 73.5001 8.70011 72.7001C6.00011 71.5001 3.60011 69.7001 1.60011 67.5001C0.900113 66.6001 0.400118 65.4001 0.300118 64.3001C0.100118 62.2001 1.20011 60.2001 3.20011 59.5001C4.80011 58.9001 6.60011 58.7001 8.20011 59.2001C10.9001 59.8001 12.7001 60.1001 13.8001 60.4001C9.20012 52.7001 5.60011 44.5001 3.20011 35.8001C0.300112 25.1001 0.200116 15.8001 3.40012 11.7001C7.60012 6.30007 13.4001 2.60007 20.1001 1.10007C28.6001 -0.899933 37.1001 0.900069 40.8001 2.00007C41.8001 1.80007 42.9001 1.70007 43.9001 1.50007C45.4001 1.30007 46.9001 1.20007 48.4001 1.20007C51.1001 1.10007 53.9001 1.50007 56.5001 2.30007C58.2001 2.80007 59.9001 3.50007 61.5001 4.50007C70.3001 1.30007 102.9 -7.39993 101.1 28.9001ZM61.0001 7.30007C57.3001 4.90007 52.9001 3.70007 48.4001 3.90007C46.0001 3.90007 43.6001 4.20007 41.2001 4.80007C40.1001 4.50007 38.6001 4.10007 38.6001 4.10007C38.4001 4.00007 38.2001 4.00007 37.9001 3.90007C31.8001 2.40007 25.5001 2.50007 19.4001 4.10007C14.0001 5.60007 9.20011 8.90007 5.70011 13.3001C3.10011 16.7001 3.30011 25.0001 6.00011 34.8001C8.70011 44.3001 12.8001 53.4001 18.2001 61.7001C17.5001 62.3001 15.3001 63.3001 7.60011 61.8001C6.60011 61.5001 5.40012 61.5001 4.40012 61.9001C3.60012 62.2001 3.10011 63.1001 3.20011 63.9001C3.30011 64.5001 3.50012 65.1001 3.90012 65.6001C5.50012 67.5001 7.60012 69.0001 9.80012 69.9001C12.3001 70.9001 15.0001 71.5001 17.8001 71.6001C19.3001 71.7001 20.8001 71.6001 22.4001 71.4001C22.7001 71.3001 23.0001 71.2001 23.3001 71.2001C23.5001 73.3001 23.9001 76.3001 24.3001 79.4001C24.8001 83.2001 25.3001 87.0001 25.7001 89.0001C26.3001 92.5001 27.3001 95.0001 29.2001 97.0001C31.1001 99.0001 33.7001 100.2 37.4001 101C42.1001 102 45.2001 100.9 47.3001 99.2001C49.0001 97.7001 50.2001 95.8001 50.9001 93.6001C51.5001 92.1001 51.9001 88.5001 52.1001 83.9001C52.2001 80.6001 52.3001 76.6001 52.3001 72.5001C54.2001 74.2001 56.5001 75.3001 59.0001 75.7001C61.4001 76.1001 63.9001 75.9001 66.2001 75.3001C67.5001 75.0001 68.7001 74.4001 69.7001 73.5001C70.2001 73.1001 70.5001 72.5001 70.6001 71.8001C70.7001 71.0001 70.4001 70.2001 69.8001 69.7001C68.7001 68.8001 67.3001 68.3001 65.9001 68.1001C61.4001 67.2001 61.0001 66.7001 59.8001 65.0001C59.5001 64.6001 59.1001 64.2001 58.8001 63.8001C58.8001 63.7001 58.8001 63.7001 58.8001 63.6001C59.3001 63.6001 59.8001 63.5001 60.2001 63.5001C61.7001 63.3001 63.2001 62.8001 64.5001 62.1001C65.7001 63.4001 68.9001 66.9001 72.5001 71.2001C73.5001 72.5001 74.8001 73.5001 76.4001 74.1001C79.2001 75.1001 81.7001 73.9001 84.0001 71.4001C86.3001 68.5001 88.2001 65.3001 89.5001 61.8001C94.5001 49.9001 97.8001 32.9001 98.0001 28.7001C99.9001 -5.79993 66.3001 5.30007 61.0001 7.30007ZM87.0001 60.6001C85.8001 63.8001 84.1001 66.7001 82.0001 69.3001C80.5001 71.0001 79.0001 71.8001 77.5001 71.2001C76.5001 70.8001 75.6001 70.0001 74.9001 69.1001C72.4001 66.1001 69.8001 63.1001 67.1001 60.2001C67.6001 59.8001 68.0001 59.4001 68.4001 59.0001C70.6001 56.6001 71.9001 53.5001 72.2001 50.3001C72.3001 49.1001 72.3001 47.8001 72.1001 46.6001C71.6001 42.6001 71.5001 38.6001 71.8001 34.6001C71.8001 34.0001 71.9001 33.5001 71.9001 33.1001C71.9001 33.0001 72.3001 17.8001 63.6001 9.30007C71.4001 6.70007 96.7001 0.600071 95.3001 28.3001C95.1001 32.5001 91.9001 49.1001 87.0001 60.6001ZM66.3001 28.9001C64.8001 28.3001 63.3001 27.9001 61.7001 27.6001C60.1001 27.3001 58.4001 27.4001 56.8001 27.9001C54.4001 28.6001 52.5001 30.4001 51.8001 33.8001C49.2001 45.8001 51.5001 51.0001 53.3001 55.0001C54.0001 56.3001 54.5001 57.6001 54.9001 59.0001C55.2001 59.8001 55.4001 60.6001 55.7001 61.4001C55.5001 61.4001 55.3001 61.3001 55.1001 61.3001C53.9001 61.2001 52.8001 61.6001 51.8001 62.3001C50.8001 63.1001 50.0001 64.1001 49.6001 65.2001C49.3001 66.3001 49.2001 67.4001 49.3001 68.5001C49.4001 73.9001 49.4001 79.2001 49.2001 83.6001C49.0001 88.0001 48.6001 91.1001 48.2001 92.4001C47.6001 94.1001 46.7001 95.6001 45.4001 96.8001C43.9001 98.1001 41.6001 98.8001 38.0001 98.0001C34.8001 97.3001 32.7001 96.3001 31.3001 94.9001C29.9001 93.4001 29.1001 91.4001 28.6001 88.5001C28.2001 86.4001 27.7001 82.7001 27.3001 79.0001C26.7001 74.5001 26.2001 69.9001 26.1001 68.3001C26.4001 62.8001 23.7001 61.8001 21.8001 61.3001C22.0001 61.0001 22.3001 60.7001 22.6001 60.3001C23.9001 58.8001 25.0001 57.0001 25.8001 55.2001C25.9001 54.8001 26.4001 54.0001 27.0001 53.0001C29.5001 48.5001 34.4001 39.7001 33.5001 33.6001C32.8001 29.3001 29.5001 26.4001 21.3001 27.3001C21.3001 27.2001 21.3001 27.1001 21.4001 27.0001C21.9001 25.6001 22.6001 24.2001 23.3001 22.8001C26.9001 16.3001 34.7001 7.10007 48.6001 6.90007C65.4001 6.60007 68.4001 23.3001 69.0001 30.3001C68.0001 29.7001 67.1001 29.3001 66.3001 28.9001ZM20.6001 21.3001C19.8001 22.8001 19.1001 24.3001 18.5001 25.9001C18.1001 26.8001 17.9001 27.9001 17.9001 28.9001C17.9001 29.0001 17.9001 29.0001 17.9001 29.1001C17.9001 31.0001 18.0001 32.8001 18.4001 34.6001C18.6001 36.1001 18.8001 37.6001 18.9001 39.1001C18.9001 40.8001 18.8001 42.5001 18.5001 44.1001C18.0001 48.5001 17.4001 53.3001 20.4001 58.2001C20.3001 58.3001 20.3001 58.3001 20.2001 58.4001C20.1001 58.6001 20.0001 58.7001 19.8001 58.8001C14.9001 51.1001 11.2001 42.7001 8.70011 34.0001C6.20011 25.0001 5.80012 17.7001 7.90012 15.1001C11.0001 11.1001 15.3001 8.20007 20.1001 6.80007C25.4001 5.40007 30.8001 5.30007 36.2001 6.50007C29.5001 9.60007 24.0001 14.8001 20.6001 21.3001ZM20.8001 30.0001C27.5001 29.2001 30.0001 31.0001 30.5001 33.8001C31.3001 38.9001 26.7001 47.1001 24.4001 51.4001C23.8001 52.5001 23.3001 53.4001 23.1001 53.9001C22.9001 54.4001 22.6001 55.0001 22.3001 55.5001C20.5001 51.8001 21.0001 48.0001 21.4001 44.4001C21.7001 42.6001 21.8001 40.8001 21.8001 39.0001C21.7001 37.4001 21.5001 35.8001 21.3001 34.2001C21.0001 32.8001 20.8001 31.4001 20.8001 30.0001ZM24.1001 33.3001C24.5001 33.8001 25.2001 34.1001 25.8001 34.2001C26.3001 34.3001 26.8001 34.1001 27.3001 33.9001C27.8001 33.7001 28.2001 33.2001 28.4001 32.7001C28.4001 32.3001 28.1001 31.9001 27.7001 31.8001C27.2001 31.5001 26.7001 31.4001 26.1001 31.3001C25.5001 31.2001 25.0001 31.2001 24.4001 31.4001C24.0001 31.4001 23.6001 31.7001 23.5001 32.1001C23.5001 32.5001 23.7001 33.0001 24.1001 33.3001ZM20.7001 63.9001C21.7001 64.2001 23.3001 64.6001 23.1001 68.1001C22.7001 68.3001 22.3001 68.5001 21.9001 68.5001C20.6001 68.7001 19.3001 68.8001 18.1001 68.7001C15.7001 68.6001 13.4001 68.1001 11.2001 67.2001C9.70011 66.5001 8.30011 65.6001 7.10011 64.5001C10.9001 65.2001 16.6001 66.3001 20.1001 63.7001C20.2001 63.8001 20.4001 63.9001 20.7001 63.9001ZM53.6001 64.6001C54.0001 64.3001 54.5001 64.2001 54.9001 64.2001C55.1001 64.2001 55.4001 64.3001 55.5001 64.5001C56.2001 65.2001 56.9001 66.0001 57.6001 66.8001C59.4001 69.1001 59.9001 69.8001 65.5001 70.9001C66.2001 71.0001 66.9001 71.2001 67.6001 71.5001C67.0001 71.9001 66.3001 72.2001 65.7001 72.3001C63.7001 72.8001 61.7001 72.9001 59.7001 72.6001C56.9001 72.1001 54.3001 70.5001 52.7001 68.1001C52.3001 67.5001 52.3001 66.7001 52.6001 66.0001C52.7001 65.5001 53.0001 65.0001 53.6001 64.6001ZM57.7001 57.9001C57.2001 56.5001 56.7001 55.1001 56.0001 53.7001C54.4001 50.0001 52.2001 45.4001 54.6001 34.3001C54.8001 32.6001 56.0001 31.2001 57.6001 30.6001C58.8001 30.3001 60.0001 30.2001 61.2001 30.4001C62.5001 30.6001 63.9001 31.0001 65.1001 31.5001C66.4001 32.0001 67.6001 32.6001 68.9001 33.2001C68.9001 33.6001 68.9001 34.1001 68.8001 34.5001C68.5001 38.7001 68.6001 42.9001 69.1001 47.1001C69.2001 48.1001 69.3001 49.1001 69.2001 50.1001C69.0001 52.7001 67.9001 55.2001 66.1001 57.1001C64.5001 58.9001 62.2001 60.1001 59.8001 60.5001C59.4001 60.6001 58.9001 60.6001 58.5001 60.6001C58.3001 59.7001 58.0001 58.8001 57.7001 57.9001ZM58.9001 35.5001C59.6001 35.4001 60.2001 35.0001 60.7001 34.5001C61.1001 34.1001 61.4001 33.6001 61.4001 33.1001C61.3001 32.6001 60.9001 32.1001 60.3001 32.1001C59.1001 31.9001 57.9001 32.1001 56.8001 32.6001C56.3001 32.8001 56.0001 33.3001 56.0001 33.8001C56.1001 34.3001 56.5001 34.8001 56.9001 35.0001C57.5001 35.4001 58.2001 35.5001 58.9001 35.5001Z" fill="black"></path>
</svg>