<svg width="65" height="94" viewBox="0 0 81 104" fill="none" xmlns="http://www.w3.org/2000/svg">
<path d="M60.3001 103.2C35.7001 103.2 0.900126 103 0.900126 103C0.900126 103 1.10012 78.1 1.10012 52.9C1.10012 3.90004 -2.99988 0.300049 19.0001 0.300049H80.4001V70.9C80.4001 94.1 84.8001 103.2 60.3001 103.2ZM68.3001 91.4H62.2001V95H67.5001C71.9001 95 74.1001 94.7 74.1001 90C74.1001 85.3 71.0001 85.4 69.4001 85.4H66.5001V84H73.3001V80C73.3001 80 71.1001 79.9 67.5001 79.9C63.9001 79.9 62.0001 81.3 62.0001 84.9C62.0001 88.5 65.6001 89.5 67.5001 89.5C69.4001 89.5 70.4001 89.7 70.4001 90.3C70.4001 90.9 70.2001 91.4 68.3001 91.4ZM70.7001 22V20.4L67.2001 19.6V21.6L70.7001 22ZM49.8001 80.1001V94.9H59.9001V91H53.9001V80L49.8001 80.1001ZM60.1001 22.6L59.6001 20.5L55.9001 21.4L57.6001 24.5L60.1001 22.6ZM48.0001 43.5L49.1001 39.2L45.3001 36.3L43.6001 39.7L48.0001 43.5ZM43.4001 48.2L43.1001 52.8L48.6001 55.2L48.3001 50.9L43.4001 48.2ZM51.5001 32.1L53.1001 29.4L50.5001 25.5L47.7001 28L51.5001 32.1ZM50.8001 64.4H45.0001L46.3001 69.1001L53.2001 69.5L50.8001 64.4ZM41.2001 94.7H45.4001V79.9H41.2001V94.7ZM25.1001 94.9H29.2001V92.3H33.1001V94.9H37.2001V83.7C37.2001 80.2 33.3001 80 31.1001 80H30.2001C28.0001 80 25.0001 80.2 25.0001 84.3V94.9H25.1001ZM9.00012 95.3H12.9001V91.3L16.5001 94.9H22.6001L17.8001 90.1001C17.8001 90.1001 21.3001 90.0001 21.5001 85.1001C21.5001 80.5001 18.0001 79.9 14.0001 79.9H9.00012V95.3ZM4.90013 64.5L11.3001 65.3L12.5001 58.5L5.70012 58L4.90013 64.5ZM12.3001 36.1L10.3001 41.6L16.5001 43.6L18.3001 38.5L12.3001 36.1ZM24.0001 18.9L20.3001 23L25.0001 26.1L28.5001 21.9L24.0001 18.9ZM38.7001 7.70004L34.4001 9.90005L37.5001 13.7L41.8001 11.2L38.7001 7.70004ZM55.3001 5.80005L49.7001 5.50005L50.5001 9.30005L55.9001 9.20004L55.3001 5.80005ZM67.9001 9.60004L67.8001 12L71.5001 14L72.3001 12.8L67.9001 9.60004ZM53.0001 9.70004C39.9001 10.9 30.8001 19.5 25.2001 30C19.6001 40.5 16.3001 47.8 14.0001 58.7C11.7001 69.6 12.7001 75.4 12.7001 75.4H47.6001C47.6001 75.4 39.9001 57.9 41.8001 41.8C43.7001 25.7 56.5001 18.4 63.7001 17.6C67.8001 17 71.9001 18.4 74.9001 21.3L76.5001 18.9C76.5001 19 66.1001 8.60004 53.0001 9.70004ZM16.6001 86.8H13.2001V84H16.6001V86.8ZM33.0001 88H29.2001V83.8H33.0001V88Z" fill="black"></path>
</svg>