<svg xmlns="http://www.w3.org/2000/svg" xmlns:xlink="http://www.w3.org/1999/xlink" width="46" height="64" viewBox="0 0 46 64"><defs><path id="apt8a" d="M947.6 2130.99l-18.63 5-18.62-5-4.35-47h46zm-25.1-53.56v2.58H916v-8h6.5v2.83h-3.72v2.59zm6.68-2.6l2.6 2.6v2.58h-6.5v-2.58h2.57c-1.25-1.29-1.7-1.71-2.58-2.6V2072h6.5v2.84zm9.2 0l2.6 2.6v2.58h-6.5v-2.58h2.58c-1.25-1.29-1.7-1.71-2.58-2.6V2072h6.5v2.84zm5.62 18.18h-29l.08.6.63 4.96h14.7l-.21.09-.57.22-13.42 5.5.45 5.43 12.97.04 6.95.02-.44 7.24-6.5 1.8-.06.01-6.28-1.56-.39-4.5h-5.85 5.83-5.85l.77 8.69 11.82 3.43h.02l11.77-3.37 1.52-17.24H929.6h.03l13.8-5.8z"></path><path id="apt8b" d="M928 2088.01h18.99l-3.56 39-15.4 4-.03-.02v-6.48l1.63.47h.02l11.77-3.37 1.52-17.24H929.6h.03l13.8-5.8.57-5.56h-16zm2.42 10.56l-.22.09-.57.22-1.63.67v-.98zm-.79 11.28l6.95.02-.44 7.24-6.5 1.8-.06.01-1.58-.39v-8.69z"></path></defs><g><g transform="translate(-906 -2072)"><g><use fill="#303640" xlink:href="#apt8a"></use></g><g><use fill="#3f4754" xlink:href="#apt8b"></use></g></g></g></svg>