<svg xmlns="http://www.w3.org/2000/svg" xmlns:xlink="http://www.w3.org/1999/xlink" width="57" height="64" viewBox="0 0 57 64"><defs><path id="h1vua" d="M475.36 2122.39v-16.83l-15.75-9.15v17.27zm17.99-8.71v-17.27l-15.75 9.15v16.83zm-32.67-19.27l15.8 9.2 15.81-9.2-15.8-8.75z"></path><path id="h1vub" d="M503.24 2121.22l-25.62 14.58v-11.36l15.96-8.83zm1.75-1.6l-9.37-5.45v-19.6l9.37-5.44zm-55.24 1.6l9.66-5.61 15.96 8.83v11.36zm-1.75-32.1l9.37 5.45v19.6l-9.37 5.45zm1.1-1.97l26.27-14.95v10.98l-16.83 9.31-.13.08zm45.48 5.42l-.12-.08-16.84-9.31v-10.98l26.28 14.95z"></path></defs><g><g transform="translate(-448 -2072)"><use fill="#303640" xlink:href="#h1vua"></use></g><g transform="translate(-448 -2072)"><use fill="#3f4754" xlink:href="#h1vub"></use></g></g></svg>