<svg xmlns="http://www.w3.org/2000/svg" xmlns:xlink="http://www.w3.org/1999/xlink" width="64" height="56" viewBox="0 0 64 56"><defs><path id="57m5a" d="M1059.17 2112.85c.71 2.6-3.63 4.75-7.42 3.77-.39 1.98-5.24 3.26-8.36.82-.6 2.01-5.49 1.57-7.42 0 .97 1.48 3.48 5.76 3.71 6.96.32 1.62-.4 3.65-1.85 3.73-.06 2.1-2.68 3.86-5.65 3.24-1.54 2.27-4.37 1.76-5.9.9-1.2 1.31-3.94.22-4.53-1.04-.4-.85-1.62-4.2-2.02-5.27-.47 1.57-2.5 3.32-4.85 3.32-5.37 0-14.88-12.16-14.88-26.03 0-16.5 12.93-26.25 24.8-26.25 9.38 0 12.96 7.67 13.64 10.43.96.16 1.93.43 2.9.79 2.57-5.88 10.24-9.82 15.58-8.27-3.59 3.79-3.56 5.86-3.98 8-.42 2.2-.96 10.21-11.4 9.93-.26-.52-.72-1.6-.81-1.88a21 21 0 0 0-2.26.83c-.18.63-.4 1.24-.65 1.83 5.2.58 21.66 2.54 24.95 5.69 1.7 1.63 2.48 8.08-3.6 8.5zm.55-6.15c-.3-1.54-1.11-1.97-3.68-2.66a134.37 134.37 0 0 0-19.89-3.19c-.29.43-.83 1.15-1.76 1.92-2.04 1.7-5.58 3.15-11.11 3.15 4.92-1.12 9.17-3.57 11.32-7.15-1.51-2.4-3.16-7.74 1-11.95a11.25 11.25 0 0 0-10.66-7.48c-12.05 0-22.04 10.06-22.04 23.55a22.22 22.22 0 0 0 22.13 22.34c7.48 0 10.8-7.6 10.07-9.62a35.93 35.93 0 0 0-.24-.65v-.01c2 2.17 7.05 1.95 7-.02 4.04 2.05 7.59.28 6.7-1.7 4 1.33 6.86-1.07 5.39-3.08 2.72.64 4.53-.27 5.33-1.57-1.2-.3-5-1.07-8.99-1.83-4.7-.9-9.63-1.81-10.75-1.97a331.05 331.05 0 0 1 20.19 1.92zm-10.44-13.64c2.63-3.18 1.5-9.19 4.7-12.08-4.77.26-9.1 3.57-10.96 7.54.7.33 1.39.72 2.07 1.15 1.33-2.94 3.59-5.68 5.87-6.6-2.07 1.75-3.72 4.57-5.03 7.16.88.62 2.6 2.07 3.35 2.83zm-4.86.27c-.13.26-.44.93-.55 1.12 0-.1.04-.86.1-1.21-.18-.04-1.31-.26-1.9-.25-.05.74.3 2 .66 2.77 2.42-.05 4.18-.78 5.2-1.44-.87-.41-2.37-.77-3.5-1zm-9.7-.18c3.24.98 4.87-.87 7.26-.87 1.42 0 3.45.4 5.05 1.02-1.29-1.19-5.51-4.77-10.74-4.78a7.49 7.49 0 0 0-.96 7.7c.66-.36 2.94-1.73 5.12-2.25-.04-.24-.06-.48-.08-.73-1.43.34-4.11 1.5-5.65-.1zm-10.6-7.89a5.59 5.59 0 1 1 0 11.19 5.59 5.59 0 0 1 0-11.19zm-3.36 5.59a3.35 3.35 0 1 0 6.7-.01 3.35 3.35 0 0 0-6.7 0zm1.49-1.56c0-.64.86-1.17 1.94-1.17 1.06 0 1.93.53 1.93 1.17 0 .65-.87 1.18-1.93 1.18-1.08 0-1.94-.53-1.94-1.18z"></path></defs><g><g transform="translate(-1000 -2077)"><use fill="#303640" xlink:href="#57m5a"></use></g></g></svg>