<svg xmlns="http://www.w3.org/2000/svg" xmlns:xlink="http://www.w3.org/1999/xlink" width="46" height="64" viewBox="0 0 46 64"><defs><path id="1ssua" d="M670.37 2130.82L666 2084h46l-4.38 46.82-18.65 5.17zm2.5-58.82v2.64h2.64V2072h2.89v7.99h-2.89v-2.68h-2.64v2.68H670V2072zm6.78 2.65V2072h7.97v2.65h-2.54v5.34h-2.89v-5.34zm9.23-2.65h3.01l1.85 2.8 1.85-2.8h3.01v7.99h-2.87v-3.96l-1.99 2.84h-.05l-1.98-2.84v3.96h-2.83zm11.16 0h2.88v5.35h4.06v2.64h-6.94zm2.75 20.93h-28.43l.14 1.55 1.4 15.9h19.66l-.66 7.5-6.33 1.73-6.32-1.74-.4-4.6h-5.7l.79 9.06 11.62 3.29.03-.01 11.62-3.28.08-.97 1.34-15.2.13-1.55h-20.68l-.52-5.9h21.72l.11-1.3.26-2.93z"></path><path id="1ssub" d="M689.3 2088.13h18.82l-3.58 39.78-15.23 4.19v-6.7l10.9-3.07.08-.97 1.34-15.2.13-1.55h-12.45v-5.9h12.97l.11-1.3.26-2.93.14-1.55H689.3zm6.26 22.26l-.66 7.48-5.6 1.54v-9.02z"></path></defs><g><g transform="translate(-666 -2072)"><g><use fill="#303640" xlink:href="#1ssua"></use></g><g><use fill="#3f4754" xlink:href="#1ssub"></use></g></g></g></svg>