<svg xmlns="http://www.w3.org/2000/svg" xmlns:xlink="http://www.w3.org/1999/xlink" width="64" height="64" viewBox="0 0 64 64"><defs><path id="p6woa" d="M615.98 2136.01H552V2072h63.98zM613 2075h-58v58h58zm-14.43 30.38c5.21 2.28 8.07 4.56 8.17 9.52 0 5.39-4.29 8.49-10.01 8.49-5.62 0-9.3-2.7-11.04-6.21l4.9-2.8c1.23 2.28 2.87 3.84 5.93 3.84 2.56 0 4.1-1.35 4.1-3.1 0-2.18-1.75-3.01-4.4-4.15l-1.43-.62c-4.3-1.96-7.26-4.34-7.26-9.31 0-4.45 3.47-7.97 8.89-7.97 3.78 0 6.54 1.35 8.48 4.86l-4.7 3.1c-1.12-1.85-2.15-2.58-3.88-2.58-1.84 0-2.97 1.14-2.97 2.59 0 1.96 1.23 2.58 3.78 3.72zm-25.48 17.85c-4.88 0-7.79-2.5-9.24-5.61l5.09-3.12c.93 1.66 1.87 3.12 3.94 3.12 2.08 0 3.55-.38 3.55-3.5v-21.06h5.9v21.06c0 6.34-3.73 8.9-9.24 9.1z"></path></defs><g><g transform="translate(-552 -2072)"><use fill="#303640" xlink:href="#p6woa"></use></g></g></svg>