<svg xmlns="http://www.w3.org/2000/svg" xmlns:xlink="http://www.w3.org/1999/xlink" width="97" height="59" viewBox="0 0 97 59"><defs><path id="82ema" d="M807.94 2134c-.32 0-.64-.09-.92-.25l-2.92-1.72c-.44-.24-.23-.32-.08-.38.58-.2.7-.24 1.32-.6.06-.03.15-.01.22.02l2.24 1.33c.08.04.2.04.27 0l8.76-5.02a.27.27 0 0 0 .14-.24v-10.04c0-.1-.05-.2-.14-.24l-8.75-5.02a.27.27 0 0 0-.27 0l-8.76 5.02a.28.28 0 0 0-.14.24v10.04c0 .1.05.19.14.23l2.4 1.38c1.3.65 2.1-.11 2.1-.88v-9.92c0-.14.11-.25.25-.25h1.11c.14 0 .26.11.26.25v9.92c0 1.73-.95 2.72-2.6 2.72-.5 0-.9 0-2.01-.55l-2.3-1.31a1.83 1.83 0 0 1-.92-1.59v-10.04c0-.66.35-1.27.92-1.59l8.76-5.03c.55-.31 1.3-.31 1.84 0l8.76 5.03c.57.33.92.93.92 1.59v10.04c0 .65-.35 1.26-.92 1.59l-8.76 5.02c-.28.16-.6.25-.92.25zm2.7-6.92c-3.83 0-4.63-1.75-4.63-3.22 0-.14.1-.25.25-.25h1.13c.13 0 .24.1.25.22.18 1.14.69 1.72 3 1.72 1.85 0 2.64-.42 2.64-1.39 0-.56-.23-.98-3.1-1.25-2.4-.24-3.88-.77-3.88-2.67 0-1.76 1.5-2.8 4-2.8 2.8 0 4.19.96 4.36 3.04a.25.25 0 0 1-.25.27h-1.14a.25.25 0 0 1-.24-.2c-.27-1.2-.94-1.58-2.74-1.58-2.01 0-2.25.7-2.25 1.22 0 .63.28.81 3 1.17 2.7.36 3.97.86 3.97 2.74 0 1.9-1.59 2.98-4.37 2.98zm12.63-10.54a1.69 1.69 0 0 1-3.37 0 1.69 1.69 0 0 1 3.37 0zm-3.1 0c0 .78.64 1.41 1.41 1.41.79 0 1.42-.64 1.42-1.41 0-.78-.64-1.4-1.42-1.4-.76 0-1.4.61-1.4 1.4zm.78-.94h.65c.23 0 .67 0 .67.5 0 .35-.23.42-.36.46.26.02.28.19.31.43.02.15.05.4.1.5h-.4l-.08-.6c-.02-.1-.06-.16-.2-.16h-.32v.75h-.37zm.36.83h.3c.23 0 .28-.17.28-.27 0-.25-.18-.25-.28-.25h-.3zM780.8 2109a.56.56 0 0 1-.84.48l-5.51-3.14c-.35-.2-.57-.57-.57-.97v-6.68c0-.4-.2-.76-.56-.96l-2.35-1.35c-.17-.1-.36-.14-.55-.14-.2 0-.4.04-.57.14l-2.35 1.35c-.34.2-.56.57-.56.96v6.68c0 .4-.21.77-.56.97l-5.52 3.14c-.17.1-.38.1-.55 0a.55.55 0 0 1-.29-.48l-.02-14.3c0-.4.22-.77.56-.97l9.3-5.3c.15-.1.33-.15.5-.15h.1c.18 0 .36.05.51.14l9.3 5.31c.34.2.55.57.55.97zm50.24-30.89c.35.2.58.57.58.97v26.57c0 .4-.22.76-.57.96l-9.29 5.33c-.35.2-.78.2-1.12 0l-9.3-5.33c-.34-.2-.55-.56-.55-.96v-10.66c0-.4.21-.77.56-.96l9.29-5.33c.34-.2.77-.2 1.12 0l2.33 1.33c.12.07.27.07.39 0s.2-.2.2-.34v-14.16a.56.56 0 0 1 .83-.48zm-6.4 20.38c0-.1-.05-.2-.13-.24l-3.2-1.83a.28.28 0 0 0-.27 0l-3.2 1.83a.27.27 0 0 0-.13.24v3.66c0 .1.05.19.14.24l3.19 1.83c.08.04.19.04.28 0l3.19-1.83a.28.28 0 0 0 .14-.24zm26.24 3.11c-.17.1-.38.1-.56 0a.56.56 0 0 1-.28-.48v-2.62c0-.2-.1-.39-.28-.49l-2.91-1.66a.57.57 0 0 0-.56 0l-2.91 1.66a.55.55 0 0 0-.28.49v3.33c0 .2.1.39.28.49l9.35 5.33a.56.56 0 0 1 0 .97l-5.6 3.08c-.33.19-.75.19-1.1 0l-9.22-5.23c-.35-.2-.57-.57-.57-.97v-10.65c0-.4.22-.77.56-.97l9.29-5.33c.35-.2.78-.2 1.12 0l9.24 5.33c.34.2.55.57.55.97v2.58c0 .4-.2.76-.55.96zm-4.37-3.7a.22.22 0 0 1 .22 0l1.78 1.01c.07.04.11.11.11.2v2.04c0 .07-.04.14-.1.18l-1.79 1.02a.22.22 0 0 1-.22 0l-1.77-1.02a.21.21 0 0 1-.11-.18v-2.05c0-.08.04-.15.1-.19zm-50.7-9.44s-.2 0 0 0c.19 0 .38.05.55.15l9.21 5.28c.35.2.56.57.56.96v10.58c0 .4-.21.76-.56.95l-9.21 5.3c-.2.1-.42.15-.64.14a1.1 1.1 0 0 1-.47-.15l-9.22-5.29a1.1 1.1 0 0 1-.55-.95v-10.58c0-.4.2-.76.55-.96l.1-.05h-.01l9.12-5.23a1.11 1.11 0 0 1 .56-.15z"></path><path id="82emb" d="M796.33 2111.67l9.2-5.29c.34-.2.5-.56.5-.95v-.05l-9.94-16.87c-.29-.09-.6-.05-.86.1l-9.12 5.22 9.92 17.96c.1-.02.2-.06.3-.12z"></path></defs><g><g transform="translate(-760 -2075)"><use fill="#303640" xlink:href="#82ema"></use></g><g transform="translate(-760 -2075)"><use fill="#3f4754" xlink:href="#82emb"></use></g></g></svg>