<svg width="70" height="80" viewBox="0 0 80 80" fill="none" xmlns="http://www.w3.org/2000/svg">
<path d="M0.5 79.2001V0.100098H79.6V79.2001H0.5ZM33.1 30.0001C37.6 30.0001 40.4 32.7001 41 36.3001H48.4C47.6 29.2001 42 23.5001 32.9 23.5001C22.4 23.5001 16.5 31.3001 16.5 39.7001C16.5 48.3001 22.7 55.9001 33 55.9001C41.6 55.9001 47.2 50.6001 48.4 44.1001H41C40.1 47.1001 37.4 49.5001 33.2 49.5001C27.6 49.5001 23.9 45.1001 23.9 39.7001C23.9 34.7001 27.2 30.0001 33.1 30.0001ZM57.2 24.3001L52.6 26.2001L58.3 39.5001L52.6 52.8001L57.2 54.7001L61 45.7001L63.7 39.4001L57.2 24.3001Z" fill="black"></path>
</svg>