<svg width="247" height="68" viewBox="0 0 247 68" fill="none" xmlns="http://www.w3.org/2000/svg">
<path d="M48.9 67.9001C44 65.8001 43.8 65.7002 42.2 63.6002C42.3 63.0002 42.8999 62.8001 43.2999 62.5001C43.6999 62.2001 44.2 61.9001 44.7 61.5001C47.4 64.3001 50.4 65.3001 53.9 63.5001C56.6 62.1001 58 59.7001 57.8 56.7001C57.5 52.9001 55.0999 50.7001 51.2999 49.9001C53.1999 44.0001 55.1 38.2002 57 32.4001C54.4 28.7001 55.8 26.2001 57.9 25.0001C60.1 23.8001 63 24.8001 63.9 27.1001C65 29.7001 63.7 32.0002 60.4 33.3002C58.9 38.0002 57.3 42.8001 55.7 47.7001C59.5 50.2001 61.5 53.4002 61.3 57.8002C61.1 62.7002 57.5 66.8001 52.7 67.7001C52.4 67.7001 52.1 67.7001 52 68.0001C50.9 67.9001 49.9 67.9001 48.9 67.9001Z" fill="black"></path>
<path d="M15.2999 34.6001C17.1999 40.5001 19.0999 46.4001 20.9999 52.2001C23.8999 53.2001 24.9999 54.5001 24.9999 56.8001C24.9999 58.7001 23.7999 60.3001 22.0999 60.9001C20.2999 61.5001 18.2999 60.9001 17.1999 59.4001C15.9999 57.7001 16.0999 55.8001 17.6999 53.4001C16.1999 48.6001 14.5999 43.8001 12.9999 39.0001C7.29992 39.2001 3.49992 36.9001 1.59992 32.4001C-7.58171e-05 28.6001 0.899924 24.0001 3.69992 20.9001C6.19992 18.2001 11.0999 16.7001 14.6999 18.2001C14.3999 19.2001 14.0999 20.2001 13.7999 21.2001C9.59992 20.7001 6.89992 21.8001 5.19992 24.7001C3.79992 27.2001 4.09992 30.5001 5.89992 32.7001C8.09992 35.4001 10.8999 36.0001 15.2999 34.6001Z" fill="black"></path>
<path d="M40.5 12.2002C44.5 15.1002 48.6 18.1002 52.7 21.1002C57.7 17.1002 62.5 17.6002 65.9 19.8002C69.6 22.2002 71.3 25.7002 70.8 30.0002C70.3 34.4002 67.4 37.8002 63.6 38.8002C63.1 37.9002 62.9 36.9002 62.5 35.8002C66.2 34.0002 68.1 31.1002 67.2 27.0002C66.6 24.1002 64.5 22.2002 61.6 21.7002C58 21.0002 55.3 22.6002 53.5 25.9002C48.5 22.3002 43.5 18.6002 38.5 15.0002C35.2 16.1002 32.7 15.2002 31.9 12.1002C31.3 9.60023 32.9 7.30023 35.3 6.90023C38.3 6.50023 40.1 8.20023 40.5 12.2002Z" fill="black"></path>
<path d="M46.3999 10.7001C45.1999 10.7001 44.1999 10.7001 43.0999 10.7001C42.8999 8.80012 42.1999 7.00012 40.7999 5.70012C39.6999 4.70012 38.4999 4.00012 36.9999 3.70012C34.0999 3.20012 31.0999 4.60012 29.5999 7.10012C27.8999 9.90012 28.1999 12.8001 30.8999 16.4001C25.8999 20.0001 20.8999 23.7001 15.9999 27.2001C15.7999 31.0001 13.8999 33.0001 11.0999 32.7001C8.49992 32.4001 6.69992 29.9001 7.29992 27.4001C7.89992 24.6001 10.3999 23.5001 13.7999 24.5001C17.7999 21.6001 21.8999 18.6001 26.0999 15.6001C24.5999 11.7001 24.6999 7.90012 27.1999 4.50012C28.9999 2.10012 31.3999 0.600123 34.4999 0.300123C41.4999 -0.699877 46.4999 5.20012 46.3999 10.7001Z" fill="black"></path>
<path d="M31.2999 58.6002C29.8999 63.6002 26.8999 66.8002 21.5999 67.3002C17.0999 67.7002 13.0999 65.5002 11.1999 61.5002C9.39995 57.7002 9.59995 54.0001 12.0999 50.4001C12.9999 51.1001 13.8999 51.7001 14.7999 52.4001C12.9999 55.9001 12.9999 59.1001 15.7999 61.9001C17.9999 64.0001 20.6999 64.5002 23.4999 63.3002C26.9999 61.8002 28.1999 59.0001 27.8999 55.2001C34.0999 55.2001 40.1999 55.2001 46.1999 55.2001C48.9999 51.4001 51.9999 51.9001 53.7999 53.7001C55.4999 55.4001 55.3999 58.4002 53.4999 60.0002C51.3999 61.9002 48.5999 61.4002 46.5999 58.6002C41.5999 58.6002 36.4999 58.6002 31.2999 58.6002Z" fill="black"></path>
<path d="M122.2 43.7001C123.3 43.4001 123.3 44.0001 123.4 44.5001C123.6 47.9001 125 50.7001 128.4 51.8001C132.5 53.2001 136.6 53.3001 140.2 50.7001C143.9 48.2001 143.4 43.2001 139.4 41.1001C136.8 39.7001 133.8 39.5001 130.9 38.6001C129.7 38.2001 128.5 37.9001 127.4 37.5001C125 36.7001 123.4 35.1001 123.2 32.5001C122.9 29.7001 123.9 27.5001 126.2 25.9001C129.7 23.5001 136.4 23.7001 139.9 26.1001C142.1 27.6001 143.1 30.1001 142.8 33.1001C142.5 33.4001 142.2 33.3001 141.8 33.1001C141.7 30.1001 140.6 27.4001 137.5 26.3001C133.8 25.0001 130.1 24.8001 126.6 27.1001C124.8 28.3001 124.1 30.1001 124.3 32.3001C124.5 34.4001 125.7 35.6001 127.6 36.3001C130.6 37.5001 133.7 37.9001 136.7 38.9001C137.7 39.2001 138.7 39.5001 139.7 39.9001C145.3 42.2001 144.4 49.3001 140.7 51.8001C136.8 54.4001 129.1 54.4001 125.3 51.6001C122.8 49.8001 122.1 46.9001 122.2 43.7001Z" fill="black"></path>
<path d="M196.8 53.3001C196.4 53.3001 196.3 53.4001 196.1 53.3001C196 53.3001 195.9 53.2001 195.6 53.1001C195.6 48.5001 195.6 43.9001 195.6 39.2001C195.6 34.6001 195.6 30.0001 195.6 25.4001C196 24.9001 196.3 25.1001 196.8 25.1001C196.8 27.1001 196.8 29.1001 196.8 31.0001C198.1 28.5001 199.7 26.5001 202.3 25.3001C208.3 22.7001 215 25.3001 216.6 31.0001C216.9 31.9001 217.1 32.9001 217.1 33.8001C217.1 40.2001 217.1 46.6001 217.1 52.9001C216.7 53.3001 216.4 53.3001 215.9 52.9001C215.9 47.1001 215.9 41.2001 215.9 35.3001C215.9 34.3001 215.9 33.3001 215.7 32.3001C215 28.9001 213.1 26.6001 209.6 25.8001C205.7 24.9001 202.2 25.7001 199.5 28.9001C197.6 31.2001 196.8 34.0001 196.8 37.0001C196.7 42.4001 196.8 47.8001 196.8 53.3001Z" fill="black"></path>
<path d="M150.7 26.2001C148.9 26.2001 147.3 26.2001 145.9 26.2001C145.5 25.9001 145.6 25.5001 145.6 25.1001C147.2 25.1001 148.9 25.1001 150.7 25.1001C150.7 22.5001 150.7 20.0001 150.7 17.5001C150.7 16.9001 150.5 16.0001 151.8 16.3001C151.8 19.1001 151.8 22.0001 151.8 25.0001C154 25.0001 156 25.0001 157.9 25.0001C158.4 25.5001 158.3 25.8001 158 26.3001C156.1 26.3001 154.1 26.3001 152.1 26.3001C151.7 27.0001 151.9 27.6001 151.9 28.2001C151.9 34.5001 151.9 40.8001 151.9 47.1001C151.9 51.5001 152.6 52.3001 157 52.2001C157.3 52.2001 157.6 52.2001 157.9 52.2001C158.3 53.1001 157.8 53.2001 157.2 53.3001C153.1 54.1001 150.7 52.2001 150.7 48.0001C150.7 41.4001 150.7 34.9001 150.7 28.3001C150.7 27.6001 150.7 27.0001 150.7 26.2001Z" fill="black"></path>
<path d="M87.6999 26.3001C86.0999 26.3001 84.6999 26.3001 83.4999 26.3001C82.8999 25.9001 82.8999 25.6001 82.9999 25.1001C84.4999 25.1001 85.9999 25.1001 87.6999 25.1001C87.6999 23.0001 87.6999 21.0001 87.6999 19.0001C87.6999 15.5001 89.0999 14.1001 92.6999 14.1001C93.3999 14.1001 93.9999 14.1001 94.6999 14.2001C95.2999 14.3001 95.7999 14.4001 95.4999 15.4001C94.3999 15.4001 93.2999 15.3001 92.0999 15.4001C89.9999 15.5001 88.9999 16.3001 88.8999 18.4001C88.7999 20.5001 88.8999 22.7001 88.8999 25.0001C90.9999 25.0001 92.8999 25.0001 94.8999 25.0001C94.9999 25.5001 95.0999 25.8001 94.5999 26.2001C92.8999 26.2001 90.9999 26.2001 88.8999 26.2001C88.8999 30.8001 88.8999 35.3001 88.8999 39.8001C88.8999 44.2001 88.8999 48.7001 88.8999 53.1001C87.6999 53.5001 87.7999 52.7001 87.7999 52.1001C87.7999 48.0001 87.7999 44.0001 87.7999 39.9001C87.6999 35.4001 87.6999 30.9001 87.6999 26.3001Z" fill="black"></path>
<path d="M246.2 39.4002V38.0002C246.2 37.1002 246.1 36.4002 245.9 35.5002C245.8 35.1002 245.7 34.6002 245.6 34.1002C244.2 28.4002 240.3 24.8002 235.1 24.4002C229.4 23.9002 224.7 26.9002 222.5 32.3002C221.1 35.6002 221 39.1002 221.5 42.6002C222.4 49.0002 225.9 54.2002 234.2 53.8002C240.5 53.5002 244.8 49.8002 245.7 43.5002C245.3 43.3002 245 43.3002 244.6 43.5002C242.7 50.8002 237.7 53.9002 230.5 52.4002C225.4 51.3002 221.6 45.2002 222.6 39.3002H246.2V39.4002ZM233.7 25.6002C240.2 25.4002 245 30.8002 244.9 38.2002H222.7C222.2 31.7002 227.4 25.7002 233.7 25.6002Z" fill="black"></path>
<path d="M192.7 52.3001C189.2 52.0001 189.2 52 189.2 48.4C189.2 43.1 189.2 37.8 189.2 32.5C189.2 28.4 187.1 25.6 183.5 24.7C181.8 24.3 180.1 24.2001 178.4 24.4001C172.9 24.9001 169.5 28.3001 169.3 33.6001C169.6 33.9001 169.9 33.8 170.3 33.7C170.6 31.5 171.2 29.6 172.7 28.1C175.6 25.3 179.2 25.2001 182.9 25.9001C186.7 26.6001 188.5 29.6 188.1 34C187.9 36.3 186.3 37.2 182.3 37.5C179.2 37.8 176.1 37.6 173 38.4C169.7 39.3 167.7 41.7 167.4 45.2C167.1 49 168.4 51.5 171.6 52.9C174.2 54 177 54.1 179.8 53.5C183.4 52.8 186.2 50.9001 188 47.3001C188.3 53.0001 188.8 53.6001 192.6 53.1001C192.8 52.9001 192.8 52.6001 192.7 52.3001ZM187.7 44.6001C185.8 52.8001 176.2 54.4 171.3 51.5C168.8 50 168.3 47.7 168.6 45C168.9 42.4 170.2 40.6001 172.6 39.8001C175.2 38.9001 178 39.0001 180.7 38.8001C183.2 38.7001 185.7 38.5 188.1 37C187.9 39.7 188.3 42.2001 187.7 44.6001Z" fill="black"></path>
<path d="M120.5 52.2001C119.4 52.0001 117.9 52.6001 117.1 51.0001C117.1 50.5001 117.1 49.9001 117.1 49.3001C117.1 43.7001 117.1 38.2001 117.1 32.6001C117.1 28.5001 115 25.7001 111.5 24.9001C109.7 24.4001 107.8 24.3001 105.9 24.5001C100.5 25.2001 97.0999 28.7001 97.0999 33.7001C98.3999 34.0001 98.1999 33.0001 98.2999 32.4001C98.9999 28.9001 101.1 26.8001 104.5 25.9001C106.5 25.4001 108.6 25.4001 110.6 25.8001C114.3 26.5001 116.2 29.3001 115.9 33.5001C115.7 36.2001 114.4 37.1001 110 37.5001C106.6 37.8001 103.2 37.5001 99.8999 38.7001C96.8999 39.8001 95.3999 42.0001 95.0999 45.1001C94.8999 48.2001 95.4999 50.8001 98.3999 52.5001C103.1 55.2001 110.5 54.0001 114 49.8001C114.5 49.2001 115 48.4001 115.6 47.6001C116 49.2001 115.3 50.8001 116.1 52.0001C117.1 53.5001 118.7 53.2001 120.1 53.1001C120.7 52.9001 120.7 52.6001 120.5 52.2001ZM115.8 44.1001C114.5 51.1001 105.9 55.2001 99.5999 51.7001C96.9999 50.3001 96.2999 48.0001 96.4999 45.2001C96.7999 42.6001 97.9999 40.7001 100.6 39.8001C103.1 38.9001 105.6 39.0001 108.2 38.8001C110.9 38.7001 113.5 38.5001 116 37.1001C116 39.5001 116.2 41.8001 115.8 44.1001Z" fill="black"></path>
<path d="M162.1 14.3002C162.1 27.3002 162.1 40.3002 162.1 53.3002C162.5 53.5002 162.8 53.5002 163.3 53.2002C163.3 40.2002 163.3 27.2002 163.3 14.3002C162.8 14.0002 162.5 14.0002 162.1 14.3002Z" fill="black"></path>
</svg>