<svg width="70" height="94" viewBox="0 0 106 94" fill="none" xmlns="http://www.w3.org/2000/svg">
<path d="M79.6999 86.7001C67.2999 93.8001 50.2999 94.5001 33.1999 87.2001C19.6999 81.5001 8.2999 71.8001 0.399902 59.5001C4.0999 62.4001 8.1999 64.9001 12.4999 66.8001C30.1999 75.0001 47.8999 74.4001 60.2999 66.8001C42.5999 53.4001 27.4999 35.9001 16.2999 21.6001C14.0999 19.2001 12.0999 16.5001 10.3999 13.7001C23.9999 25.9001 45.4999 41.4001 53.1999 45.7001C36.9999 28.9001 22.4999 8.0001 23.0999 8.5001C48.7999 34.1001 72.6999 48.7001 72.6999 48.7001C73.4999 49.1001 74.0999 49.5001 74.5999 49.8001C75.0999 48.5001 75.5999 47.1001 75.8999 45.8001C79.9999 30.9001 75.2999 14.0001 64.9999 0.100098C88.8999 14.4001 103.1 41.2001 97.1999 63.6001C96.9999 64.2001 96.8999 64.8001 96.6999 65.4001C96.7999 65.5001 96.7999 65.6001 96.8999 65.7001C108.7 80.3001 105.5 95.7001 104 92.8001C97.5999 80.4001 85.6999 84.1001 79.6999 86.7001Z" fill="black"></path>
</svg>