<svg width="80" height="99" viewBox="0 0 102 99" fill="none" xmlns="http://www.w3.org/2000/svg">
<path d="M70.2999 10.4998C70.2999 10.3998 70.4998 10.2998 70.6998 10.3998C70.8998 10.4998 71.0999 10.6998 70.9999 10.7998C70.8999 10.8998 70.6999 10.9998 70.4999 10.8998C70.2999 10.8998 70.1999 10.7998 70.2999 10.4998C70.1999 10.5998 70.1999 10.5998 70.2999 10.4998ZM71.7999 11.8998C71.5999 11.7998 71.5998 11.4998 71.6998 11.2998C71.8998 11.1998 72.1999 11.1998 72.2999 11.3998C72.4999 11.4998 72.4998 11.7998 72.3998 11.9998C72.0998 12.1998 71.8999 12.0998 71.7999 11.8998ZM72.6998 13.3998C72.4998 13.1998 72.4998 12.9998 72.6998 12.7998C72.8998 12.6998 73.1999 12.7998 73.2999 12.9998C73.4999 13.1998 73.4999 13.3998 73.2999 13.5998C72.9999 13.6998 72.7998 13.5998 72.6998 13.3998ZM74.1998 15.2998C73.9998 15.0998 73.8999 14.7998 73.9999 14.5998C74.2999 14.3998 74.5999 14.4998 74.7999 14.6998C74.9999 14.7998 75.0999 15.0998 74.9999 15.2998C74.8999 15.4998 74.5998 15.5998 74.3998 15.4998C74.2998 15.4998 74.1998 15.3998 74.1998 15.2998ZM76.2999 16.2998C75.9999 16.1998 75.6999 15.8998 75.7999 15.6998C75.8999 15.4998 76.1999 15.3998 76.4999 15.4998C76.7999 15.5998 76.9999 15.7998 76.9999 16.0998C76.7999 16.2998 76.4999 16.3998 76.2999 16.2998ZM78.0999 16.2998C78.1999 15.9998 78.3998 15.8998 78.6998 15.8998C78.9998 15.8998 79.1999 15.9998 79.2999 16.2998C79.2999 16.5998 78.9998 16.7998 78.6998 16.6998C78.3998 16.7998 78.0999 16.5998 78.0999 16.2998ZM81.0999 16.6998C80.7999 16.7998 80.4998 16.5998 80.3998 16.3998C80.3998 16.0998 80.6999 15.8998 80.9999 15.8998C81.1999 15.7998 81.4999 15.8998 81.5999 16.1998C81.5999 16.3998 81.3999 16.6998 81.0999 16.6998Z" fill="#303640"></path>
<path d="M101.1 11.8C100.3 14.3 99.5999 16.9 98.8999 19.4C98.6999 20.2 98.2999 20.5 97.4999 20.2C96.8999 20 96.1999 19.8 95.5999 19.7C94.3999 19.5 93.1999 18.8 92.4999 17.8C92.4999 17.7 92.3999 17.7 92.3999 17.7L92.2999 17.6C90.9999 16 89.0999 16.1 87.1999 16.3C84.4999 16.5 82.1999 18.3 81.3999 20.9C79.0999 27 77.0999 33.2 75.4999 39.5C75.2999 40 75.1999 40.5 74.8999 41.2C73.8999 40.9 72.8999 40.6 71.9999 40.3C71.0999 40 70.1999 39.8 69.2999 39.5C69.1999 39.5 68.9999 39.4 68.8999 39.3C68.6999 39 68.6999 38.7 68.7999 38.4C69.8999 34.6 70.8999 30.8 71.9999 27C73.1999 23.5 73.5999 19.8 73.3999 16.1C73.1999 13.4 72.7999 10.8 70.9999 8.49996C70.7999 8.19996 70.5999 7.99996 70.3999 7.79996C68.7999 6.29996 66.7999 5.39996 64.6999 5.29996C60.9999 4.89996 57.1999 4.79996 53.4999 5.19996H53.3999C53.6999 4.79996 54.0999 4.49996 54.4999 4.19996C57.2999 2.29996 60.5999 1.19996 63.8999 0.799963C70.7999 -0.200037 77.6999 0.599959 84.1999 2.99996C85.2999 3.39996 86.3999 3.89996 87.3999 4.59996C87.5999 4.79996 87.7999 4.89996 88.0999 5.09996C88.3999 5.29996 88.5999 5.49996 88.7999 5.59996C88.9999 5.69996 89.0999 5.89996 89.1999 5.99996C89.4999 6.29996 89.7999 6.49996 89.9999 6.79996C91.3999 8.29996 93.4999 8.79996 95.3999 7.89996C96.4999 7.49996 97.6999 7.49996 98.7999 7.99996C99.4999 8.19996 100.2 8.49996 100.9 8.89996C101.8 9.39996 101.6 9.99996 101.1 11.8ZM70.7999 16.3C70.8999 16.3 70.9999 16.2 71.0999 16.2C71.3999 16.3 71.7999 16.5 72.1999 16.6C71.9999 16.9 71.6999 17.2 71.3999 17.4C68.7999 17.9 66.1999 18.3 63.5999 18.7C57.9999 19.6 52.4999 20.5 46.8999 21.4C40.8999 22.4 34.8999 23.4 28.8999 24.4C21.9999 25.5 15.1999 26.6 8.2999 27.7C6.5999 28 4.9999 28.3 3.2999 28.5C2.6999 28.4 2.1999 28.9 2.0999 29.5C2.0999 29.7 2.0999 29.8 2.1999 30C3.4999 38.7 4.7999 47.5 6.0999 56.2C7.2999 64.2 8.4999 72.2 9.6999 80.2C10.2999 83.8 10.7999 87.4 11.2999 91C11.3999 91.6 11.5999 91.9 11.9999 91.9C12.1999 91.9 12.3999 91.9 12.4999 91.9C20.7999 90.6 29.1999 89.3 37.4999 88C41.5999 87.4 45.6999 86.7 49.8999 86.1C50.2999 86.2 50.5999 86.3 50.8999 86.6C50.6999 86.9 50.3999 87.1 50.0999 87.2C42.5999 88.4 34.9999 89.6 27.3999 90.7C22.0999 91.5 16.7999 92.4 11.4999 93.2C11.2999 93.2 11.0999 93.2 10.8999 93.2C10.3999 93.1 10.0999 92.7 10.1999 92.2C9.6999 88.6 9.0999 85 8.5999 81.4C7.6999 75.7 6.8999 70.1 5.9999 64.4C5.1999 58.8 4.3999 53.2 3.4999 47.5C2.6999 41.9 1.7999 36.3 0.999901 30.8C0.899901 30 0.799898 29.2 0.699898 28.2C0.399898 27.6 0.799901 27.4 1.4999 27.3C8.0999 26.3 14.6999 25.1 21.1999 24.1C27.5999 23.1 33.9999 22 40.3999 20.9C47.2999 19.8 54.0999 18.7 60.9999 17.5C64.1999 17.4 67.4999 16.9 70.7999 16.3ZM45.9999 24.4C50.0999 29.2 54.0999 34 58.0999 38.8C60.0999 41.2 62.0999 43.6 64.0999 46C64.5999 46.4 64.5999 47.1 64.1999 47.5C64.0999 47.6 64.0999 47.6 63.9999 47.7C62.6999 46.2 61.4999 44.8 60.2999 43.4C55.2999 37.4 50.2999 31.4 45.2999 25.4C44.1999 24.1 43.0999 23.7 41.7999 24.2C40.5999 24.6 39.7999 25.8 39.8999 27.1C39.9999 27.8 40.2999 28.4 40.7999 28.9C45.8999 35.1 50.9999 41.2 56.0999 47.4C57.8999 49.6 59.6999 51.8 61.4999 53.9C61.9999 54.3 61.9999 54.9 61.6999 55.4C61.5999 55.5 61.5999 55.6 61.4999 55.6C60.5999 54.5 59.6999 53.4 58.7999 52.3C52.4999 44.7 46.1999 37.1 39.9999 29.6C39.1999 28.8 38.7999 27.7 38.7999 26.6C38.8999 25.5 39.3999 24.6 40.1999 23.9C41.7999 22.4 44.2999 22.4 45.7999 24C45.7999 24.1 45.8999 24.3 45.9999 24.4ZM34.7999 38.3C34.9999 37.7 35.2999 37.2 35.4999 36.6C35.5999 36.4 35.6999 36.1 35.7999 35.9C35.9999 35.4 36.3999 34.9 36.7999 34.5C37.4999 33.9 38.2999 33.6 39.1999 33.5C40.2999 33.9 41.3999 34.4 42.3999 34.9C43.1999 35.3 43.5999 36.1 43.6999 37C43.6999 37.5 43.5999 38.1 43.3999 38.6C42.8999 39.7 42.3999 40.8 41.9999 41.9C41.8999 42.4 41.4999 42.7 41.0999 42.6C40.9999 42.6 40.8999 42.5 40.7999 42.5C38.8999 41.7 36.8999 41 34.9999 40.3C34.6999 40.2 34.4999 40.1 34.3999 39.8C34.2999 39.5 34.3999 39.3 34.4999 39C34.5999 38.8 34.6999 38.5 34.7999 38.3ZM35.8999 59C36.6999 56.8 37.4999 54.7 38.2999 52.6C38.3999 52.2 38.7999 51.8 39.1999 51.7C39.2999 51.7 39.3999 51.7 39.3999 51.6C39.3999 51.5 39.4999 51.6 39.5999 51.6C43.4999 50.9 47.3999 50.3 51.2999 49.6C51.3999 49.6 51.3999 49.6 51.4999 49.6C51.7999 49.6 51.9999 49.5 52.2999 49.5C52.3999 49.5 52.5999 49.5 52.6999 49.4C53.7999 48.8 55.0999 49.1 55.8999 50C56.1999 50.3 56.4999 50.6 56.6999 51C57.0999 51.6 57.4999 52.1 57.8999 52.6C58.6999 53.7 59.5999 54.7 60.5999 55.9C52.8999 57.2 45.3999 58.4 37.7999 59.6L35.8999 59.9C35.7999 59.6 35.8999 59.3 35.8999 59ZM34.6999 40.7C36.6999 41.5 38.6999 42.2 40.6999 42.9C40.8999 43 41.1999 43.2 41.3999 43.4C41.1999 43.8 41.1999 44.1 41.0999 44.4C37.5999 53.3 33.9999 62.2 30.4999 71.1C30.0999 72.1 29.6999 72.3 28.6999 71.9C26.8999 71.1 24.8999 70.3 23.0999 69.6C22.6999 69.5 22.3999 69.2 22.3999 68.8C22.3999 68.6 22.4999 68.5 22.4999 68.3C26.1999 59.3 29.7999 50.3 33.4999 41.3C33.5999 40.9 33.9999 40.6 34.3999 40.7C34.4999 40.6 34.5999 40.7 34.6999 40.7ZM22.4999 69.9C22.6999 69.9 22.8999 70 23.0999 70.1C24.8999 70.9 26.7999 71.6 28.6999 72.3C28.9999 72.4 29.2999 72.6 29.6999 72.8C26.7999 76.5 23.8999 80.1 20.9999 83.7C20.8999 83.7 20.7999 83.6 20.6999 83.6C20.8999 81.8 20.9999 80 21.1999 78.2C21.4999 75.8 21.7999 73.3 21.9999 70.8C21.8999 70.2 21.9999 69.8 22.4999 69.9ZM27.8999 53.2C27.6999 53.8 27.6999 54 27.4999 54.4C26.5999 56.5 25.6999 58.6 24.7999 60.7C24.5999 61.3 23.9999 61.7 23.2999 61.7C20.8999 62 18.4999 62.3 16.0999 62.7C15.2999 62.8 14.8999 62.7 14.7999 61.8C14.6999 61.2 14.5999 60.6 14.4999 60C14.3999 59.1 14.2999 58.3 14.0999 57.4C13.9999 56.8 13.8999 56.1 13.7999 55.5C13.7999 55.5 13.7999 55.5 13.7999 55.4C18.5999 54.8 23.0999 54 27.8999 53.2ZM67.1999 42.6C67.8999 40.7 67.3999 40.7 69.6999 41.3C70.8999 41.7 72.0999 42 73.3999 42.3C73.6999 42.3 74.0999 42.5 74.2999 42.8C74.4999 43.1 74.4999 43.5 74.3999 43.9C73.1999 48.7 72.1999 53.5 70.9999 58.3C68.1999 69.8 65.4999 81.4 62.6999 92.9C62.3999 94 61.9999 95 61.3999 96C60.5999 97.6 58.8999 98.5 57.0999 98.3C55.1999 98.4 53.3999 97.7 51.9999 96.4C50.6999 95.1 50.0999 93.4 50.1999 91.6C50.2999 90.9 50.3999 90.2 50.6999 89.6C56.1999 73.9 61.6999 58.3 67.1999 42.6ZM74.8999 60.1C74.2999 59.5 73.3999 59.5 72.7999 60.1L72.6999 60.2C72.2999 60.5 71.8999 60.8 71.4999 61C71.4999 60.8 71.4999 60.5 71.4999 60.3C71.7999 59 73.0999 58.2 74.2999 58.5H74.3999C77.5999 60.1 79.0999 62.9 79.8999 66.2C80.1999 67.3 80.2999 68.4 80.2999 69.5C80.2999 71.3 79.7999 73.1 78.7999 74.6C78.6999 74.7 78.6999 74.8 78.5999 74.9C78.4999 75 78.3999 75 78.2999 75C78.1999 74.7 78.0999 74.4 77.9999 74.1C77.9999 72.5 76.9999 71.1 75.3999 70.5C74.3999 70 73.2999 69.6 72.2999 69.1C71.5999 68.7 70.8999 68.2 70.3999 67.6C70.1999 67.1 70.0999 66.6 70.0999 66.1C70.0999 66.1 70.0999 66.1 70.0999 66C73.1999 67.9 75.9999 69.6 78.8999 71.3C79.0999 70.6 79.1999 69.9 79.1999 69.2C79.2999 66 77.4999 61.9 74.8999 60.1ZM78.1999 46.6C77.0999 46.7 75.8999 46.9 74.7999 47C74.4999 46.1 74.8999 45.8 75.4999 45.8C76.6999 45.6 77.8999 45.4 79.1999 45.3C79.5999 45.4 79.8999 45.6 79.9999 46C80.3999 47.9 80.7999 49.8 81.0999 51.8C81.0999 52.1 80.8999 52.4 80.6999 52.6C78.2999 53 75.8999 53.3 73.4999 53.6C73.2999 53.1 73.4999 52.5 73.9999 52.3C74.1999 52.2 74.2999 52.2 74.4999 52.2C76.1999 52 77.9999 51.7 79.8999 51.5C79.5999 50 79.3999 48.5 79.0999 47C78.7999 46.7 78.4999 46.6 78.1999 46.6ZM66.7999 83.3C69.4999 82.8 72.0999 82.4 74.6999 82L91.4999 79.4C91.9999 79.4 92.2999 79 92.2999 78.6C92.2999 78.5 92.2999 78.4 92.1999 78.3C91.4999 74.3 90.7999 70.3 90.1999 66.2C89.0999 59.9 88.0999 53.6 86.9999 47.3C85.8999 41 84.8999 34.7 83.8999 28.4C83.4999 26 83.0999 23.7 82.6999 21.3C82.6999 20.6 82.7999 19.8 82.9999 19.1C83.1999 19.1 83.2999 19.1 83.4999 19.1C86.8999 39.4 90.2999 59.8 93.6999 80.3C91.6999 80.6 89.8999 80.9 87.9999 81.2C81.7999 82.2 75.5999 83.2 69.3999 84.2C68.5999 84.3 67.6999 84.5 66.8999 84.5C66.5999 84.4 66.2999 84.3 66.0999 84.1H65.9999C66.2999 83.7 66.5999 83.4 66.7999 83.3Z" fill="black"></path>
</svg>