<svg width="61" height="80" viewBox="0 0 81 80" fill="none" xmlns="http://www.w3.org/2000/svg">
<path d="M18.3597 61.3994L17.6374 61.881C15.9519 62.8441 15.9519 65.2519 17.6374 66.4558L36.1777 78.7358C38.5855 80.4212 41.9564 80.4212 44.3643 78.7358L62.6637 66.6966C64.3492 65.7335 64.3492 63.3257 62.6637 62.1218L61.7006 61.6402L55.4403 65.9743L42.9196 74.4017C41.2341 75.6056 39.067 75.6056 37.3816 74.4017L24.8609 65.9743L18.3597 61.3994Z" fill="#30363F"></path>
<path d="M9.45072 41.6548L8.48759 42.3771C6.32054 43.8218 6.32054 47.1928 8.48759 48.6375L34.4921 66.2146C37.8631 68.6224 42.4379 68.6224 46.0497 66.2146L71.8134 49.119C73.9804 47.6743 73.9804 44.3034 71.8134 42.8587L70.6095 42.1363L61.7005 47.9151L44.1234 59.7135C41.7156 61.399 38.5854 61.1582 36.1776 59.7135L9.45072 41.6548Z" fill="#30363F"></path>
<path d="M78.0737 23.3559L46.772 2.16704C42.6787 -0.722348 37.1407 -0.722348 32.8066 2.16704L1.98646 22.8743C-0.662152 24.8006 -0.662152 28.6531 1.98646 30.5794L33.2882 51.5275C37.3815 54.4169 42.9195 54.4169 47.0128 51.5275L78.0737 30.8202C80.7223 29.1347 80.7223 25.0414 78.0737 23.3559ZM66.0346 29.6163L44.8457 43.8224C41.9564 45.7487 38.3446 45.7487 35.4552 43.8224L14.0256 29.3755C12.0993 28.1716 12.0993 25.523 14.0256 24.0783L35.2144 9.87208C38.1038 7.94582 41.7156 7.94582 44.605 9.87208L66.0346 24.319C67.9609 25.7637 67.9609 28.4123 66.0346 29.6163Z" fill="#30363F"></path>
</svg>