<svg width="90" height="50" viewBox="0 0 120 50" fill="none" xmlns="http://www.w3.org/2000/svg">
<path d="M15.3001 18H9.3001V39.2C9.3001 42.6 9.2001 44.8 13.0001 44.8C13.6001 44.8 14.3001 44.7 15.3001 44.6V48.1C14.0001 48.3 13.4001 48.4 12.2001 48.4C9.6001 48.4 6.8001 47.8 6.1001 44.6C5.8001 43.2 5.8001 42.3 5.8001 37.2V18H0.600098V14.7H5.8001V4.5H9.3001V14.7H15.3001V18V18Z" fill="black"></path>
<path d="M32.5 48.2H28.6L17.3 14.7H21.1L27.9 35.1C28.9 38.1 29.7 41.2 30.6 44.2C31.5 41.1 32.3 37.9 33.3 34.8L39.6 14.7H43.2L32.5 48.2Z" fill="black"></path>
<path d="M83.7 25.1C83.7 39.6 75.9 49.3 64.5 49.3C53.1 49.3 45.5 39.5 45.5 25C45.5 10.5 53.2 0.699951 64.6 0.699951C75.9 0.699951 83.7 10.6 83.7 25.1ZM49.4 24.9C49.4 37.3 55.4 45.5 64.6 45.5C73.8 45.5 79.9 37.4 79.9 25.1C79.9 12.8 73.7 4.59995 64.6 4.59995C55.5 4.49995 49.4 12.7 49.4 24.9Z" fill="black"></path>
<path d="M114.4 15.2C114.1 8.20004 109.7 4.60004 103.1 4.60004C96.7002 4.60004 93.0002 7.80005 93.0002 13.3C93.0002 19.4 97.5001 20.5 103.9 22.1C112.9 24.3 119.4 26.3 119.4 35.5C119.4 45.5 111.6 49.1001 104.1 49.1001C94.0002 49.1001 87.9001 43.1 87.9001 33.2V32.8H91.6002C91.6002 41.4 96.6001 45.5 104.4 45.5C111.4 45.5 115.7 41.9 115.7 35.9C115.7 29.6 111.4 28.2 102 25.7C95.8002 24.1 89.3002 22.4 89.3002 13.5C89.3002 5.70005 94.7001 0.800049 103.4 0.800049C112 0.800049 117.8 5.50004 118.2 15.1H114.4V15.2Z" fill="black"></path>
</svg>