<svg width="61" height="72" viewBox="0 0 81 72" fill="none" xmlns="http://www.w3.org/2000/svg">
<path d="M29.2001 4.2H27.9001L25.5001 13.5H25.4001L22.7001 4.2H21.4001L18.7001 13.5H18.6001L16.2001 4.2H14.9001L18.0001 15.1H19.4001L22.0001 6H22.1001L24.8001 15.1H26.2001L29.2001 4.2ZM33.2001 14.2C31.8001 14.2 30.7001 13.4 30.7001 12.1C30.7001 10.8 31.6001 10.2 33.4001 10L36.6001 9.8V11.1C36.5001 12.9 35.1001 14.2 33.2001 14.2C33.2001 14.2 33.3001 14.2 33.2001 14.2ZM33.0001 15.3C34.5001 15.4 35.9001 14.6 36.6001 13.2H36.7001V15.1H38.0001V7.6C38.0001 5.3 36.6001 4 34.0001 4C31.7001 4 30.1001 5.1 29.8001 6.9H31.1001C31.4001 5.8 32.4001 5.2 33.9001 5.2C35.7001 5.2 36.6001 6.1 36.6001 7.6V8.7L33.2001 8.9C30.7001 9.1 29.3001 10.2 29.3001 12.1C29.4001 14.1 30.9001 15.3 33.0001 15.3ZM40.7001 1.4V4.2H39.0001V5.3H40.8001V12.4C40.8001 14.4 41.6001 15.2 43.7001 15.2C44.0001 15.2 44.3001 15.2 44.6001 15.1V14C44.4001 14 44.0001 14 43.8001 14C42.6001 14 42.1001 13.4 42.1001 12.1V5.3H44.6001V4.2H42.0001V1.4H40.7001ZM54.6001 7.5C54.2001 5.4 52.3001 3.9 50.2001 4.1C47.2001 4.1 45.4001 6.3 45.4001 9.7C45.4001 13.2 47.3001 15.4 50.3001 15.4C52.7001 15.4 54.4001 14 54.7001 12.1H53.4001C53.0001 13.5 51.7001 14.4 50.3001 14.2C48.2001 14.2 46.8001 12.5 46.8001 9.7C46.8001 7 48.2001 5.3 50.3001 5.3C51.7001 5.2 53.0001 6.1 53.4001 7.5H54.6001ZM56.2001 15.2H57.5001V8.7C57.4001 7 58.7001 5.4 60.4001 5.3C60.5001 5.3 60.7001 5.3 60.8001 5.3C62.6001 5.3 63.6001 6.4 63.6001 8.4V15.2H64.9001V8.1C64.9001 5.6 63.5001 4.1 61.2001 4.1C59.7001 4 58.3001 4.9 57.7001 6.3H57.6001V0H56.3001L56.2001 15.2ZM22.3001 21.2C9.0001 21.2 0.600098 30.9 0.600098 46.5C0.600098 62 8.8001 71.8 22.3001 71.8C35.8001 71.8 43.9001 62 43.9001 46.5C43.9001 31 35.7001 21.2 22.3001 21.2ZM22.3001 25.5C32.8001 25.5 39.3001 33.7 39.3001 46.5C39.3001 59.3 32.8001 67.6 22.3001 67.6C11.7001 67.6 5.2001 59.3 5.2001 46.5C5.2001 33.7 11.8001 25.5 22.3001 25.5ZM45.6001 58.2C46.2001 66.3 53.3001 71.8 63.2001 71.8C73.7001 71.8 80.5001 66.1 80.5001 57.6C80.5001 50.7 76.4001 46.8 66.6001 44.3L61.9001 43.1C54.6001 41.2 51.6001 38.8 51.6001 34.5C51.6001 29.2 56.3001 25.4 63.2001 25.4C69.8001 25.4 74.4001 28.9 75.2001 34.1H79.8001C79.3001 26.7 72.5001 21.2 63.4001 21.2C53.7001 21.2 47.0001 26.8 47.0001 34.7C47.0001 41.3 50.8001 45.1 59.8001 47.4L65.3001 48.8C72.7001 50.7 76.0001 53.6 76.0001 58.2C76.0001 63.6 70.9001 67.7 63.7001 67.7C56.4001 67.7 50.9001 63.9 50.3001 58.3L45.6001 58.2Z" fill="#282828"></path>
</svg>