<svg width="60" height="92" viewBox="0 0 80 92" fill="none" xmlns="http://www.w3.org/2000/svg">
<path d="M59.3 7.50006C59.3 7.40006 59.5 7.30006 59.7 7.40006C59.9 7.50006 60.1 7.70007 60 7.80007C59.9 7.90007 59.7 8.00006 59.5 7.90006C59.3 7.90006 59.2 7.80006 59.3 7.50006C59.2 7.60006 59.2 7.60006 59.3 7.50006ZM60.8 8.90006C60.6 8.80006 60.6 8.50007 60.7 8.30007C60.9 8.20007 61.2 8.20006 61.3 8.40006C61.5 8.50006 61.5 8.80006 61.4 9.00006C61.1 9.20006 60.9 9.10006 60.8 8.90006ZM61.7 10.4001C61.5 10.2001 61.5 10.0001 61.7 9.80007C61.9 9.70007 62.2 9.80006 62.3 10.0001C62.5 10.2001 62.5 10.4001 62.3 10.6001C62 10.7001 61.8 10.6001 61.7 10.4001ZM63.2 12.3001C63 12.1001 62.9 11.8001 63 11.6001C63.3 11.4001 63.6 11.5001 63.8 11.7001C64 11.8001 64.1 12.1001 64 12.3001C63.9 12.5001 63.6 12.6001 63.4 12.5001C63.3 12.5001 63.2 12.4001 63.2 12.3001ZM65.3 13.3001C65 13.2001 64.7 12.9001 64.8 12.7001C64.9 12.5001 65.2 12.4001 65.5 12.5001C65.8 12.6001 66 12.8001 66 13.1001C65.8 13.3001 65.5 13.4001 65.3 13.3001ZM67.1 13.3001C67.2 13.0001 67.4 12.9001 67.7 12.9001C68 12.9001 68.2 13.0001 68.3 13.3001C68.3 13.6001 68 13.8001 67.7 13.7001C67.4 13.8001 67.1 13.6001 67.1 13.3001ZM70.1 13.7001C69.8 13.8001 69.5 13.6001 69.4 13.4001C69.4 13.1001 69.7 12.9001 70 12.9001C70.2 12.8001 70.5 12.9001 70.6 13.2001C70.6 13.4001 70.4 13.7001 70.1 13.7001Z" fill="#303640"></path>
<path d="M39.1999 39.7998C42.3999 39.7998 44.9999 37.1998 44.9999 34.0998C44.9999 30.8998 42.3999 28.3998 39.2999 28.3998V28.2998V28.3998C36.0999 28.3998 33.5999 30.9998 33.5999 34.0998C33.3999 37.1998 35.9999 39.7998 39.1999 39.7998Z" fill="black"></path>
<path d="M41.3 48.3999C40.7 48.9999 40 49.2999 39.2 49.2999C38.4 49.2999 37.6 48.9999 37.1 48.3999L35.6 46.8999L28.7 58.8999C31.9 60.6999 35.6 61.5999 39.3 61.5999C43 61.5999 46.6 60.6999 49.8 58.8999L42.8999 46.8999L41.3 48.3999Z" fill="black"></path>
<path d="M72.7 81.1L66.8 68.9C67.6 68.1 68.4 67.4 69.1 66.5C83.6 50.2 82.1 25.2 65.8 10.7C49.5 -3.79996 24.5 -2.29996 9.99995 14C-4.00005 29.8 -3.10004 53.7 11.8 68.4L5.69995 81C5.39995 81.4 5.29995 81.9 5.19995 82.5L4.69995 89.4C4.69995 90 4.99995 90.6 5.49995 90.9C5.79995 91.1 6.09996 91.1 6.39996 91.1C6.69996 91.1 7.09996 91 7.29996 90.8L13.1 86.9C13.5 86.6 13.8 86.3 14.1 85.9L21.4 75.3C32.6 81.1 45.9 81.2 57.2 75.6L64.3 85.8C64.6 86.3 64.8999 86.7 65.3999 86.9L71.2 90.8C71.5 91 71.8 91.1 72.1 91.1C72.4 91.1 72.7 91 73 90.9C73.5 90.6 73.8 90 73.8 89.3L73.2 82.4C73.1 82 72.9 81.5 72.7 81.1ZM66.5 85.3C66.3 85.2 66.2 85 66 84.8L58.8999 74.6L53.6 65.5C44.6 70.5 33.7 70.5 24.7 65.5L19.7 74.1L12.3 84.9C12.2 85.1 12 85.3 11.8 85.4L6.59995 88.9L7.09995 82.7C7.09995 82.5 7.19996 82.3 7.29996 82L13.6 69.2L29.7 41.4L28.2 39.9C27.8 39.6 27.6 39.1 27.5 38.6V28.9C27.5 26.5 29.4 24.6 31.8 24.6H34.2V16.9H43.7V24.6H46.1C48.5 24.6 50.3999 26.5 50.3999 28.9V38.6C50.2999 39.1 50.1 39.5 49.7 39.9L48.2 41.4L55.6 54.1C59 50.1 60.8999 45.1 60.8999 39.8H68.6C68.6 47.8 65.3 55.4 59.6 61L64.8999 70.2L70.7 82.1C70.8 82.3 70.8999 82.5 70.8999 82.7L71.3999 88.9L66.5 85.3Z" fill="black"></path>
</svg>