<svg width="80" height="80" viewBox="0 0 80 80" fill="none" xmlns="http://www.w3.org/2000/svg">
<path d="M62.1875 70.3124C62 70.3124 61.875 70.3124 61.75 70.3124C58.9375 70.3124 56.125 70.3124 53.3125 70.3124C53 70.3124 52.8125 70.1874 52.625 69.9999C50.625 67.4999 48.4375 65.1874 45.8125 63.3749C44.5 62.4374 43.125 61.6249 41.5625 61.1874C40.3125 60.8124 39 60.6249 37.6875 60.9374C36.375 61.2499 35.25 61.9999 34.3125 62.9374C33.125 64.1249 32.3125 65.5624 31.6875 67.1249C31.3125 68.0624 31 68.9999 30.6875 69.9374C30.625 70.0624 30.625 70.1874 30.5625 70.3124C28.1875 70.3124 25.875 70.3124 23.4375 70.3124C23.375 69.9374 23.3125 69.5624 23.25 69.1249C23 67.8749 22.625 66.6249 22 65.4999C21.5625 64.6249 21 63.8749 20.25 63.2499C19.4375 62.5624 18.5 62.1874 17.4375 62.1874C16.625 62.1874 15.9375 62.4999 15.25 62.9374C14.3125 63.5624 13.5625 64.3749 13 65.3124C12.125 66.6874 11.625 68.2499 11.1875 69.8124C11.125 69.9374 11.125 70.1249 11.0625 70.3124C7.93751 70.3124 4.87501 70.3124 1.75001 70.3124C1.68751 69.8749 1.62501 69.3749 1.56251 68.9374C1.25001 65.9999 1.06251 63.0624 1.12501 60.1249C1.18751 56.6874 1.56251 53.3124 2.37501 49.9374C3.12501 46.8749 4.18751 43.9999 5.81251 41.3749C8.06251 37.8124 11.0625 35.2499 15 33.6874C15.125 33.6249 15.1875 33.6249 15.3125 33.5624C15.3125 33.5624 15.375 33.5624 15.4375 33.5624C15.5 33.6874 15.5625 33.8124 15.625 33.9374C16.75 36.4374 17.9375 38.8749 19.375 41.1249C20.25 42.5624 21.5 43.6249 23.0625 44.1249C24.75 44.6874 26.375 44.4999 28 43.8124C29.4375 43.1874 30.625 42.2499 31.75 41.1874C33.0625 39.9374 34.125 38.5624 35.1875 37.0624C35.25 36.9999 35.25 36.9374 35.25 36.8749C35.125 36.9999 35 37.1249 34.8125 37.2499C33.25 38.8124 31.5625 40.1874 29.625 41.2499C28.6875 41.8124 27.625 42.2499 26.5625 42.4374C25 42.7499 23.5625 42.5624 22.3125 41.4374C21.8125 40.9999 21.4375 40.4999 21.0625 39.9999C19.1875 37.0624 17.5625 33.9999 16.0625 30.8749C15.75 30.2499 15.5 29.6249 15.4375 28.8749C15.3125 27.8124 15.625 26.8749 16.375 26.0624C16.9375 25.4999 17.5625 25.0624 18.3125 24.6874C19.6875 23.9999 21.125 23.4999 22.5625 22.9999C24.6875 22.3124 26.875 21.8124 29.125 21.4999C31.6875 21.1249 34.3125 21.0624 36.9375 21.3749C42.5625 21.9374 47.5625 23.9999 52.125 27.3124C53.6875 28.4374 55.3125 29.3749 57.1875 29.9374C64.625 32.3124 70.5625 27.1874 71.9375 21.9374C72.3125 20.4999 72.4375 19.0624 71.875 17.6874C71.0625 15.5624 69.625 13.9374 67.3125 13.3124C65.5625 12.8749 63.875 13.0624 62.25 13.9374C61.9375 14.1249 61.625 14.2499 61.3125 14.3749C60.5625 14.6249 60.0625 14.4374 59.6875 13.7499C59.1875 12.8749 58.8125 11.9999 58.375 11.0624C58.1875 10.6874 58.25 10.3749 58.4375 10.0624C58.625 9.62487 58.9375 9.31237 59.3125 8.99987C60.25 8.24987 61.375 7.74987 62.625 7.49987C65.6875 6.81237 68.5625 7.24987 71.3125 8.62487C73.5 9.68737 75.1875 11.3124 76.4375 13.4374C77.625 15.4374 78.4375 17.5624 78.8125 19.8749C79.0625 21.6874 79.0625 23.4374 78.875 25.2499C78.5 28.3749 77.625 31.3124 76.375 34.1874C74.75 37.9374 72.875 41.5624 70.5625 44.9374C69.4375 46.5624 68.25 48.1249 67.125 49.6874C65.9375 51.3749 64.75 53.0624 63.875 54.9374C62.6875 57.3749 62 59.8749 61.75 62.5624C61.5625 64.8749 61.6875 67.1249 62.0625 69.4374C62.125 69.8124 62.1875 70.0624 62.1875 70.3124ZM57.0625 38.1874C57.25 39.6874 56.75 40.6874 55.375 41.2499C54.375 41.6249 53.125 41.3124 52.5 40.4374C51.5 39.1249 51.8125 37.9374 52.9375 36.8124C51.8125 36.4374 50.6875 36.0624 49.625 35.7499C49.375 36.3749 49.25 37.3124 49.3125 38.0624C49.4375 39.5624 50 40.8124 51.25 41.6249C52.5625 42.4999 54.0625 42.8749 55.625 42.5624C57.25 42.2499 58.5 41.3124 59.375 39.9374C59.5625 39.6874 59.6875 39.4374 59.6875 39.0624C58.8125 38.8124 57.9375 38.4999 57.0625 38.1874Z" fill="#30363F"></path>
</svg>