<svg width="43" height="78" viewBox="0 0 43 78" fill="none" xmlns="http://www.w3.org/2000/svg">
<path d="M40.8999 61.2998H40.5999V61.0998H41.3999V61.2998H41.0999V62.0998H40.8999V61.2998ZM42.4999 61.2998L42.1999 62.0998H42.0999L41.7999 61.2998V62.0998H41.5999V61.0998H41.8999L42.1999 61.7998L42.4999 61.0998H42.7999V62.0998H42.5999L42.4999 61.2998ZM14.6999 41.3998C14.6999 41.3998 12.6999 42.5998 16.1999 42.9998C20.3999 43.4998 22.5999 43.3998 27.2999 42.4998C28.1999 43.0998 29.1999 43.4998 30.1999 43.8998C19.6999 48.2998 6.4999 43.5998 14.6999 41.3998ZM13.3999 35.4998C13.3999 35.4998 11.0999 37.1998 14.5999 37.4998C19.3999 38.0998 24.1999 37.7998 28.8999 36.7998C29.4999 37.3998 30.2999 37.7998 31.0999 38.0998C18.3999 41.8998 4.3999 38.4998 13.3999 35.4998ZM24.1999 25.6998C26.7999 28.5998 23.4999 31.2998 23.4999 31.2998C23.4999 31.2998 29.9999 27.8998 26.9999 23.6998C24.1999 19.7998 21.9999 17.7998 33.6999 11.0998C33.6999 11.1998 15.3999 15.6998 24.1999 25.6998ZM37.9999 45.5998C37.9999 45.5998 39.4999 46.7998 36.2999 47.7998C30.2999 49.5998 11.1999 50.1998 5.8999 47.8998C3.9999 47.0998 7.5999 45.8998 8.6999 45.6998C9.2999 45.5998 9.8999 45.4998 10.4999 45.4998C8.3999 43.9998 -3.2001 48.3998 4.5999 49.6998C25.9999 53.0998 43.4999 48.0998 37.9999 45.5998ZM15.6999 29.4998C15.6999 29.4998 5.9999 31.7998 12.2999 32.5998C14.8999 32.9998 20.1999 32.8998 25.0999 32.4998C29.0999 32.1998 33.1999 31.3998 33.1999 31.3998C32.3999 31.7998 31.4999 32.1998 30.7999 32.6998C20.8999 35.2998 1.8999 34.0998 7.3999 31.3998C9.8999 30.1998 12.6999 29.4998 15.6999 29.4998ZM33.0999 39.1998C43.0999 33.9998 38.4999 29.0998 35.2999 29.6998C34.8999 29.7998 34.4999 29.8998 34.1999 29.9998C34.3999 29.6998 34.6999 29.4998 35.0999 29.2998C41.4999 27.0998 46.3999 35.8998 32.9999 39.3998C32.9999 39.3998 32.9999 39.2998 33.0999 39.1998ZM26.9999 0.299805C26.9999 0.299805 32.4999 5.7998 21.6999 14.2998C12.9999 21.0998 19.6999 24.9998 21.6999 29.3998C16.5999 24.8998 12.8999 20.8998 15.3999 17.1998C19.0999 11.6998 29.2999 9.0998 26.9999 0.299805ZM16.5999 53.1998C26.1999 53.7998 40.9999 52.8998 41.2999 48.2998C41.2999 48.2998 40.5999 49.9998 33.3999 51.3998C25.3999 52.7998 17.0999 52.8998 9.0999 51.7998C9.0999 51.7998 10.2999 52.7998 16.5999 53.1998ZM15.0999 70.4998C14.3999 71.1998 13.3999 71.5998 12.3999 71.6998C11.3999 71.7998 10.5999 71.0998 10.4999 70.0998C10.4999 69.9998 10.4999 69.8998 10.4999 69.7998C10.4999 68.4998 11.1999 67.5998 14.0999 67.5998H15.1999V70.4998H15.0999ZM17.5999 73.2998V64.5998C17.5999 62.3998 16.2999 60.8998 13.2999 60.8998C11.6999 60.8998 10.0999 61.1998 8.6999 61.8998L9.0999 63.3998C10.1999 62.9998 11.4999 62.6998 12.6999 62.6998C14.4999 62.6998 15.1999 63.3998 15.1999 64.8998V65.9998H14.2999C9.9999 65.9998 8.0999 67.6998 8.0999 70.0998C8.0999 72.1998 9.3999 73.4998 11.7999 73.4998C13.1999 73.4998 14.5999 72.8998 15.5999 71.8998L15.7999 73.1998L17.5999 73.2998ZM25.8999 73.2998H22.7999L18.9999 61.1998H21.6999L23.9999 68.6998L24.4999 70.8998C25.6999 67.7998 26.4999 64.4998 26.8999 61.1998H29.5999C28.9999 65.2998 27.6999 69.3998 25.8999 73.2998ZM37.8999 70.4998C37.1999 71.1998 36.1999 71.5998 35.1999 71.6998C34.1999 71.7998 33.3999 71.0998 33.2999 70.0998C33.2999 69.9998 33.2999 69.8998 33.2999 69.7998C33.2999 68.4998 33.9999 67.5998 36.8999 67.5998H37.9999V70.4998H37.8999ZM40.3999 73.2998V64.5998C40.3999 62.3998 39.0999 60.8998 36.0999 60.8998C34.4999 60.8998 32.8999 61.1998 31.4999 61.8998L31.8999 63.3998C32.9999 62.9998 34.2999 62.6998 35.4999 62.6998C37.2999 62.6998 37.9999 63.3998 37.9999 64.8998V65.9998H36.9999C32.6999 65.9998 30.7999 67.6998 30.7999 70.0998C30.7999 72.1998 32.0999 73.4998 34.4999 73.4998C35.8999 73.4998 37.2999 72.8998 38.2999 71.8998L38.4999 73.1998L40.3999 73.2998ZM5.1999 75.2998C4.3999 76.3998 3.2999 77.1998 2.0999 77.5998L0.899902 76.1998C1.7999 75.7998 2.5999 75.0998 3.0999 74.1998C3.3999 73.4998 3.5999 72.6998 3.5999 70.6998V56.7998H6.2999V70.4998C6.0999 73.1998 5.8999 74.2998 5.1999 75.2998Z" fill="black"></path>
</svg>