<svg width="180" height="41" viewBox="0 0 180 41" fill="none" xmlns="http://www.w3.org/2000/svg">
<g clip-path="url(#clip0)">
<path d="M49.8821 1.63672H58.1839V18.1643L73.4938 1.63672H83.5207L68.157 17.6781L84.2215 39.445H74.2485L62.5506 23.3497L58.1839 27.8864V39.4448H49.8821V1.63672Z" fill="#30363F"></path>
<path d="M79.8096 25.1311V25.0237C79.8096 16.7057 86.4944 9.9541 95.497 9.9541C104.446 9.9541 111.077 16.5977 111.077 24.9155V25.0237C111.077 33.3415 104.392 40.0925 95.3893 40.0925C86.4405 40.0925 79.8096 33.4492 79.8096 25.1311V25.1311ZM102.99 25.1311V25.0237C102.99 20.7564 99.9176 17.0298 95.3893 17.0298C90.6992 17.0298 87.896 20.6481 87.896 24.9155V25.0237C87.896 29.2905 90.9688 33.0171 95.497 33.0171C100.187 33.0171 102.99 29.3985 102.99 25.1311V25.1311Z" fill="#30363F"></path>
<path d="M113.338 31.235V17.516H109.888V10.4948H113.338V3.0948H121.532V10.4946H128.325V17.516H121.532V29.885C121.532 31.775 122.341 32.6935 124.174 32.6935C125.587 32.7004 126.978 32.347 128.217 31.6668V38.2564C126.492 39.2827 124.498 39.9308 121.748 39.9308C116.735 39.9308 113.338 37.9323 113.338 31.235V31.235ZM130.677 0.0161133H138.871V39.4446H130.677V0.0161133ZM141.833 0.0161133H150.458V7.30766H141.833V0.0161133ZM142.049 10.4946H150.243V39.4446H142.049L142.049 10.4946ZM153.36 10.4946H161.554V14.5992C163.441 12.1687 165.867 9.95432 170.018 9.95432C176.217 9.95432 179.829 14.0592 179.829 20.7029V39.4446H171.635V23.2953C171.635 19.4065 169.802 17.408 166.675 17.408C163.548 17.408 161.554 19.4065 161.554 23.2953V39.4446H153.36L153.36 10.4946Z" fill="#30363F"></path>
<path d="M18.9427 1.61768L0 21.5764V39.4188L18.9152 20.4339L37.7288 1.61768H18.9427Z" fill="url(#paint0_linear)"></path>
<path d="M0 39.4184L18.9152 20.4336L37.7288 39.4184H0Z" fill="url(#paint1_linear)"></path>
<path d="M0 1.61768H18.9427L0 21.5764V1.61768Z" fill="url(#paint2_linear)"></path>
</g>
<defs>
<linearGradient id="paint0_linear" x1="-6.352" y1="36.3719" x2="28.8237" y2="1.26314" gradientUnits="userSpaceOnUse">
<stop offset="0.108" stop-color="#000400"></stop>
<stop offset="0.173" stop-color="#000400"></stop>
<stop offset="0.492" stop-color="#585858"></stop>
<stop offset="0.716" stop-color="#868686"></stop>
<stop offset="0.823" stop-color="#868686"></stop>
</linearGradient>
<linearGradient id="paint1_linear" x1="12.0411" y1="46.2384" x2="29.1864" y2="29.1256" gradientUnits="userSpaceOnUse">
<stop offset="0.296" stop-color="#868686"></stop>
<stop offset="0.694" stop-color="#555555"></stop>
<stop offset="1" stop-color="#000400"></stop>
</linearGradient>
<linearGradient id="paint2_linear" x1="9.49998" y1="-0.499799" x2="-2.00002" y2="14.0002" gradientUnits="userSpaceOnUse">
<stop stop-color="#000400"></stop>
<stop offset="0.548091" stop-color="#626362"></stop>
<stop offset="0.881796" stop-color="#868686"></stop>
</linearGradient>
<clipPath id="clip0">
<rect width="180" height="40.1087" fill="white"></rect>
</clipPath>
</defs>
</svg>