<svg width="176" height="48" viewBox="0 0 176 48" fill="none" xmlns="http://www.w3.org/2000/svg">
<path d="M13.4001 15.6C10.6001 23.8 9.90006 32.5 7.50006 40.7C4.80006 41.1 2.40006 41.1 0.100058 40.7C-0.299942 37.1 7.00006 2.40005 8.50006 0.800049C12.1001 0.800049 15.8001 0.800049 19.7001 0.800049C21.0001 5.10005 21.2001 9.50005 21.9001 13.8C22.6001 18.1 23.2001 22.5 23.8001 26.9C25.5001 26.4 25.7001 25.2 26.2001 24.3C29.8001 17.5 33.4001 10.6 36.9001 3.80005C37.5001 2.70005 37.9001 1.50005 38.9001 0.900047C42.8001 0.900047 46.6001 0.900047 50.9001 0.900047C48.2001 14.4 45.5001 27.5 42.9001 40.4C40.0001 41.1 37.5001 41 34.9001 40.4C36.1001 32 38.5001 23.8 39.1001 15.3C33.7001 23.5 29.5001 32.4 24.5001 40.7C22.3001 41.2 20.3001 41.1 17.9001 40.9C16.0001 32.7 15.5001 24 13.4001 15.6Z" fill="black"></path>
<path d="M171.2 40.9C169.1 41.3 166.8 41.2 164.7 41C163.9 40.3 164.1 39.6 164.2 38.8C165.1 34.2 166 29.6 166.9 25C167 24.5 167.1 24.1 167.2 23.6C167.3 21.5 167.9 19.3 165.5 18.1C163.2 16.9 160.9 17.6 158.8 19C157.1 20.1 156.3 21.8 155.9 23.7C154.9 28.3 154 32.9 153 37.5C152.7 38.7 152.7 39.9 151.6 41C149.4 41.3 147.1 41.5 144.4 40.8C146.3 31.3 148 21.8 150.2 12.5C152.5 11.8 154.6 12.2 156.4 12.2C157.5 12.8 157.2 13.8 157.5 14.5C158.7 14.9 159.3 13.9 160.1 13.5C163.1 11.7 166.3 11 169.8 11.7C173.6 12.5 175.5 14.6 175.7 18.5C175.8 21.7 174.9 24.6 174.3 27.7C173.7 31.1 172.9 34.5 172.2 37.9C172.2 38.7 172.1 39.9 171.2 40.9Z" fill="black"></path>
<path d="M75.5001 12.0001C70.1001 10.5001 64.7001 10.8001 59.6001 13.4001C56.8001 14.8001 54.9001 17.0001 54.0001 20.4001C56.5001 21.1001 58.9001 20.9001 61.5001 20.5001C62.8001 17.5001 65.2001 16.3001 68.5001 16.5001C70.9001 16.7001 72.1001 17.4001 72.3001 19.1001C72.5001 20.9001 71.5001 22.5001 69.4001 23.1001C67.9001 23.6001 66.3001 23.8001 64.7001 24.0001C61.9001 24.4001 59.1001 24.6001 56.4001 25.7001C52.6001 27.3001 50.4001 30.2001 50.1001 34.3001C49.7001 38.3001 51.9001 41.0001 56.0001 41.5001C60.0001 42.0001 63.9001 41.5001 67.5001 39.4001C67.7001 39.3001 68.0001 39.3001 68.2001 39.2001C69.1001 39.5001 69.1001 40.7001 70.3001 40.9001C72.1001 40.9001 74.2001 41.1001 76.6001 40.6001C77.2001 33.4001 79.1001 26.6001 80.3001 19.6001C81.0001 15.5001 79.7001 13.2001 75.5001 12.0001ZM67.2001 35.2001C65.1001 36.8001 62.8001 37.0001 60.4001 36.3001C59.4001 36.0001 58.6001 35.1001 58.5001 34.1001C58.2001 31.8001 59.2001 30.2001 61.4001 29.3001C64.2001 28.2001 67.2001 27.9001 70.4001 27.7001C70.6001 30.8001 69.6001 33.4001 67.2001 35.2001Z" fill="black"></path>
<path d="M128.4 11.4001C119.2 13.2001 112.7 21.5001 113 31.0001C113.2 35.9001 115.9 39.6001 120.6 41.1001C127.6 43.3001 135.4 40.5001 139.5 34.3001C139.8 33.8001 140.4 33.3001 139.9 32.3001C138.3 32.0001 136.9 31.8001 135.2 31.9001C135.2 31.9001 133.4 32.8001 132.4 33.7001C130.2 35.7001 127.4 36.3001 124.5 35.6001C121.3 34.8001 120.1 31.9001 121.7 28.6001C128.4 28.0001 135.3 29.0001 142.2 28.1001C142.5 26.7001 142.7 25.9001 142.8 25.0001C144.1 15.8001 137.5 9.60014 128.4 11.4001ZM134.2 23.4001C130.5 23.4001 126.6 23.6001 122.6 23.2001C122.8 20.2001 124.7 18.8001 126.8 17.8001C128.9 16.8001 131.2 16.8001 133.2 18.0001C134.9 19.1001 135.3 21.1001 134.2 23.4001Z" fill="black"></path>
<path d="M111.8 10.1001C109.7 10.6001 106 14.7001 101.8 19.4001C97.6 24.1001 94.4 31.8001 94 33.0001C93.6 34.2001 92.8 33.8001 92.8 33.8001C95.6 30.1001 93.5 24.0001 93.5 24.0001L92.8 24.5001C93 23.5001 91.9 18.0001 91.9 18.0001L91.3 18.8001C91.3 18.8001 91.4 17.0001 90.8 13.1001C90.2 9.2001 87.3 8.6001 87.3 8.6001C84.5 12.6001 85.2 13.6001 85.5 20.8001C85.7 28.0001 89.5 35.6001 89.5 36.3001C89.6 37.0001 88 36.3001 88 36.3001C88.1 36.9001 90.3 37.4001 90.6 37.9001C90.9 38.4001 90 39.0001 90 39.0001C90.6 39.1001 91.2 38.7001 91 39.3001C90.8 39.9001 90 40.1001 90 40.1001C90 40.1001 90 40.1001 90.4 40.2001C90.8 40.3001 92 39.2001 92 39.2001C92 39.2001 92.2 39.1001 92.4 39.1001C92.4 39.3001 92.5 39.6001 92.6 40.0001L88.8 47.1001L89.2 47.3001L92.8 40.6001C93.5 43.0001 95 47.4001 95.1 47.6001L95.5 47.5001C94.8 45.4001 93.7 41.9001 93.1 40.1001L93.8 38.9001C94 38.9001 94.1 38.9001 94.1 39.1001C94.2 39.6001 95.3 39.9001 95.3 39.9001C95 39.8001 94.8 38.8001 94.8 38.8001C99.2 39.3001 99.6 37.2001 99.5 37.4001C99.4 37.5001 98.8 37.4001 98.5 37.3001H98.6C99.4 37.0001 101.2 35.3001 101.2 35.3001C99.8 35.6001 99 35.2001 99 35.2001C104.9 31.4001 106.1 27.6001 106.1 27.6001C105.7 27.8001 105.3 27.7001 105.3 27.7001C107.5 26.2001 110.3 21.8001 109.8 22.1001C109.3 22.3001 108.4 22.1001 108.6 22.0001C108.8 21.9001 111.8 19.3001 113.5 16.2001C114.9 13.1001 113.9 9.6001 111.8 10.1001ZM93.2 38.7001L93.1 38.8001L93.2 38.7001C93.2 38.8001 93.2 38.8001 93.2 38.7001ZM87.7 13.8001L92.7 39.1001L92.3 39.2001L87.7 13.8001ZM92.7 39.1001C92.8 39.1001 93 39.0001 93.1 39.0001L92.8 39.5001C92.7 39.4001 92.7 39.2001 92.7 39.1001ZM107.8 17.1001C107 18.1001 106.3 19.1001 105.5 20.1001C104 22.1001 102.6 24.2001 101.3 26.3001C98.7 30.4001 96.1 34.6001 93.7 38.8001L93.3 38.6001C95.8 34.3001 98.4 30.3001 101.1 26.2001C102.5 24.1001 103.9 22.0001 105.4 20.0001C106.2 19.0001 106.9 18.0001 107.8 17.1001C108.6 16.1001 109.4 15.2001 110.4 14.4001C109.4 15.2001 108.6 16.1001 107.8 17.1001Z" fill="black"></path>
</svg>