<svg version="1.1" xmlns="http://www.w3.org/2000/svg" xmlns:xlink="http://www.w3.org/1999/xlink" x="0px" y="0px" viewBox="0 0 26 26" style="enable-background:new 0 0 26 26;" xml:space="preserve">
	<path d="M21,5H5C3.3,5,2,6.3,2,8v0l0,0v10c0,1.7,1.3,3,3,3h16c1.7,0,3-1.3,3-3v-7.2c0,0,0,0,0,0V8
		C24,6.3,22.7,5,21,5z M6,7h14c0.9,0,1.7,0.6,1.9,1.5h0L13,14.8L4.1,8.5l0,0C4.3,7.6,5.1,7,6,7z M22,17c0,1.1-0.9,2-2,2H6
		c-1.1,0-2-0.9-2-2v-6.1l7.8,5.5c0.3,0.2,0.8,0.4,1.2,0.4c0,0,0,0,0,0c0.4,0,0.8-0.1,1.2-0.4l7.8-5.6V17z"></path>
</svg>