<svg version="1.1" xmlns="http://www.w3.org/2000/svg" xmlns:xlink="http://www.w3.org/1999/xlink" x="0px" y="0px" viewBox="0 0 26 26" style="enable-background:new 0 0 26 26;" xml:space="preserve">
	<path d="M17.2,24h-8c-1.7,0-3-1.3-3-3V5c0-1.7,1.3-3,3-3h8c1.7,0,3,1.3,3,3v16
		C20.2,22.7,18.8,24,17.2,24z M8.2,20c0,1.1,0.9,2,2,2h6c1.1,0,2-0.9,2-2v-2h-10V20z M18.2,16V8h-10v8H18.2z M16.2,4h-6
		c-1.1,0-2,0.9-2,2h10C18.2,4.9,17.3,4,16.2,4z M13.7,21h-1c-0.3,0-0.5-0.2-0.5-0.5v-1c0-0.3,0.2-0.5,0.5-0.5h1
		c0.3,0,0.5,0.2,0.5,0.5v1C14.2,20.8,14,21,13.7,21z"></path>
</svg>