<svg width="73" height="74" viewBox="0 0 103 74" fill="none" xmlns="http://www.w3.org/2000/svg">
<path d="M100.7 29.9999C99.3999 32.5999 97.3999 34.8999 94.8999 36.3999C92.2999 37.8999 89.3999 38.6999 86.4999 38.5999C83.4999 38.6999 80.4999 37.8999 77.8999 36.3999C75.3999 34.8999 73.3999 32.6999 72.0999 29.9999C70.6999 26.9999 69.9999 23.5999 69.9999 20.2999V18.9999C69.8999 15.5999 70.5999 12.2999 72.0999 9.2999C73.3999 6.6999 75.3999 4.3999 77.8999 2.8999C83.1999 -0.100098 89.5999 -0.100098 94.8999 2.8999C97.3999 4.3999 99.3999 6.5999 100.7 9.2999C102.1 12.2999 102.9 15.6999 102.8 18.9999V20.2999C102.8 23.5999 102.1 26.9999 100.7 29.9999ZM93.0999 18.8999C93.0999 15.4999 92.4999 12.8999 91.3999 11.0999C90.3999 9.3999 88.4999 8.2999 86.3999 8.3999C81.8999 8.3999 79.6999 11.8999 79.6999 18.8999V20.2999C79.6999 23.6999 80.2999 26.2999 81.3999 28.1999C82.3999 29.9999 84.3999 30.9999 86.3999 30.8999C88.3999 30.9999 90.2999 29.8999 91.2999 28.0999C92.4999 26.2999 92.9999 23.5999 92.9999 20.2999V18.8999H93.0999ZM50.3999 25.5999H45.9999V38.0999H36.4999V1.0999H51.3999C53.9999 0.999899 56.4999 1.4999 58.8999 2.3999C60.8999 3.0999 62.5999 4.4999 63.7999 6.1999C64.9999 7.9999 65.5999 10.0999 65.4999 12.2999C65.5999 14.5999 65.0999 16.9999 63.8999 18.9999C62.6999 20.6999 61.0999 22.0999 59.1999 22.9999L66.6999 37.6999V38.0999H56.4999L50.3999 25.5999ZM54.8999 9.9999C53.9999 9.1999 52.6999 8.6999 51.3999 8.7999H45.9999V17.8999H51.3999C52.6999 17.9999 53.8999 17.5999 54.8999 16.6999C56.4999 14.7999 56.4999 11.8999 54.8999 9.9999ZM40.0999 50.9999V65.1999C40.0999 66.6999 39.7999 68.2999 38.9999 69.5999C38.2999 70.7999 37.1999 71.7999 35.9999 72.3999C32.9999 73.6999 29.6999 73.6999 26.6999 72.3999C25.3999 71.7999 24.2999 70.7999 23.5999 69.5999C22.7999 68.2999 22.4999 66.7999 22.4999 65.1999V50.9999H28.1999V65.1999C28.0999 66.1999 28.3999 67.0999 28.9999 67.8999C29.5999 68.4999 30.4999 68.7999 31.3999 68.6999C32.2999 68.7999 33.0999 68.4999 33.6999 67.8999C34.2999 67.0999 34.4999 66.1999 34.4999 65.1999V50.9999H40.0999ZM24.7999 24.5999C22.3999 25.6999 19.7999 26.1999 17.0999 26.0999H11.6999V38.0999H2.19994V1.0999H17.0999C19.7999 0.999899 22.3999 1.5999 24.7999 2.7999C26.8999 3.7999 28.6999 5.3999 29.8999 7.3999C31.0999 9.3999 31.6999 11.6999 31.6999 13.9999C31.6999 16.1999 31.0999 18.3999 29.8999 20.2999C28.6999 22.1999 26.8999 23.6999 24.7999 24.5999ZM20.7999 10.2999C19.8999 9.2999 18.4999 8.6999 17.0999 8.7999H11.6999V18.3999H17.0999C18.3999 18.4999 19.7999 18.0999 20.7999 17.1999C21.5999 16.3999 22.0999 15.1999 21.9999 13.9999C22.0999 12.6999 21.6999 11.3999 20.7999 10.2999ZM5.39994 51.9999C6.89994 51.0999 8.59994 50.6999 10.2999 50.6999C13.2999 50.6999 15.4999 51.3999 16.8999 52.6999C18.3999 54.1999 19.2999 56.1999 19.3999 58.3999H13.9999C13.8999 57.4999 13.5999 56.6999 12.9999 55.9999C12.2999 55.3999 11.3999 55.1999 10.4999 55.1999C9.29994 55.1999 8.19994 55.7999 7.59994 56.6999C6.79994 58.0999 6.39994 59.6999 6.49994 61.2999V62.4999C6.39994 64.0999 6.69994 65.7999 7.59994 67.1999C8.39994 68.2999 9.69994 68.7999 10.9999 68.6999C11.5999 68.6999 12.1999 68.5999 12.6999 68.4999C13.0999 68.3999 13.4999 68.1999 13.7999 67.9999V64.9999H10.2999V60.9999H19.3999V70.2999C18.7999 70.8999 18.1999 71.2999 17.4999 71.6999C16.4999 72.1999 15.4999 72.5999 14.4999 72.7999C13.1999 73.0999 11.7999 73.2999 10.4999 73.2999C8.69994 73.2999 6.89994 72.8999 5.29994 72.0999C3.79994 71.1999 2.59994 69.9999 1.89994 68.3999C1.09994 66.5999 0.699935 64.5999 0.699935 62.5999V61.4999C0.599935 59.4999 1.09994 57.4999 1.89994 55.6999C2.79994 54.1999 3.99994 52.8999 5.39994 51.9999ZM53.1999 50.9999H54.6999L62.7999 72.9999H56.6999L55.5999 69.3999H48.4999L47.3999 72.9999H41.2999L49.2999 50.9999H53.1999ZM54.0999 64.8999L51.9999 57.8999L49.8999 64.8999H54.0999ZM77.6999 51.7999C78.8999 52.1999 79.8999 52.9999 80.5999 54.0999C81.2999 55.1999 81.6999 56.3999 81.5999 57.6999C81.6999 59.0999 81.2999 60.4999 80.5999 61.6999C79.8999 62.6999 78.8999 63.5999 77.7999 64.0999L82.2999 72.7999V72.9999H76.1999L72.4999 65.5999H69.9999V72.9999H64.3999V50.9999H73.2999C74.6999 50.9999 76.1999 51.2999 77.6999 51.7999ZM69.9999 61.0999H73.1999C73.9999 61.1999 74.6999 60.8999 75.2999 60.3999C76.2999 59.1999 76.1999 57.4999 75.2999 56.3999C74.6999 55.8999 73.9999 55.5999 73.1999 55.6999H69.9999V61.0999ZM92.0999 51.0999C93.9999 51.0999 95.7999 51.4999 97.3999 52.4999C98.8999 53.3999 100.2 54.6999 101.1 56.2999C102 57.9999 102.5 59.8999 102.4 61.7999V62.5999C102.4 64.4999 102 66.3999 101.1 68.0999C100.3 69.6999 98.9999 70.9999 97.4999 71.8999C95.8999 72.7999 94.0999 73.2999 92.2999 73.2999H84.8999V51.2999L92.0999 51.0999ZM90.4999 68.4999H92.1999C93.4999 68.5999 94.6999 67.9999 95.3999 66.9999C96.2999 65.6999 96.6999 64.0999 96.4999 62.4999V61.5999C96.5999 59.9999 96.1999 58.3999 95.3999 57.0999C94.5999 56.0999 93.2999 55.4999 91.9999 55.5999H90.3999L90.4999 68.4999Z" fill="black"></path>
</svg>