<svg xmlns="http://www.w3.org/2000/svg" width="16" height="16" viewBox="0 0 16 16">
  <metadata><!--?xpacket begin="﻿" id="W5M0MpCehiHzreSzNTczkc9d"?-->
<x:xmpmeta xmlns:x="adobe:ns:meta/" x:xmptk="Adobe XMP Core 5.6-c138 79.159824, 2016/09/14-01:09:01        ">
   <rdf:rdf xmlns:rdf="http://www.w3.org/1999/02/22-rdf-syntax-ns#">
      <rdf:description rdf:about=""></rdf:description>
   </rdf:rdf>
</x:xmpmeta>
                                                                                                    
                                                                                                    
                                                                                                    
                                                                                                    
                                                                                                    
                                                                                                    
                                                                                                    
                                                                                                    
                                                                                                    
                                                                                                    
                                                                                                    
                                                                                                    
                                                                                                    
                                                                                                    
                                                                                                    
                                                                                                    
                                                                                                    
                                                                                                    
                                                                                                    
                                                                                                    
                           
<!--?xpacket end="w"?--></metadata>
<defs>
    <style>
      .cls-1 {
        fill: #303640;
        fill-rule: evenodd;
      }
    </style>
  </defs>
  <path id="ic_category" class="cls-1" d="M180,2462a0.671,0.671,0,0,1,.467.19l6.332,6.35a0.657,0.657,0,0,1,0,.93l-4.336,4.34a0.652,0.652,0,0,1-.467.19,0.644,0.644,0,0,1-.465-0.19l-6.341-6.34A0.683,0.683,0,0,1,175,2467v-4.34a0.656,0.656,0,0,1,.66-0.66H180m-1.467,5.04a1.505,1.505,0,1,0-1.5-1.5,1.5,1.5,0,0,0,1.5,1.5M180,2460h-4.344a2.662,2.662,0,0,0-2.662,2.66V2467a2.691,2.691,0,0,0,.787,1.89l6.334,6.33a2.656,2.656,0,0,0,3.76,0l4.338-4.33a2.657,2.657,0,0,0,0-3.76l-6.33-6.35A2.647,2.647,0,0,0,180,2460h0Z" transform="translate(-173 -2460)"></path>
</svg>