<svg xmlns="http://www.w3.org/2000/svg" xmlns:xlink="http://www.w3.org/1999/xlink" width="65" height="63" viewBox="0 0 65 63"><defs><path id="mk6ka" d="M1279.01 3988.2a18.47 18.47 0 0 1-13.6 2.4c-4.07-.9-7.51-2.7-10-6.02l-2.13 1.35a1.23 1.23 0 0 1-1.4-.06c-.43-.32-.6-.85-.46-1.35l2.78-9.63a1.25 1.25 0 0 1 1.48-.87l9.17 2.08a1.24 1.24 0 0 1 .95 1c.09.5-.14 1-.56 1.27l-2.25 1.42c1.16 1.3 2.6 1.71 4.32 2.1a9.7 9.7 0 0 0 6.84-1.16 8.71 8.71 0 0 0 2.53-11.89 8.3 8.3 0 0 0-5.27-3.73c-2.15-.47-4.56-.32-6.41.89l-16 9c-3.92 2.55-8.72 3.87-13.27 2.88-4.58-1-8.5-3.75-11.02-7.75a17.8 17.8 0 0 1 5.26-24.32 17.25 17.25 0 0 1 23.3 4.16l2.16-1.36a1.26 1.26 0 0 1 1.88 1.42l-2.81 9.71a1.26 1.26 0 0 1-1.5.88l-9.26-2.1a1.25 1.25 0 0 1-.97-1.02c-.08-.5.14-1 .58-1.28l2.26-1.42a8.32 8.32 0 0 0-4.45-2.61 8.2 8.2 0 0 0-6.28 1.15 8.77 8.77 0 0 0-2.55 12 8.39 8.39 0 0 0 5.32 3.75 8.2 8.2 0 0 0 6.28-1.16l15.78-9.14a18.47 18.47 0 0 1 13.6-2.4c4.54 1 8.4 3.73 10.9 7.69a17.69 17.69 0 0 1-5.2 24.13zm2.7-22.53a14.18 14.18 0 0 0-9.03-6.37 15.54 15.54 0 0 0-11.35 1.98l-15.76 9.16a11.2 11.2 0 0 1-8.56 1.58c-3-.66-5.56-2.46-7.22-5.09a11.78 11.78 0 0 1 3.45-16.1 11.28 11.28 0 0 1 14.76 2.15v2.67l.43-.18-2.44 1.53 6.57 1 1.16-4.84.08-.04.2-.12-.23-.06.22-.94-1.1.7-1.4-.4-.86-.74.07-.04a14.3 14.3 0 0 0-19.1-3.2 14.79 14.79 0 0 0-4.35 20.21 14.34 14.34 0 0 0 19.96 4.42l15.74-9.18a12.62 12.62 0 0 1 9.1-1.56c2.96.65 5.5 2.44 7.14 5.04a11.7 11.7 0 0 1-3.42 15.97 12.62 12.62 0 0 1-9.1 1.57c-2.41-.53-4.45-1.33-6.05-3.2l.01-.01v-2.64l-.42.18 2.4-1.51-6.49-1-1.15 4.8-.07.05-.2.12.22.06-.22.93 1.1-.69 1.37.38.86.75-.07.04c2.05 2.62 4.82 3.93 8.09 4.64 3.7.82 8.14.12 11.34-1.98a14.7 14.7 0 0 0 4.31-20.04zM1265 3950h-3v-3h3zm14-6h-8v-3h8zm-11 0h-6v-3h6zm7 6h-7v-3h7zm10-6h-3v-3h3zm-9-6h-14v-3h14zm9 0h-6v-3h6zm-42 54h-9v-3h9zm-12 0h-6v-3h6zm7-6h-13v-3h13zm8 0h-5v-3h5zm-8 12h-13v-3h13z"></path></defs><g><g transform="translate(-1222 -3935)"><use fill="#303640" xlink:href="#mk6ka"></use></g></g></svg>