<svg xmlns="http://www.w3.org/2000/svg" xmlns:xlink="http://www.w3.org/1999/xlink" width="59" height="69" viewBox="0 0 59 69"><defs><path id="1e2ya" d="M395.9 4284l-6.9-7 6.9-7 2.1 2.1-4.82 4.9 4.81 4.89zm16.18 0l-2.08-2.11 4.81-4.9-4.81-4.88 2.08-2.11 6.91 7zm-9.14 1.98l-2.93-.73 5.04-18.24 2.93.73zm23.94-19.1a2 2 0 1 1 3.8-1.23 2 2 0 0 1-3.8 1.23zm-3.28-6.4a1.99 1.99 0 0 1 .45-2.78 1.99 1.99 0 0 1 2.79.42 2 2 0 0 1-1.61 3.18c-.62 0-1.24-.28-1.63-.82zm-5.08-5.09c-.9-.64-1.1-1.9-.44-2.78a2 2 0 1 1 .44 2.79zm-29.4 44.45a2 2 0 1 1 2.36-3.23 2 2 0 0 1-2.35 3.23zm-5.96-5.96v-.01zm-3.84-7.52a2 2 0 1 1 3.8-1.24 2 2 0 0 1-3.8 1.24zm26.68 19.6v3.53a1.5 1.5 0 0 1-2.56 1.05l-8-7.99a1.5 1.5 0 0 1-.06-2.05l8-9a1.5 1.5 0 0 1 2.62 1v4.42c10.6-.78 19-9.63 19-20.42v-3c0-.83.66-1.5 1.5-1.5h6c.83 0 1.5.67 1.5 1.5v3a29.54 29.54 0 0 1-28 29.46zm25-30.96h-3v1.5a23.51 23.51 0 0 1-22 23.42v.08h-1.35c-.33 0-1.5-1.59-1.5-2 0-.81.69-3.03.69-3.03l-5.28 6.46 5.28 6.54s-.59-2.74-.59-3.41c0-.46 1.24-1.56 1.56-1.56H408v-.29a26.5 26.5 0 0 0 23-26.21zm-24.57-13.58a1.47 1.47 0 0 1-1.62.32c-.55-.22-.81-1.14-.81-1.74v-4c-11.03.32-20 9.4-20 20.5v3c0 .83-.67 1.5-1.5 1.5h-6a1.5 1.5 0 0 1-1.5-1.5v-3a29.63 29.63 0 0 1 29-29.5v-4c0-.62.28-.71.85-.93a1.48 1.48 0 0 1 1.64.4l7.9 8.95c.53.6.5 1.49-.05 2.05zm-.2-15.35s.23 1.5.23 2.15c0 .29-.9 1.78-1.25 1.78H403v-.03c-13.9.78-25 12.42-25 26.53v1.5h3v-1.5a23.51 23.51 0 0 1 22.9-23.47v-.03h1.42c.35 0 1.21 2.28 1.21 2.3 0 .92-.31 3-.31 3l5.79-5.95z"></path></defs><g><g transform="translate(-375 -4242)"><use fill="#303640" xlink:href="#1e2ya"></use></g></g></svg>