<svg xmlns="http://www.w3.org/2000/svg" xmlns:xlink="http://www.w3.org/1999/xlink" width="80" height="67" viewBox="0 0 80 67"><defs><path id="5mfia" d="M877 4238h-74v7h74zm-74 61h74v-51h-74zm74-64a3 3 0 0 1 3 3v61a3 3 0 0 1-3 3h-74a3 3 0 0 1-3-3v-61a3 3 0 0 1 3-3zm-67 19h-4v-3h4zm20 0h-17v-3h17zm-7 6h-17v-3h17zm-14 18h-3v-3h3zm-1-36.5a1.5 1.5 0 1 1-3 0 1.5 1.5 0 0 1 3 0zm5 0a1.5 1.5 0 1 1-3 0 1.5 1.5 0 0 1 3 0zm5 0a1.5 1.5 0 1 1-3 0 1.5 1.5 0 0 1 3 0zm-1 48.5h-11v-3h11zm11 6h-16v-3h16zm8 0h-5v-3h5zm3.98-8c-15.07 0-27-13.44-27.5-14.01a1.5 1.5 0 0 1 0-1.98c.5-.58 12.43-14.01 27.5-14.01 15.08 0 27.01 13.43 27.51 14 .5.57.5 1.42 0 1.99-.5.57-12.43 14-27.5 14zm-24.32-15a47.91 47.91 0 0 0 12.3 8.95 14.92 14.92 0 0 1 0-17.91 47.9 47.9 0 0 0-12.3 8.96zm48.65 0a47.95 47.95 0 0 0-12.3-8.96 14.92 14.92 0 0 1 0 17.92 47.7 47.7 0 0 0 12.3-8.96zM840 4261c-6.62 0-12 5.39-12 12a12.01 12.01 0 0 0 24 0c0-6.61-5.38-12-12-12zm-.02 19a7 7 0 1 1 .02-14.02 7 7 0 0 1-.02 14.02zm.02-11.01a4.01 4.01 0 0 0 0 8.02 4.01 4.01 0 0 0 0-8.02zm0-15h-7v-3h7zm10 42h-11v-3h11zm-36-30h-8v-3h8zm0 18h-8v-3h8zm10 6h-4v-3h4zm-15 6h-3v-3h3zm0-24h-3v-3h3zm45-18h-11v-3h11zm11 6h-8v-3h8zm-4-6h-4v-3h4zm10 0h-7v-3h7z"></path></defs><g><g transform="translate(-800 -4235)"><use fill="#303640" xlink:href="#5mfia"></use></g></g></svg>