<svg xmlns="http://www.w3.org/2000/svg" xmlns:xlink="http://www.w3.org/1999/xlink" width="65" height="77" viewBox="0 0 65 77"><defs><path id="gug7a" d="M831 3937a22 22 0 1 1 0 44 22 22 0 0 1 0-44zm-19 22a19 19 0 1 0 38 0 19 19 0 0 0-38 0zm10.9 7l-6.9-7 6.9-7 2.1 2.1-4.82 4.9 4.81 4.89zm16.19 0l-2.1-2.11 4.82-4.9-4.81-4.88 2.09-2.11 6.9 7zm-9.15 1.99l-2.93-.74 5.04-18.24 2.93.73zm.9-36.1a27.11 27.11 0 0 0-27.02 27.14 27.11 27.11 0 0 0 27.02 27.14 27.11 27.11 0 0 0 27.03-27.14 27.11 27.11 0 0 0-27.03-27.13s14.9 0 0 0zm0-3a30.09 30.09 0 0 1 30.03 30.14 30.1 30.1 0 0 1-6.65 18.93l7.96 13.97c.81 1.42.46 3.56-1.53 3.56h-.08s-8.72.4-9.73.74c-.67.55-5.27 8.92-5.27 8.92-.44.45-1.04.72-1.66.72-.86 0-1.78-.52-2.41-1.83l-8.5-14.93a30.34 30.34 0 0 1-4.16.01l-9.34 14.92c-.64 1.3-1.56 1.83-2.42 1.83-.63 0-1.22-.27-1.66-.72 0 0-4.6-8.37-5.27-8.92-1-.34-9.74-.74-9.74-.74h-.08c-1.98 0-2.34-2.14-1.52-3.56l8.74-13.86a30.1 30.1 0 0 1-6.73-19.04 30.09 30.09 0 0 1 30.02-30.15zm21.36 51.69a31.11 31.11 0 0 1-7.59 5.47 30.36 30.36 0 0 1-8.34 2.84l7.57 13.18c4.07-7.34 4.67-7.82 5.12-8.18l.42-.34.5-.17c.37-.13 1.3-.44 9.2-.83l-6.88-11.97s2.24-2.2 0 0zm-42.4 0l-7.9 11.97c7.9.39 8.85.7 9.2.83l.51.17.42.34c.45.36 1.05.84 5.12 8.18l8.57-13.18a30.36 30.36 0 0 1-8.34-2.84 31.08 31.08 0 0 1-7.59-5.47z"></path></defs><g><g transform="translate(-798 -3929)"><use fill="#303640" xlink:href="#gug7a"></use></g></g></svg>